<svg width="56" height="56" viewBox="0 0 56 56" fill="none" xmlns="http://www.w3.org/2000/svg">
<g clip-path="url(#clip0_4658_24164)">
<path d="M55.2165 7.94141L48.0572 0.782045C47.0144 -0.260737 45.3175 -0.260627 44.2748 0.782045L30.795 14.2616C30.4575 14.5993 30.4575 15.1464 30.795 15.484C31.1325 15.8214 31.6798 15.8214 32.0173 15.484L45.4969 2.00442C45.6756 1.8257 45.9132 1.72738 46.1658 1.72738C46.4184 1.72738 46.656 1.8257 46.8348 2.00442L53.9942 9.16376C54.1728 9.3424 54.2712 9.57992 54.2712 9.83272C54.2712 10.0854 54.1728 10.323 53.9942 10.5015L52.2372 12.2586L47.6337 7.65517C47.2962 7.31775 46.749 7.31775 46.4115 7.65517C46.074 7.99281 46.074 8.53992 46.4115 8.87752L51.0148 13.481L49.0075 15.4882L46.9843 13.465C46.6468 13.1276 46.0996 13.1276 45.762 13.465C45.4245 13.8027 45.4245 14.3498 45.762 14.6874L47.7852 16.7106L45.7779 18.7179L43.7547 16.6947C43.4172 16.3573 42.8699 16.3573 42.5324 16.6947C42.1948 17.0323 42.1948 17.5794 42.5324 17.917L44.5556 19.9402L42.5483 21.9475L37.9448 17.3439C37.6073 17.0066 37.06 17.0064 36.7225 17.3439C36.385 17.6816 36.385 18.2286 36.7225 18.5663L41.326 23.1698L39.3186 25.1771L37.2954 23.1539C36.9579 22.8165 36.4107 22.8165 36.0732 23.1539C35.7356 23.4916 35.7356 24.0386 36.0732 24.3763L38.0963 26.3994L36.3981 28.0976L27.9008 19.6003L29.4813 18.0198C29.8188 17.6822 29.8188 17.135 29.4813 16.7974C29.1438 16.46 28.5966 16.46 28.2591 16.7974L26.6784 18.378L10.7351 2.43514C9.62628 1.3263 8.15196 0.715655 6.58389 0.715655C5.01577 0.715764 3.54151 1.32641 2.43277 2.43525C1.32382 3.5441 0.71318 5.01825 0.71318 6.58646C0.71318 8.15456 1.32382 9.62888 2.43266 10.7377L18.3757 26.6807L0.782086 44.2747C-0.260695 45.3176 -0.260695 47.0143 0.782086 48.0572L7.94145 55.2166C8.44652 55.7218 9.1182 56 9.83268 56C10.5471 56 11.2188 55.7218 11.7239 55.2166L29.3177 37.6228L30.5708 38.8759C30.9084 39.2134 31.4556 39.2134 31.7931 38.8759C32.1306 38.5383 32.1306 37.9912 31.7931 37.6536L30.0634 35.9239C30.0298 35.8707 29.9904 35.8202 29.9442 35.7739C29.898 35.7277 29.8474 35.6883 29.7944 35.6547L11.0668 16.9272L13.3846 14.6094L14.8176 16.0425C14.9864 16.2111 15.2076 16.2956 15.4288 16.2956C15.6501 16.2956 15.8712 16.2111 16.04 16.0425C16.3776 15.7049 16.3776 15.1578 16.04 14.8201L14.6071 13.3872L16.9248 11.0694L26.0663 20.2109C26.0666 20.2113 26.067 20.2117 26.0674 20.2121C26.0678 20.2125 26.0682 20.2127 26.0686 20.2132L35.7024 29.847C35.7263 29.8786 35.7517 29.9094 35.7804 29.9382C35.8092 29.9669 35.84 29.9923 35.8715 30.0162L48.6976 42.8423L46.3799 45.1601L33.4391 32.2193C33.4313 32.2109 33.4243 32.202 33.4161 32.1939L28.2556 27.0333C28.247 27.0247 28.2377 27.0173 28.229 27.0092L19.1133 17.8937C18.7758 17.5562 18.2286 17.5562 17.8911 17.8937C17.5536 18.2313 17.5536 18.7784 17.8911 19.116L45.1572 46.3822L42.8394 48.7L34.6258 40.4862C34.2883 40.1489 33.7411 40.1489 33.4035 40.4862C33.066 40.8239 33.066 41.371 33.4035 41.7086L42.2284 50.5334C42.3122 50.6174 42.4161 50.685 42.5267 50.7279L52.9696 54.7823C53.1344 54.8462 53.306 54.8773 53.4764 54.8773C53.842 54.8773 54.2009 54.7342 54.4688 54.4662C54.8616 54.0731 54.9852 53.4847 54.7838 52.967L50.7251 42.5289C50.6823 42.4186 50.6145 42.3145 50.5308 42.2308L37.6203 29.3203L55.2165 11.7239C56.2594 10.681 56.2594 8.98432 55.2165 7.94141ZM28.0958 36.4006L26.3997 38.0962L24.3764 36.073C24.0389 35.7356 23.4917 35.7356 23.1542 36.073C22.8167 36.4106 22.8167 36.9578 23.1542 37.2954L25.1774 39.3186L23.17 41.3259L18.5666 36.7225C18.2291 36.385 17.6818 36.385 17.3443 36.7225C17.0068 37.0601 17.0068 37.6072 17.3443 37.9448L21.9478 42.5483L19.9404 44.5557L17.9172 42.5325C17.5797 42.195 17.0324 42.195 16.6949 42.5325C16.3574 42.8701 16.3574 43.4172 16.6949 43.7548L18.7182 45.7779L16.7108 47.7853L14.6876 45.7621C14.35 45.4246 13.8028 45.4246 13.4653 45.7621C13.1278 46.0998 13.1278 46.6468 13.4653 46.9845L15.4885 49.0077L13.4812 51.015L8.87772 46.4115C8.5402 46.0742 7.99296 46.0742 7.65543 46.4115C7.3179 46.7492 7.3179 47.2963 7.65543 47.6339L12.2589 52.2373L10.5019 53.9943C10.3232 54.173 10.0856 54.2714 9.833 54.2714C9.58036 54.2714 9.34276 54.173 9.16404 53.9943L2.00468 46.8348C1.63587 46.466 1.63587 45.8658 2.00468 45.497L19.5984 27.9032L28.0958 36.4006ZM3.65493 9.51544C2.0399 7.90039 2.0399 5.27254 3.65493 3.65751C5.26996 2.04238 7.89781 2.04238 9.51284 3.65751L12.2446 6.38926L6.38668 12.2472L3.65493 9.51544ZM12.774 12.7754C12.7739 12.7756 12.7736 12.7757 12.7736 12.7759C12.7733 12.7761 12.7732 12.7763 12.773 12.7764L9.8446 15.7049L7.60905 13.4694L13.467 7.61142L15.7024 9.84696L12.774 12.7754ZM52.9043 52.9026L44.388 49.5963L49.5943 44.39L52.9043 52.9026Z" fill="#127AFF"/>
<path d="M33.4417 32.2193L46.3826 45.1601L45.16 46.3823L17.8938 19.116C17.5562 18.7784 17.5562 18.2313 17.8938 17.8937C18.2313 17.5563 18.7785 17.5563 19.1161 17.8937L28.2317 27.0092C28.2405 27.0173 28.2497 27.0247 28.2583 27.0332L33.4188 32.1939C33.427 32.202 33.434 32.2108 33.4417 32.2193Z" fill="#127AFF"/>
</g>
<defs>
<clipPath id="clip0_4658_24164">
<rect width="56" height="56" fill="white"/>
</clipPath>
</defs>
</svg>
