<svg width="56" height="56" viewBox="0 0 56 56" fill="none" xmlns="http://www.w3.org/2000/svg">
<g clip-path="url(#clip0_7928_32112)">
<path d="M23.5168 17.6H32.9568C33.5168 17.6 33.7568 17.2 33.7568 16.8C33.7568 16.4 33.5168 16 32.9568 16H23.5168C22.9568 16 22.7168 16.4 22.7168 16.8C22.7168 17.2 22.9568 17.6 23.5168 17.6Z" fill="#127AFF"/>
<path d="M23.5168 25.5199H32.9568C33.5168 25.5199 33.7568 25.1199 33.7568 24.7199C33.7568 24.3199 33.5168 23.9199 32.9568 23.9199H23.5168C22.9568 23.9199 22.7168 24.3199 22.7168 24.7199C22.7168 25.1199 22.9568 25.5199 23.5168 25.5199Z" fill="#127AFF"/>
<path d="M23.5168 33.4398H32.9568C33.5168 33.4398 33.7568 33.0398 33.7568 32.6398C33.7568 32.2398 33.5168 31.8398 32.9568 31.8398H23.5168C22.9568 31.8398 22.7168 32.2398 22.7168 32.6398C22.7168 33.0398 22.9568 33.4398 23.5168 33.4398Z" fill="#127AFF"/>
<path d="M23.5168 41.4398H32.9568C33.5168 41.4398 33.7568 41.0398 33.7568 40.6398C33.7568 40.2398 33.5168 39.8398 32.9568 39.8398H23.5168C22.9568 39.8398 22.7168 40.2398 22.7168 40.6398C22.7168 41.0398 22.9568 41.4398 23.5168 41.4398Z" fill="#127AFF"/>
<path d="M23.5168 49.3598H32.9568C33.5168 49.3598 33.7568 48.9598 33.7568 48.5598C33.7568 48.1598 33.5168 47.7598 32.9568 47.7598H23.5168C22.9568 47.7598 22.7168 48.1598 22.7168 48.5598C22.7168 48.8798 22.9568 49.3598 23.5168 49.3598Z" fill="#127AFF"/>
<path d="M40.8781 24.8008C40.4781 24.8008 40.0781 25.0408 40.0781 25.6008V28.3208C40.0781 28.5608 40.1581 28.8008 40.3181 28.8808C40.4781 29.0408 40.6381 29.0408 40.8781 29.0408C41.2781 29.0408 41.6781 28.8008 41.6781 28.2408V25.6008C41.6781 25.3608 41.5981 25.2008 41.4381 25.0408C41.2781 24.8808 41.0381 24.8008 40.8781 24.8008Z" fill="#127AFF"/>
<path d="M45.1184 24.8809C44.7184 24.8809 44.3184 25.1209 44.3184 25.6809V28.4009C44.3184 28.6409 44.3984 28.8809 44.5584 28.9609C44.7184 29.1209 44.8784 29.1209 45.1184 29.1209C45.5184 29.1209 45.9184 28.8809 45.9184 28.3209V25.6009C45.9184 25.3609 45.8384 25.2009 45.6784 25.0409C45.5184 24.8809 45.2784 24.8809 45.1184 24.8809Z" fill="#127AFF"/>
<path d="M40.8781 31.3594C40.4781 31.3594 40.0781 31.5994 40.0781 32.1594V34.8794C40.0781 35.1194 40.1581 35.3594 40.3181 35.4394C40.4781 35.5994 40.6381 35.5994 40.8781 35.5994C41.2781 35.5994 41.6781 35.3594 41.6781 34.7994V32.0794C41.6781 31.8394 41.5981 31.6794 41.4381 31.5194C41.2781 31.3594 41.0381 31.3594 40.8781 31.3594Z" fill="#127AFF"/>
<path d="M45.1184 31.4395C44.7184 31.4395 44.3184 31.6795 44.3184 32.2395V34.9595C44.3184 35.1995 44.3984 35.4395 44.5584 35.5195C44.7184 35.6795 44.8784 35.6795 45.1184 35.6795C45.5184 35.6795 45.9184 35.4395 45.9184 34.8795V32.0795C45.9184 31.8395 45.8384 31.6795 45.6784 31.5195C45.5184 31.4395 45.2784 31.4395 45.1184 31.4395Z" fill="#127AFF"/>
<path d="M40.8781 37.9199C40.3981 37.9199 40.0781 38.3199 40.0781 38.7199V41.4399C40.0781 41.6799 40.1581 41.9199 40.3181 41.9999C40.4781 42.1599 40.6381 42.1599 40.8781 42.1599C41.2781 42.1599 41.6781 41.9199 41.6781 41.3599V38.6399C41.6781 38.1599 41.2781 37.9199 40.8781 37.9199Z" fill="#127AFF"/>
<path d="M45.1184 37.9199C44.6384 37.9199 44.3184 38.3199 44.3184 38.7199V41.4399C44.3184 41.6799 44.3984 41.9199 44.5584 41.9999C44.7184 42.1599 44.8784 42.1599 45.1184 42.1599C45.5184 42.1599 45.9184 41.9199 45.9184 41.3599V38.6399C45.9184 38.1599 45.5184 37.9199 45.1184 37.9199Z" fill="#127AFF"/>
<path d="M49.3586 29.2009C49.7586 29.2009 50.1586 28.9609 50.1586 28.4009V25.6009C50.1586 25.3609 50.0786 25.2009 49.9186 25.0409C49.7586 24.8809 49.5186 24.8809 49.3586 24.8809C48.9586 24.8809 48.5586 25.1209 48.5586 25.6809V28.4009C48.5586 28.6409 48.6386 28.8809 48.7986 28.9609C48.9586 29.1209 49.1186 29.2009 49.3586 29.2009Z" fill="#127AFF"/>
<path d="M49.3586 35.7595C49.7586 35.7595 50.1586 35.5195 50.1586 34.9595V32.1595C50.1586 31.9195 50.0786 31.7595 49.9186 31.5995C49.7586 31.4395 49.5186 31.4395 49.3586 31.4395C48.9586 31.4395 48.5586 31.6795 48.5586 32.2395V34.9595C48.5586 35.1995 48.6386 35.4395 48.7986 35.5195C48.9586 35.6795 49.1186 35.7595 49.3586 35.7595Z" fill="#127AFF"/>
<path d="M49.3586 42.2399C49.7586 42.2399 50.1586 41.9999 50.1586 41.4399V38.7199C50.1586 38.2399 49.7586 37.9199 49.3586 37.9199C48.9586 37.9199 48.5586 38.3199 48.5586 38.7199V41.4399C48.5586 41.6799 48.6386 41.9199 48.7986 41.9999C48.9586 42.1599 49.1186 42.2399 49.3586 42.2399Z" fill="#127AFF"/>
<path d="M55.1983 54.16H54.3183V21.52C54.3183 20.8 53.6783 20.16 52.9583 20.16H50.7983V17.28C50.7983 16.56 50.1583 15.92 49.4383 15.92H48.3983V12.96C48.3983 12.24 47.7583 11.6 47.0383 11.6H45.9983V5.6C45.9983 4.56 44.3983 4.56 44.3983 5.6V11.68H43.3583C42.6383 11.68 41.9983 12.32 41.9983 13.04V16H40.7983C40.0783 16 39.4383 16.64 39.4383 17.36V20.24H37.4383V5.52C37.3583 4.8 36.7983 4.16 35.9983 4.16H33.8383V1.36C33.8383 0.64 33.1983 0 32.4783 0H23.9183C23.1983 0 22.5583 0.64 22.5583 1.36V4.16H20.3983C19.6783 4.16 19.0383 4.8 19.0383 5.52V14.4H3.51828C2.79828 14.4 2.15828 15.04 2.15828 15.76V54.24H1.03828C0.478281 54.24 0.238281 54.64 0.238281 55.04C0.238281 55.44 0.478281 55.84 1.03828 55.84H55.1983C55.7583 55.84 55.9983 55.44 55.9983 55.04C55.9983 54.64 55.7583 54.16 55.1983 54.16ZM43.5183 16V13.28H46.7983V16H43.5183ZM41.0383 20.08V17.52H49.1183V20.08H41.0383ZM47.3583 44.96H42.8783C42.1583 44.96 41.5183 45.6 41.5183 46.32V54.08H37.4383V21.68H52.7183V54.16H48.7183V46.32C48.7183 45.6 48.0783 44.96 47.3583 44.96ZM47.1183 46.64V54.16H43.1183V46.64H47.1183ZM24.1583 4.24V1.68H32.3183V4.24H24.1583ZM35.8383 5.76V9.28H20.6383V5.76H35.8383ZM35.8383 10.96V54.16H20.6383V10.96H35.8383ZM18.9583 16V54.24H3.75828V16H18.9583Z" fill="#127AFF"/>
<path d="M7.11977 37.1206H9.35977C10.0798 37.1206 10.7198 36.4806 10.7198 35.7606V20.0006C10.7198 19.2806 10.0798 18.6406 9.35977 18.6406H7.11977C6.39977 18.6406 5.75977 19.2806 5.75977 20.0006V35.7606C5.75977 36.4806 6.31977 37.1206 7.11977 37.1206ZM7.35977 35.5206V20.2406H9.11977V35.5206H7.35977Z" fill="#127AFF"/>
<path d="M13.6784 51.439H15.9984C16.7184 51.439 17.3584 50.799 17.3584 50.079V34.319C17.2784 33.599 16.7184 32.959 15.9984 32.959H13.6784C12.9584 32.959 12.3184 33.599 12.3184 34.319V50.079C12.3184 50.799 12.9584 51.439 13.6784 51.439ZM13.9184 49.839V34.639H15.6784V49.839H13.9184Z" fill="#127AFF"/>
<path d="M13.6784 30.3195H15.9984C16.7184 30.3195 17.3584 29.6795 17.3584 28.9595V26.7995C17.2784 26.0795 16.7184 25.4395 15.9984 25.4395H13.6784C12.9584 25.4395 12.3184 26.0795 12.3184 26.7995V28.9595C12.3184 29.7595 12.9584 30.3195 13.6784 30.3195ZM13.9184 28.7195V27.0395H15.6784V28.7195H13.9184Z" fill="#127AFF"/>
<path d="M7.11977 44.7198H9.35977C10.0798 44.7198 10.7198 44.0798 10.7198 43.3598V41.1998C10.7198 40.3998 10.1598 39.8398 9.35977 39.8398H7.11977C6.39977 39.8398 5.75977 40.4798 5.75977 41.1998V43.3598C5.75977 44.0798 6.31977 44.7198 7.11977 44.7198ZM7.35977 43.0398V41.4398H9.11977V43.0398H7.35977Z" fill="#127AFF"/>
</g>
<defs>
<clipPath id="clip0_7928_32112">
<rect width="56" height="56" fill="white"/>
</clipPath>
</defs>
</svg>
