<svg width="56" height="56" viewBox="0 0 56 56" fill="none" xmlns="http://www.w3.org/2000/svg">
<path d="M19.2791 16.3201H7.03906V18.0001H19.2791V16.3201Z" fill="#127AFF"/>
<path d="M15.7591 19.8401H7.03906V21.5201H15.7591V19.8401Z" fill="#127AFF"/>
<path d="M19.2791 25.1201H7.03906V26.8001H19.2791V25.1201Z" fill="#127AFF"/>
<path d="M15.7591 28.5598H7.03906V30.2398H15.7591V28.5598Z" fill="#127AFF"/>
<path d="M19.2791 33.8401H7.03906V35.5201H19.2791V33.8401Z" fill="#127AFF"/>
<path d="M13.9991 37.3599H7.03906V39.0399H14.0791V37.3599H13.9991Z" fill="#127AFF"/>
<path d="M55.04 46.3201L45.68 36.9601L43.92 38.7201L40.24 35.0401C41.92 33.0401 43.04 30.4801 43.04 27.6001C43.04 21.8401 38.72 17.0401 33.12 16.4001V4.08008H7.52L0 11.5201V51.2001H33.12V41.6001H31.44V49.6001H1.68V12.7201H8.72V5.76008H31.6V16.3201C25.44 16.4001 20.48 21.4401 20.48 27.6001C20.48 33.8401 25.52 38.9601 31.84 38.9601C34.64 38.9601 37.28 37.9201 39.28 36.1601L42.96 39.8401L41.04 41.6001L50.4 50.9601C51.04 51.6001 51.84 51.9201 52.72 51.9201C53.6 51.9201 54.4 51.6001 55.04 50.9601C56.32 49.6801 56.32 47.6001 55.04 46.3201ZM7.04 11.1201H2.8L6.96 6.88008V11.1201H7.04ZM31.68 37.2801C26.32 37.2801 22 32.9601 22 27.6001C22 22.2401 26.32 17.9201 31.68 17.9201C37.04 17.9201 41.36 22.2401 41.36 27.6001C41.36 32.9601 37.04 37.2801 31.68 37.2801ZM53.84 49.7601C53.52 50.0801 53.12 50.2401 52.64 50.2401C52.16 50.2401 51.76 50.0801 51.44 49.7601L43.36 41.6001L45.68 39.2801L53.84 47.4401C54.56 48.0801 54.56 49.1201 53.84 49.7601Z" fill="#127AFF"/>
<path d="M31.9181 23.2803C31.8381 23.2803 31.7581 23.2803 31.6781 23.2803C31.5981 23.2803 31.5181 23.2803 31.4381 23.2803C27.3581 23.4403 24.1581 26.8803 24.0781 27.0403L25.2781 28.1603C25.2781 28.1603 26.1581 27.2003 27.5181 26.3203C27.3581 26.7203 27.2781 27.2003 27.2781 27.6003C27.2781 30.0003 29.1981 31.9203 31.5981 31.9203C33.9981 31.9203 35.9181 30.0003 35.9181 27.6003C35.9181 27.1203 35.8381 26.7203 35.6781 26.3203C37.0381 27.2003 37.9181 28.1603 37.9181 28.1603L39.1181 27.0403C39.1981 26.8803 35.9981 23.4403 31.9181 23.2803ZM31.6781 30.3203C30.2381 30.3203 29.0381 29.1203 29.0381 27.6803C29.0381 26.2403 30.1581 25.1203 31.5981 25.0403C31.6781 25.0403 31.6781 25.0403 31.7581 25.0403C31.8381 25.0403 31.8381 25.0403 31.9181 25.0403C33.3581 25.1203 34.4781 26.3203 34.4781 27.6803C34.3981 29.1203 33.1981 30.3203 31.6781 30.3203Z" fill="#127AFF"/>
</svg>
