<svg width="56" height="56" viewBox="0 0 56 56" fill="none" xmlns="http://www.w3.org/2000/svg">
<path d="M41.1991 23.4399H17.8391C17.3591 23.4399 17.0391 23.8399 17.0391 24.2399C17.0391 24.6399 17.4391 25.0399 17.8391 25.0399H41.1991C41.6791 25.0399 41.9991 24.6399 41.9991 24.2399C41.9991 23.8399 41.6791 23.4399 41.1991 23.4399Z" fill="#127AFF"/>
<path d="M27.1991 16H17.8391C17.3591 16 17.0391 16.4 17.0391 16.8C17.0391 17.2 17.4391 17.6 17.8391 17.6H27.1991C27.6791 17.6 27.9991 17.2 27.9991 16.8C27.9991 16.4 27.6791 16 27.1991 16Z" fill="#127AFF"/>
<path d="M41.1991 30.96H17.8391C17.3591 30.96 17.0391 31.36 17.0391 31.76C17.0391 32.24 17.4391 32.56 17.8391 32.56H41.1991C41.6791 32.56 41.9991 32.16 41.9991 31.76C41.9991 31.28 41.6791 30.96 41.1991 30.96Z" fill="#127AFF"/>
<path d="M41.1991 38.3999H17.8391C17.3591 38.3999 17.0391 38.7999 17.0391 39.1999C17.0391 39.6799 17.4391 39.9999 17.8391 39.9999H41.1991C41.6791 39.9999 41.9991 39.5999 41.9991 39.1999C41.9991 38.7199 41.6791 38.3999 41.1991 38.3999Z" fill="#127AFF"/>
<path d="M41.0409 45.7603H17.7609C17.2809 45.7603 16.9609 46.1603 16.9609 46.5603C16.9609 47.0403 17.3609 47.3603 17.7609 47.3603H41.1209C41.6009 47.3603 41.9209 46.9603 41.9209 46.5603C41.8409 46.0803 41.5209 45.7603 41.0409 45.7603Z" fill="#127AFF"/>
<path d="M5.75781 4.48008V46.8001C5.75781 49.2001 7.75781 51.2001 10.1578 51.2001H10.3978V51.4401C10.3978 53.8401 12.3978 55.8401 14.7978 55.8401H45.9178C48.3178 55.8401 50.3178 53.8401 50.3178 51.4401V18.3201L45.5978 13.6801V4.48008C45.5978 2.08008 43.5978 0.0800781 41.1978 0.0800781H10.0778C7.67781 0.160078 5.75781 2.08008 5.75781 4.48008ZM10.3978 49.6001C8.71781 49.6001 7.35781 48.2401 7.35781 46.5601V4.80008C7.35781 3.12008 8.71781 1.76008 10.3978 1.76008H40.9578C42.6378 1.76008 43.9978 3.12008 43.9978 4.80008V12.0801L36.7178 4.80008H14.7978C12.3978 4.80008 10.3978 6.80008 10.3978 9.20008V49.6001ZM45.5978 54.2401H15.0378C13.3578 54.2401 11.9978 52.8801 11.9978 51.2001V9.44008C11.9978 7.76008 13.3578 6.40008 15.0378 6.40008H35.5978V19.4401H48.6378V51.2001C48.6378 52.8801 47.2778 54.2401 45.5978 54.2401ZM47.5178 17.8401H37.1978V7.52008L47.5178 17.8401Z" fill="#127AFF"/>
</svg>
