<svg width="56" height="56" viewBox="0 0 56 56" fill="none" xmlns="http://www.w3.org/2000/svg">
<path d="M12.9568 17.4449C13.0325 17.1422 13.1082 16.7638 13.1082 16.4611C13.1082 14.6449 11.6703 13.207 9.85412 13.207C8.0379 13.207 6.60006 14.6449 6.60006 16.4611C6.60006 16.7638 6.67574 17.1422 6.75141 17.4449C5.08655 18.5043 4.10277 20.3205 4.10277 22.2881V23.953C4.10277 25.8449 5.01087 27.5854 6.60006 28.6449V30.3854C6.60006 30.6881 6.44871 30.9908 6.14601 31.2178L3.42168 32.5043C2.28655 33.0341 1.60547 34.1692 1.60547 35.38V45.8989C1.60547 46.353 1.90817 46.6557 2.36223 46.6557C2.81628 46.6557 3.11898 46.353 3.11898 45.8989V35.6827L4.40547 36.9692C4.70817 37.2719 4.9352 37.726 4.9352 38.18V45.8989C4.9352 46.353 5.2379 46.6557 5.69196 46.6557C6.14601 46.6557 6.44871 46.353 6.44871 45.8989V38.2557C6.44871 37.4232 6.14601 36.5908 5.46493 35.9854L3.72439 34.2449C3.80006 34.1692 3.95141 34.0935 4.10277 34.0178L6.75141 32.5043C6.90277 32.4287 6.97844 32.353 7.12979 32.2773L9.02168 34.1692V45.8989C9.02168 46.353 9.32439 46.6557 9.77844 46.6557C10.2325 46.6557 10.5352 46.353 10.5352 45.8989V34.1692L12.4271 32.2773C12.5784 32.353 12.6541 32.4287 12.8055 32.5043L13.5622 32.8827C13.6379 32.9584 13.7893 32.9584 13.8649 32.9584C14.1676 32.9584 14.3947 32.807 14.546 32.5043C14.6217 32.353 14.6217 32.126 14.6217 31.8989C14.546 31.7476 14.3947 31.5962 14.2433 31.4449L13.4865 31.0665C13.1838 30.9151 12.9568 30.6124 12.9568 30.2341V28.4935C14.546 27.4341 15.4541 25.6935 15.4541 23.8016V22.1368C15.6055 20.3205 14.6217 18.5043 12.9568 17.4449ZM9.85412 18.0503C12.2001 18.0503 14.092 19.9422 14.092 22.2881V22.5908C10.9136 23.5746 8.94601 21.153 8.87033 21.0016C8.71898 20.8503 8.56763 20.6989 8.3406 20.6989C8.3406 20.6989 8.3406 20.6989 8.26493 20.6989C8.0379 20.6989 7.88655 20.7746 7.7352 20.926C6.97844 21.6827 6.22168 22.0611 5.76763 22.2124C5.69196 19.8665 7.58385 18.0503 9.85412 18.0503ZM5.61628 23.726C6.22168 23.5746 7.12979 23.2719 8.11358 22.5151C8.56763 22.8935 9.02168 23.2719 9.55141 23.5746C10.4595 24.1043 11.4433 24.3314 12.5028 24.3314C12.9568 24.3314 13.4865 24.2557 14.0163 24.18C13.8649 26.4503 12.0487 28.1908 9.77844 28.1908C7.4325 28.1908 5.5406 26.2989 5.5406 23.953V23.726H5.61628ZM11.519 16.7638C10.9136 16.6124 10.3838 16.5368 9.77844 16.5368C9.17304 16.5368 8.71898 16.6124 8.18925 16.7638C8.18925 16.6881 8.18925 16.5368 8.18925 16.4611C8.18925 15.4773 8.94601 14.7205 9.92979 14.7205C10.9136 14.7205 11.6703 15.4773 11.6703 16.4611C11.5947 16.5368 11.5947 16.6881 11.519 16.7638ZM8.64331 18.2016C8.64331 18.2016 8.56763 18.2016 8.64331 18.2016C8.56763 18.2016 8.64331 18.2016 8.64331 18.2016ZM9.47574 18.0503C9.40006 18.0503 9.40006 18.0503 9.47574 18.0503C9.40006 18.0503 9.40006 18.0503 9.47574 18.0503ZM6.60006 19.5638C6.60006 19.5638 6.60006 19.4881 6.60006 19.5638C6.60006 19.4881 6.60006 19.5638 6.60006 19.5638ZM8.0379 30.9908C8.11358 30.7638 8.11358 30.6124 8.11358 30.3854V29.4016C8.64331 29.553 9.24871 29.6287 9.85412 29.6287C10.4595 29.6287 10.9893 29.553 11.5947 29.4016V30.3854C11.5947 30.6124 11.5947 30.7638 11.6703 30.9908L9.85412 32.807L8.0379 30.9908Z" fill="#127AFF"/>
<path d="M52.7627 30.8387L48.4492 28.7197C48.1465 28.5684 47.9951 28.2657 47.9951 27.8873V26.7522C49.0546 25.8441 49.66 24.4819 49.66 23.1197V22.2116C50.1141 22.2116 50.4168 21.9089 50.4168 21.4549V19.79C50.4168 17.0657 48.2222 14.8711 45.4978 14.8711H43.833C41.1087 14.8711 38.9141 17.0657 38.9141 19.79V21.4549C38.9141 21.9089 39.2168 22.2116 39.6708 22.2116C39.6708 22.2116 39.6708 22.2116 39.7465 22.2116V23.1197C39.7465 24.4819 40.3519 25.8441 41.4114 26.7522V27.8873C41.4114 28.2657 41.1843 28.5684 40.8816 28.7197C40.5033 28.8711 40.3519 29.3251 40.5033 29.7035C40.6546 29.9306 40.8816 30.0819 41.1843 30.0819C41.3357 30.0819 41.4114 30.0819 41.487 30.0062C41.6384 29.9306 41.7141 29.8549 41.8654 29.7792L43.7573 31.6711V45.8981C43.7573 46.3522 44.06 46.6549 44.5141 46.6549C44.9681 46.6549 45.2708 46.3522 45.2708 45.8981V31.6711L47.1627 29.7792C47.3141 29.8549 47.3897 29.9306 47.5411 30.0062L51.7789 32.1251L50.4924 33.4116C49.887 34.017 49.5087 34.8495 49.5087 35.6819V45.8981C49.5087 46.3522 49.8114 46.6549 50.2654 46.6549C50.7195 46.6549 51.0222 46.3522 51.0222 45.8981V35.7576C51.0222 35.3035 51.1735 34.8495 51.5519 34.5468L52.7627 33.336C52.7627 33.4873 52.8384 33.6387 52.8384 33.79V45.9738C52.8384 46.4279 53.1411 46.7306 53.5951 46.7306C54.0492 46.7306 54.3519 46.4279 54.3519 45.9738V33.7143C54.5789 32.5035 53.8978 31.3684 52.7627 30.8387ZM41.26 21.8333C41.9411 21.6062 42.5465 21.2278 43.0762 20.6981C43.9087 21.1522 45.5735 21.8333 47.9951 22.0603V23.0441C47.9951 24.936 46.4816 26.4495 44.5897 26.4495C42.6978 26.4495 41.1843 24.936 41.1843 23.0441V21.8333H41.26ZM40.4276 19.79C40.4276 17.8981 41.9411 16.3846 43.833 16.3846H45.4978C47.3897 16.3846 48.9033 17.8981 48.9033 19.79V20.6981C45.6492 20.5468 43.606 19.336 43.4546 19.1846C43.3033 19.1089 43.1519 19.0333 43.0006 19.0333C42.7735 19.0333 42.6222 19.1089 42.4708 19.2603C41.7141 20.017 40.9573 20.3954 40.5033 20.5468V19.79H40.4276ZM42.8492 28.4927C42.9249 28.2657 42.9249 28.1143 42.9249 27.8873V27.6603C43.4546 27.8873 44.06 27.963 44.6654 27.963C45.2708 27.963 45.8006 27.8873 46.406 27.6603V27.8873C46.406 28.1143 46.406 28.2657 46.4816 28.4927L44.6654 30.3089L42.8492 28.4927Z" fill="#127AFF"/>
<path d="M37.1726 28.1899L32.6321 26.2223C32.3294 26.071 32.1024 25.7683 32.1024 25.3899V24.1791C33.6916 22.8926 34.5997 21.0764 34.5997 19.0332V17.2926C35.1294 16.9899 35.4321 16.4602 35.4321 15.9304V15.7791C35.4321 12.1467 32.4807 9.19531 28.8483 9.19531H27.1834C23.551 9.19531 20.5997 12.1467 20.5997 15.7791V17.2926C20.5997 17.8223 20.8267 18.2764 21.2051 18.5791C21.2807 18.6548 21.3564 18.6548 21.4321 18.7304V19.1088C21.4321 21.1521 22.3402 22.9683 23.9294 24.2548V25.4656C23.9294 25.844 23.7024 26.1467 23.3997 26.298L18.8591 28.2656C17.4213 28.9467 16.4375 30.3845 16.4375 31.9737V46.0494C16.4375 46.5034 16.7402 46.8061 17.1943 46.8061C17.6483 46.8061 17.951 46.5034 17.951 46.0494V31.898C17.951 31.8223 17.951 31.7467 17.951 31.5953V31.5196L20.0699 33.6386C20.3726 33.9413 20.5997 34.3953 20.5997 34.8494V45.898C20.5997 46.3521 20.9024 46.6548 21.3564 46.6548C21.8105 46.6548 22.1132 46.3521 22.1132 45.898V34.925C22.1132 34.0926 21.8105 33.2602 21.1294 32.6548L18.6321 30.1575C18.8591 29.9304 19.0861 29.7034 19.3889 29.6277L23.778 27.6602L27.1078 30.9899V46.0494C27.1078 46.5034 27.4105 46.8061 27.8645 46.8061C28.3186 46.8061 28.6213 46.5034 28.6213 46.0494V30.8386L31.951 27.5088L36.4159 29.4764C36.7186 29.6277 36.9456 29.7791 37.1726 30.0061L34.9024 32.5791C34.297 33.1845 33.9186 34.0169 33.9186 34.8494V45.898C33.9186 46.3521 34.2213 46.6548 34.6753 46.6548C35.1294 46.6548 35.4321 46.3521 35.4321 45.898V34.925C35.4321 34.471 35.5834 34.0169 35.9618 33.7142L38.0807 31.5953V31.671C38.0807 31.7467 38.0807 31.898 38.0807 31.9737V46.0494C38.0807 46.5034 38.3834 46.8061 38.8375 46.8061C39.2916 46.8061 39.5943 46.5034 39.5943 46.0494V31.898C39.5943 30.3088 38.6861 28.7953 37.1726 28.1899ZM23.0213 18.5791C23.551 18.3521 24.0051 18.0494 24.4591 17.671C24.6105 17.5196 24.6861 17.3683 24.6861 17.1413C24.6861 16.9142 24.6105 16.7629 24.4591 16.6115C24.3078 16.4602 24.1564 16.3845 23.9294 16.3845C23.7024 16.3845 23.551 16.4602 23.3997 16.6115L22.2645 17.2926C22.2645 17.2926 22.2645 17.2926 22.2645 17.2169V15.7034C22.2645 12.9034 24.5348 10.6332 27.3348 10.6332H28.9997C31.7997 10.6332 34.0699 12.9034 34.0699 15.7034V15.8548C34.0699 15.8548 34.0699 15.9304 33.9943 15.9304C29.3024 16.8386 27.0321 15.098 26.1997 14.3413C25.897 14.0386 25.4429 14.0386 25.1402 14.3413C24.8375 14.644 24.8375 15.098 25.1402 15.4007C25.2916 15.5521 25.4429 15.6277 25.5186 15.7791C25.5943 15.7791 25.5943 15.8548 25.6699 15.8548C25.9726 16.0818 26.1997 16.3088 26.5024 16.4602C26.578 16.4602 26.578 16.5359 26.6537 16.5359C26.9564 16.6872 27.2591 16.8386 27.5618 16.9899C27.5618 16.9899 27.6375 16.9899 27.6375 17.0656C27.9402 17.2169 28.3186 17.2926 28.6213 17.3683H28.697C28.8483 17.444 28.9997 17.444 29.2267 17.5196C30.4375 17.7467 31.724 17.8223 33.1618 17.5953V19.0332C33.1618 21.8332 30.8916 24.1034 28.0916 24.1034C25.2916 24.1034 23.0213 21.8332 23.0213 19.0332V18.5791ZM25.2159 26.525C25.4429 26.1467 25.5186 25.6926 25.5186 25.3142V24.9359C26.351 25.2386 27.1834 25.4656 28.0159 25.4656C28.8483 25.4656 29.7564 25.3142 30.5132 24.9359V25.3142C30.5132 25.7683 30.6645 26.1467 30.8916 26.525L28.0916 29.4764L25.2159 26.525Z" fill="#127AFF"/>
</svg>
