<?xml version="1.0" encoding="UTF-8"?>
<svg xmlns="http://www.w3.org/2000/svg" width="98" height="64" viewBox="0 0 98 64" fill="none">
  <path fill-rule="evenodd" clip-rule="evenodd" d="M26.1018 13.0009C26.1509 13.0169 26.7071 13.3689 27.3287 13.785C27.9503 14.1851 29.0953 14.7772 29.8641 15.0812C30.6329 15.3853 31.9579 15.7854 32.8085 15.9774C33.6591 16.1854 35.2131 16.4415 36.2436 16.5695C37.2742 16.6815 39.0244 16.7936 42.1324 16.7936V23.1947C42.1324 29.2118 42.116 29.5959 41.8379 29.5159C41.6907 29.4839 41.0855 29.3078 39.4334 28.8438L39.2698 19.434L38.4519 19.386C37.9939 19.37 36.718 19.242 35.5893 19.114C34.4606 18.986 32.8085 18.6979 31.9088 18.4899C31.0092 18.2658 29.6842 17.8658 28.9644 17.5937C28.2447 17.3217 27.3123 16.8896 26.1346 16.2335L24.7605 16.9056C24.0081 17.2736 22.9285 17.7217 22.3396 17.9138C21.7507 18.1058 20.6875 18.3939 19.9677 18.5699C19.248 18.7299 17.7921 18.97 16.7289 19.114C15.682 19.242 14.4225 19.354 13.9644 19.354C13.4901 19.354 12.9993 19.418 12.8848 19.4821C12.7213 19.5781 12.6885 20.9383 12.7376 26.4753C12.803 32.1884 12.8521 33.5326 13.0811 34.3488C13.2283 34.9089 13.5555 35.805 13.8009 36.3491C14.0462 36.9092 14.5042 37.7094 14.815 38.1575C15.1095 38.5895 15.7311 39.3897 16.1891 39.9018C16.6471 40.4299 17.5795 41.31 18.2502 41.8701C18.9208 42.4463 20.0659 43.2784 20.7856 43.7425C21.5053 44.2066 22.5522 44.8307 23.1084 45.1347C23.9753 45.6148 24.1553 45.7909 24.4497 46.479C24.6297 46.9111 25.055 47.7112 25.3658 48.2393C25.6929 48.7674 25.9546 49.2155 25.9383 49.2315C25.9383 49.2635 25.8401 49.2795 25.742 49.2795C25.6275 49.2795 24.5806 48.8154 23.4028 48.2553C22.2251 47.6952 20.3767 46.655 19.2807 45.9349C18.0375 45.1347 16.6307 44.0465 15.6166 43.0704C14.7005 42.2222 13.6046 41.054 13.1629 40.4779C12.7213 39.9018 12.0833 38.8936 11.7234 38.2375C11.3799 37.5814 10.9383 36.5732 10.7583 35.9971C10.562 35.421 10.333 34.5248 10.2349 33.9967C10.1367 33.4046 10.0713 29.916 10.0713 16.7936H11.9524C12.983 16.7936 14.5533 16.7135 15.4366 16.6335C16.3036 16.5375 17.6122 16.3455 18.3319 16.2175C19.0517 16.0734 20.2294 15.7854 20.9492 15.5613C21.6689 15.3373 22.814 14.8892 23.4846 14.5531C24.1553 14.2171 25.0059 13.721 25.3658 13.4649C25.7256 13.1929 26.0528 12.9849 26.1018 13.0009ZM26.0201 19.242L26.0691 25.0191C26.1018 29.2598 26.1673 30.8441 26.3145 31.0042C26.4617 31.1642 27.7703 31.2122 32.3178 31.1962C37.6667 31.1962 38.2229 31.2122 39.4334 31.5163C40.1531 31.7083 41.2164 32.1084 41.8052 32.4124C42.3941 32.7165 43.0811 33.1325 43.7845 33.6766L40.104 38.1575C38.0757 40.6219 36.3581 42.6543 36.2927 42.6863C36.2109 42.7023 35.5239 42.0302 34.7551 41.166C33.9699 40.3019 33.2174 39.5017 33.0702 39.3897C32.8576 39.2297 32.7104 39.2777 32.2033 39.7097C31.8598 39.9818 31.2382 40.5099 30.0441 41.5181L32.4813 44.2386C33.839 45.7269 35.1313 47.0871 35.3767 47.2311C35.6384 47.3912 36.0473 47.5192 36.3254 47.5192C36.6035 47.5192 37.0124 47.3912 37.2578 47.2311C37.5032 47.0871 39.5806 44.6707 41.887 41.8701C44.1771 39.0856 46.1237 36.7972 46.2218 36.7972C46.32 36.7972 46.5326 37.1813 46.6962 37.6294C46.8598 38.0935 47.1051 38.7976 47.2196 39.1977C47.3341 39.5977 47.4159 40.7019 47.4159 41.6781C47.4159 43.1184 47.3341 43.6785 46.9906 44.7187C46.7616 45.4228 46.2055 46.527 45.7638 47.1991C45.3385 47.8552 44.5042 48.8154 43.9154 49.3275C43.3429 49.8396 42.3941 50.4957 41.8052 50.7838C41.2164 51.0878 40.2185 51.4719 39.5969 51.6639C38.7627 51.904 37.9939 52 36.8161 52C35.622 52 34.8696 51.904 34.0353 51.6639C33.4137 51.4719 32.3996 51.0718 31.778 50.7838C31.14 50.4637 30.2076 49.7916 29.5206 49.1515C28.8827 48.5594 28.0975 47.6792 27.7703 47.1991C27.4432 46.719 26.9688 45.7429 26.1836 43.7585L26.1346 37.6774C26.1018 33.3086 26.0201 31.5323 25.8892 31.3882C25.742 31.2282 24.5642 31.1802 15.4693 31.1962V21.8345L17.6286 21.5464C18.8227 21.3864 20.622 21.0503 21.6035 20.7943C22.5849 20.5382 23.9917 20.0902 24.7114 19.7861L26.0201 19.242ZM84.9895 25.9152H86.5435C88.0648 25.9152 88.0975 25.9312 88.0648 26.2833C88.0157 26.6034 87.9176 26.6354 86.1346 26.7154V27.2755C86.1346 27.8356 86.1346 27.8356 86.8707 27.8356C87.5413 27.8356 87.6068 27.8676 87.6068 28.2357C87.6068 28.6037 87.5413 28.6357 86.8707 28.6357C86.1346 28.6357 86.1346 28.6357 86.1346 29.7559L87.0833 29.8039C87.9176 29.8359 88.0157 29.884 88.0648 30.204C88.0975 30.5561 88.0648 30.5561 84.9895 30.5561V25.9152ZM46.7125 18.5539H48.2665C49.7878 18.5539 49.8205 18.5699 49.7878 18.9219C49.7387 19.242 49.6406 19.274 47.8576 19.354V20.6343H48.6755C49.4443 20.6343 49.4933 20.6663 49.4933 21.0343C49.4933 21.4184 49.4443 21.4344 47.8576 21.4344V23.1947H46.7125V18.5539ZM50.4748 18.5539H51.6198V23.1947H50.4748V18.5539ZM53.7791 18.5539C54.2207 18.5539 54.6297 18.6499 54.8587 18.8259C55.2022 19.082 55.2022 19.146 55.0059 19.434C54.7932 19.7221 54.7278 19.7381 54.3025 19.5461C54.0408 19.418 53.6973 19.37 53.5501 19.418C53.3865 19.466 53.2556 19.6581 53.2556 19.8341C53.2556 20.0742 53.4356 20.2182 53.9263 20.3622C54.3025 20.4742 54.7442 20.6823 54.9077 20.8423C55.1204 21.0183 55.2185 21.3384 55.2185 21.7545C55.2185 22.2666 55.1204 22.4746 54.7278 22.7947C54.417 23.0507 54.0408 23.1947 53.6646 23.1947C53.3538 23.1947 52.8303 23.0827 52.5195 22.9547C51.9797 22.7306 51.9634 22.6986 52.176 22.3626C52.3069 22.1545 52.4704 22.0105 52.5522 22.0265C52.6177 22.0425 52.9285 22.1545 53.2065 22.2666C53.6809 22.4586 53.7791 22.4426 54.0244 22.2025C54.188 22.0585 54.2698 21.8345 54.2207 21.7225C54.1716 21.6104 53.8118 21.4344 53.4355 21.3224C53.0593 21.2104 52.6177 20.9223 52.4377 20.6823C52.2414 20.4422 52.1106 20.0742 52.1106 19.8661C52.1269 19.6581 52.3396 19.29 52.6013 19.018C52.9775 18.6499 53.2065 18.5539 53.7791 18.5539ZM55.7093 18.5539H56.2818C56.838 18.5539 56.8707 18.6019 58.3756 21.5144L59.128 20.0422C59.8478 18.6179 59.8968 18.5539 60.9437 18.5539V23.1947H59.9623L59.8805 20.5542L59.308 21.5944C58.899 22.3626 58.6373 22.6506 58.3756 22.6826C58.0648 22.7146 57.9176 22.5386 57.5086 21.7545C57.2469 21.2264 56.9525 20.7943 56.8543 20.7943C56.7562 20.7943 56.6907 21.3064 56.6907 23.1947H55.7093V18.5539ZM63.839 18.5859C64.4116 18.6339 64.4279 18.6659 64.8696 19.8341C65.1149 20.4902 65.5239 21.5304 66.1782 23.1947H65.6057C65.1149 23.1947 65.0168 23.1307 64.8696 22.7146C64.7224 22.2666 64.6569 22.2346 63.8554 22.2346C63.0539 22.2186 62.9721 22.2666 62.7431 22.7146C62.5468 23.1147 62.3996 23.2107 61.9743 23.2107C61.5326 23.1947 61.4508 23.1467 61.5326 22.9227C61.5817 22.7627 61.9252 21.8825 62.2851 20.9543C62.6449 20.0262 63.0048 19.114 63.0866 18.9059C63.2175 18.6019 63.3483 18.5539 63.839 18.5859ZM63.5119 20.4422C63.3647 20.8103 63.2338 21.1944 63.2338 21.2744C63.2338 21.3704 63.4955 21.4344 63.8063 21.4344C64.3134 21.4344 64.3625 21.4024 64.2807 21.0823C64.2153 20.8743 64.0844 20.5062 63.9863 20.2342L63.79 19.7541L63.5119 20.4422ZM48.8718 25.9312C49.2153 25.9312 49.706 26.0272 49.9841 26.1713C50.2458 26.2993 50.4748 26.4593 50.4748 26.5233C50.4748 26.5874 50.3767 26.7954 50.2458 26.9714C50.0495 27.2435 49.9677 27.2595 49.5915 27.0834C49.3625 26.9714 49.0353 26.8914 48.8718 26.8754C48.7245 26.8754 48.3974 27.0194 48.1357 27.1955C47.7758 27.4675 47.694 27.6435 47.694 28.2517C47.694 28.8438 47.7758 29.0198 48.1357 29.2918C48.3974 29.4679 48.7245 29.6119 48.8718 29.6119C49.0353 29.6119 49.3461 29.5159 49.5588 29.4039C49.9023 29.2438 50.0168 29.2438 50.2294 29.4519C50.3767 29.5799 50.4912 29.7399 50.4748 29.8039C50.4748 29.868 50.2294 30.076 49.935 30.252C49.6569 30.4281 49.1335 30.5721 48.79 30.5721C48.4628 30.5721 47.9557 30.4601 47.694 30.332C47.4159 30.188 47.056 29.8519 46.8761 29.5639C46.6635 29.2278 46.549 28.7638 46.549 28.2517C46.549 27.6916 46.6635 27.2915 46.8925 26.9554C47.0724 26.6834 47.465 26.3473 47.7431 26.2033C48.0375 26.0593 48.5446 25.9312 48.8718 25.9312ZM53.1738 25.9312C53.5337 25.9312 54.0899 26.0593 54.4007 26.2193C54.7115 26.3953 55.1204 26.7634 55.284 27.0674C55.4639 27.3555 55.6111 27.8996 55.6111 28.2517C55.6111 28.6037 55.4639 29.1318 55.284 29.4359C55.1204 29.7239 54.7115 30.108 54.4007 30.284C53.9917 30.4921 53.5991 30.5721 53.0102 30.5241C52.5359 30.4921 51.9961 30.348 51.7507 30.156C51.5053 29.996 51.1945 29.6119 51.0473 29.3239C50.9165 29.0358 50.802 28.5397 50.802 28.2036C50.802 27.8836 50.9165 27.3875 51.0637 27.1315C51.2109 26.8594 51.4726 26.5393 51.6689 26.4113C51.8652 26.2673 52.1269 26.1233 52.2742 26.0593C52.405 25.9952 52.814 25.9472 53.1738 25.9312ZM51.9306 28.2517C51.947 28.8278 52.0288 29.0358 52.3887 29.3078C52.7322 29.5479 52.9939 29.6119 53.4192 29.5479C53.73 29.4999 54.0899 29.3239 54.2044 29.1638C54.3189 29.0198 54.4007 28.6037 54.4007 28.2517C54.4007 27.8996 54.3352 27.5315 54.2698 27.4355C54.2044 27.3395 53.9917 27.1795 53.7791 27.0674C53.5828 26.9714 53.2883 26.8914 53.1084 26.8914C52.9448 26.8914 52.6177 27.0354 52.3723 27.2115C51.9797 27.4995 51.9143 27.6595 51.9306 28.2517ZM56.0364 25.9312H56.6089C57.1651 25.9312 57.1978 25.9632 58.7027 28.8918L59.4552 27.4035C60.1749 25.9952 60.224 25.9312 61.2709 25.9312V30.5721H60.2894L60.2076 27.9316L59.6351 28.9718C59.2098 29.7239 58.9645 30.012 58.6864 30.044C58.3919 30.076 58.2284 29.916 57.8358 29.1318C57.5577 28.6037 57.2633 28.1716 57.1815 28.1716C57.0833 28.1716 57.0179 28.6677 57.0179 30.5721H56.0364V25.9312ZM61.9579 25.8992L63.3483 25.9472C64.6569 26.0112 64.7551 26.0272 65.1477 26.4913C65.4912 26.8914 65.5402 27.0674 65.4585 27.6115C65.4094 27.9636 65.2458 28.3797 65.0822 28.5397C64.9186 28.6997 64.4279 28.8758 63.0702 29.0518V30.5721H61.9252L61.9579 25.8992ZM63.5282 28.1716C63.7736 28.1716 64.068 28.0756 64.1826 27.9636C64.2971 27.8516 64.3788 27.6275 64.3788 27.4515C64.3788 27.2755 64.2807 27.0354 64.1662 26.9234C64.0517 26.8114 63.7573 26.7314 63.5119 26.7314C63.0866 26.7314 63.0702 26.7634 63.0702 27.4515C63.0702 28.1236 63.0866 28.1716 63.5282 28.1716ZM66.0146 25.9312H67.1597V29.7719H68.0593C68.9099 29.7719 68.959 29.7879 68.959 30.172C68.959 30.5721 68.9426 30.5721 66.0146 30.5721V25.9312ZM69.4497 25.9312H70.5948V30.5721H69.4497V25.9312ZM73.4901 25.9632C74.0462 26.0112 74.079 26.0433 74.5206 27.2115C74.766 27.8676 75.1586 28.8918 75.8292 30.5721H75.2567C74.766 30.5721 74.6515 30.4921 74.5206 30.092C74.357 29.6439 74.308 29.6119 73.4901 29.5959C72.6886 29.5959 72.6231 29.6279 72.3941 30.092C72.1978 30.4921 72.0506 30.5881 71.6089 30.5721C71.1837 30.5721 71.1019 30.5241 71.1836 30.284C71.2327 30.14 71.5762 29.2598 71.9361 28.3317C72.296 27.4035 72.6558 26.4753 72.7376 26.2833C72.8685 25.9792 72.9994 25.9152 73.4901 25.9632ZM73.1629 27.8036C72.9994 28.1876 72.8848 28.5557 72.8848 28.6517C72.8848 28.7317 73.1466 28.8118 73.4574 28.8118C73.9645 28.8118 74.0135 28.7798 73.9317 28.4437C73.8663 28.2517 73.7354 27.8676 73.6209 27.6115L73.441 27.1315L73.1629 27.8036ZM75.9928 25.9152H76.4345C76.8107 25.9152 77.0888 26.1713 79.1008 28.7157V25.9152H80.0822V30.5561H79.6733C79.3461 30.5561 79.0353 30.268 78.2338 29.2918C77.6776 28.5877 77.1542 28.0596 77.0888 28.0916C77.0233 28.1236 76.9743 28.6997 76.9743 30.5561H75.9928V25.9152ZM83.0593 25.9312C83.4028 25.9152 83.8936 26.0272 84.1717 26.1553C84.4334 26.2993 84.6624 26.4593 84.6624 26.5233C84.6624 26.5874 84.5642 26.7794 84.4334 26.9554C84.2371 27.2435 84.1553 27.2595 83.7791 27.0834C83.5337 26.9714 83.2229 26.8754 83.0593 26.8754C82.9121 26.8754 82.5686 27.0194 82.3232 27.1955C81.947 27.4675 81.8816 27.6435 81.8816 28.2357C81.8816 28.8438 81.947 29.0198 82.3232 29.2918C82.5686 29.4679 82.9121 29.6119 83.0593 29.6119C83.2229 29.5959 83.5337 29.5159 83.7464 29.4039C84.0899 29.2278 84.188 29.2438 84.417 29.4359C84.5479 29.5799 84.6624 29.7399 84.6624 29.8039C84.6624 29.868 84.417 30.06 84.1226 30.236C83.8281 30.4121 83.3211 30.5561 82.9775 30.5561C82.6504 30.5561 82.1433 30.4601 81.8816 30.316C81.6035 30.188 81.2436 29.8519 81.0637 29.5639C80.851 29.2278 80.7365 28.7637 80.7365 28.2357C80.7365 27.6916 80.8347 27.2915 81.0801 26.9554C81.26 26.6834 81.6526 26.3473 81.9306 26.1873C82.2251 26.0433 82.7322 25.9312 83.0593 25.9312Z" fill="#112244"></path>
</svg>
