<svg width="57" height="56" viewBox="0 0 57 56" fill="none" xmlns="http://www.w3.org/2000/svg">
<g clip-path="url(#clip0_5604_31912)">
<path d="M5.18187 38.1165H16.8033V36.3286H5.18187C4.68775 36.3286 4.28792 35.9283 4.28792 35.4345V7.72196H38.2582V14.8736H40.0462V3.25218C40.0462 1.77113 38.8454 0.570312 37.3643 0.570312H5.18187C3.70038 0.570312 2.5 1.77113 2.5 3.25218V35.4345C2.5 36.9156 3.70038 38.1165 5.18187 38.1165ZM5.18187 2.35822H37.3643C37.858 2.35822 38.2582 2.7585 38.2582 3.25218V5.93405H4.28792V3.25218C4.28792 2.7585 4.68775 2.35822 5.18187 2.35822Z" fill="#127AFF"/>
<path d="M6.07812 3.25195H7.86604V5.03987H6.07812V3.25195Z" fill="#127AFF"/>
<path d="M9.65625 3.25195H11.4442V5.03987H9.65625V3.25195Z" fill="#127AFF"/>
<path d="M13.2266 3.25195H15.0145V5.03987H13.2266V3.25195Z" fill="#127AFF"/>
<path d="M53.4581 18.2354H21.2756C19.7941 18.2354 18.5938 19.4361 18.5938 20.9172V53.0996C18.5938 54.5807 19.7941 55.7815 21.2756 55.7815H53.4581C54.9391 55.7815 56.1399 54.5807 56.1399 53.0996V20.9172C56.1399 19.4361 54.9391 18.2354 53.4581 18.2354ZM21.2756 20.0233H53.4581C53.9517 20.0233 54.352 20.4235 54.352 20.9172V23.599H20.3817V20.9172C20.3817 20.4235 20.7815 20.0233 21.2756 20.0233ZM53.4581 53.9936H21.2756C20.7815 53.9936 20.3817 53.5933 20.3817 53.0996V25.3869H54.352V53.0996C54.352 53.5933 53.9517 53.9936 53.4581 53.9936Z" fill="#127AFF"/>
<path d="M22.1641 20.917H23.952V22.7049H22.1641V20.917Z" fill="#127AFF"/>
<path d="M25.7422 20.917H27.5301V22.7049H25.7422V20.917Z" fill="#127AFF"/>
<path d="M29.3203 20.917H31.1082V22.7049H29.3203V20.917Z" fill="#127AFF"/>
<path d="M37.3638 34.3301C34.4012 34.3301 32 36.7317 32 39.6938C32 42.6563 34.4012 45.0576 37.3638 45.0576C40.3259 45.0576 42.7275 42.6563 42.7275 39.6938C42.7245 36.7326 40.3246 34.3331 37.3638 34.3301ZM37.3638 43.2696C35.3886 43.2696 33.788 41.6685 33.788 39.6938C33.788 37.719 35.3886 36.118 37.3638 36.118C39.3385 36.118 40.9396 37.719 40.9396 39.6938C40.9396 41.6685 39.3385 43.2696 37.3638 43.2696Z" fill="#127AFF"/>
<path d="M47.3801 37.0263L45.7943 36.709C45.6904 36.4135 45.5712 36.1237 45.4368 35.8408L46.3308 34.4999C46.5669 34.1454 46.5203 33.6731 46.219 33.372L43.6891 30.8402C43.3879 30.5386 42.9156 30.4919 42.5607 30.7285L41.2198 31.6225C40.9369 31.488 40.6475 31.3688 40.352 31.265L40.0321 29.6779C39.9469 29.2619 39.5807 28.9629 39.156 28.9629H35.5801C35.155 28.9629 34.7888 29.2619 34.7037 29.6779L34.3863 31.2641C34.0912 31.368 33.8015 31.4871 33.5185 31.6216L32.1776 30.7277C31.8228 30.4911 31.3509 30.5378 31.0493 30.8394L28.5176 33.3694C28.2164 33.6705 28.1697 34.1428 28.4058 34.4973L29.2998 35.8382C29.1658 36.121 29.0462 36.4109 28.9423 36.7064L27.3556 37.0263C26.9392 37.1114 26.6402 37.4777 26.6406 37.9025V41.4783C26.6402 41.903 26.9392 42.2692 27.3556 42.3543L28.9414 42.6716C29.0453 42.9671 29.1649 43.257 29.2989 43.5398L28.4049 44.8808C28.1688 45.2352 28.2155 45.7075 28.5167 46.0087L31.0466 48.5404C31.3479 48.842 31.8202 48.8887 32.175 48.6522L33.5159 47.7582C33.7988 47.8926 34.0886 48.0118 34.3837 48.1157L34.7037 49.7028C34.7888 50.1188 35.155 50.4178 35.5801 50.4178H39.156C39.5807 50.4178 39.9469 50.1188 40.0321 49.7028L40.3494 48.117C40.6444 48.0131 40.9343 47.8935 41.2171 47.7591L42.5581 48.653C42.913 48.8896 43.3848 48.8429 43.6864 48.5413L46.2182 46.0113C46.5194 45.7101 46.5661 45.2378 46.3299 44.8834L45.436 43.5424C45.57 43.2596 45.6896 42.9698 45.7934 42.6743L47.3801 42.3543C47.7966 42.2692 48.0956 41.903 48.0956 41.4783V37.9025C48.0956 37.4777 47.7966 37.1114 47.3801 37.0263ZM46.3076 40.7454L44.9235 41.0225C44.5957 41.088 44.3316 41.3316 44.2395 41.6533C44.0894 42.1788 43.8794 42.6856 43.614 43.1635C43.4507 43.456 43.4652 43.8153 43.6507 44.0942L44.432 45.2649L42.9392 46.7582L41.7681 45.9769C41.4891 45.7909 41.1299 45.7769 40.8374 45.9402C40.3595 46.2055 39.8531 46.4155 39.3276 46.5657C39.0058 46.6578 38.7623 46.9215 38.6963 47.2496L38.4226 48.6299H36.313L36.0359 47.2462C35.97 46.9179 35.7264 46.6538 35.4047 46.5622C34.8792 46.412 34.3723 46.2021 33.8948 45.9363C33.6024 45.7735 33.2431 45.7874 32.9642 45.9729L31.7931 46.7542L30.3003 45.2614L31.0816 44.0903C31.2671 43.8118 31.2815 43.4525 31.1183 43.1597C30.8524 42.6821 30.6424 42.1753 30.4923 41.6498C30.4006 41.3281 30.1365 41.0845 29.8087 41.0186L28.4285 40.7454V38.6353L29.8122 38.3586C30.1405 38.2926 30.4041 38.0491 30.4962 37.7274C30.6464 37.2018 30.8563 36.6951 31.1217 36.2175C31.285 35.9246 31.2706 35.5654 31.0851 35.2869L30.3037 34.1158L31.7966 32.6229L32.9677 33.4042C33.2467 33.5898 33.6058 33.6038 33.8983 33.4409C34.3763 33.1751 34.8827 32.9652 35.4082 32.815C35.7303 32.7229 35.9735 32.4593 36.0393 32.131L36.313 30.7508H38.4226L38.6999 32.1345C38.7657 32.4627 39.0093 32.7268 39.331 32.8184C39.8566 32.9686 40.3633 33.1786 40.8409 33.4445C41.1334 33.6073 41.4926 33.5933 41.7715 33.4078L42.9426 32.6264L44.4355 34.1192L43.6542 35.2904C43.4686 35.5693 43.4542 35.9286 43.6175 36.221C43.8833 36.6985 44.0932 37.2053 44.2434 37.7309C44.3351 38.0526 44.5991 38.2961 44.927 38.3621L46.3076 38.6353V40.7454Z" fill="#127AFF"/>
<path d="M7.85938 17.5552H15.011V19.3431H7.85938V17.5552Z" fill="#127AFF"/>
<path d="M7.85938 21.1309H15.011V22.9188H7.85938V21.1309Z" fill="#127AFF"/>
<path d="M7.85938 24.707H15.011V26.4949H7.85938V24.707Z" fill="#127AFF"/>
<path d="M7.85938 28.2832H15.011V30.0711H7.85938V28.2832Z" fill="#127AFF"/>
<path d="M7.85938 31.8584H15.011V33.6463H7.85938V31.8584Z" fill="#127AFF"/>
</g>
<defs>
<clipPath id="clip0_5604_31912">
<rect width="56" height="56" fill="white" transform="translate(0.5)"/>
</clipPath>
</defs>
</svg>
