<svg width="56" height="56" viewBox="0 0 56 56" fill="none" xmlns="http://www.w3.org/2000/svg">
<g clip-path="url(#clip0_4580_46449)">
<path d="M55.2808 37.6424L46.865 29.2253C48.8982 26.546 50.1676 23.3344 50.4931 19.9673C50.8918 15.835 49.8625 11.66 47.5947 8.21083C47.3456 7.83227 46.8368 7.72717 46.4586 7.97626C46.0801 8.22532 45.975 8.73419 46.2241 9.11275C50.5158 15.6393 49.6156 24.3923 44.0836 29.9247C37.6224 36.3864 27.11 36.3864 20.6492 29.9247C14.188 23.4631 14.188 12.949 20.6492 6.48731C27.11 0.0256485 37.6228 0.0256493 44.0814 6.48517L44.1263 6.53046C44.4459 6.85175 44.965 6.85388 45.2863 6.53431C45.608 6.21515 45.6097 5.69562 45.2906 5.37433L45.2436 5.32691C38.1427 -1.77433 26.5896 -1.77433 19.4888 5.32691C19.2658 5.54993 19.05 5.77723 18.8411 6.00879H0.820312C0.367431 6.00879 0 6.37623 0 6.8291V10.4572C0 10.9106 0.367431 11.278 0.820312 11.278C1.27362 11.278 1.64062 10.9106 1.64062 10.4572V7.64984H17.5252C16.8984 8.53036 16.3592 9.45411 15.9076 10.4099H5.68749C5.23461 10.4099 4.86718 10.7768 4.86718 11.2302C4.86718 11.6835 5.23461 12.0504 5.68749 12.0504H15.2287C14.9933 12.7093 14.7972 13.3788 14.64 14.056H5.68749C5.23461 14.056 4.86718 14.423 4.86718 14.8763C4.86718 15.3292 5.23461 15.6966 5.68749 15.6966H14.3366C14.2448 16.3618 14.1897 17.0313 14.1713 17.7016H5.68749C5.23461 17.7016 4.86718 18.0691 4.86718 18.5224C4.86718 18.9752 5.23461 19.3427 5.68749 19.3427H14.1999C14.3478 21.7259 14.9591 24.0851 16.0362 26.2713H14.6566C14.2034 26.2713 13.8363 26.6388 13.8363 27.092V51.3767C13.8363 51.83 14.2034 52.1974 14.6566 52.1974H21.2191C21.6725 52.1974 22.0394 51.83 22.0394 51.3767V33.2098C22.7782 33.7187 23.5459 34.1672 24.3363 34.5548V51.3767C24.3363 51.83 24.7038 52.1974 25.1566 52.1974H31.7191C32.1724 52.1974 32.5394 51.83 32.5394 51.3767V36.4094C33.179 36.403 33.8178 36.3641 34.4539 36.2915V48.9632C34.4539 49.4165 34.8209 49.7839 35.2742 49.7839C35.7271 49.7839 36.0946 49.4165 36.0946 48.9632V36.0275C38.6875 35.4892 41.1847 34.3826 43.385 32.7073L51.7992 41.1228C52.2645 41.5876 52.8827 41.844 53.5398 41.844C54.1974 41.844 54.8156 41.5876 55.2804 41.1228C56.2396 40.164 56.24 38.6029 55.2808 37.6424ZM20.3988 50.5564H15.477V27.9124H16.9548C17.6645 29.039 18.5087 30.1046 19.4888 31.0851C19.7845 31.3808 20.0886 31.6632 20.3988 31.934V50.5564ZM25.9774 50.5564V35.2606C27.5684 35.854 29.2262 36.2172 30.8992 36.3513V50.5564H25.9774ZM54.1209 39.9624C53.9658 40.1175 53.7594 40.2029 53.5402 40.2029C53.321 40.2029 53.1147 40.1175 52.9601 39.9624L44.6497 31.6516C44.851 31.4675 45.0492 31.2795 45.2436 31.0851C45.4375 30.8912 45.6264 30.6933 45.8105 30.4912L54.12 38.8024C54.44 39.1224 54.4405 39.6432 54.1209 39.9624Z" fill="#127AFF"/>
<path d="M35.2743 51.6795C34.8214 51.6795 34.454 52.0465 34.454 52.4998V54.3596H1.64062V14.0122C1.64062 13.5589 1.27362 13.1919 0.820312 13.1919C0.367432 13.1919 0 13.5589 0 14.0122V55.1799C0 55.6332 0.367432 56.0002 0.820312 56.0002H35.2743C35.7276 56.0002 36.0946 55.6332 36.0946 55.1799V52.4998C36.0946 52.0465 35.7276 51.6795 35.2743 51.6795Z" fill="#127AFF"/>
<path d="M3.55469 33.6542V51.376C3.55469 51.8289 3.92212 52.1963 4.375 52.1963H10.9379C11.3908 52.1963 11.7582 51.8289 11.7582 51.376V33.6542C11.7582 33.2013 11.3908 32.834 10.9379 32.834H4.375C3.92212 32.834 3.55469 33.2013 3.55469 33.6542ZM5.19531 34.475H10.1176V50.5553H5.19531V34.475Z" fill="#127AFF"/>
<path d="M11.8214 22.9887C12.2748 22.9887 12.6418 22.6213 12.6418 22.168C12.6418 21.7151 12.2748 21.3477 11.8214 21.3477H5.68751C5.23462 21.3477 4.86719 21.7151 4.86719 22.168C4.86719 22.6213 5.23462 22.9887 5.68751 22.9887H11.8214Z" fill="#127AFF"/>
<path d="M32.369 3.28027C28.3768 3.28027 24.6273 4.83117 21.8117 7.64715C18.9962 10.4632 17.4453 14.2131 17.4453 18.2057C17.4453 22.1983 18.9962 25.9482 21.8117 28.7642C24.6277 31.5802 28.3768 33.1311 32.369 33.1311C36.3612 33.1311 40.1103 31.5802 42.9263 28.7642C45.7418 25.9482 47.2923 22.1983 47.2923 18.2057C47.2923 14.2131 45.7418 10.4632 42.9263 7.64715C40.1103 4.83117 36.3612 3.28027 32.369 3.28027ZM41.7659 27.6038C39.26 30.11 35.9228 31.4901 32.369 31.4901C28.8148 31.4901 25.478 30.11 22.9721 27.6038C20.466 25.0976 19.0859 21.76 19.0859 18.2057C19.0859 14.651 20.466 11.3133 22.9721 8.80709C25.5625 6.21631 28.966 4.92047 32.369 4.92047C35.772 4.92047 39.1755 6.21631 41.7659 8.80709C44.2716 11.3133 45.6516 14.651 45.6516 18.2057C45.6516 21.76 44.2716 25.0976 41.7659 27.6038Z" fill="#127AFF"/>
</g>
<defs>
<clipPath id="clip0_4580_46449">
<rect width="56" height="56" fill="white"/>
</clipPath>
</defs>
</svg>
