<?xml version="1.0" encoding="UTF-8"?>
<svg xmlns="http://www.w3.org/2000/svg" width="66" height="64" viewBox="0 0 66 64" fill="none">
  <g clip-path="url(#clip0_765_753)">
    <mask id="mask0_765_753" style="mask-type:luminance" maskUnits="userSpaceOnUse" x="0" y="0" width="65" height="64">
      <path d="M64.7856 0H0.785645V64H64.7856V0Z" fill="white"></path>
    </mask>
    <g mask="url(#mask0_765_753)">
      <path d="M31.5272 2.67786C31.6103 2.6363 31.8761 2.06277 32.1917 1.27312C32.4741 0.54166 32.7316 -0.0318725 32.7565 0.00137574C32.7898 0.0429361 33.0306 0.641405 33.2964 1.34793C33.5705 2.04614 33.8446 2.65293 33.9111 2.68617C33.9775 2.71942 34.642 2.78592 35.3896 2.81917C36.1288 2.86073 36.7269 2.91891 36.7186 2.94385C36.702 2.9771 36.2451 3.35945 35.6969 3.8083C35.1487 4.25716 34.6586 4.68107 34.6005 4.75588C34.5257 4.86394 34.5756 5.17148 34.8663 6.26036C35.074 7.01676 35.2235 7.64017 35.2152 7.64848C35.2069 7.65679 34.7334 7.36587 34.1603 7.00014C33.5871 6.6261 33.0223 6.27699 32.8977 6.21049C32.6735 6.09412 32.6236 6.11906 31.4608 6.88377C30.7963 7.316 30.2398 7.67342 30.2148 7.67342C30.1899 7.67342 30.3394 7.05001 30.5388 6.2853C30.7797 5.3876 30.8876 4.84731 30.8378 4.76419C30.8046 4.6977 30.2979 4.26547 29.7248 3.8083C29.1516 3.35114 28.6865 2.96047 28.6782 2.93554C28.6782 2.9106 29.2845 2.86073 30.0238 2.81917C30.7714 2.78592 31.4442 2.71942 31.5272 2.67786Z" fill="#112244"></path>
      <path d="M45.9217 3.60008C46.1792 2.93512 46.4035 2.36158 46.4284 2.31171C46.4533 2.26184 46.5032 2.27846 46.5447 2.35327C46.5779 2.41977 46.8188 3.01824 47.068 3.6832C47.3255 4.34817 47.583 4.91339 47.6411 4.94664C47.6909 4.97989 48.0564 5.02145 48.4468 5.05469C48.8372 5.07963 49.4685 5.1295 50.54 5.22094L49.5183 6.05214C48.9618 6.50931 48.4551 6.95816 48.397 7.04959C48.3056 7.1909 48.3388 7.40701 48.6379 8.56239C48.8289 9.31047 48.9701 9.91726 48.9452 9.91726C48.9203 9.91726 48.3804 9.58477 47.7408 9.16917C47.1012 8.76188 46.5281 8.42108 46.4782 8.42108C46.4201 8.42108 45.847 8.77019 45.2074 9.1941C44.5678 9.60971 44.0279 9.94219 44.003 9.91726C43.9864 9.89232 44.1276 9.27723 44.3269 8.54576C44.518 7.8143 44.6675 7.16596 44.6509 7.11609C44.6343 7.0579 44.1193 6.60074 42.3833 5.17938L43.1973 5.13782C43.6375 5.11288 44.2688 5.07132 44.5844 5.05469C44.9001 5.02976 45.2323 4.96326 45.3154 4.90508C45.3901 4.8552 45.6642 4.26505 45.9217 3.60008Z" fill="#112244"></path>
      <path d="M17.9052 6.33508C17.9882 6.29352 18.254 5.71999 18.5697 4.93034C18.8521 4.19888 19.1096 3.62535 19.1345 3.6586C19.1594 3.70016 19.4003 4.27369 19.6578 4.94697C19.9734 5.78649 20.1811 6.21871 20.314 6.30183C20.4303 6.38496 20.7127 6.42652 21.1197 6.43483C21.4602 6.44314 22.0749 6.46808 23.2045 6.5512L22.0832 7.46552C21.4602 7.97256 20.9369 8.4131 20.9203 8.46297C20.9037 8.51284 21.0615 9.16119 21.2526 9.91759C21.4519 10.674 21.6097 11.2974 21.5931 11.3057C21.5848 11.314 21.0698 10.9898 20.4552 10.5909C19.8405 10.1919 19.2674 9.84278 19.1926 9.80953C19.0847 9.76797 18.7607 9.93421 18.1128 10.3581C17.5978 10.6906 17.0746 11.0397 16.9417 11.1228C16.8171 11.2143 16.6842 11.2641 16.6509 11.2226C16.6177 11.1893 16.7506 10.5742 16.9417 9.85109C17.1327 9.13625 17.2656 8.49622 17.2324 8.42972C17.1992 8.36323 16.6842 7.91438 15.0146 6.53457L16.3851 6.46808C17.141 6.43483 17.8221 6.37664 17.9052 6.33508Z" fill="#112244"></path>
      <path d="M8.20337 14.323C8.42763 13.7494 8.66021 13.151 8.72666 12.993L8.85125 12.7021L9.38285 14.0736C9.68187 14.83 9.96428 15.47 10.0141 15.5033C10.0723 15.5365 10.7367 15.5864 11.5009 15.628C12.2568 15.6612 12.8631 15.7194 12.8465 15.761C12.8299 15.7942 12.3481 16.2015 11.7667 16.6753C11.1936 17.1408 10.7118 17.5813 10.6952 17.6478C10.6703 17.7143 10.8115 18.3793 11.0108 19.119C11.2019 19.8671 11.3514 20.4739 11.3431 20.4739C11.3265 20.4739 10.7949 20.1331 10.1553 19.7258C9.51574 19.3185 8.92601 18.9777 8.85125 18.9777C8.76819 18.9777 8.17845 19.3102 7.53887 19.7175C6.8993 20.1248 6.3677 20.4573 6.35109 20.449C6.33448 20.4407 6.47568 19.8588 6.66672 19.1689C6.84946 18.4707 6.99897 17.8307 6.99897 17.7559C7.00728 17.6727 6.86607 17.4732 6.69164 17.3153C6.51721 17.1574 6.02715 16.7418 5.60353 16.401C5.17992 16.0602 4.83936 15.7526 4.83936 15.7194C4.83936 15.6778 5.44572 15.6363 6.19327 15.6113C7.04881 15.5781 7.58871 15.5282 7.67177 15.4617C7.74653 15.4035 7.98741 14.8965 8.20337 14.323Z" fill="#112244"></path>
      <path d="M3.6351 29.584C3.73477 29.5092 3.99226 28.9689 4.29959 28.171C4.5737 27.4561 4.81458 26.9159 4.8478 26.974C4.87272 27.0322 5.10529 27.6307 5.36278 28.3123C5.68672 29.1435 5.88607 29.5591 6.00236 29.6173C6.09373 29.6588 6.74992 29.742 7.47255 29.7835C8.19519 29.8334 8.79324 29.875 8.80154 29.8916C8.81816 29.8999 8.35301 30.2989 7.77988 30.781C7.19845 31.2631 6.70008 31.7119 6.66685 31.7784C6.62532 31.8532 6.74161 32.4184 6.92435 33.1084C7.09878 33.7733 7.2732 34.405 7.30643 34.5131C7.35627 34.6793 7.17353 34.5879 6.14356 33.9146C5.47076 33.4658 4.87272 33.1084 4.81457 33.1084C4.75643 33.1084 4.20822 33.4325 3.59357 33.8232C2.9706 34.2222 2.4307 34.5547 2.38917 34.5713C2.33933 34.5879 2.43901 34.0476 2.61344 33.3743C2.78787 32.7011 2.94568 32.1026 2.9623 32.0527C2.98722 31.9945 2.9706 31.8699 2.92907 31.7784C2.87924 31.687 2.37256 31.2298 1.79943 30.7643C1.23461 30.2906 0.769464 29.8999 0.786076 29.8916C0.794382 29.8833 1.40904 29.8334 2.13998 29.7835C2.9706 29.7253 3.52712 29.6505 3.6351 29.584Z" fill="#112244"></path>
      <path d="M59.5775 29.617C59.6855 29.5588 59.9014 29.1183 60.2503 28.2039C60.5244 27.4725 60.7736 26.874 60.7819 26.874C60.7985 26.874 61.0311 27.4558 61.2969 28.1707C61.5959 28.9936 61.8368 29.5089 61.9447 29.5837C62.0444 29.6502 62.6009 29.725 63.4399 29.7832C64.1708 29.8331 64.7772 29.883 64.7855 29.8913C64.8021 29.8996 64.3452 30.2903 63.7721 30.764C63.199 31.2295 62.6923 31.6867 62.6508 31.7781C62.6009 31.8696 62.5843 31.9942 62.6092 32.0524C62.6259 32.1023 62.792 32.7008 62.9581 33.374C63.1325 34.0473 63.2322 34.5876 63.1907 34.571C63.1408 34.5544 62.6009 34.2219 61.9863 33.8229C61.3633 33.4322 60.8151 33.1081 60.757 33.1081C60.6988 33.1081 60.1008 33.4655 59.428 33.9143C58.4063 34.5876 58.2153 34.679 58.2651 34.5128C58.2983 34.4047 58.4728 33.773 58.6472 33.1081C58.8299 32.4181 58.9462 31.8529 58.9047 31.7781C58.8715 31.7116 58.3731 31.2628 57.7917 30.7807C57.2185 30.2986 56.7534 29.8996 56.77 29.8913C56.7783 29.8747 57.3764 29.8331 58.099 29.7832C58.8216 29.7417 59.4861 29.6585 59.5775 29.617Z" fill="#112244"></path>
      <path d="M8.28675 42.3596C8.39473 42.3014 8.61069 41.8525 8.94294 40.9715C9.20873 40.2566 9.46623 39.6748 9.50776 39.6748C9.54929 39.6748 9.79847 40.2566 10.056 40.9715C10.3799 41.8609 10.5792 42.2931 10.6955 42.3596C10.7869 42.4011 11.4015 42.476 12.066 42.5175C12.7222 42.5508 13.3369 42.5923 13.4199 42.609C13.5196 42.6173 13.204 42.9165 12.4398 43.5399C11.8252 44.0386 11.3185 44.5124 11.3185 44.5789C11.3185 44.6454 11.468 45.2854 11.6507 45.992C11.8335 46.6985 11.9664 47.297 11.9414 47.3219C11.9165 47.3468 11.4431 47.0642 10.8782 46.6902C10.3218 46.3244 9.77356 45.9753 9.67388 45.9255C9.53268 45.8507 9.44131 45.8507 9.3001 45.9255C9.20043 45.9753 8.65222 46.3244 8.09571 46.6902C7.53089 47.0642 7.05743 47.3468 7.03252 47.3219C7.0076 47.297 7.1405 46.7068 7.32323 46.0169C7.50597 45.3187 7.66379 44.6787 7.66379 44.6038C7.66379 44.5124 7.19864 44.0802 6.53414 43.5399C5.76998 42.9165 5.45434 42.6173 5.55402 42.609C5.63708 42.5923 6.25174 42.5508 6.91623 42.5175C7.57242 42.476 8.19538 42.4095 8.28675 42.3596Z" fill="#112244"></path>
      <path d="M56.4955 41.8772C56.5786 41.6528 56.8111 41.0543 57.0105 40.5639C57.2098 40.0652 57.3926 39.6911 57.4258 39.7327C57.4507 39.7659 57.6834 40.3478 57.9409 41.0294C58.2897 41.9271 58.4558 42.2761 58.597 42.3509C58.6966 42.4007 59.3279 42.4757 59.9924 42.5172C60.6486 42.5505 61.2549 42.592 61.3297 42.6087C61.4128 42.617 61.0473 42.9661 60.3911 43.498C59.7931 43.9801 59.2781 44.429 59.2448 44.4955C59.2116 44.5703 59.328 45.1771 59.544 45.9917C59.7433 46.7481 59.8928 47.3714 59.8845 47.3714C59.8762 47.3797 59.3445 47.0472 58.7049 46.6316C58.0654 46.2243 57.4673 45.8835 57.3759 45.8835C57.2846 45.8835 56.6865 46.2244 56.047 46.64C55.4074 47.0556 54.8758 47.3881 54.8675 47.3798C54.8592 47.3715 55.017 46.7481 55.2163 45.9917C55.4323 45.1521 55.5487 44.5703 55.5072 44.4955C55.4739 44.429 54.9589 43.9801 54.3691 43.498C53.7877 43.0242 53.3391 42.6253 53.389 42.6087C53.4305 42.6003 54.0452 42.5505 54.7595 42.5089C55.4655 42.4673 56.1135 42.4008 56.1966 42.3593C56.2796 42.326 56.4124 42.1099 56.4955 41.8772Z" fill="#112244"></path>
      <path d="M17.3153 51.7189C17.3984 51.6773 17.6725 51.1038 17.9798 50.3141C18.2622 49.5827 18.5197 49.0091 18.5447 49.0424C18.5779 49.0839 18.8188 49.6824 19.0846 50.3889C19.3587 51.0872 19.6328 51.6939 19.7075 51.7272C19.774 51.7604 20.4385 51.8269 21.1777 51.8602C21.9253 51.9017 22.5233 51.9599 22.5067 51.9849C22.4984 52.0181 22.0166 52.4254 21.4518 52.8909C20.8787 53.3563 20.3886 53.7803 20.3554 53.8301C20.3222 53.8883 20.4634 54.545 20.6627 55.3014C20.8621 56.0578 21.0199 56.6812 21.0116 56.6895C21.0033 56.7061 20.5963 56.4568 20.1228 56.1492C19.6411 55.8333 19.0762 55.4842 18.5031 55.1351L17.2738 55.9248C16.601 56.357 16.0279 56.7144 16.0113 56.7144C15.9863 56.7144 16.1359 56.091 16.3352 55.3263C16.5761 54.412 16.6758 53.8883 16.6342 53.8052C16.5927 53.7387 16.086 53.3065 15.5212 52.8493C14.9481 52.3922 14.4746 52.0015 14.4746 51.9765C14.4746 51.9516 15.081 51.9017 15.8202 51.8602C16.5595 51.8269 17.2323 51.7604 17.3153 51.7189Z" fill="#112244"></path>
      <path d="M45.8304 52.8492C45.93 52.7827 46.1792 52.2507 46.4949 51.4445C46.769 50.738 47.0098 50.181 47.0431 50.2143C47.068 50.2475 47.3172 50.846 47.583 51.5525C47.8488 52.2507 48.1229 52.8575 48.1976 52.8908C48.2641 52.9323 48.912 52.9905 49.6346 53.0321C50.3572 53.0653 50.9636 53.1152 50.9802 53.1401C50.9968 53.1651 50.5234 53.5807 49.9336 54.0794C49.211 54.6779 48.8622 55.027 48.8622 55.135C48.8622 55.2265 49.0116 55.8748 49.1944 56.573C49.3771 57.2629 49.51 57.8448 49.5017 57.8531C49.4934 57.8614 48.9618 57.5372 48.3222 57.1299C47.6826 56.7226 47.0929 56.3818 47.0098 56.3818C46.9268 56.3818 46.3454 56.7143 45.7059 57.1299C45.0663 57.5455 44.5263 57.8697 44.5097 57.8614C44.4931 57.8448 44.6426 57.238 44.8419 56.5065C45.0413 55.7751 45.1825 55.1184 45.1659 55.0519C45.1409 54.9854 44.6426 54.5283 44.0445 54.0378C43.1309 53.2814 42.9897 53.1318 43.1476 53.1069C43.2472 53.082 43.8618 53.0404 44.5014 53.0155C45.2323 52.9822 45.7224 52.924 45.8304 52.8492Z" fill="#112244"></path>
      <path d="M31.5189 56.6232C31.602 56.5816 31.8761 56.0081 32.1834 55.2185C32.4658 54.487 32.7233 53.9135 32.7565 53.9467C32.7814 53.9883 33.0223 54.5867 33.2964 55.2933C33.5622 55.9915 33.8363 56.5983 33.9111 56.6315C33.9775 56.6648 34.642 56.7313 35.3813 56.7645C36.1288 56.8061 36.7269 56.8642 36.7103 56.8892C36.702 56.9224 36.2451 57.3048 35.6969 57.7536C35.1487 58.2025 34.6503 58.6264 34.6005 58.7012C34.5174 58.8093 34.5756 59.1168 34.8663 60.2057C35.0657 60.9621 35.2235 61.5855 35.2152 61.5938C35.2069 61.6021 34.7251 61.3112 34.1603 60.9455C33.5871 60.5714 33.014 60.2223 32.8894 60.1558C32.6735 60.0395 32.6236 60.0644 31.5023 60.7875C30.8627 61.2031 30.3062 61.519 30.273 61.4941C30.2398 61.4691 30.3643 60.8624 30.5637 60.1392C30.7797 59.308 30.8793 58.7926 30.8378 58.7095C30.7963 58.643 30.2979 58.2108 29.7248 57.7536C29.1516 57.2965 28.6782 56.9058 28.6782 56.8809C28.6782 56.8559 29.2845 56.8061 30.0238 56.7645C30.763 56.7313 31.4358 56.6648 31.5189 56.6232Z" fill="#112244"></path>
      <path fill-rule="evenodd" clip-rule="evenodd" d="M56.7945 10.6658C56.5204 10.6242 55.8144 10.5826 55.2163 10.5909C54.6183 10.5909 53.8957 10.6491 53.5966 10.7073C53.2976 10.7738 52.8325 10.8985 52.5584 10.9982C52.2843 11.0897 51.7693 11.3307 51.4121 11.5219C51.0466 11.7131 50.4901 12.0871 50.1662 12.3448C49.8339 12.6025 49.3356 13.1095 49.0448 13.4669C48.7375 13.8493 48.3305 14.4893 48.0647 15.0296C47.7657 15.6447 47.558 16.2016 47.4418 16.7336C47.2922 17.4152 47.2756 17.7144 47.3089 18.8531C47.3338 19.7093 47.4002 20.3576 47.4833 20.6818C47.558 20.9561 47.8238 21.5878 48.073 22.0948C48.3305 22.6268 48.7458 23.2835 49.0448 23.6575C49.3356 24.0149 49.8339 24.522 50.1579 24.7796C50.4901 25.0373 51.0882 25.428 51.4869 25.6358C51.8939 25.8519 52.467 26.1013 52.766 26.1927C53.065 26.2924 53.5302 26.4088 53.8043 26.4587C54.0784 26.5002 54.7512 26.5418 55.2994 26.5418C55.8476 26.5418 56.5204 26.5002 56.7945 26.4587C57.0686 26.4088 57.5338 26.2924 57.8328 26.1927C58.1318 26.1013 58.7049 25.8519 59.1119 25.6358C59.5106 25.428 60.1087 25.0373 60.4409 24.7796C60.7649 24.522 61.2632 24.0149 61.554 23.6575C61.853 23.2835 62.2683 22.6185 62.5258 22.0948C62.775 21.5878 63.0408 20.9395 63.1238 20.6402C63.2401 20.2163 63.2733 19.7758 63.2733 18.5622C63.2733 17.3487 63.2401 16.9081 63.1238 16.4842C63.0408 16.185 62.775 15.5283 62.5258 15.0296C62.2683 14.5059 61.853 13.841 61.554 13.4669C61.2632 13.1095 60.7649 12.6025 60.4409 12.3448C60.1087 12.0871 59.5106 11.6964 59.1119 11.4886C58.7049 11.2725 58.1318 11.0232 57.8328 10.9317C57.5338 10.832 57.0686 10.7156 56.7945 10.6658ZM54.4688 12.0871C54.1947 12.1287 53.7046 12.2368 53.389 12.3365C53.0734 12.4279 52.5667 12.6357 52.2677 12.7937C51.9686 12.9433 51.4869 13.2675 51.1878 13.5168C50.8888 13.7579 50.4486 14.1984 50.2077 14.4893C49.9668 14.7886 49.6429 15.2707 49.4934 15.5699C49.3356 15.8691 49.103 16.4427 48.9784 16.8583C48.7957 17.4817 48.7541 17.7643 48.7541 18.5622C48.7541 19.3602 48.7957 19.6428 48.9784 20.2662C49.103 20.6735 49.3356 21.2554 49.4851 21.5546C49.6429 21.8538 49.9668 22.3359 50.216 22.6352C50.4569 22.9344 50.8971 23.3749 51.1878 23.616C51.4869 23.857 52.0268 24.2061 52.3922 24.389C52.7577 24.5636 53.3558 24.7963 53.7212 24.8877C54.203 25.0124 54.6349 25.0623 55.2994 25.0623C55.9639 25.0623 56.3958 25.0124 56.8776 24.8877C57.2431 24.7963 57.8411 24.5636 58.2066 24.389C58.572 24.2061 59.1119 23.857 59.411 23.616C59.7017 23.3749 60.1419 22.9344 60.3828 22.6352C60.632 22.3359 60.9559 21.8538 61.1137 21.5546C61.2632 21.2554 61.4958 20.6735 61.6204 20.2662C61.8032 19.6428 61.8447 19.3602 61.8447 18.5622C61.8447 17.7643 61.8032 17.4817 61.6204 16.8583C61.4958 16.4427 61.2632 15.8691 61.1137 15.5699C60.9559 15.2707 60.632 14.7886 60.3828 14.4893C60.1419 14.1901 59.7017 13.7496 59.411 13.5085C59.1119 13.2675 58.572 12.9183 58.2066 12.7355C57.8411 12.5609 57.2597 12.3365 56.9191 12.2534C56.5786 12.1619 55.9971 12.0788 55.6317 12.0539C55.2662 12.029 54.7429 12.0456 54.4688 12.0871Z" fill="#112244"></path>
      <path d="M20.9951 26.6084C20.5465 26.4837 20.0731 26.4338 18.9185 26.4089C17.5978 26.3757 17.3487 26.3923 16.8004 26.5419C16.4599 26.6417 15.9532 26.8328 15.6791 26.9824C15.405 27.1237 14.9731 27.4479 14.7156 27.7056C14.4332 27.9799 14.1342 28.3955 13.9597 28.7446C13.7936 29.0605 13.6192 29.5509 13.5527 29.8252C13.4946 30.0995 13.4531 30.7146 13.4531 31.1967C13.4531 31.6788 13.4946 32.2939 13.5527 32.5682C13.6109 32.8425 13.8019 33.3495 13.9763 33.6903C14.1757 34.0726 14.4664 34.4799 14.7405 34.7376C14.9814 34.9703 15.4548 35.2945 15.7788 35.4608C16.111 35.6353 16.6177 35.8265 16.9001 35.893C17.2324 35.9678 17.847 36.0177 18.5863 36.0177C19.4086 36.0177 19.9734 35.9678 20.4967 35.8597C20.912 35.7766 21.4851 35.6104 21.7842 35.5023L22.3241 35.2945L22.3656 30.8642H18.7939V32.2772C19.8571 32.2772 20.0731 32.3105 20.1645 32.4019C20.2558 32.4933 20.289 32.7261 20.289 33.3578C20.289 33.9895 20.2558 34.2223 20.1645 34.3137C20.098 34.3802 19.8654 34.4633 19.6412 34.4882C19.4252 34.5215 18.9517 34.5298 18.5863 34.5049C18.171 34.4799 17.764 34.3968 17.5065 34.2888C17.2573 34.1807 16.9084 33.923 16.626 33.6321C16.2605 33.2497 16.1193 33.0253 15.9615 32.5682C15.8037 32.111 15.7622 31.8201 15.7705 31.1967C15.7705 30.5899 15.8203 30.274 15.9698 29.8252C16.1276 29.3514 16.2605 29.1519 16.6675 28.728C17.1078 28.2874 17.2573 28.196 17.7557 28.0464C18.1377 27.93 18.5614 27.8718 19.0016 27.8718C19.392 27.8718 19.9402 27.9383 20.3306 28.0381C20.696 28.1295 21.2276 28.3207 21.5101 28.4537L22.0333 28.703V26.9575C21.6762 26.8162 21.319 26.6998 20.9951 26.6084Z" fill="#112244"></path>
      <path fill-rule="evenodd" clip-rule="evenodd" d="M26.5434 26.542H24.3589V35.9346C25.937 35.9346 27.0501 35.8931 27.8475 35.8598C28.6449 35.8183 29.5585 35.7185 29.8825 35.6437C30.2064 35.5689 30.6882 35.3861 30.954 35.2447C31.2281 35.0951 31.6434 34.8042 31.8677 34.5964C32.1418 34.3554 32.4159 33.9813 32.6401 33.5574C32.8229 33.2 33.0222 32.6763 33.0721 32.402C33.1219 32.1277 33.1634 31.5874 33.1634 31.1968C33.1634 30.8061 33.1219 30.2658 33.0721 29.9915C33.0222 29.7172 32.8229 29.1936 32.6401 28.8361C32.4076 28.3956 32.1418 28.0382 31.8344 27.7639C31.5853 27.5311 31.1201 27.2236 30.7962 27.0657C30.4307 26.8911 29.9406 26.7415 29.4672 26.6667C28.9439 26.5753 28.0717 26.542 26.5434 26.542ZM26.7427 34.239C26.6182 34.1143 26.6015 33.8566 26.5932 31.2466C26.5932 28.62 26.6015 28.3707 26.7344 28.246C26.859 28.1296 27.0169 28.113 27.7561 28.1379C28.4123 28.1712 28.7612 28.2294 29.1349 28.3707C29.4838 28.5037 29.7662 28.7031 30.0652 29.0107C30.4224 29.3681 30.5387 29.5593 30.6716 30.0081C30.7712 30.3406 30.8377 30.8061 30.8377 31.1303C30.8377 31.4461 30.7962 31.87 30.7546 32.0862C30.7048 32.3106 30.547 32.6929 30.3975 32.9423C30.2563 33.1917 29.9655 33.5158 29.7579 33.6738C29.5502 33.8234 29.1432 34.0229 28.8442 34.106C28.5452 34.1891 27.9887 34.2889 27.5983 34.3138C27.0085 34.3637 26.8673 34.347 26.7427 34.239Z" fill="#112244"></path>
      <path fill-rule="evenodd" clip-rule="evenodd" d="M37.4245 26.542H34.9077V35.9346H37.1504C37.1504 33.2332 37.1753 32.8342 37.2584 32.7511C37.3331 32.6846 37.8149 32.6264 38.6538 32.5849C39.3598 32.5516 40.1572 32.4685 40.4313 32.3937C40.7054 32.3272 41.1291 32.1527 41.3782 32.003C41.6191 31.8534 41.9264 31.5874 42.051 31.4046C42.1839 31.2217 42.3501 30.9058 42.4165 30.698C42.5079 30.457 42.5494 30.0497 42.5494 29.5344C42.5494 29.019 42.5079 28.6117 42.4165 28.3707C42.3501 28.1629 42.1839 27.847 42.051 27.6641C41.9264 27.4813 41.6191 27.2153 41.3782 27.0657C41.1291 26.916 40.7054 26.7415 40.4313 26.6667C40.0326 26.5669 39.418 26.542 37.4245 26.542ZM37.2999 31.0056C37.167 30.8809 37.1504 30.6897 37.1421 29.5842C37.1421 28.4953 37.1587 28.2792 37.275 28.1712C37.383 28.0714 37.5989 28.0382 38.2385 28.0382C38.795 28.0382 39.1605 28.0797 39.3765 28.1712C39.5426 28.2377 39.7668 28.379 39.8748 28.4787C39.9828 28.5785 40.124 28.8611 40.1905 29.0938C40.2901 29.4762 40.2901 29.5925 40.1905 29.9666C40.124 30.2076 39.9828 30.4902 39.8748 30.59C39.7668 30.6897 39.5343 30.831 39.3515 30.9058C39.1688 30.9807 38.6621 31.0638 38.2302 31.0887C37.5657 31.1303 37.4162 31.1136 37.2999 31.0056Z" fill="#112244"></path>
      <path fill-rule="evenodd" clip-rule="evenodd" d="M49.4937 26.5831L44.1362 26.5332L44.1279 35.9341H46.3706C46.3706 32.7922 46.3872 32.5096 46.5035 32.4015C46.5865 32.3184 46.8025 32.2768 47.1264 32.2768C47.3922 32.2768 47.7162 32.3184 47.8408 32.3683C47.9736 32.4098 48.2228 32.601 48.4056 32.7756C48.6381 33 48.9538 33.532 49.4438 34.5211L50.1499 35.9341C51.9855 35.9341 52.5171 35.9175 52.5171 35.8926C52.5171 35.8676 52.1267 35.078 51.6533 34.1221C51.1715 33.1745 50.6898 32.3018 50.5735 32.1688C50.4489 32.0441 50.208 31.8529 50.0253 31.7366C49.8425 31.6202 49.7096 31.4789 49.7346 31.4207C49.7595 31.3708 49.9173 31.2711 50.0834 31.2046C50.2579 31.1381 50.5569 30.922 50.7479 30.7225C51.0054 30.4648 51.1466 30.2321 51.238 29.883C51.3377 29.5588 51.3626 29.218 51.3377 28.7858C51.3044 28.312 51.238 28.0543 51.0552 27.7052C50.8393 27.2896 50.7562 27.2148 50.1582 26.9155L49.4937 26.5831ZM46.5118 30.6726C46.3872 30.5562 46.3623 30.3734 46.3623 29.4175C46.3539 28.4616 46.3789 28.287 46.4951 28.1624C46.6197 28.0543 46.7859 28.0294 47.4421 28.0543C47.9238 28.0709 48.3308 28.1291 48.4803 28.2122C48.6132 28.2787 48.7877 28.4283 48.879 28.5364C48.9621 28.6528 49.0535 28.8938 49.0784 29.0767C49.1116 29.2596 49.0867 29.5837 49.0368 29.7832C48.9787 29.991 48.8541 30.2404 48.7544 30.3401C48.6548 30.4316 48.4554 30.5479 48.3225 30.5978C48.1813 30.6477 47.7494 30.7142 47.3673 30.7474C46.7693 30.7973 46.6364 30.789 46.5118 30.6726Z" fill="#112244"></path>
      <path d="M58.0404 15.7358C58.3145 15.5114 58.8045 15.1789 59.1202 14.996C59.4358 14.8049 59.7265 14.6553 59.7597 14.6553C59.7847 14.6553 59.8013 14.7384 59.7763 14.8381C59.7597 14.9462 59.685 15.42 59.6102 15.9021C59.4856 16.6418 59.4773 16.8663 59.5687 17.3982L59.5704 17.4096C59.6195 17.7453 59.6599 18.0217 59.6435 18.03C59.6268 18.03 59.4109 18.1297 59.1617 18.2544C58.9125 18.3791 58.3726 18.7282 57.9573 19.0357C57.5503 19.3516 56.7446 20.0664 56.1632 20.6399C55.59 21.2135 54.8342 22.0364 54.477 22.4686C54.1198 22.9008 53.8042 23.2915 53.771 23.3247C53.7461 23.358 53.4553 23.0588 53.1314 22.6598C52.8075 22.2608 52.1845 21.5875 51.7609 21.1802C51.329 20.7646 50.7558 20.2825 49.9834 19.7506L51.2708 19.1105C51.9768 18.7614 52.5666 18.4788 52.5749 18.4954C52.5832 18.5121 52.8075 19.044 53.0816 19.6841C53.5052 20.6898 53.5966 20.8477 53.7627 20.8477C53.9122 20.8477 54.0451 20.6815 54.4189 20.0747C54.6764 19.6508 55.1664 18.9277 55.507 18.4539C55.8475 17.9884 56.4456 17.2736 56.836 16.8663C57.2264 16.4673 57.7663 15.9519 58.0404 15.7358Z" fill="#112244"></path>
    </g>
  </g>
  <defs>
    <clipPath id="clip0_765_753">
      <rect width="65" height="64" fill="white" transform="translate(0.5)"></rect>
    </clipPath>
  </defs>
</svg>
