<?xml version="1.0" encoding="UTF-8"?>
<svg xmlns="http://www.w3.org/2000/svg" width="98" height="64" viewBox="0 0 98 64" fill="none">
  <mask id="mask0_765_775" style="mask-type:luminance" maskUnits="userSpaceOnUse" x="16" y="12" width="69" height="38">
    <path d="M84.3574 12H16.3574V50H84.3574V12Z" fill="white"></path>
  </mask>
  <g mask="url(#mask0_765_775)">
    <path fill-rule="evenodd" clip-rule="evenodd" d="M72.4922 12.0878C72.8183 12.081 73.4081 12.1152 73.8105 12.1495C74.213 12.1906 74.8375 12.2866 75.1983 12.3689C75.5591 12.4443 76.1697 12.6156 76.5514 12.7459C76.933 12.8761 77.5436 13.1366 77.9044 13.3148C78.2652 13.4931 78.8412 13.829 79.1881 14.0552C79.535 14.2814 80.0763 14.6927 80.4024 14.9737C80.7285 15.2548 81.2281 15.7484 81.5126 16.0842C81.7971 16.4133 82.2134 16.948 82.4355 17.277C82.6644 17.606 83.0114 18.2161 83.2126 18.6274C83.4138 19.0387 83.6775 19.6762 83.7955 20.0327C83.9203 20.3892 84.0869 20.9924 84.1701 21.3694C84.302 21.9589 84.3228 22.2674 84.3228 23.6316C84.3228 25.0094 84.302 25.2973 84.1701 25.928C84.0799 26.3256 83.9065 26.9562 83.7746 27.3332C83.6497 27.7103 83.4554 28.2038 83.3583 28.43C83.2542 28.6562 83.0114 29.1224 82.8101 29.4583C82.6159 29.7942 82.2689 30.322 82.0399 30.6236C81.811 30.9252 81.3738 31.4325 81.0685 31.7547C80.7563 32.0769 80.4301 32.4265 80.1595 32.7281L80.0901 46.9384L79.7501 47.5211C79.5697 47.8433 79.313 48.2408 79.1812 48.4122C79.0493 48.5836 78.7995 48.8372 78.6191 48.9743C78.4318 49.1114 78.0085 49.3788 77.0371 49.9203H19.3759L18.8554 49.6324C18.571 49.4816 18.1546 49.228 17.9326 49.0703C17.7036 48.9126 17.4052 48.6316 17.2595 48.4465C17.1138 48.2546 16.8501 47.8433 16.3506 46.9384L16.3575 21.4037L16.6142 20.9376C16.753 20.6839 17.0028 20.2863 17.1693 20.0464C17.3289 19.8133 17.6134 19.5049 17.7938 19.3609C17.9812 19.2238 18.3975 18.9565 19.3412 18.4561L62.2297 18.3532L62.4101 18.0448C62.5142 17.8734 62.771 17.4758 62.9861 17.1536C63.2081 16.8314 63.6036 16.3242 63.8673 16.0226C64.131 15.7209 64.6444 15.2274 65.0052 14.9326C65.3661 14.631 65.935 14.206 66.282 13.9798C66.6289 13.7604 67.2187 13.4314 67.6003 13.2463C67.982 13.0612 68.6203 12.8007 69.0228 12.6705C69.4252 12.5402 70.0012 12.3826 70.3065 12.3209C70.6118 12.266 71.0975 12.1906 71.382 12.1564C71.6665 12.1221 72.1661 12.0947 72.4922 12.0878ZM70.6881 14.4528C70.4036 14.5145 69.904 14.6584 69.5779 14.7681C69.2518 14.8846 68.7106 15.1177 68.3636 15.2891C68.0167 15.4673 67.4893 15.7963 67.184 16.0157C66.8787 16.2419 66.3514 16.708 66.0114 17.0439C65.6714 17.3867 65.1995 17.9282 64.9497 18.2504C64.7069 18.5726 64.3599 19.1278 64.1726 19.4843C63.9852 19.8408 63.7216 20.4577 63.5828 20.8553C63.4301 21.3146 63.3122 21.815 63.2636 22.2263C63.2289 22.5827 63.1942 23.1723 63.1942 23.5287C63.1942 23.8852 63.2289 24.5296 63.2636 24.9477C63.3122 25.503 63.4024 25.9211 63.5689 26.4215C63.6938 26.8123 63.9436 27.4018 64.1171 27.7445C64.2905 28.0804 64.6167 28.622 64.8457 28.9441C65.0816 29.2663 65.5881 29.8421 65.9836 30.2329C66.3791 30.6168 66.9481 31.1172 67.2534 31.3434C67.5587 31.5765 68.1554 31.9261 68.5718 32.1248C68.9881 32.3305 69.6473 32.5978 70.0289 32.7281L70.7228 32.9543H74.6085C75.7881 32.5567 76.482 32.2688 76.8983 32.0632C77.3146 31.8575 77.8767 31.5285 78.1473 31.3297C78.411 31.1309 78.9452 30.6579 79.3269 30.2809C79.7085 29.9038 80.1873 29.376 80.3885 29.1155C80.5897 28.8482 80.902 28.3409 81.0893 27.9845C81.2836 27.628 81.5473 27.0248 81.6861 26.6477C81.8318 26.2707 81.9844 25.7292 82.0399 25.4481C82.0954 25.1465 82.1301 24.4404 82.1371 23.7481C82.1371 23.1037 82.1024 22.3291 82.0608 22.0343C82.0191 21.7464 81.8942 21.2255 81.7763 20.8896C81.6652 20.5468 81.4363 19.9916 81.2697 19.6557C81.1032 19.3129 80.791 18.792 80.5759 18.4903C80.3538 18.1887 79.9791 17.7226 79.7363 17.4621C79.5003 17.1948 79.0493 16.7629 78.7371 16.5024C78.4248 16.2351 77.9599 15.8855 77.7032 15.7209C77.4534 15.5496 76.9954 15.2959 76.6901 15.1588C76.3848 15.0149 75.8991 14.8229 75.6146 14.7338C75.3301 14.6379 74.7959 14.5076 74.435 14.4459C74.0742 14.3842 73.2901 14.3225 72.7003 14.3088C72.1105 14.2951 71.5277 14.302 71.4167 14.3157C71.2987 14.3294 70.9726 14.3979 70.6881 14.4528ZM23.5044 33.6055H24.9963C25.0865 30.4454 25.1142 29.52 25.1212 29.5063C25.1281 29.4994 26.0024 29.4651 27.064 29.4377L28.9861 29.3897V33.6055H30.5126V24.3513H28.9861V28.053H25.031V24.3513H23.5044V33.6055ZM32.9412 25.6058C32.9412 26.2913 32.962 28.3546 32.9967 30.1986L33.0452 33.537H34.5024C34.5857 29.472 34.6065 27.4086 34.6065 26.3256V24.3513H32.9412V25.6058ZM37.035 33.6124H38.631V30.1849C40.0881 30.1849 40.6432 30.1369 40.9693 30.0752C41.2677 30.0135 41.7257 29.8627 41.9963 29.7462C42.3085 29.6022 42.6138 29.3966 42.8428 29.1704C43.044 28.9716 43.273 28.6768 43.3493 28.5191C43.4257 28.3615 43.5228 27.9845 43.5714 27.6828C43.6338 27.2784 43.6338 27.011 43.5852 26.6889C43.5436 26.4421 43.4395 26.0856 43.3493 25.9005C43.2522 25.7086 43.044 25.4207 42.8844 25.263C42.7179 25.1054 42.3918 24.8792 42.1489 24.7695C41.8852 24.6392 41.5175 24.5364 41.1983 24.4953C40.9138 24.461 39.8661 24.4062 38.8669 24.3787L37.0559 24.3308L37.035 33.6124ZM46.0069 27.4223C45.4657 29.0401 44.7995 31.0555 44.5289 31.8986C44.2583 32.7486 44.0501 33.489 44.0779 33.5438C44.1126 33.6329 44.2444 33.6398 44.8065 33.6124C45.1812 33.5987 45.5073 33.5644 45.5281 33.5438C45.5559 33.5301 45.7224 33.0023 45.9097 32.3785C46.2359 31.3023 46.2567 31.2474 46.451 31.1994C46.555 31.172 47.131 31.1309 47.7208 31.1035C48.3106 31.0829 48.9489 31.076 49.1293 31.1035C49.393 31.1377 49.4763 31.1789 49.5526 31.3365C49.6012 31.4394 49.7816 31.9946 49.9481 32.5704L50.2534 33.6192C51.8008 33.6124 51.8146 33.6124 51.8146 33.4616C51.8146 33.3724 51.1554 31.316 50.3506 28.8825C49.5457 26.4558 48.8865 24.461 48.8795 24.4541C48.8726 24.4473 48.5048 24.4267 48.0677 24.4062C47.6236 24.3787 47.2073 24.3925 47.131 24.4267C47.0199 24.4747 46.784 25.1191 46.0069 27.4223ZM54.8677 26.9151C54.4028 28.3203 53.7783 30.2055 53.4799 31.1103C53.1885 32.0152 52.8901 32.92 52.8277 33.1188L52.7167 33.4753C53.015 33.5507 53.362 33.5781 53.6812 33.5781H54.264C54.7289 31.9877 54.9093 31.4394 54.9579 31.3297L55.0412 31.1446C57.7334 31.1377 58.115 31.1652 58.1775 31.2268C58.2191 31.2817 58.4134 31.8095 58.6008 32.4128C58.9269 33.4616 58.9546 33.5164 59.142 33.5575C59.253 33.5781 59.5722 33.5987 59.8497 33.6055C60.1273 33.6124 60.391 33.5987 60.4395 33.5781C60.502 33.5507 60.4673 33.3382 60.2938 32.7349C60.162 32.2962 59.6208 30.6099 59.0865 28.9853C58.5522 27.3675 57.9971 25.6606 57.8444 25.2013L57.5738 24.3582H55.7073L54.8677 26.9151ZM24.4065 37.6431C24.2399 37.7459 23.9763 37.9378 23.8306 38.0681C23.6848 38.2052 23.4767 38.452 23.3657 38.6233C23.2546 38.7947 23.1159 39.0689 23.0603 39.2403C22.9979 39.4117 22.9216 39.823 22.8869 40.1657C22.8522 40.5153 22.8522 41.0157 22.8799 41.3311C22.9285 41.7355 23.0048 42.0028 23.1852 42.3593C23.331 42.6541 23.5599 42.9625 23.782 43.1613C23.9763 43.3396 24.344 43.5863 24.6008 43.7097C25.031 43.9154 25.1212 43.9359 25.7595 43.9359C26.3771 43.9359 26.502 43.9154 26.835 43.7509C27.0501 43.648 27.3208 43.4629 27.4526 43.3396L27.6816 43.1133C27.4873 42.7706 27.3554 42.6266 27.2722 42.5787C27.1403 42.5033 27.0848 42.517 26.8559 42.6746C26.7101 42.7706 26.4673 42.894 26.3146 42.942C26.155 42.99 25.8636 43.0174 25.6208 42.9968C25.364 42.9762 25.0865 42.9008 24.8922 42.798C24.684 42.6815 24.5106 42.517 24.3718 42.2907C24.2608 42.0988 24.122 41.7629 24.0734 41.5367C24.011 41.2762 23.9901 40.8512 24.004 40.4056C24.0318 39.8504 24.0734 39.6036 24.1914 39.3431C24.2746 39.1512 24.4481 38.8975 24.5661 38.7673C24.691 38.6439 24.913 38.4725 25.0657 38.3971C25.2738 38.2875 25.475 38.2463 25.8359 38.2463C26.273 38.2463 26.3632 38.2669 26.6685 38.4657L27.0085 38.685L27.6746 38.0407C27.4318 37.8556 27.1889 37.7116 26.9738 37.602C26.7657 37.4923 26.4048 37.3689 26.1759 37.3278C25.9469 37.2866 25.7318 37.2524 25.6901 37.2592C25.6554 37.2592 25.4195 37.3072 25.1697 37.362C24.9269 37.4169 24.5799 37.5403 24.4065 37.6431ZM29.784 37.6294C29.6314 37.7185 29.3608 37.9447 29.1803 38.1366C28.9999 38.3286 28.771 38.6439 28.6808 38.8427C28.5836 39.0415 28.4587 39.4391 28.3963 39.7201C28.313 40.0835 28.2922 40.3988 28.3199 40.8169C28.3477 41.1391 28.4101 41.5847 28.4726 41.8109C28.535 42.0371 28.6669 42.373 28.771 42.5512C28.8681 42.7363 29.1179 43.0379 29.3191 43.223C29.5203 43.4081 29.8603 43.6412 30.0824 43.744C30.4363 43.9154 30.5612 43.9359 31.1718 43.9359C31.8032 43.9359 31.9073 43.9154 32.282 43.7303C32.511 43.6206 32.8718 43.3601 33.0869 43.1476C33.302 42.942 33.5587 42.5992 33.6559 42.3936C33.753 42.1879 33.8848 41.8178 33.9473 41.571C34.0028 41.3242 34.0514 40.906 34.0514 40.6456C34.0583 40.3782 33.9889 39.9189 33.9126 39.6173C33.8363 39.3157 33.6836 38.9113 33.5795 38.7262C33.4824 38.5342 33.2257 38.212 33.0106 37.9995C32.7469 37.7322 32.511 37.5745 32.2334 37.4717C32.0114 37.3895 31.6089 37.3072 31.3314 37.2866C30.9914 37.2592 30.7069 37.2866 30.4432 37.362C30.235 37.4169 29.9367 37.5403 29.784 37.6294ZM35.4391 43.9017H36.4799C36.4175 39.7955 36.4314 39.3088 36.5008 39.302C36.5493 39.302 36.8338 39.9395 37.1669 40.7964C37.4861 41.619 37.8191 42.4416 37.9024 42.6335C37.9857 42.8186 38.1106 43.0105 38.173 43.0585C38.2354 43.1065 38.3465 43.1339 38.4228 43.1133C38.5199 43.0928 38.6587 42.8871 38.8322 42.5101C38.9848 42.2016 39.3318 41.3448 39.6163 40.6044C39.954 39.7087 40.1552 39.2631 40.2199 39.2677C40.3032 39.2746 40.3101 39.631 40.2755 41.5847L40.2269 43.9017H41.2677V37.3895L40.0534 37.3826C39.8175 37.9995 39.533 38.7604 39.2693 39.4802C39.0057 40.1931 38.7142 40.9677 38.624 41.194C38.5338 41.427 38.4159 41.6053 38.3603 41.6053C38.2979 41.6053 38.1591 41.3311 37.9857 40.8855C37.8399 40.4879 37.493 39.5488 37.2154 38.7947L36.7159 37.4237L35.4461 37.3826L35.4391 43.9017ZM43.0718 43.9017C43.8559 43.8331 44.0848 43.8125 44.0918 43.8057C44.0987 43.8057 44.1334 43.2847 44.1612 42.6609L44.2167 41.5161C45.431 41.4613 45.8265 41.4065 46.1248 41.3036C46.3746 41.2214 46.7285 41.0431 46.9159 40.8992C47.1032 40.7621 47.3183 40.5702 47.3877 40.4742C47.4779 40.3576 47.5473 40.104 47.5889 39.6859C47.6306 39.35 47.6444 38.9455 47.6236 38.7947C47.5959 38.6096 47.4987 38.4246 47.3183 38.212C47.1657 38.0407 46.895 37.8213 46.7077 37.7185C46.4995 37.6088 46.1665 37.5128 45.8334 37.4649C45.535 37.4237 44.7926 37.3895 44.182 37.3895H43.0718V43.9017ZM49.0391 43.9017H52.8554V42.8734H50.1493V37.3895H49.0391V43.9017ZM54.1044 43.9017H55.2146V37.3895H54.1044V43.9017ZM57.3379 40.1657C56.8661 41.5984 56.3942 43.0242 56.2971 43.3396L56.1167 43.9017L57.1922 43.9085L57.7542 42.0851C58.7742 42.0577 59.2808 42.0714 59.5514 42.0988L60.0301 42.1536L60.5575 43.8331H61.7371L59.5514 37.3895C58.455 37.3895 58.2538 37.4169 58.233 37.4786C58.2191 37.5197 57.8167 38.733 57.3379 40.1657ZM62.5697 43.9017H63.784C63.7008 41.5367 63.6591 40.4742 63.6244 40.0149C63.5828 39.2883 63.5897 39.1717 63.6799 39.1717C63.7424 39.1717 63.9852 39.5419 64.2975 40.1109C64.575 40.6318 65.1648 41.6944 65.595 42.4827L66.3861 43.9017H67.4269V37.3895C66.622 37.3895 66.3999 37.41 66.4138 37.4443C66.4277 37.4717 66.4555 38.5342 66.4832 39.8093C66.5179 41.6327 66.511 42.1194 66.4416 42.1194C66.393 42.1262 66.053 41.5641 65.6852 40.8718C65.3105 40.1794 64.7832 39.206 64.5057 38.7056C64.2212 38.2052 63.9297 37.7253 63.8465 37.6431C63.7701 37.5608 63.5967 37.4717 63.4648 37.4374C63.3399 37.41 63.0832 37.3895 62.9028 37.3895H62.5697V43.9017ZM68.7452 38.3491H70.5493V43.9017H71.7289V38.3491H73.6024V37.3895H68.7452V38.3491ZM77.5991 19.0182C77.613 19.0182 77.7448 19.073 77.8905 19.1484C78.0293 19.217 78.3416 19.4569 78.5844 19.6762C78.9244 19.9916 79.0146 20.1287 79.0146 20.2863C79.0216 20.4166 78.9105 20.6565 78.7232 20.9376C78.5497 21.198 77.6477 22.1577 76.5861 23.2271C75.573 24.2416 74.0257 25.7566 73.1444 26.586C72.2563 27.4223 71.4375 28.1558 71.1044 28.3409L70.7436 28.053C70.5424 27.8885 69.8901 27.3127 69.3003 26.7574C68.7106 26.209 67.8848 25.3864 67.4616 24.9409C67.0383 24.4953 66.6081 24.0223 66.504 23.9058C66.3791 23.7549 66.3167 23.6041 66.3167 23.4396C66.3167 23.2408 66.393 23.1243 66.7885 22.7061C67.0452 22.4388 67.3783 22.1303 67.531 22.0206C67.6836 21.911 67.871 21.8287 67.9473 21.8287C68.0236 21.8287 68.2873 22.0001 68.5371 22.2057C68.7869 22.4114 69.5363 23.1037 71.4167 24.8997L73.7412 22.6239C75.0179 21.3763 76.4056 20.0533 76.815 19.6831C77.2314 19.3198 77.5852 19.0182 77.5991 19.0182ZM38.631 25.5989H38.9293C39.0889 25.5989 39.5954 25.6332 40.0534 25.6675C40.5114 25.7018 41.0248 25.7772 41.1983 25.8389C41.3718 25.9005 41.5799 26.0171 41.6701 26.0993C41.7603 26.1816 41.8922 26.4147 41.9685 26.6135C42.0379 26.8054 42.1003 27.0865 42.1003 27.2304C42.1003 27.3675 42.0518 27.6211 41.9963 27.7925C41.9338 27.9639 41.8159 28.1901 41.7326 28.3066C41.6493 28.4163 41.4273 28.574 41.233 28.6631C41.0387 28.7522 40.6363 28.8482 40.2963 28.8825C39.9701 28.9236 39.4636 28.9647 38.631 29.0264V25.5989ZM56.6301 25.7566C56.6718 25.7703 56.9493 26.6272 57.2408 27.6623C57.5322 28.6974 57.775 29.6091 57.782 29.6982C57.782 29.8353 57.7473 29.8559 57.2824 29.8901C57.0048 29.9107 56.4983 29.9038 56.1514 29.8696C55.6032 29.8216 55.5269 29.801 55.5061 29.6776C55.4922 29.6022 55.6587 28.8962 55.8738 28.101C56.0889 27.3127 56.3318 26.4489 56.4081 26.1953C56.4914 25.928 56.5816 25.736 56.6301 25.7566ZM47.9497 25.8937C47.9983 25.9074 48.151 26.3187 48.2897 26.8054C48.4355 27.2921 48.6644 28.149 48.8101 28.7042C49.0391 29.5817 49.0599 29.7256 48.9697 29.7805C48.9142 29.8079 48.6436 29.8559 48.3661 29.8764C48.0885 29.897 47.6236 29.897 47.3322 29.8696C47.0408 29.8353 46.784 29.7873 46.7701 29.7462C46.7493 29.7119 46.9436 28.9373 47.1865 28.0324C47.4363 27.1276 47.6861 26.2707 47.7554 26.1268C47.8179 25.9828 47.9081 25.8731 47.9497 25.8937ZM31.4701 38.2806C31.6089 38.3012 31.8379 38.3834 31.9697 38.4588C32.1016 38.5342 32.3167 38.7467 32.4416 38.9318C32.5734 39.1238 32.7261 39.4459 32.7885 39.6516C32.851 39.8641 32.8995 40.2822 32.8995 40.6113C32.8995 41.0157 32.851 41.3448 32.7538 41.6738C32.6706 41.9411 32.5179 42.2702 32.4069 42.4073C32.3028 42.5444 32.0599 42.7432 31.8657 42.846C31.5742 43.0037 31.4563 43.0242 31.0954 43.0037C30.7554 42.9831 30.6028 42.9351 30.3669 42.7706C30.2003 42.6541 29.9575 42.3936 29.8326 42.1879C29.7077 41.9823 29.5759 41.6875 29.5273 41.5367C29.4857 41.3859 29.451 40.9883 29.451 40.6456C29.451 40.2617 29.4926 39.8778 29.5689 39.6173C29.6383 39.3911 29.7701 39.0758 29.8603 38.9181C29.9506 38.7536 30.124 38.5617 30.235 38.4862C30.353 38.4108 30.6167 38.3286 30.8248 38.2943C31.0399 38.2669 31.3244 38.26 31.4701 38.2806ZM44.182 38.212H44.6538C44.9105 38.212 45.2922 38.2463 45.5003 38.2806C45.7085 38.3217 45.9861 38.404 46.1179 38.4725C46.2428 38.5342 46.4093 38.6987 46.4787 38.829C46.555 38.9661 46.6106 39.206 46.6106 39.3774C46.6106 39.5488 46.5481 39.8161 46.4718 39.9806C46.3954 40.1451 46.2497 40.3097 46.1457 40.3645C46.0416 40.4125 45.7987 40.4879 45.6044 40.529C45.4171 40.5702 45.0146 40.625 44.182 40.7141V38.212ZM58.8714 38.4177C58.9754 38.4177 59.0587 38.6439 59.3293 39.6036C59.5097 40.248 59.6832 40.8923 59.7595 41.2556L58.9269 41.2077C58.4689 41.1802 58.0803 41.146 58.0595 41.1254C58.0387 41.1048 58.1914 40.529 58.3926 39.8367C58.5938 39.1512 58.7534 38.5479 58.7534 38.5068C58.7534 38.4588 58.8089 38.4177 58.8714 38.4177Z" fill="#112244"></path>
  </g>
</svg>
