<svg width="56" height="56" viewBox="0 0 56 56" fill="none" xmlns="http://www.w3.org/2000/svg">
<path d="M34.9592 53.04V50.56C38.2392 49.52 41.3592 47.76 44.0792 45.28L46.2392 46.48C47.3592 47.12 48.6392 46.88 49.4392 45.92C50.4792 44.72 51.4392 43.44 52.2392 42C53.0392 40.64 53.7592 39.12 54.3192 37.6C54.6392 36.4 54.1592 35.12 53.1192 34.56L50.9592 33.36C51.3592 31.84 51.5192 30 51.5192 28.08C51.5192 26.16 51.3592 24.48 50.9592 22.8L53.1192 21.6C54.2392 20.96 54.7192 19.68 54.2392 18.56C53.7592 17.2 53.1192 15.84 52.1592 14.16C51.3592 12.8 50.3992 11.44 49.3592 10.24C48.5592 9.28 47.1992 9.04 46.1592 9.68L43.9992 10.8C41.3592 8.4 38.1592 6.56 34.8792 5.52V2.96C34.8792 1.68 33.9992 0.64 32.7192 0.4C31.0392 0.16 29.4392 0 27.9992 0C26.5592 0 24.9592 0.16 23.1992 0.4C21.9192 0.64 21.0392 1.68 21.0392 2.96V5.44C17.7592 6.48 14.6392 8.24 11.9192 10.72L9.75922 9.52C8.63922 8.88 7.35922 9.12 6.55922 10.08C5.51922 11.2 4.55922 12.56 3.75922 14C2.95922 15.36 2.23922 16.88 1.67922 18.4C1.27922 19.6 1.67922 20.88 2.79922 21.44L4.95922 22.64C4.55922 24.16 4.39922 26 4.39922 27.92C4.39922 29.84 4.55922 31.52 4.95922 33.2L2.79922 34.4C1.59922 35.12 1.19922 36.4 1.59922 37.6C2.07922 38.96 2.71922 40.32 3.67922 42C4.47922 43.44 5.43922 44.72 6.47922 45.92C7.27922 46.88 8.63922 47.12 9.67922 46.48L11.8392 45.28C14.4792 47.68 17.6792 49.52 20.9592 50.56V53.04C20.9592 54.32 21.8392 55.36 23.1192 55.6C24.8792 55.84 26.4792 56 27.9192 56C29.3592 56 30.9592 55.84 32.7192 55.6C34.0792 55.36 34.9592 54.32 34.9592 53.04ZM33.4392 50V53.12C33.4392 53.6 33.1192 54 32.6392 54.08C30.9592 54.32 29.4392 54.48 28.0792 54.48C26.7192 54.48 25.1992 54.32 23.5192 54.08C23.0392 54 22.7192 53.6 22.7192 53.12V50C22.7192 49.6 22.4792 49.28 22.1592 49.2C18.6392 48.24 15.3592 46.4 12.7192 43.76C12.5592 43.6 12.3192 43.52 12.1592 43.52C11.9992 43.52 11.8392 43.52 11.7592 43.6L9.11922 45.12C8.71922 45.36 8.15922 45.28 7.83922 44.88C6.71922 43.44 5.91922 42.32 5.19922 41.12C4.55922 40 3.99922 38.72 3.27922 37.04C3.19922 36.8 3.19922 36.56 3.27922 36.32C3.35922 36.16 3.51922 36 3.67922 35.92L6.31922 34.4C6.63922 34.24 6.79922 33.92 6.71922 33.6C6.23922 31.84 5.99922 30 5.99922 28.16C5.99922 26.32 6.23922 24.48 6.71922 22.72C6.79922 22.4 6.63922 22 6.31922 21.92L3.67922 20.4C3.27922 20.16 3.11922 19.68 3.27922 19.2C3.83922 17.76 4.47922 16.4 5.19922 15.12C5.99922 13.76 6.87922 12.48 7.83922 11.36C8.15922 11.04 8.63922 10.88 9.11922 11.12L11.7592 12.64C11.9992 12.8 12.3992 12.8 12.6392 12.48C15.3592 9.84 18.6392 8 22.0792 7.04C22.3992 6.96 22.6392 6.64 22.6392 6.24V3.04C22.6392 2.56 22.9592 2.16 23.4392 2.08C25.1192 1.68 26.6392 1.6 27.9992 1.6C29.3592 1.6 30.8792 1.76 32.5592 2C33.0392 2.08 33.3592 2.48 33.3592 2.96V6.08C33.3592 6.48 33.5992 6.8 33.9192 6.88C37.4392 7.84 40.7192 9.68 43.3592 12.32C43.5992 12.56 43.9992 12.64 44.2392 12.48L46.8792 10.96C47.2792 10.72 47.8392 10.8 48.1592 11.2C49.2792 12.56 50.0792 13.76 50.7992 14.96C51.4392 16.08 51.9992 17.36 52.7192 19.04C52.8792 19.44 52.7192 20 52.3192 20.24L49.6792 21.6C49.3592 21.76 49.1992 22.08 49.2792 22.4C49.7592 24.16 49.9992 26 49.9992 27.84C49.9992 29.68 49.7592 31.52 49.2792 33.28C49.1992 33.6 49.3592 34 49.6792 34.08L52.3192 35.6C52.7192 36 52.8792 36.48 52.7192 36.96C52.1592 38.4 51.5192 39.76 50.7992 41.04C49.9992 42.4 49.1192 43.68 48.1592 44.8C47.8392 45.12 47.3592 45.28 46.8792 45.04L44.2392 43.52C43.9992 43.36 43.5992 43.36 43.3592 43.68C40.6392 46.32 37.3592 48.16 33.9192 49.12C33.5992 49.28 33.4392 49.6 33.4392 50Z" fill="#127AFF"/>
<path d="M37.3601 16.32C37.5201 16.48 37.6801 16.56 37.9201 16.48C38.1601 16.48 38.3201 16.32 38.4001 16.16C38.5601 16 38.6401 15.84 38.5601 15.6C38.5601 15.36 38.4001 15.2 38.2401 15.12C35.2001 12.72 31.5201 11.52 27.8401 11.52C23.6001 11.52 19.3601 13.12 16.1601 16.32C10.1601 22.32 9.68009 31.76 14.9601 38.32C15.1201 38.56 15.2801 38.64 15.6001 38.64C15.7601 38.64 16.0001 38.56 16.0801 38.48C16.4001 38.16 16.4801 37.68 16.2401 37.44C11.4401 31.52 11.9201 22.88 17.3601 17.44C22.8001 12 31.3601 11.52 37.3601 16.32Z" fill="#127AFF"/>
<path d="M40.9595 17.6799C40.6395 17.3599 40.1595 17.2799 39.9195 17.5199C39.5995 17.8399 39.5195 18.3199 39.7595 18.5599C44.5595 24.4799 44.0795 33.1199 38.6395 38.5599C38.0795 39.1199 37.4395 39.6799 36.7995 40.1599L36.7195 40.2399V31.7599C36.7195 30.7199 36.1595 29.8399 35.1995 29.4399L31.0395 27.5999V25.7599C31.8395 24.9599 32.3195 23.8399 32.3195 22.6399V20.8799C32.3195 18.9599 30.7995 17.4399 28.8795 17.4399H27.1195C25.1995 17.4399 23.6795 18.9599 23.6795 20.8799V22.6399C23.6795 23.7599 24.1595 24.9599 24.9595 25.7599V27.5999L20.7995 29.4399C19.9195 29.8399 19.2795 30.7199 19.2795 31.7599V40.2399L19.1995 40.1599C19.0395 40.0799 18.9595 39.9999 18.8795 39.9199C18.7995 39.8399 18.7195 39.7599 18.5595 39.6799C18.3995 39.5199 18.2395 39.5199 18.0795 39.5199H17.9995C17.7595 39.5199 17.5995 39.6799 17.5195 39.8399C17.3595 39.9999 17.2795 40.1599 17.3595 40.3999C17.3595 40.6399 17.5195 40.7999 17.6795 40.8799C20.5595 43.2799 24.2395 44.5599 27.9995 44.5599C32.3195 44.5599 36.4795 42.7999 39.7595 39.6799C45.6795 33.7599 46.2395 24.3199 40.9595 17.6799ZM25.5195 20.3199C25.7595 19.5999 26.3995 19.1999 27.1195 19.1999H28.8795C29.8395 19.1999 30.6395 19.9999 30.7995 20.9599V21.0399H30.7195L25.5195 20.3199ZM25.1995 21.9199H25.3595L30.7195 22.5599V22.7199C30.7195 24.2399 29.5195 25.4399 27.9995 25.4399C26.4795 25.4399 25.2795 24.2399 25.2795 22.7199V21.9199H25.1995ZM29.9195 28.7999L27.9995 30.4799L26.0795 28.8799C26.3995 28.5599 26.6395 28.1599 26.6395 27.5999V26.7999H26.7195C27.1195 26.9599 27.5995 27.0399 28.0795 27.0399C28.5595 27.0399 29.0395 26.9599 29.4395 26.7999H29.5195V27.5999C29.4395 27.9199 29.5995 28.3999 29.9195 28.7999ZM35.1995 41.1999H35.1195C34.9595 41.2799 34.7995 41.3599 34.6395 41.4399C34.1595 41.6799 33.7595 41.9199 33.2795 42.0799H33.1995V34.0799C33.1995 33.5999 32.7995 33.2799 32.3995 33.2799C31.9195 33.2799 31.5995 33.6799 31.5995 34.0799V42.4799C30.3995 42.7999 29.1995 42.8799 27.9995 42.8799C26.7995 42.8799 25.5995 42.7199 24.3995 42.4799V34.1599C24.3995 33.6799 23.9995 33.3599 23.5995 33.3599C23.1195 33.3599 22.7995 33.7599 22.7995 34.1599V42.1599H22.7195C22.0795 41.9199 21.4395 41.6799 20.8795 41.2799V31.7599C20.8795 31.3599 21.1195 31.0399 21.4395 30.8799L24.3995 29.5999L27.1195 31.9199V34.1599C27.1195 34.6399 27.5195 34.9599 27.9195 34.9599C28.3995 34.9599 28.6395 34.5599 28.6395 34.1599V31.9199L31.3595 29.5999L34.3195 30.8799C34.7195 31.0399 34.8795 31.4399 34.8795 31.7599V41.1999H35.1995Z" fill="#127AFF"/>
</svg>
