<?xml version="1.0" encoding="UTF-8"?>
<svg xmlns="http://www.w3.org/2000/svg" width="98" height="64" viewBox="0 0 98 64" fill="none">
  <mask id="mask0_765_741" style="mask-type:luminance" maskUnits="userSpaceOnUse" x="0" y="0" width="97" height="64">
    <path d="M96.9287 0H0.928711V64H96.9287V0Z" fill="white"></path>
  </mask>
  <g mask="url(#mask0_765_741)">
    <path fill-rule="evenodd" clip-rule="evenodd" d="M18.7518 18.6324C19.8456 18.6608 20.5461 18.7272 21.1985 18.8694C21.6975 18.9832 22.5035 19.2013 22.9736 19.372C23.4438 19.5332 24.1443 19.8177 24.5089 19.9979C24.8735 20.1781 25.5452 20.5763 25.9961 20.8703C26.4471 21.1643 27.1955 21.7617 27.6657 22.2074C28.1359 22.6531 28.7883 23.3737 29.1242 23.8194C29.46 24.2651 29.9494 25.0332 30.2084 25.5263C30.4675 26.0194 30.8129 26.816 30.9856 27.2806C31.1488 27.7453 31.3694 28.5608 31.4846 29.0824C31.6285 29.7841 31.6765 30.391 31.6765 31.4531C31.6861 32.3444 31.6285 33.1979 31.5326 33.7289C31.4462 34.1936 31.2543 34.9712 31.1008 35.4358C30.9473 35.9005 30.6402 36.6496 30.4291 37.0953C30.218 37.541 29.8342 38.2143 29.5751 38.5841C29.3257 38.9634 28.8555 39.5798 28.5389 39.9496C28.2222 40.3194 27.6177 40.9074 27.1955 41.2677C26.7733 41.6186 26.1305 42.1022 25.7562 42.3298C25.3916 42.5669 24.8063 42.8988 24.4609 43.0694C24.1155 43.2401 23.511 43.4962 23.1176 43.6384C22.7242 43.7806 22.0909 43.9703 21.7263 44.0462C21.3616 44.1315 20.6036 44.2643 20.0471 44.3496C19.4906 44.4255 18.8669 44.4919 18.6558 44.4919C18.4447 44.4919 17.821 44.4255 17.2645 44.3496C16.708 44.2643 15.95 44.1315 15.5853 44.0462C15.2207 43.9703 14.5874 43.7806 14.194 43.6384C13.8006 43.4962 13.1673 43.2306 12.8027 43.041C12.4381 42.8608 11.7473 42.4531 11.2675 42.1496C10.7877 41.8367 9.99131 41.1729 9.49236 40.6798C8.99341 40.1867 8.33134 39.447 8.03389 39.0298C7.73644 38.622 7.26627 37.8539 6.99761 37.3324C6.72894 36.8108 6.38351 35.9763 6.22039 35.4832C6.06687 34.9901 5.86537 34.1936 5.77902 33.7289C5.69266 33.2074 5.62549 32.3444 5.62549 31.5005C5.62549 30.6281 5.69266 29.8125 5.78861 29.272C5.87497 28.8074 6.07647 28.0108 6.23958 27.5177C6.4027 27.0246 6.76732 26.1712 7.05518 25.6212C7.34303 25.0712 7.85158 24.2651 8.18741 23.8194C8.52324 23.3737 9.17572 22.6531 9.64588 22.2074C10.116 21.7617 10.8645 21.1643 11.3155 20.8703C11.7664 20.5763 12.4765 20.1591 12.8987 19.9505C13.3209 19.7419 14.0789 19.4479 14.5778 19.2867C15.0768 19.1255 15.854 18.9263 16.305 18.841C16.7559 18.7556 17.1398 18.6703 17.1685 18.6419C17.1877 18.6134 17.9074 18.6134 18.7518 18.6324ZM15.6813 21.022C15.2111 21.1548 14.4051 21.4582 13.9062 21.6953C13.4072 21.9324 12.6876 22.3401 12.323 22.5867C11.9583 22.8427 11.3155 23.3832 10.8933 23.791C10.4807 24.1987 9.92414 24.8341 9.66507 25.1944C9.39641 25.5548 9.02219 26.1806 8.82069 26.5694C8.62879 26.9582 8.35053 27.5841 8.2162 27.9444C8.09146 28.3048 7.90915 28.9496 7.83239 29.3669C7.74603 29.7841 7.65008 30.4669 7.6117 30.8841C7.58291 31.3013 7.6021 32.0694 7.65968 32.591C7.71725 33.1125 7.86117 33.8806 7.97632 34.2979C8.08186 34.7151 8.33134 35.4169 8.52324 35.8625C8.71515 36.3082 9.12774 37.0574 9.44438 37.522C9.75143 37.9867 10.3847 38.7453 10.8357 39.191C11.2867 39.6367 11.9775 40.2151 12.3709 40.4806C12.7643 40.7367 13.3688 41.097 13.7143 41.2677C14.0597 41.4384 14.7026 41.7039 15.1535 41.8556C15.6045 42.0074 16.3625 42.1875 16.8327 42.2634C17.3029 42.3393 18.1281 42.4056 18.6558 42.4056C19.1835 42.4056 20.0087 42.3393 20.4789 42.2634C20.9491 42.1875 21.7071 42.0074 22.158 41.8556C22.609 41.7039 23.2519 41.4384 23.5973 41.2677C23.9428 41.097 24.5281 40.7556 24.8927 40.5091C25.2573 40.2531 25.8234 39.8263 26.1305 39.5419C26.4471 39.2669 26.9556 38.7169 27.2723 38.3281C27.5889 37.9393 28.0111 37.3419 28.203 37.0005C28.4045 36.6591 28.7116 36.0427 28.8747 35.6255C29.0474 35.2082 29.2681 34.5444 29.364 34.1556C29.4696 33.7669 29.5943 33.0177 29.6519 32.4962C29.7287 31.8134 29.7287 31.2729 29.6519 30.5522C29.5943 30.0022 29.4408 29.1487 29.3065 28.6556C29.1721 28.1625 28.8267 27.2901 28.5389 26.7117C28.251 26.1427 27.8096 25.3936 27.5506 25.0522C27.2819 24.7108 26.7733 24.1513 26.4183 23.791C26.0537 23.4401 25.4972 22.966 25.1805 22.7289C24.8639 22.4919 24.2786 22.1315 23.8852 21.9324C23.4918 21.7237 22.8681 21.4393 22.4939 21.3065C22.1293 21.1643 21.4576 20.9746 21.0066 20.8703C20.5556 20.7755 19.6729 20.6712 19.0396 20.6522C18.4063 20.6237 17.5907 20.6427 17.2165 20.6996C16.8519 20.747 16.1515 20.8893 15.6813 21.022ZM90.7925 36.716C90.9844 36.716 91.2627 36.7634 91.4162 36.8203C91.5602 36.8677 91.8 37.0289 91.9536 37.1712C92.1071 37.3134 92.3086 37.5979 92.4045 37.8065C92.5005 38.0151 92.5868 38.3565 92.5868 38.5651C92.5868 38.7738 92.5005 39.1151 92.4045 39.3237C92.3086 39.5324 92.1071 39.8169 91.9536 39.9591C91.8 40.1013 91.5602 40.2625 91.4162 40.31C91.2627 40.3669 90.994 40.4143 90.8117 40.4143C90.6294 40.4143 90.3607 40.3669 90.2168 40.31C90.0633 40.2625 89.8234 40.1013 89.6699 39.9591C89.5164 39.8169 89.3149 39.5324 89.2189 39.3237C89.123 39.1151 89.0366 38.7832 89.0366 38.5841C89.0366 38.3944 89.1038 38.072 89.1901 37.8729C89.2669 37.6832 89.43 37.3988 89.5452 37.2375C89.6603 37.0858 89.9098 36.9056 90.0921 36.8393C90.2744 36.7729 90.591 36.7255 90.7925 36.716ZM89.6411 37.56C89.526 37.7212 89.3916 38.0151 89.3629 38.2048C89.3245 38.4039 89.3245 38.7169 89.3629 38.897C89.3916 39.0772 89.4972 39.3332 89.6027 39.466C89.6987 39.5988 89.9002 39.7884 90.0345 39.8927C90.2264 40.0255 90.4471 40.0824 90.8117 40.0824C91.1859 40.0824 91.397 40.0255 91.5985 39.8832C91.7425 39.7694 91.9536 39.5608 92.0591 39.4281C92.203 39.2289 92.251 39.0203 92.251 38.5651C92.251 38.11 92.203 37.9013 92.0591 37.7022C91.9536 37.5694 91.7617 37.3703 91.6273 37.266C91.493 37.1617 91.1955 37.0669 90.9557 37.0384C90.7062 37.0194 90.3895 37.0574 90.1976 37.1332C90.0153 37.1996 89.7658 37.3893 89.6411 37.56ZM38.5658 25.441C38.7002 25.441 39.2759 25.4789 39.8612 25.5263C40.4465 25.5737 41.1757 25.7065 41.4924 25.8108C41.809 25.9246 42.2216 26.1238 42.3943 26.266C42.5766 26.4082 42.8165 26.7117 42.9221 26.9487C43.114 27.347 43.1236 27.5746 43.1523 30.8367C43.1715 32.9324 43.1428 34.4875 43.0852 34.772C43.0276 35.0281 42.8837 35.3979 42.759 35.5781C42.6342 35.7582 42.3943 36.0048 42.212 36.1281C42.0297 36.2513 41.6651 36.4125 41.3964 36.4884C41.1374 36.5643 40.4561 36.6686 39.89 36.716C39.1991 36.7824 38.4795 36.7824 37.7503 36.716C37.1266 36.6591 36.4069 36.5358 36.0999 36.4315C35.7928 36.3177 35.409 36.1375 35.2555 36.0143C35.102 35.9005 34.8621 35.5875 34.4879 34.8669V27.3755L34.7278 26.9108C34.8621 26.6548 35.102 26.3419 35.2555 26.2281C35.409 26.1048 35.8024 25.9246 36.1191 25.8108C36.4357 25.7065 37.0594 25.5832 37.5104 25.5358C37.9613 25.4884 38.4315 25.4505 38.5658 25.441ZM36.2342 27.11C36.0903 27.2522 35.9272 27.5462 35.8792 27.7548C35.8312 27.9634 35.7832 29.4806 35.7832 31.1212C35.7832 32.7617 35.8312 34.2789 35.8792 34.4875C35.9272 34.7151 36.0903 34.9806 36.2822 35.1608C36.5029 35.3694 36.7715 35.4927 37.1745 35.5686C37.4912 35.635 38.2492 35.6919 38.8537 35.6919C39.4582 35.6824 40.1778 35.635 40.4369 35.5781C40.7056 35.5212 41.0414 35.3979 41.1853 35.3125C41.3293 35.2272 41.5404 34.9806 41.6459 34.772C41.8186 34.4117 41.8282 34.2125 41.809 31.0263C41.7802 27.8496 41.7706 27.641 41.5883 27.347C41.4828 27.1763 41.2045 26.9487 40.9646 26.8255C40.5808 26.6358 40.3601 26.6169 38.9976 26.5979C37.9038 26.5789 37.3281 26.6169 36.9826 26.7117C36.7236 26.7875 36.3877 26.9677 36.2342 27.11ZM65.5284 25.4979C66.0849 25.5263 66.8045 25.6022 67.1308 25.6781C67.4666 25.7539 67.8984 25.8867 68.0903 25.991C68.2918 26.0858 68.5988 26.3229 68.7619 26.5125C68.9347 26.7022 69.117 27.0151 69.1745 27.2048C69.2321 27.4229 69.2705 29.3953 69.2705 36.6212H67.9272V32.5436H61.9781V36.6212H60.6348L60.6636 32.041C60.6924 28.3522 60.7212 27.3944 60.8363 27.091C60.9035 26.8824 61.1242 26.56 61.3065 26.3703C61.5272 26.1522 61.863 25.9625 62.266 25.8298C62.6114 25.716 63.2543 25.5832 63.7053 25.5358C64.1563 25.4884 64.9718 25.4694 65.5284 25.4979ZM62.4291 27.11C62.2756 27.2712 62.1317 27.5556 62.0741 27.8212C62.0165 28.0772 61.9781 28.9781 61.9781 29.841V31.4056H67.9272C67.9272 28.0298 67.8984 27.7074 67.7545 27.4229C67.6585 27.2237 67.4282 26.9962 67.1596 26.8539C66.7566 26.6358 66.6318 26.6169 65.1446 26.5979C63.9548 26.5789 63.4558 26.6074 63.1296 26.7117C62.8897 26.7875 62.5826 26.9677 62.4291 27.11ZM75.6993 25.5358C76.6012 25.5358 77.4264 25.5832 77.8102 25.6591C78.1557 25.7255 78.6066 25.8677 78.8177 25.972C79.0288 26.0763 79.3455 26.3229 79.5086 26.5125C79.6813 26.7022 79.8636 27.0151 79.9212 27.2048C79.9691 27.4039 80.0171 27.8496 80.0171 28.8453H78.6738V28.2953C78.6738 27.9729 78.6066 27.622 78.5011 27.4229C78.3859 27.1953 78.1844 27.0151 77.8582 26.8539C77.4072 26.6263 77.2921 26.6169 75.7473 26.6169C74.2024 26.6169 74.0873 26.6263 73.6363 26.8539C73.3293 27.0056 73.0894 27.2143 72.9646 27.4229C72.8207 27.6789 72.7823 27.935 72.7727 28.5608C72.7727 29.1772 72.8111 29.4332 72.9359 29.6324C73.0318 29.7746 73.2237 29.9453 73.3676 30.0212C73.5212 30.097 74.6918 30.3341 75.9871 30.5427C77.8774 30.8462 78.4435 30.9789 78.8561 31.1875C79.2015 31.3582 79.4894 31.5953 79.9691 32.2781V33.6625C79.9691 34.9238 79.95 35.0944 79.7485 35.4548C79.6141 35.7108 79.3646 35.9669 79.0768 36.147C78.8273 36.3082 78.338 36.4979 77.9733 36.5737C77.6183 36.6496 76.9083 36.7444 76.3901 36.7729C75.8432 36.8108 75.0468 36.7919 74.4519 36.716C73.8954 36.6591 73.2045 36.5169 72.9167 36.4031C72.6288 36.2988 72.2354 36.0522 72.0531 35.872C71.8516 35.6729 71.6597 35.3505 71.5925 35.1039C71.5158 34.8669 71.4582 34.2884 71.4294 32.9703L72.7248 32.9229V33.3212C72.7248 33.5488 72.7727 33.985 72.8207 34.2979C72.8879 34.6582 72.9934 34.9522 73.1374 35.085C73.2525 35.2082 73.4636 35.3694 73.6075 35.4453C73.761 35.5212 74.2792 35.6255 74.759 35.6824C75.2483 35.7393 75.9775 35.7582 76.3709 35.7203C76.7644 35.6919 77.3017 35.6065 77.5703 35.5306C77.8582 35.4548 78.1652 35.2841 78.338 35.1039C78.6066 34.8194 78.6258 34.7625 78.6546 33.8901C78.6834 33.1315 78.6642 32.9134 78.5107 32.6574C78.4147 32.4772 78.1748 32.2686 77.9542 32.1643C77.7335 32.06 76.6684 31.8419 75.4114 31.6427C74.1736 31.4436 73.0702 31.216 72.8207 31.1117C72.5808 31.0074 72.2642 30.8082 72.1203 30.666C71.9668 30.5237 71.7557 30.2393 71.6405 30.0306C71.4678 29.7082 71.4486 29.4901 71.4486 28.5134C71.4582 27.4513 71.4774 27.3375 71.7365 26.8634C71.938 26.4746 72.1203 26.285 72.4849 26.0858C72.744 25.9341 73.2429 25.7539 73.5883 25.6781C73.9721 25.5927 74.7877 25.5358 75.6993 25.5358ZM45.3784 25.6212H46.7218V30.097C46.7218 34.2979 46.7314 34.6013 46.9041 34.9143C47 35.0944 47.2303 35.3315 47.403 35.4358C47.6813 35.597 47.902 35.6255 48.9287 35.6255C49.9553 35.6255 50.176 35.597 50.4543 35.4358C50.6366 35.3315 50.8765 35.0944 50.982 34.9143C51.1739 34.5919 51.1835 34.4401 51.2219 25.6212H52.5844L52.6036 30.1634C52.6228 34.6203 52.6228 34.7151 52.8243 34.9806C52.9395 35.1229 53.1697 35.3315 53.3521 35.4358C53.6303 35.597 53.851 35.6255 54.8777 35.6255C55.9332 35.6255 56.1155 35.597 56.4129 35.4263C56.624 35.3031 56.8159 35.0755 56.9119 34.8289C57.0654 34.4781 57.0846 34.0229 57.0846 25.6212H58.4279V30.097C58.4279 33.8143 58.4087 34.6677 58.284 35.0755C58.2072 35.3505 58.0153 35.7203 57.8714 35.8815C57.7179 36.0522 57.3724 36.2893 57.1038 36.4031C56.8255 36.5263 56.2306 36.6591 55.7604 36.716C55.2711 36.7729 54.6474 36.7729 54.254 36.7255C53.8798 36.6875 53.3425 36.5453 53.0546 36.4125C52.7667 36.2798 52.3829 36.0332 51.9032 35.5306L51.5386 35.8815C51.3467 36.0712 50.9916 36.3177 50.7518 36.422C50.5119 36.5263 50.0033 36.6591 49.6195 36.716C49.1494 36.7824 48.6504 36.7824 48.0651 36.716C47.5757 36.6591 46.9808 36.5263 46.7026 36.4031C46.4147 36.2798 46.0789 36.0427 45.887 35.8151C45.7143 35.6065 45.532 35.2556 45.4744 35.0281C45.4168 34.791 45.3784 32.8375 45.3784 30.1255V25.6212ZM82.224 25.6212H85.1506C86.9545 25.6212 88.269 25.6591 88.576 25.7255C88.8543 25.7824 89.2765 25.9341 89.5164 26.0479C89.7563 26.1712 90.0441 26.3703 90.1593 26.4936C90.2744 26.6074 90.4663 26.9203 90.591 27.1858C90.8021 27.6315 90.8117 27.7737 90.8117 29.5565C90.8117 31.2824 90.7925 31.491 90.6102 31.8798C90.5047 32.1169 90.2648 32.4487 90.0825 32.6289C89.9002 32.8091 89.5643 33.0367 89.3245 33.1315C89.0846 33.2263 88.6336 33.3496 88.317 33.397C88.0003 33.4539 86.8009 33.4919 83.5673 33.4919V36.6212H82.224V25.6212ZM83.5673 32.4487C86.7913 32.4487 87.7988 32.4013 88.0963 32.335C88.3745 32.2781 88.7296 32.1169 88.8831 31.9841C89.0366 31.8513 89.2285 31.6048 89.3149 31.4531C89.4396 31.2255 89.4684 30.8556 89.4684 29.5565C89.4684 28.1341 89.4492 27.9065 89.2765 27.5746C89.1518 27.347 88.9215 27.11 88.6528 26.9582C88.221 26.7117 88.2018 26.7117 85.899 26.6832L83.5769 26.6548L83.5673 32.4487ZM23.6165 23.8858C23.7125 24.0281 23.818 24.2936 23.8468 24.4832C23.8852 24.6824 23.8468 24.9669 23.5973 25.6212L24.5568 26.5694L24.8927 26.4272C25.0846 26.3419 25.3628 26.285 25.5164 26.285C25.6795 26.285 25.9577 26.3608 26.1497 26.4462C26.332 26.541 26.4855 26.6453 26.4855 26.6832C26.4759 26.7212 26.4663 26.7591 26.4567 26.7591C26.4375 26.7591 26.2264 26.6738 25.9769 26.5694C25.7275 26.4651 25.4684 26.3988 25.4012 26.4177C25.3341 26.4462 25.1613 26.5125 24.7488 26.6643L24.9503 26.9203C25.0558 27.0625 25.1422 27.2332 25.1422 27.2996C25.1326 27.366 24.9503 27.6125 24.7296 27.8401C24.4993 28.0772 24.1922 28.3143 24.0291 28.3617C23.8756 28.4186 23.6645 28.447 23.5781 28.4186C23.4822 28.3901 23.3287 28.3522 23.2423 28.3237C23.0888 28.2858 23.0792 28.3427 23.0888 28.8169C23.108 29.3384 23.1272 29.3763 23.4726 29.6229C23.7892 29.841 23.9044 29.8789 24.2978 29.841C24.5664 29.8125 24.7488 29.8315 24.7488 29.8884C24.7488 29.9358 24.6528 30.0022 24.5377 30.0306C24.4129 30.0496 24.1826 30.0781 24.0099 30.0781C23.8372 30.0781 23.5494 30.0117 23.3574 29.9358C23.1751 29.8505 23.0216 29.8125 23.0216 29.841C23.0216 29.86 23.0792 30.0022 23.1559 30.1444C23.2615 30.3436 23.4342 30.4479 23.8852 30.5996C24.221 30.7039 24.4993 30.8177 24.5185 30.8556C24.5473 30.8936 24.5089 30.9315 24.4417 30.9315C24.3745 30.922 24.0579 30.8651 23.7413 30.7893C23.4246 30.7134 23.1368 30.647 23.0984 30.647C23.06 30.647 23.0216 30.6944 23.0216 30.7608C23.0216 30.8272 23.2327 31.0832 23.4822 31.3298C23.7317 31.5763 23.914 31.7944 23.8852 31.8229C23.866 31.8419 23.6165 31.6901 23.3287 31.472C22.9449 31.1686 22.7817 30.9505 22.6378 30.5712C22.5323 30.2962 22.4075 30.0781 22.35 30.0781C22.302 30.0781 22.254 30.1255 22.254 30.1919C22.254 30.2582 22.3212 30.6565 22.3979 31.0737C22.4747 31.491 22.6474 32.5531 22.7817 33.4444C22.9161 34.3263 23.0696 35.7772 23.1176 36.6686C23.1847 37.7117 23.1847 38.6789 23.1272 39.4186C23.0696 40.0444 23.0024 40.585 22.9544 40.6324C22.9161 40.6703 22.7242 40.547 22.5419 40.3479C22.35 40.1487 22.0141 39.6651 21.7838 39.2763C21.544 38.8781 21.2177 38.2617 21.045 37.9013C20.8723 37.5315 20.6612 36.9056 20.5844 36.4979C20.4981 36.0996 20.4309 35.5022 20.4405 35.1703C20.4405 34.6677 20.4885 34.4875 20.7859 33.966C21.1218 33.3781 21.1506 33.2738 21.3041 31.785C21.3904 30.922 21.4384 30.1919 21.4096 30.1539C21.3712 30.116 21.2273 30.0686 21.0834 30.0306C20.8243 29.9832 20.8243 29.9927 20.8819 30.2867C20.9203 30.5143 20.8723 30.7419 20.6996 31.1212C20.5652 31.4056 20.1239 32.022 19.7017 32.4867C19.2891 32.9513 18.6846 33.5488 18.3679 33.8048C18.0513 34.0703 17.4948 34.4781 17.1206 34.7151C16.7559 34.9522 15.7868 35.4737 14.9616 35.8815C14.1461 36.2893 13.4552 36.6022 13.4264 36.5737C13.4072 36.5453 13.6855 35.91 14.0693 35.1703C14.4435 34.4306 15.0576 33.3686 15.4222 32.8281C15.902 32.1074 16.4009 31.5384 17.1877 30.7893C17.8114 30.1919 18.5119 29.6229 18.8093 29.4712C19.2123 29.2625 19.4234 29.2056 19.7401 29.2341C20.1431 29.272 20.1527 29.2625 20.0951 29.035C20.0663 28.9022 20.0087 28.76 19.9703 28.722C19.932 28.6841 19.2411 28.722 18.4159 28.7979C17.6003 28.8832 16.8423 28.9686 16.7368 28.997C16.6312 29.0255 16.3338 29.1772 16.0651 29.3384C15.7676 29.5186 15.403 29.6419 15.1056 29.6703C14.8465 29.6987 14.2228 29.6419 13.7143 29.5565C13.1002 29.4522 12.5341 29.2815 11.9871 29.0255C11.5458 28.8169 10.8741 28.4565 10.4999 28.2289C10.1352 28.0013 9.70345 27.6789 9.54033 27.5272C9.38681 27.366 9.28126 27.2143 9.30045 27.1858C9.32924 27.1574 9.74183 27.091 10.212 27.0341C10.7494 26.9677 11.6897 26.9582 12.6588 26.9962C13.532 27.0246 14.7601 27.11 15.3934 27.1858C16.0267 27.2617 17.3125 27.4513 18.2528 27.6031C19.1835 27.7643 19.9799 27.897 19.9991 27.897C20.0279 27.897 20.0471 27.8591 20.0567 27.8212C20.0567 27.7832 19.788 27.622 19.4714 27.4703C19.078 27.2806 18.7805 27.0436 18.5598 26.7591C18.3775 26.522 18.2528 26.3039 18.2816 26.285C18.3008 26.2565 18.5311 26.4367 18.7805 26.6832C19.03 26.9298 19.2891 27.1384 19.3562 27.1384C19.4234 27.1384 19.4522 27.0625 19.433 26.9677C19.4042 26.8824 19.3179 26.541 19.2411 26.2091C19.1547 25.8867 19.126 25.6212 19.1643 25.6117C19.2027 25.6117 19.2891 25.7255 19.3467 25.8772C19.4138 26.0194 19.5098 26.3039 19.5673 26.4936C19.6345 26.7401 19.7592 26.8919 19.9512 26.9962C20.1143 27.072 20.239 27.091 20.239 27.0436C20.239 26.9867 20.191 26.8539 20.1335 26.7306C20.0663 26.6169 20.0279 26.3513 20.0375 26.1427C20.0375 25.9341 20.0663 25.6401 20.0951 25.4979C20.1239 25.3556 20.1814 25.2419 20.2198 25.2419C20.2582 25.2419 20.2774 25.4884 20.2582 25.7824C20.2294 26.247 20.2678 26.3893 20.4789 26.6832C20.7092 27.0151 20.7571 27.0436 21.7934 27.091L21.7359 26.6832C21.6975 26.4272 21.7359 26.1617 21.8222 25.9531C21.9086 25.7634 22.0141 25.6212 22.0621 25.6212C22.1197 25.6212 22.2828 25.4884 22.4267 25.3272C22.5706 25.1755 22.7625 25.0427 22.8585 25.0427C22.9449 25.0522 23.108 25.1375 23.2135 25.2419C23.3191 25.3462 23.415 25.4315 23.4342 25.4315C23.4438 25.4315 23.5206 25.2988 23.5973 25.1281C23.6645 24.9574 23.7317 24.7298 23.7317 24.6255C23.7317 24.5212 23.6357 24.2746 23.5206 24.0755C23.4054 23.8858 23.3383 23.6962 23.3766 23.6772C23.415 23.6487 23.5206 23.7436 23.6165 23.8858ZM90.0921 37.4746L90.5527 37.4651C90.8597 37.4651 91.09 37.522 91.2723 37.6548C91.4354 37.7781 91.5314 37.9393 91.5314 38.091C91.5314 38.2143 91.4738 38.3755 91.4066 38.4419C91.2915 38.5462 91.2915 38.5936 91.4066 38.7548C91.4738 38.8591 91.541 39.1056 91.5314 39.2953C91.5314 39.5798 91.5026 39.6462 91.3682 39.6272C91.2723 39.6177 91.1859 39.5134 91.1667 39.4186C91.1572 39.3143 91.1188 39.1341 91.0996 39.0108C91.0612 38.8496 90.9844 38.8022 90.7637 38.8022C90.4855 38.8022 90.4759 38.8117 90.4759 39.2289C90.4759 39.5893 90.4471 39.6556 90.284 39.6556C90.1017 39.6556 90.0921 39.5893 90.0921 38.5651V37.4746ZM90.6966 38.4229C90.8117 38.4134 90.9652 38.385 91.042 38.347C91.1092 38.3091 91.1476 38.1953 91.1284 38.091C91.1092 37.9487 91.0132 37.8919 90.7925 37.8729C90.5143 37.8444 90.4951 37.8634 90.4855 38.1289C90.4759 38.366 90.5143 38.4229 90.6966 38.4229Z" fill="#112244"></path>
  </g>
</svg>
