<svg width="56" height="56" viewBox="0 0 56 56" fill="none" xmlns="http://www.w3.org/2000/svg">
<path d="M3.57227 43.279V3.50547C3.57227 2.02234 4.7743 0.820312 6.25742 0.820312H31.8949C33.378 0.820312 34.5801 2.02234 34.5801 3.50547V6.89062" stroke="#127AFF" stroke-width="1.6" stroke-miterlimit="10" stroke-linecap="round" stroke-linejoin="round"/>
<path d="M34.5801 27.8774V52.4945C34.5801 53.9776 33.378 55.1796 31.8949 55.1796H6.25742C4.7743 55.1796 3.57227 53.9776 3.57227 52.4945V47.1154" stroke="#127AFF" stroke-width="1.6" stroke-miterlimit="10" stroke-linecap="round" stroke-linejoin="round"/>
<path d="M34.5801 47.1155V52.4945C34.5801 53.9777 33.378 55.1797 31.8949 55.1797H6.25742C4.7743 55.1797 3.57227 53.9777 3.57227 52.4945V47.1155H34.5801Z" stroke="#127AFF" stroke-width="1.6" stroke-miterlimit="10" stroke-linecap="round" stroke-linejoin="round"/>
<path d="M23.9556 3.99591H14.197C12.92 3.99591 11.8848 2.96067 11.8848 1.68372V0.820312H26.2678V1.68372C26.2678 2.96078 25.2326 3.99591 23.9556 3.99591Z" stroke="#127AFF" stroke-width="1.6" stroke-miterlimit="10" stroke-linecap="round" stroke-linejoin="round"/>
<path d="M15.9014 51.3516H22.2511" stroke="#127AFF" stroke-width="1.6" stroke-miterlimit="10" stroke-linecap="round" stroke-linejoin="round"/>
<path d="M14.1886 11.0676H16.1839C16.9994 11.0676 17.6604 11.7287 17.6604 12.5442C17.6604 13.3597 16.9994 14.0208 16.1839 14.0208H14.6319V19.4955C14.6319 21.03 15.8805 22.2786 17.415 22.2786H22.1847C23.7193 22.2786 24.9678 21.03 24.9678 19.4955V14.0208H23.4159C22.6004 14.0208 21.9393 13.3597 21.9393 12.5442C21.9393 11.7287 22.6004 11.0676 23.4159 11.0676H25.4111C26.795 11.0676 27.9209 12.1935 27.9209 13.5775V19.4955C27.9209 22.6584 25.3477 25.2317 22.1847 25.2317H21.2764V26.3475C21.2764 27.163 20.6153 27.8241 19.7998 27.8241C18.9843 27.8241 18.3232 27.163 18.3232 26.3475V25.2317H17.4149C14.2519 25.2317 11.6787 22.6584 11.6787 19.4955V13.5775C11.6788 12.1935 12.8047 11.0676 14.1886 11.0676Z" stroke="#127AFF" stroke-width="1.6" stroke-miterlimit="10" stroke-linecap="round" stroke-linejoin="round"/>
<path d="M19.7996 27.824V38.1322C19.7996 39.5142 18.6794 40.6344 17.2975 40.6344H15.4045C14.0226 40.6344 12.9023 39.5142 12.9023 38.1322V36.4026" stroke="#127AFF" stroke-width="1.6" stroke-miterlimit="10" stroke-linecap="round" stroke-linejoin="round"/>
<path d="M12.9023 36.4027C14.3779 36.4027 15.5741 35.2065 15.5741 33.7309C15.5741 32.2553 14.3779 31.0591 12.9023 31.0591C11.4267 31.0591 10.2305 32.2553 10.2305 33.7309C10.2305 35.2065 11.4267 36.4027 12.9023 36.4027Z" stroke="#127AFF" stroke-width="1.6" stroke-miterlimit="10" stroke-linecap="round" stroke-linejoin="round"/>
<path d="M45.1577 27.8769H34.2909C33.0895 27.8769 32.1156 26.903 32.1156 25.7016V10.7221L28.3689 8.55774C27.5776 8.10067 27.9019 6.89087 28.8157 6.89087H50.252C51.4534 6.89087 52.4272 7.86474 52.4272 9.06612V25.7016C52.4272 26.903 51.4534 27.8769 50.252 27.8769H48.9943" stroke="#127AFF" stroke-width="1.6" stroke-miterlimit="10" stroke-linecap="round" stroke-linejoin="round"/>
<path d="M47.8659 18.1773L43.6817 22.3615C42.6995 23.3437 41.1079 23.3437 40.1256 22.3615C39.1442 21.3801 39.1442 19.7884 40.1264 18.8061L44.3105 14.622C45.2927 13.6398 46.8843 13.6398 47.8659 14.6212C48.357 15.1123 48.6029 15.7558 48.6029 16.3992C48.6029 17.0427 48.357 17.6861 47.8659 18.1773Z" stroke="#127AFF" stroke-width="1.6" stroke-miterlimit="10" stroke-linecap="round" stroke-linejoin="round"/>
<path d="M47.8662 18.1773L45.86 20.1835L42.3047 16.6281L44.3108 14.622C45.293 13.6398 46.8847 13.6398 47.8662 14.6212C48.3573 15.1123 48.6033 15.7558 48.6033 16.3992C48.6033 17.0427 48.3573 17.6861 47.8662 18.1773Z" stroke="#127AFF" stroke-width="1.6" stroke-miterlimit="10" stroke-linecap="round" stroke-linejoin="round"/>
<path d="M37.3135 12.7251V15.493" stroke="#127AFF" stroke-width="1.6" stroke-miterlimit="10" stroke-linecap="round" stroke-linejoin="round"/>
<path d="M38.6976 14.1091H35.9297" stroke="#127AFF" stroke-width="1.6" stroke-miterlimit="10" stroke-linecap="round" stroke-linejoin="round"/>
</svg>
