<svg width="56" height="56" viewBox="0 0 56 56" fill="none" xmlns="http://www.w3.org/2000/svg">
<path d="M23.9994 3.11914C23.5994 3.11914 23.3594 3.43914 23.3594 3.75914C23.3594 4.15914 23.6794 4.39914 23.9994 4.39914C24.3194 4.39914 24.6394 4.07914 24.6394 3.75914C24.5594 3.43914 24.3194 3.11914 23.9994 3.11914Z" fill="#127AFF" stroke="#127AFF" stroke-width="0.352" stroke-miterlimit="10"/>
<path d="M41.4397 0.400391H6.47969C4.87969 0.400391 3.67969 1.68039 3.67969 3.20039V52.6404C3.67969 54.1604 4.95969 55.4404 6.47969 55.4404H50.3197C51.3597 55.4404 52.1597 54.5604 52.1597 53.6004V24.8004C52.1597 23.7604 51.2797 22.9604 50.3197 22.9604H44.3197V3.20039C44.2397 1.68039 43.0397 0.400391 41.4397 0.400391ZM4.95969 3.20039C4.95969 2.32039 5.67969 1.68039 6.47969 1.68039H41.5197C42.3997 1.68039 43.0397 2.40039 43.0397 3.20039V5.84039H4.95969V3.20039ZM6.47969 54.1604C5.59969 54.1604 4.95969 53.4404 4.95969 52.6404V50.0004H32.9597V53.5204C32.9597 53.6804 32.9597 53.7604 33.0397 53.9204L33.1197 54.1604C33.0397 54.1604 6.47969 54.1604 6.47969 54.1604ZM32.9597 24.7204V48.7204H4.95969V7.12039H43.0397V22.8804H34.7997C33.7597 22.8804 32.9597 23.6804 32.9597 24.7204ZM50.8797 50.4004H48.0797C47.6797 50.4004 47.4397 50.7204 47.4397 51.0404C47.4397 51.4404 47.7597 51.6804 48.0797 51.6804H50.8797V53.6004C50.8797 54.0004 50.5597 54.2404 50.2397 54.2404H34.7997C34.3997 54.2404 34.1597 53.9204 34.1597 53.6004V51.6804H44.2397C44.6397 51.6804 44.8797 51.3604 44.8797 51.0404C44.8797 50.6404 44.5597 50.4004 44.2397 50.4004H34.2397V27.6004H50.9597V50.4004H50.8797ZM50.2397 24.0804C50.6397 24.0804 50.8797 24.4004 50.8797 24.7204V26.3204H34.2397V24.7204C34.2397 24.3204 34.5597 24.0804 34.8797 24.0804H50.2397Z" fill="#127AFF" stroke="#127AFF" stroke-width="0.352" stroke-miterlimit="10"/>
<path d="M16.3186 14.8809H11.1986C10.7986 14.8809 10.5586 15.2009 10.5586 15.5209C10.5586 15.8409 10.8786 16.1609 11.1986 16.1609H16.3186C16.7186 16.1609 16.9586 15.8409 16.9586 15.5209C16.9586 15.2009 16.7186 14.8809 16.3186 14.8809Z" fill="#127AFF" stroke="white" stroke-width="0.352" stroke-miterlimit="10"/>
<path d="M28.0786 20.3203H11.1986C10.7986 20.3203 10.5586 20.6403 10.5586 20.9603C10.5586 21.2803 10.8786 21.6003 11.1986 21.6003H28.2386C28.6386 21.6003 28.8786 21.2803 28.8786 20.9603C28.7986 20.6403 28.4786 20.3203 28.0786 20.3203Z" fill="#127AFF" stroke="white" stroke-width="0.352" stroke-miterlimit="10"/>
<path d="M28.0786 24.3203H11.1986C10.7986 24.3203 10.5586 24.6403 10.5586 24.9603C10.5586 25.2803 10.8786 25.6003 11.1986 25.6003H28.2386C28.6386 25.6003 28.8786 25.2803 28.8786 24.9603C28.7986 24.6403 28.4786 24.3203 28.0786 24.3203Z" fill="#127AFF" stroke="white" stroke-width="0.352" stroke-miterlimit="10"/>
<path d="M28.0786 28.2402H11.1986C10.7986 28.2402 10.5586 28.5602 10.5586 28.8802C10.5586 29.2802 10.8786 29.5202 11.1986 29.5202H28.2386C28.6386 29.5202 28.8786 29.2002 28.8786 28.8802C28.7986 28.5602 28.4786 28.2402 28.0786 28.2402Z" fill="#127AFF" stroke="white" stroke-width="0.352" stroke-miterlimit="10"/>
<path d="M15.8385 33.9199H12.2385C11.2785 33.9199 10.4785 34.6399 10.4785 35.6799V39.2799C10.4785 40.2399 11.1985 41.0399 12.2385 41.0399H15.8385C16.7985 41.0399 17.5985 40.3199 17.5985 39.2799V35.6799C17.5185 34.7199 16.7985 33.9199 15.8385 33.9199ZM16.2385 39.1999C16.2385 39.4399 16.0785 39.5999 15.8385 39.5999H12.2385C11.9985 39.5999 11.8385 39.4399 11.8385 39.1999V35.5999C11.8385 35.3599 11.9985 35.1999 12.2385 35.1999H15.8385C16.0785 35.1999 16.2385 35.3599 16.2385 35.5999V39.1999Z" fill="#127AFF" stroke="white" stroke-width="0.352" stroke-miterlimit="10"/>
<path d="M45.3586 30H38.8786C38.2386 30 37.6786 30.24 37.2786 30.72C36.8786 31.12 36.5586 31.68 36.5586 32.24V38.72C36.5586 39.36 36.7986 39.92 37.2786 40.32C37.6786 40.72 38.2386 41.04 38.8786 41.04C39.5186 41.04 40.0786 40.8 40.4786 40.32C40.8786 39.92 41.1986 39.36 41.1986 38.72V37.68L44.2386 40.72C44.6386 41.12 45.1986 41.44 45.8386 41.44C46.4786 41.44 47.0386 41.2 47.4386 40.72C47.8386 40.32 48.1586 39.76 48.1586 39.12C48.1586 38.48 47.9186 37.92 47.4386 37.52L44.4786 34.4H45.5186C46.1586 34.4 46.7186 34.16 47.1186 33.68C47.5186 33.28 47.8386 32.72 47.8386 32.08C47.8386 31.44 47.5986 30.88 47.1186 30.48C46.5586 30.16 45.9986 30 45.3586 30ZM46.0786 32.96C45.9186 33.12 45.6786 33.28 45.3586 33.28H42.7986C42.5586 33.28 42.3186 33.44 42.2386 33.68C42.0786 33.92 42.1586 34.16 42.3986 34.4L46.4786 38.48C46.6386 38.64 46.7986 38.88 46.7986 39.2C46.7986 39.44 46.6386 39.68 46.4786 39.92C46.3186 40.08 46.0786 40.24 45.7586 40.24C45.4386 40.24 45.2786 40.08 45.0386 39.92L40.8786 35.92C40.7186 35.76 40.4786 35.68 40.1586 35.76C39.8386 35.84 39.7586 36.08 39.7586 36.32V38.88C39.7586 39.12 39.5986 39.36 39.4386 39.6C39.0386 40 38.3986 40 37.9986 39.6C37.8386 39.44 37.6786 39.2 37.6786 38.88V32.4C37.6786 32.16 37.8386 31.92 37.9986 31.68C38.1586 31.44 38.3986 31.36 38.7186 31.36H45.1986C45.4386 31.36 45.6786 31.52 45.9186 31.68C46.0786 31.84 46.2386 32.08 46.2386 32.4C46.3986 32.48 46.2386 32.72 46.0786 32.96Z" fill="white" stroke="white" stroke-width="0.352" stroke-miterlimit="10"/>
</svg>
