<svg width="56" height="56" viewBox="0 0 56 56" fill="none" xmlns="http://www.w3.org/2000/svg">
<g clip-path="url(#clip0_399_677)">
<mask id="mask0_399_677" style="mask-type:luminance" maskUnits="userSpaceOnUse" x="-1" y="0" width="57" height="57">
<path d="M-0.00195312 0.000270844H55.998V56.0002H-0.00195312V0.000270844Z" fill="white"/>
</mask>
<g mask="url(#mask0_399_677)">
<path d="M43.1641 52.8369H3.4381C1.99184 52.8369 0.819336 51.6644 0.819336 50.2181V5.78206C0.819336 4.33579 1.99184 3.16329 3.4381 3.16329H52.5599C54.0062 3.16329 55.1787 4.33579 55.1787 5.78206V50.2181C55.1787 51.6644 54.0062 52.8369 52.5599 52.8369H47.0058" stroke="#127AFF" stroke-width="1.6" stroke-miterlimit="10" stroke-linecap="round" stroke-linejoin="round"/>
<path d="M11.955 28.7362C12.5729 30.1527 13.4552 31.4615 14.5777 32.5851L25.8878 43.9076C27.0535 45.0747 28.9449 45.0747 30.1106 43.9076L41.4206 32.5851C44.3132 29.6894 45.6112 25.5645 44.8981 21.5342C44.6011 19.8547 43.7949 18.3071 42.5889 17.1011C40.0894 14.6018 36.2837 13.9546 33.0987 15.4875L29.3664 17.2838C28.5024 17.6996 27.496 17.6996 26.6318 17.2838L22.8995 15.4875C19.7146 13.9546 15.9088 14.6018 13.4095 17.1011C12.2035 18.3071 11.3973 19.8547 11.1003 21.5342C10.8969 22.6832 10.8571 23.8397 10.971 24.9733" stroke="#127AFF" stroke-width="1.6" stroke-miterlimit="10" stroke-linecap="round" stroke-linejoin="round"/>
<path d="M6.34668 28.7393H16.3121C16.8028 28.7393 17.2409 28.4317 17.4077 27.9704L18.9304 23.7577C19.1069 23.2693 19.8012 23.2798 19.9629 23.7733L22.872 32.6525C23.0356 33.1518 23.7409 33.1546 23.9085 32.6567L26.6961 24.3719C26.8602 23.8845 27.5457 23.8734 27.7253 24.3554L28.8906 27.4829C29.0605 27.9388 29.4957 28.2411 29.9823 28.2411H33.0816C33.5341 28.2411 33.9458 28.5031 34.1372 28.9133L35.0605 30.8909C35.2562 31.3104 35.8526 31.3111 36.0494 30.8922L36.9808 28.9106C37.1728 28.5019 37.5836 28.2411 38.0351 28.2411H48.7786" stroke="#127AFF" stroke-width="1.6" stroke-miterlimit="10" stroke-linecap="round" stroke-linejoin="round"/>
<path d="M9.38091 48.7361H6.26142C5.39867 48.7361 4.69922 48.0366 4.69922 47.174C4.69922 46.3112 5.39867 45.6119 6.26142 45.6119H9.38091C10.2437 45.6119 10.943 46.3112 10.943 47.174C10.943 48.0366 10.2437 48.7361 9.38091 48.7361Z" stroke="#127AFF" stroke-width="1.6" stroke-miterlimit="10" stroke-linecap="round" stroke-linejoin="round"/>
<path d="M14.6484 47.1741H19.2753" stroke="#127AFF" stroke-width="1.6" stroke-miterlimit="10" stroke-linecap="round" stroke-linejoin="round"/>
<path d="M51.1702 9.02982H49.3405V7.20009C49.3405 6.89625 49.0942 6.64993 48.7904 6.64993H46.8236C46.5196 6.64993 46.2733 6.89625 46.2733 7.20009V9.02982H44.4437C44.1399 9.02982 43.8936 9.27614 43.8936 9.57998V11.5468C43.8936 11.8506 44.1399 12.0969 44.4437 12.0969H46.2733V13.9267C46.2733 14.2305 46.5196 14.4768 46.8236 14.4768H48.7904C49.0942 14.4768 49.3405 14.2305 49.3405 13.9267V12.0969H51.1702C51.474 12.0969 51.7203 11.8506 51.7203 11.5468V9.57998C51.7203 9.27614 51.474 9.02982 51.1702 9.02982Z" stroke="#127AFF" stroke-width="1.6" stroke-miterlimit="10" stroke-linecap="round" stroke-linejoin="round"/>
</g>
</g>
<defs>
<clipPath id="clip0_399_677">
<rect width="56" height="56" fill="white"/>
</clipPath>
</defs>
</svg>
