<svg width="56" height="56" viewBox="0 0 56 56" fill="none" xmlns="http://www.w3.org/2000/svg">
<path d="M31.1382 49.9968C31.1382 48.5378 32.3191 47.357 33.778 47.357C35.237 47.357 36.4178 48.5378 36.4178 49.9968C36.4178 51.4557 35.237 52.6366 33.778 52.6366C32.3191 52.6366 31.1382 51.4557 31.1382 49.9968ZM31.7782 49.9968C31.7782 51.0976 32.6772 51.9966 33.778 51.9966C34.8789 51.9966 35.7779 51.0976 35.7779 49.9968C35.7779 48.896 34.8789 47.9969 33.778 47.9969C32.6772 47.9969 31.7782 48.896 31.7782 49.9968Z" fill="white" stroke="white" stroke-width="0.799934"/>
<path d="M34.8179 30.8791C34.8179 29.1801 36.2387 27.7593 37.9377 27.7593C39.6366 27.7593 41.0574 29.1801 41.0574 30.8791C41.0574 32.578 39.6366 33.9988 37.9377 33.9988C36.2387 33.9988 34.8179 32.578 34.8179 30.8791ZM35.4579 30.8791C35.4579 32.2199 36.5969 33.3589 37.9377 33.3589C39.2785 33.3589 40.4175 32.2199 40.4175 30.8791C40.4175 29.5383 39.2785 28.3993 37.9377 28.3993C36.5969 28.3993 35.4579 29.5383 35.4579 30.8791Z" fill="white" stroke="white" stroke-width="0.799934"/>
<path d="M17.9421 8.0017C17.7821 7.84171 17.6221 7.76172 17.4621 7.76172C17.3021 7.76172 17.0622 7.84171 16.9822 8.0017L15.1423 9.84155C14.8224 10.1615 14.8224 10.5615 15.1423 10.8815C15.3823 11.1214 15.9423 11.1214 16.1822 10.8815L18.0221 9.04161C18.1821 8.72164 18.1821 8.24168 17.9421 8.0017Z" fill="white"/>
<path d="M47.538 30.5594L48.178 29.9195C48.7379 29.3595 49.0579 28.6396 49.0579 27.8396C49.0579 27.0397 48.7379 26.3198 48.178 25.7598L47.538 25.1199L47.618 25.0399C48.498 24.2399 48.9779 23.12 48.9779 22.0001C48.9779 19.7603 47.1381 17.9205 44.8983 17.9205C44.7383 17.9205 44.5783 17.9205 44.4183 17.9205H44.2583V17.7605C44.2583 17.6005 44.2583 17.4405 44.2583 17.2805C44.2583 15.0407 42.4185 13.2009 40.1786 13.2009C40.0187 13.2009 39.8587 13.2009 39.6987 13.2009H39.5387V13.0409C39.5387 12.8809 39.5387 12.7209 39.5387 12.5609C39.5387 10.3211 37.6989 8.48125 35.459 8.48125C35.2991 8.48125 35.1391 8.48125 34.9791 8.48125H34.8191V8.32126C34.8191 8.16128 34.8191 8.00129 34.8191 7.8413C34.8191 5.60149 32.9792 3.76164 30.7394 3.76164C29.5395 3.76164 28.4996 4.2416 27.6997 5.12153L27.6197 5.20152L23.3001 0.88188C22.7401 0.321927 22.0202 0.00195312 21.2202 0.00195312C20.4203 0.00195312 19.7003 0.321927 19.1404 0.88188L7.78134 12.5609C6.66143 13.6808 6.66143 15.6007 7.78134 16.7206L16.0207 24.9599L15.8607 25.0399C14.5808 25.7598 13.7808 27.1197 13.7808 28.5596C13.7808 29.9195 14.5008 31.1994 15.6207 31.9193C15.7007 31.9993 15.7807 32.0793 15.7807 32.1593L25.8598 42.2384V44.0783H24.02V55.9973H48.018V44.0783H46.1782V41.0386H46.2581C48.018 39.5187 48.9779 37.3589 48.9779 35.119C48.9779 33.5192 48.498 31.9993 47.538 30.6394V30.5594ZM38.3388 15.8406C38.8188 15.2807 39.5387 14.9607 40.2586 14.9607C41.6185 14.9607 42.7384 16.0806 42.7384 17.4405C42.7384 18.1604 42.4185 18.8804 41.7785 19.3603L41.6985 19.4403L38.2588 16.0006L38.3388 15.8406ZM33.6992 11.121C34.1791 10.5611 34.8991 10.2411 35.619 10.2411C36.9789 10.2411 38.0988 11.361 38.0988 12.7209C38.0988 13.4408 37.7788 14.1608 37.2189 14.6407L37.1389 14.7207L33.6992 11.281V11.121ZM29.0596 6.48142C29.5395 5.92146 30.2595 5.60149 30.9794 5.60149C32.3393 5.60149 33.4592 6.7214 33.4592 8.08128C33.4592 8.80122 33.1392 9.52116 32.5793 10.0011H32.4193L28.9796 6.56141L29.0596 6.48142ZM8.98124 15.6007C8.42128 15.0407 8.42128 14.2408 8.98124 13.6808L20.4203 2.24177C20.5803 2.08178 20.6603 2.00179 20.8203 1.92179C20.9002 1.92179 20.9002 1.92179 20.9802 1.92179H21.0602C21.2202 1.92179 21.4602 1.92179 21.6202 1.92179H21.7002C21.7802 1.92179 21.7802 1.92179 21.8602 1.92179C22.0202 2.00179 22.1801 2.08178 22.2601 2.24177L24.5 4.48158L11.2211 17.8405L8.98124 15.6007ZM12.341 19.0404L25.7798 5.68148L47.0581 26.9597C47.538 27.4397 47.538 28.3196 47.0581 28.7996L35.539 40.2386C35.2991 40.4786 34.9791 40.6386 34.5791 40.6386C34.1791 40.6386 33.8592 40.4786 33.6192 40.2386L26.0198 32.6392H27.2197C29.4595 32.6392 31.2994 30.7994 31.2994 28.5596C31.2994 26.3198 29.4595 24.4799 27.2197 24.4799H17.8605L12.341 19.0404ZM15.4607 28.5596C15.4607 27.4397 16.2606 26.3998 17.3805 26.1598L17.7805 26.0798C17.8605 26.0798 17.8605 26.0798 17.9405 26.0798H27.2997C28.6596 26.0798 29.7795 27.1997 29.7795 28.5596C29.7795 29.9195 28.6596 31.0394 27.2997 31.0394H17.8605C16.5006 30.9594 15.4607 29.9195 15.4607 28.5596ZM38.9787 54.3175H25.6999V45.6782H33.6992C36.6589 45.6782 39.0587 48.078 39.0587 51.0377V54.3175H38.9787ZM46.4981 45.6782V54.3175H40.6586V51.0377C40.6586 49.1179 39.8587 47.278 38.4188 45.9181L38.1788 45.6782H46.4981ZM44.8983 39.9986L44.5783 40.2386V44.0783H27.5397V41.4385L27.2197 41.1985C27.1397 41.1985 27.1397 41.1185 27.0597 41.0386L18.5804 32.6392H23.7L32.4993 41.4385C33.0592 41.9985 33.7792 42.3184 34.5791 42.3184C35.379 42.3184 36.099 41.9985 36.6589 41.4385L46.4181 31.6793L46.4981 31.8393C47.1381 32.7992 47.458 33.9191 47.458 35.119C47.3781 37.0389 46.4981 38.7987 44.8983 39.9986ZM46.4981 23.92L46.4181 24L42.9784 20.5602L43.0584 20.4803C43.5384 19.9203 44.2583 19.6003 44.9783 19.6003C46.3381 19.6003 47.458 20.7202 47.458 22.0801C47.3781 22.7201 47.0581 23.44 46.4981 23.92Z" fill="white"/>
</svg>
