<?xml version="1.0" encoding="UTF-8"?>
<svg xmlns="http://www.w3.org/2000/svg" width="66" height="64" viewBox="0 0 66 64" fill="none">
  <path d="M47.3642 40.6915C46.9954 40.5736 46.1739 40.4389 45.52 40.4052C44.8829 40.3547 44.0446 40.3884 43.6757 40.4557C43.3069 40.5399 42.6866 40.7588 42.2842 40.9609C41.8986 41.1462 41.4123 41.5503 41.2112 41.8534C41.01 42.1566 40.8088 42.7123 40.7752 43.0828C40.7249 43.4533 40.7417 43.9585 40.8088 44.2279C40.8591 44.4805 41.1273 44.9352 41.3788 45.2383C41.6471 45.5246 42.2003 45.9456 42.6027 46.1477C43.0051 46.3329 43.944 46.6529 44.6817 46.855C45.4194 47.057 46.1571 47.3433 46.3247 47.5117C46.4924 47.6633 46.6265 47.9496 46.6098 48.1348C46.6098 48.32 46.5092 48.6232 46.375 48.8084C46.1906 49.061 45.9391 49.1452 45.302 49.1452C44.6314 49.1452 44.3631 49.061 44.0278 48.7242C43.7763 48.4884 43.5584 48.1011 43.5081 47.8485L43.4243 47.377C41.2782 47.5286 40.5573 47.5959 40.4567 47.6464C40.3058 47.697 40.2723 47.8654 40.3729 48.2695C40.4399 48.5558 40.7082 49.1452 40.9429 49.5662C41.2279 50.0546 41.6303 50.4756 42.0997 50.7282C42.586 50.9976 43.2398 51.166 44.0111 51.2334C44.6649 51.2839 45.6541 51.2839 46.2409 51.2165C46.811 51.1323 47.5654 50.9303 47.9175 50.7619C48.2528 50.5935 48.7055 50.2566 48.8899 50.0377C49.0911 49.8356 49.3761 49.3978 49.527 49.1115C49.6779 48.8084 49.7953 48.1516 49.7953 47.6801C49.7785 47.1076 49.6612 46.5687 49.4432 46.1982C49.2755 45.8782 48.8061 45.4067 48.4037 45.1541C48.0181 44.9015 47.096 44.531 46.3583 44.3458C46.2973 44.3291 46.2354 44.3121 46.173 44.2951C45.4803 44.1055 44.7224 43.8982 44.4302 43.7901C44.0278 43.6385 43.8266 43.4533 43.8099 43.2007C43.7763 42.9817 43.9105 42.7291 44.1452 42.5607C44.3799 42.3923 44.7152 42.325 45.1008 42.3923C45.4194 42.4428 45.805 42.6112 45.9559 42.7796C46.1068 42.948 46.2744 43.2175 46.3247 43.3859C46.4253 43.6385 46.6433 43.6722 47.8504 43.6385C48.6217 43.6048 49.3258 43.5206 49.4097 43.4533C49.4767 43.3859 49.4432 43.0323 49.3426 42.6618C49.2252 42.2913 48.8732 41.7356 48.5714 41.4493C48.2696 41.1462 47.7331 40.8094 47.3642 40.6915Z" fill="#112244"></path>
  <path d="M58.1449 40.8936C57.5413 40.6241 56.8539 40.4557 55.9989 40.4052C55.3115 40.3547 54.4396 40.3884 54.0708 40.4557C53.7019 40.5399 53.0984 40.742 52.7463 40.9104C52.3774 41.0956 51.8577 41.5335 51.6062 41.904C51.2374 42.426 51.12 42.7628 51.1368 43.3859C51.1368 43.8237 51.2038 44.3458 51.2876 44.5647C51.3715 44.7668 51.6565 45.1541 51.908 45.4067C52.1762 45.6593 52.696 46.0129 53.0648 46.1813C53.4337 46.3666 54.339 46.6529 55.0767 46.855C55.8144 47.057 56.5521 47.3433 56.7198 47.5117C56.8875 47.6633 57.0216 47.9664 57.0048 48.1853C57.0048 48.3874 56.8036 48.7074 56.5521 48.9094C56.1833 49.1789 55.9318 49.2462 55.4121 49.162C55.0432 49.1115 54.5738 48.8926 54.3558 48.6905C54.1546 48.4716 53.9367 48.118 53.9031 47.8822C53.8025 47.4612 53.8025 47.4612 52.2601 47.5286C51.405 47.5622 50.7008 47.5959 50.6673 47.6128C50.6505 47.6128 50.7008 47.9664 50.8014 48.3874C50.9188 48.8084 51.2038 49.4315 51.4385 49.802C51.69 50.1556 52.193 50.6103 52.5619 50.7955C52.9307 50.9808 53.7522 51.1829 54.4061 51.2334C55.06 51.2839 56.0492 51.2839 56.636 51.2165C57.206 51.1323 57.9605 50.9303 58.3126 50.7619C58.6479 50.5935 59.1006 50.2566 59.3017 50.0377C59.5029 49.8356 59.788 49.3641 59.9221 49.0273C60.073 48.6737 60.1903 48.0338 60.1903 47.5959C60.1903 47.0907 60.073 46.5855 59.855 46.2487C59.6706 45.9456 59.2682 45.5077 58.9832 45.2888C58.6814 45.0531 57.9437 44.7163 57.3401 44.531C56.7366 44.3458 55.7977 44.0595 55.2444 43.8911C54.4396 43.6553 54.2384 43.5206 54.2049 43.2175C54.1714 42.948 54.3055 42.746 54.6241 42.5439C54.9761 42.325 55.2109 42.2913 55.6635 42.426C56.0827 42.527 56.3174 42.7291 56.5018 43.1164C56.7533 43.6553 56.7701 43.6722 57.9269 43.6722C58.5808 43.6722 59.285 43.6048 59.5029 43.5375C59.8382 43.4364 59.8718 43.3522 59.788 42.9144C59.7209 42.6449 59.5197 42.1566 59.352 41.8703C59.1341 41.5166 58.6982 41.163 58.1449 40.8936Z" fill="#112244"></path>
  <path fill-rule="evenodd" clip-rule="evenodd" d="M32.9289 40.523L29.7266 40.4219L29.6763 51.0817C34.7564 51.0817 35.8797 51.0144 36.4665 50.846C36.9863 50.6944 37.5563 50.3576 37.9587 49.9534C38.3275 49.5998 38.7802 48.9767 38.9646 48.5557C39.1658 48.0842 39.3167 47.2927 39.367 46.4507C39.4005 45.7097 39.3502 44.6825 39.2496 44.1773C39.1491 43.6721 38.8305 42.8806 38.5287 42.4091C38.1263 41.8028 37.7072 41.4323 37.0533 41.0955C36.1647 40.624 36.0474 40.6072 32.9289 40.523ZM35.4941 48.1684C35.1085 48.5557 34.8738 48.6399 33.0295 48.7241V42.9985H33.784C34.2031 42.9985 34.7732 43.1163 35.0414 43.2511C35.3264 43.3858 35.6618 43.7394 35.8126 44.0426C36.0306 44.4636 36.0809 44.9519 36.0306 46.1476C35.9635 47.579 35.93 47.7305 35.4941 48.1684Z" fill="#112244"></path>
  <path d="M58.7819 18.9674L60.6429 17.0645C58.9327 17.0645 58.4968 17.1824 57.4909 17.6876C56.5352 18.1591 55.8814 18.6811 54.6407 19.9273C53.7521 20.803 52.4108 22.4196 51.6228 23.5479C50.8348 24.6594 49.678 26.4276 49.0409 27.4548C48.387 28.4989 47.7667 29.3578 47.6661 29.3578C47.5487 29.3578 47.4481 29.4588 47.4481 29.5767C47.4481 29.6777 47.1463 30.2503 46.7775 30.8397C46.4086 31.4123 46.1069 31.9848 46.1069 32.1027C46.1069 32.2037 45.8889 32.6247 45.6039 33.0289C45.3356 33.4162 44.9835 33.7362 44.8494 33.7362C44.7153 33.7362 44.162 33.2478 43.6423 32.6753C43.1058 32.0859 42.2172 31.3112 41.6639 30.9576C41.0939 30.5871 40.44 30.3008 40.155 30.3008C39.8699 30.284 39.434 30.4187 39.1825 30.5871C38.9311 30.7387 38.6796 31.0755 38.6293 31.3449C38.579 31.5975 38.6293 32.0185 38.7466 32.3048C38.8808 32.5911 39.5179 33.5341 40.1717 34.4098C40.8256 35.2855 41.7645 36.4138 42.2339 36.9021C42.7872 37.4578 43.3069 37.8452 43.7261 37.9462C44.0614 38.0304 44.732 38.1146 45.1847 38.1146C45.9392 38.0978 46.0733 38.0473 46.6098 37.4578C46.9284 37.1042 47.8673 35.6054 48.6888 34.1403C49.5103 32.6753 51.036 30.0145 52.0587 28.2632C53.0982 26.5118 54.6239 24.1205 55.4287 22.9585C56.3005 21.7292 57.6921 20.062 58.7819 18.9674Z" fill="#112244"></path>
  <path d="M32.5264 53.2704C32.2917 53.0346 31.973 52.9336 31.4868 52.9336C31.0844 52.9336 30.6486 53.0346 30.4977 53.1525C30.3468 53.2704 30.1455 53.523 30.0449 53.7419C29.9276 53.944 29.8438 54.3818 29.8438 54.7018C29.8438 55.0891 29.9946 55.4764 30.2629 55.7964C30.615 56.2174 30.7995 56.3016 31.4366 56.3016C32.0402 56.3016 32.2916 56.2006 32.6101 55.8806C32.8448 55.6448 33.0293 55.3922 33.0293 55.2912C33.0293 55.1902 32.8282 55.0723 32.5767 55.0218C32.2414 54.9376 32.0736 54.9881 31.9898 55.1902C31.906 55.3417 31.6713 55.4596 31.4366 55.4596C31.1516 55.4596 30.9838 55.3417 30.9168 55.0891C30.8665 54.8702 30.8665 54.4997 30.9168 54.2471C30.9838 53.9272 31.118 53.7756 31.3527 53.7756C31.5371 53.7756 31.8221 53.8598 31.9898 53.9608C32.1407 54.0787 32.409 54.1124 32.5767 54.045C32.7276 53.9945 32.8617 53.8766 32.8617 53.7756C32.8617 53.6746 32.7108 53.4556 32.5264 53.2704Z" fill="#112244"></path>
  <path fill-rule="evenodd" clip-rule="evenodd" d="M36.2652 53.3546C35.9131 53.0346 35.6281 52.9336 35.1251 52.9336C34.7563 52.9504 34.3036 53.0346 34.1191 53.1188C33.9347 53.203 33.6832 53.4556 33.5826 53.6914C33.4653 53.9272 33.3647 54.3818 33.3647 54.7018C33.3647 55.0891 33.5156 55.4764 33.7838 55.7964C34.1359 56.2342 34.3203 56.3016 35.0077 56.3016C35.6448 56.3016 35.8796 56.2174 36.2484 55.8469C36.6173 55.4596 36.7179 55.2238 36.7179 54.5839C36.7179 53.9103 36.634 53.7082 36.2652 53.3546ZM34.7562 55.3586C34.5886 55.2575 34.4377 54.9544 34.4042 54.685C34.3874 54.4155 34.4545 54.0956 34.5551 53.9945C34.6557 53.8766 34.8736 53.7756 35.0245 53.7756C35.1754 53.7588 35.3934 53.8598 35.5107 53.9777C35.6281 54.0956 35.6951 54.4155 35.6784 54.685C35.6448 54.9544 35.4939 55.2575 35.3431 55.3586C35.1251 55.4933 34.9574 55.4933 34.7562 55.3586Z" fill="#112244"></path>
  <path d="M37.9417 52.9676L37.2375 52.917L37.2207 56.3019C38.0423 56.3019 38.059 56.2514 38.059 55.342C38.059 54.8031 38.0926 54.399 38.1429 54.4495C38.1932 54.5 38.3273 54.921 38.4446 55.3757C38.6291 56.083 38.7297 56.2177 39.065 56.2177C39.4171 56.2177 39.5009 56.083 39.7356 55.2073L39.9871 54.1969C40.0709 56.2514 40.0877 56.3019 40.4901 56.3019H40.9092V52.9339C39.5847 52.9339 39.568 52.9507 39.4003 53.6917C39.2997 54.1127 39.1823 54.4495 39.1153 54.4495C39.0315 54.4495 38.9141 54.1295 38.8135 53.7422C38.6458 53.0518 38.6123 53.0181 37.9417 52.9676Z" fill="#112244"></path>
  <path fill-rule="evenodd" clip-rule="evenodd" d="M42.6195 52.9336H41.5801V56.3016C42.5357 56.3016 42.586 56.2511 42.586 55.7627C42.5693 55.2575 42.6195 55.207 43.2567 55.0891C43.6758 55.0049 43.9944 54.8365 44.0949 54.6176C44.1788 54.4324 44.2626 54.1124 44.2626 53.9103C44.2626 53.6914 44.1285 53.3883 43.9776 53.2367C43.7596 53.0178 43.3908 52.9504 42.6195 52.9336ZM43.2064 53.9945C43.2399 54.1854 43.1449 54.2808 42.9213 54.2808C42.6866 54.2808 42.586 54.1798 42.6028 53.9272C42.6028 53.7082 42.7034 53.6072 42.8878 53.6409C43.0387 53.6746 43.1896 53.8261 43.2064 53.9945Z" fill="#112244"></path>
  <path d="M45.7715 52.9336H44.7656V56.3016C47.2637 56.2174 47.3643 56.2006 47.3978 55.8469C47.4481 55.4933 47.3643 55.4596 46.6434 55.4259L45.8554 55.3754L45.7715 52.9336Z" fill="#112244"></path>
  <path d="M48.873 56.2174L48.9569 52.9336C48.1689 52.9336 47.9006 53.0346 47.8503 53.1525C47.8 53.2872 47.7832 54.0282 47.8168 54.8028L47.8671 56.2174H48.873Z" fill="#112244"></path>
  <path fill-rule="evenodd" clip-rule="evenodd" d="M52.1088 54.2471C51.6394 52.9673 51.6226 52.9336 51.0526 52.9336C50.4993 52.9336 50.4825 52.9673 49.9963 54.2471C49.7281 54.9544 49.4598 55.7122 49.3928 55.9311C49.3089 56.2511 49.3425 56.3016 49.7951 56.3016C50.1472 56.3016 50.3149 56.2174 50.382 55.9648C50.4322 55.729 50.5999 55.628 50.9688 55.628C51.3041 55.628 51.5276 55.7403 51.6394 55.9648C51.7512 56.1893 51.9747 56.3016 52.31 56.3016C52.7459 56.3016 52.7962 56.2511 52.6956 55.9311C52.6453 55.7122 52.3771 54.9544 52.1088 54.2471ZM51.0526 54.9544C50.9185 54.9544 50.8011 54.887 50.8011 54.786C50.8011 54.7018 50.8514 54.4829 50.9017 54.3313C50.9855 54.0787 51.0358 54.0619 51.1532 54.2808C51.237 54.4155 51.3041 54.6344 51.3041 54.7523C51.3041 54.8702 51.1867 54.9544 51.0526 54.9544Z" fill="#112244"></path>
  <path d="M53.6011 52.9336H53.1484V56.3016C54.0202 56.2174 54.0705 56.1332 54.1544 55.4764L54.2382 54.7523C55.2274 56.1669 55.4118 56.3016 55.7807 56.2679L56.2501 56.2174L56.3004 52.9336C55.3615 52.9336 55.328 52.9841 55.328 53.6072C55.328 53.9777 55.2442 54.3145 55.1603 54.365C55.0597 54.4155 54.7747 54.1124 54.5232 53.6914C54.1544 53.0852 53.97 52.9336 53.6011 52.9336Z" fill="#112244"></path>
  <path d="M58.1783 52.9336C57.1209 52.9336 56.8045 52.9336 56.7098 53.0785C56.6694 53.1403 56.6694 53.2286 56.6694 53.3546C56.6694 53.7082 56.7364 53.7756 57.1723 53.7756H57.6753V56.3016H58.6813V53.7756C59.6034 53.7756 59.6872 53.7082 59.6872 53.3546C59.6872 52.9336 59.6704 52.9336 58.1783 52.9336Z" fill="#112244"></path>
  <path d="M54.8584 27.1689C54.9423 27.1689 55.177 27.5899 55.3782 28.0951C55.6129 28.7013 55.6799 29.0886 55.5794 29.1728C55.4955 29.257 54.9255 29.476 54.3219 29.678C53.7183 29.8801 53.1818 30.0317 53.1148 30.0317C53.0309 30.0317 53.0309 29.897 53.0812 29.7454C53.1315 29.577 53.5171 28.9371 53.9363 28.2972C54.3554 27.6741 54.7746 27.1689 54.8584 27.1689Z" fill="#112244"></path>
  <path fill-rule="evenodd" clip-rule="evenodd" d="M45.9226 7.70151C46.0735 7.71835 47.2304 10.0591 48.907 13.7808C50.3991 17.1151 51.6733 19.9948 51.7236 20.18C51.8075 20.4326 51.2877 21.2746 49.6782 23.5144C48.5046 25.1647 47.4651 26.4782 47.3645 26.4445C47.2639 26.4108 47.1801 24.8952 47.113 18.5802H42.5862V23.8512C42.5862 27.8759 42.5359 29.1558 42.385 29.3073C42.2174 29.4589 41.9994 29.4252 41.3623 29.1053C40.9264 28.8695 40.4569 28.6843 40.3228 28.6843C40.1887 28.6843 40.0546 28.6001 40.021 28.499C40.0043 28.3811 39.7025 28.398 39.0654 28.5832C38.5624 28.7179 37.6906 28.8863 37.1373 28.9537C36.3996 29.0379 35.8463 28.9705 35.0583 28.7516C34.3039 28.5327 33.7338 28.2296 33.2141 27.7581C32.8117 27.3876 32.3255 26.7813 32.1746 26.4108C32.0069 26.0404 31.8561 25.4341 31.8561 25.0636C31.8561 24.6932 31.9566 24.0869 32.0572 23.7164C32.1746 23.3291 32.577 22.7229 33.0297 22.285C33.5494 21.7461 34.0356 21.443 34.6224 21.2746C35.0751 21.1399 35.9134 21.0389 36.4667 21.0557C37.0199 21.0557 37.9253 21.2241 38.4786 21.4262C39.0319 21.6283 39.5013 21.7798 39.5181 21.7798C39.5516 21.7798 39.5516 21.0894 39.4845 18.6812L38.9815 18.5465C38.6965 18.4623 37.6068 18.3613 36.5505 18.3108C35.1757 18.2434 34.22 18.2939 33.1973 18.4792C32.3423 18.6307 31.3028 18.9675 30.5986 19.3212C29.9447 19.6411 29.14 20.1969 28.7711 20.5505C28.419 20.9041 27.8993 21.6451 27.6143 22.2008C27.1113 23.1607 27.0778 23.3123 27.0778 25.0636C27.0778 26.7308 27.1281 27.0171 27.5305 27.8423C27.7652 28.3475 28.2682 29.0716 28.637 29.4421C28.9891 29.8125 29.7771 30.3514 30.3639 30.6377C30.9507 30.9408 31.8058 31.2608 32.2752 31.3618C32.7279 31.4797 33.9686 31.6144 36.9193 31.7997L37.2882 32.8101C37.5062 33.3658 37.7912 34.0226 37.9421 34.292C38.16 34.6288 38.1768 34.7635 38.0091 34.8309C37.9085 34.8814 32.8955 36.4644 26.9101 38.3505C20.9079 40.2534 15.9955 41.7859 15.9955 41.769C15.9788 41.7522 15.1572 39.4956 14.1681 36.7675C12.7932 32.928 12.4244 31.766 12.6088 31.6818C12.7262 31.6144 13.8327 31.5471 17.2697 31.5471V29.7789C17.2697 28.398 17.32 27.9601 17.538 27.7581C17.7057 27.5897 18.1416 27.5055 18.7451 27.5055C19.2649 27.4886 20.3044 27.3876 21.0421 27.2529C21.8971 27.0845 22.7522 26.7982 23.3893 26.4445C24.127 26.0235 24.5294 25.653 24.8982 25.0636C25.2671 24.4742 25.418 23.9859 25.4683 23.3123C25.485 22.7902 25.4347 22.0661 25.3341 21.6956C25.2503 21.3251 24.915 20.7189 24.5964 20.3484C24.2443 19.9443 23.6072 19.4727 21.8804 18.6644L12.743 18.5802L12.6927 24.9458C12.6591 30.3514 12.6256 31.2945 12.4244 31.2945C12.2567 31.2945 10.9993 28.0612 8.35029 20.7694C6.23779 14.9764 4.57797 10.1938 4.64503 10.1433C4.71209 10.0928 13.3465 9.57076 23.8084 8.99819C34.2703 8.40879 43.4748 7.86991 44.2628 7.80255C45.0508 7.73519 45.7885 7.68467 45.9226 7.70151ZM42.3011 12.5676C42.5023 12.1972 42.8711 11.8772 43.4747 11.5909H43.4579C43.9442 11.3552 44.6148 11.1699 44.9333 11.1699C45.2519 11.1699 45.8555 11.3383 46.2746 11.5404C46.7776 11.793 47.1464 12.1466 47.3979 12.6013C47.6159 12.9886 47.7835 13.5612 47.7835 13.9485C47.7835 14.3358 47.6159 14.9084 47.3979 15.2957C47.1464 15.7504 46.7776 16.1041 46.2746 16.3567C45.8555 16.5587 45.2519 16.7271 44.9333 16.7271C44.6148 16.7271 43.9442 16.5419 43.4579 16.3061C42.8711 16.0199 42.5023 15.6999 42.3011 15.3463C42.1502 15.0431 42.0161 14.42 42.0161 13.9485C42.0161 13.4938 42.1502 12.8539 42.3011 12.5676Z" fill="#112244"></path>
  <path fill-rule="evenodd" clip-rule="evenodd" d="M18.3254 20.9375C18.6272 20.9375 19.1302 21.0217 19.4488 21.1227C19.7673 21.2406 20.2032 21.4764 20.4212 21.6784C20.6224 21.8637 20.8403 22.251 20.9074 22.5373C20.9577 22.8572 20.8906 23.2782 20.6894 23.6992C20.4882 24.1034 20.1362 24.4907 19.7841 24.676C19.4655 24.8444 18.8787 24.9791 18.4931 24.9791C18.074 24.9791 17.6716 24.8781 17.5207 24.7265C17.3363 24.5413 17.2692 24.0697 17.2524 22.9751C17.2524 21.7795 17.3027 21.409 17.5207 21.2069C17.6716 21.0554 18.0404 20.9375 18.3254 20.9375Z" fill="#112244"></path>
</svg>
