<svg width="56" height="56" viewBox="0 0 56 56" fill="none" xmlns="http://www.w3.org/2000/svg">
<path d="M11.4824 31.4146V27.8384" stroke="#127AFF" stroke-width="1.6" stroke-miterlimit="10" stroke-linecap="round" stroke-linejoin="round"/>
<path d="M44.5163 51.0781C44.5163 53.3434 42.6798 55.1797 40.4144 55.1797H15.5843C13.3189 55.1797 11.4824 53.3434 11.4824 51.0781" stroke="#127AFF" stroke-width="1.6" stroke-miterlimit="10" stroke-linecap="round" stroke-linejoin="round"/>
<path d="M44.5176 28V31.4147" stroke="#127AFF" stroke-width="1.6" stroke-miterlimit="10" stroke-linecap="round" stroke-linejoin="round"/>
<path d="M11.4824 8.03053V4.92188C11.4824 2.65661 13.3189 0.820312 15.5843 0.820312H40.4144C42.6798 0.820312 44.5163 2.65661 44.5163 4.92188V8.03053" stroke="#127AFF" stroke-width="1.6" stroke-miterlimit="10" stroke-linecap="round" stroke-linejoin="round"/>
<path d="M25 4.10156H30.4692" stroke="#127AFF" stroke-width="1.6" stroke-miterlimit="10" stroke-linecap="round" stroke-linejoin="round"/>
<path d="M18.7851 8.31152H24.7734C25.4482 8.31152 25.9962 8.8584 25.9962 9.53434V26.4579C25.9962 27.1328 25.4482 27.6797 24.7734 27.6797H7.84977C7.17383 27.6797 6.62695 27.1328 6.62695 26.4579V9.53434C6.62695 8.8584 7.17383 8.31152 7.84977 8.31152H14.957" stroke="#127AFF" stroke-width="1.6" stroke-miterlimit="10" stroke-linecap="round" stroke-linejoin="round"/>
<path d="M49.3731 22.1278V26.4579C49.3731 27.1328 48.8263 27.6797 48.1503 27.6797H31.2267C30.5519 27.6797 30.0039 27.1328 30.0039 26.4579V9.53434C30.0039 8.8584 30.5519 8.31152 31.2267 8.31152H48.1503C48.8263 8.31152 49.3731 8.8584 49.3731 9.53434V18.2996" stroke="#127AFF" stroke-width="1.6" stroke-miterlimit="10" stroke-linecap="round" stroke-linejoin="round"/>
<path d="M34.2627 16.1525H37.8453V12.5698H41.5316V16.1525H45.1143V19.8389H41.5316V23.4216H37.8453V19.8389H34.2627V16.1525Z" stroke="#127AFF" stroke-width="1.6" stroke-miterlimit="10" stroke-linecap="round" stroke-linejoin="round"/>
<path d="M6.62695 39.3302V49.7482C6.62695 50.4231 7.17383 50.971 7.84977 50.971H24.7734C25.4482 50.971 25.9962 50.4231 25.9962 49.7482V32.8246C25.9962 32.1487 25.4482 31.6018 24.7734 31.6018H7.84977C7.17383 31.6018 6.62695 32.1487 6.62695 32.8246V35.5021" stroke="#127AFF" stroke-width="1.6" stroke-miterlimit="10" stroke-linecap="round" stroke-linejoin="round"/>
<path d="M37.2369 50.971H48.1503C48.8263 50.971 49.3731 50.4231 49.3731 49.7482V32.8246C49.3731 32.1487 48.8263 31.6018 48.1503 31.6018H31.2267C30.5519 31.6018 30.0039 32.1487 30.0039 32.8246V49.7482C30.0039 50.4231 30.5519 50.971 31.2267 50.971H33.4088" stroke="#127AFF" stroke-width="1.6" stroke-miterlimit="10" stroke-linecap="round" stroke-linejoin="round"/>
<path d="M15.4776 46.0084L11.627 42.1578C10.123 40.6539 10.123 38.2156 11.627 36.7118L12.7041 35.6346C12.9428 35.3959 13.3298 35.3959 13.5686 35.6346L15.5541 37.6201C15.7928 37.8589 15.7928 38.2459 15.5541 38.4846L14.8653 39.1734C14.5552 39.4834 14.5552 39.9861 14.8653 40.2962L17.3393 42.7702C17.6494 43.0802 18.152 43.0802 18.4621 42.7702L19.1509 42.0814C19.3896 41.8427 19.7766 41.8427 20.0154 42.0814L22.0008 44.0669C22.2396 44.3057 22.2396 44.6926 22.0008 44.9314L20.9237 46.0085C19.4197 47.5122 16.9815 47.5122 15.4776 46.0084Z" stroke="#127AFF" stroke-width="1.6" stroke-miterlimit="10" stroke-linecap="round" stroke-linejoin="round"/>
<path d="M37.5705 38.4229V45.7313C37.5705 46.7235 36.7662 47.5278 35.774 47.5278C34.7819 47.5278 33.9775 46.7235 33.9775 45.7313V38.3748" stroke="#127AFF" stroke-width="1.6" stroke-miterlimit="10" stroke-linecap="round" stroke-linejoin="round"/>
<path d="M37.7965 38.2138H33.7512C33.5618 38.2138 33.4082 38.0602 33.4082 37.8708V35.4072C33.4082 35.2178 33.5618 35.0642 33.7512 35.0642H37.7965C37.986 35.0642 38.1395 35.2178 38.1395 35.4072V37.8708C38.1394 38.0602 37.9859 38.2138 37.7965 38.2138Z" stroke="#127AFF" stroke-width="1.6" stroke-miterlimit="10" stroke-linecap="round" stroke-linejoin="round"/>
<path d="M45.4201 38.3748V45.7313C45.4201 46.7235 44.6158 47.5278 43.6236 47.5278C42.6315 47.5278 41.8271 46.7235 41.8271 45.7313V38.4229" stroke="#127AFF" stroke-width="1.6" stroke-miterlimit="10" stroke-linecap="round" stroke-linejoin="round"/>
<path d="M45.6471 38.2138H41.6018C41.4124 38.2138 41.2588 38.0602 41.2588 37.8708V35.4072C41.2588 35.2178 41.4124 35.0642 41.6018 35.0642H45.6471C45.8366 35.0642 45.9901 35.2178 45.9901 35.4072V37.8708C45.99 38.0602 45.8366 38.2138 45.6471 38.2138Z" stroke="#127AFF" stroke-width="1.6" stroke-miterlimit="10" stroke-linecap="round" stroke-linejoin="round"/>
<path d="M11.3138 22.9935C10.0894 21.7691 10.0894 19.7842 11.3138 18.5598L16.8762 12.9974C18.1006 11.773 20.0855 11.773 21.3099 12.9974C22.5342 14.2217 22.5342 16.2066 21.3099 17.431L15.7474 22.9935C14.523 24.2178 12.538 24.2178 11.3138 22.9935Z" stroke="#127AFF" stroke-width="1.6" stroke-miterlimit="10" stroke-linecap="round" stroke-linejoin="round"/>
<path d="M14.3164 16.0227L18.2844 19.9907" stroke="#127AFF" stroke-width="1.6" stroke-miterlimit="10" stroke-linecap="round" stroke-linejoin="round"/>
<path d="M34.4141 42.9709H36.9377" stroke="#127AFF" stroke-width="1.6" stroke-miterlimit="10" stroke-linecap="round" stroke-linejoin="round"/>
<path d="M42.2275 42.9707H44.8521" stroke="#127AFF" stroke-width="1.6" stroke-miterlimit="10" stroke-linecap="round" stroke-linejoin="round"/>
</svg>
