<svg width="56" height="56" viewBox="0 0 56 56" fill="none" xmlns="http://www.w3.org/2000/svg">
<path d="M20.0797 17.1199C21.2797 17.3599 22.3197 18.1599 22.8797 19.2799C22.9597 19.5199 23.1997 19.6799 23.4397 19.7599C23.6797 19.8399 23.9197 19.7599 24.1597 19.5199L28.0797 15.5999C28.2397 15.4399 28.3197 15.2799 28.3197 15.0399C28.3197 14.7999 28.2397 14.6399 28.0797 14.4799L24.8797 11.2799L25.2797 10.9599C26.5597 10.0799 27.3597 8.63987 27.4397 7.11987C27.5997 5.51987 26.9597 3.91987 25.8397 2.71987C24.6397 1.51987 23.1197 0.959868 21.4397 1.11987C19.9197 1.27987 18.4797 2.07987 17.5197 3.27987L17.1997 3.67987L13.9997 0.479868C13.8397 0.319868 13.5997 0.239868 13.4397 0.239868C13.1997 0.239868 13.0397 0.319868 12.8797 0.479868L3.83969 9.67987C2.39969 11.1199 1.67969 12.9599 1.67969 14.9599C1.67969 16.9599 2.47969 18.8799 3.83969 20.2399L13.0397 29.4399C13.3597 29.7599 13.8397 29.7599 14.1597 29.4399L18.0797 25.5199C18.2397 25.3599 18.3197 25.0399 18.3197 24.7999C18.2397 24.5599 18.0797 24.3199 17.8397 24.2399C16.7197 23.7599 15.9197 22.7199 15.6797 21.5199C15.4397 20.2399 15.8397 19.0399 16.7197 18.1599C17.5997 17.2799 18.8797 16.8799 20.0797 17.1199ZM15.5997 17.0399C13.5197 19.1199 13.5197 22.5599 15.5997 24.6399C15.6797 24.7199 15.7597 24.7999 15.8397 24.8799L16.1597 25.1999L13.5997 27.8399L4.95969 19.1999C3.83969 18.0799 3.19969 16.5599 3.19969 15.0399C3.19969 13.4399 3.83969 11.9999 4.95969 10.8799L13.5997 2.15987L17.1197 5.67987C17.3597 5.91987 17.5997 5.91987 17.9197 5.91987C18.1597 5.83987 18.3197 5.59987 18.3997 5.35987C18.7997 3.75987 20.3197 2.71987 21.9997 2.71987C24.1597 2.71987 25.9197 4.47987 25.9997 6.63987C25.9997 8.31987 24.9597 9.75987 23.3597 10.2399C23.1197 10.3199 22.8797 10.5599 22.7997 10.7999C22.7197 11.0399 22.7997 11.3599 23.0397 11.5999L26.5597 15.1199L23.9197 17.7599L23.5997 17.4399C22.6397 16.3199 21.1997 15.6799 19.7597 15.5999C18.0797 15.4399 16.6397 15.9999 15.5997 17.0399Z" fill="#127AFF"/>
<path d="M21.0394 55.36H47.0394C51.1994 55.36 54.4794 52 54.4794 47.92V21.92C54.4794 17.76 51.1194 14.4 47.0394 14.4H33.9994C33.5194 14.4 33.1994 14.72 33.1994 15.2V20.96C33.1994 21.28 33.3594 21.52 33.5994 21.68C33.8394 21.84 34.1594 21.84 34.3994 21.68C34.9594 21.36 35.5194 21.2 36.1594 21.2C38.2394 21.2 39.9194 22.96 39.9194 25.12C39.9194 26.56 39.1994 27.84 37.9994 28.48C36.8794 29.12 35.5194 29.2 34.3194 28.56C34.0794 28.4 33.7594 28.4 33.5194 28.56C33.2794 28.72 33.1194 28.96 33.1194 29.28V34.16H29.3594V33.68C29.4394 32.24 28.9594 30.72 27.9194 29.68C26.8794 28.56 25.5194 28 23.9994 28C22.4794 28 21.1194 28.64 20.0794 29.68C19.0394 30.8 18.5594 32.16 18.6394 33.68V34.16H14.0794C13.6794 34.16 13.3594 34.56 13.3594 34.96V48C13.5194 52.08 16.8794 55.36 21.0394 55.36ZM34.7994 30.4L35.3594 30.48C35.5194 30.56 35.9194 30.56 36.2394 30.56C39.1994 30.56 41.5994 28.08 41.5994 25.04C41.5994 22 39.1994 19.52 36.2394 19.52C35.9194 19.52 35.5994 19.52 35.3594 19.6L34.7994 19.68V16H47.0394C50.3194 16 52.9594 18.64 52.9594 21.92V34.08H48.2394C47.9994 34.08 47.7594 34.24 47.5994 34.4C47.4394 34.64 47.4394 34.88 47.5194 35.12C47.9994 36.24 47.8394 37.52 47.1194 38.56C46.3994 39.6 45.2794 40.24 43.9994 40.24C42.7994 40.24 41.5994 39.6 40.8794 38.64C40.1594 37.6 39.9994 36.32 40.4794 35.12C40.5594 34.88 40.5594 34.56 40.3994 34.4C40.2394 34.16 39.9994 34.08 39.7594 34.08H34.9594V30.4H34.7994ZM33.7594 41.28C33.9994 41.36 34.2394 41.36 34.4794 41.2C34.7194 41.04 34.7994 40.8 34.7994 40.56V35.76H38.5594V36.24C38.4794 37.76 38.9594 39.2 39.9994 40.32C41.0394 41.44 42.3994 42 43.9194 42C45.4394 42 46.7994 41.36 47.8394 40.32C48.8794 39.2 49.3594 37.76 49.2794 36.24V35.76H52.9594V48C52.9594 51.2 50.3194 53.84 47.0394 53.84H34.7994V49.12C34.7994 48.88 34.6394 48.64 34.4794 48.48C34.3194 48.32 33.9994 48.32 33.7594 48.4C32.6394 48.88 31.3594 48.72 30.3194 48C29.2794 47.28 28.6394 46.16 28.6394 44.88C28.6394 43.68 29.2794 42.48 30.2394 41.76C31.2794 40.96 32.5594 40.8 33.7594 41.28ZM15.1194 35.68H19.8394C20.0794 35.68 20.3194 35.52 20.4794 35.36C20.6394 35.12 20.6394 34.88 20.5594 34.64C20.0794 33.52 20.2394 32.24 20.9594 31.2C21.6794 30.16 22.7994 29.52 24.0794 29.52C25.2794 29.52 26.4794 30.16 27.1994 31.12C27.9194 32.16 28.0794 33.44 27.5994 34.64C27.5194 34.88 27.5194 35.12 27.6794 35.36C27.8394 35.6 28.0794 35.68 28.3194 35.68H33.1194V39.44H32.6394C31.1994 39.36 29.6794 39.84 28.6394 40.88C27.5194 41.92 26.9594 43.28 26.9594 44.8C26.9594 46.32 27.5994 47.68 28.6394 48.72C29.7594 49.76 31.1994 50.24 32.6394 50.16H33.1194V53.84H21.0394C17.7594 53.84 15.1994 51.28 15.1994 48V35.68H15.1194Z" fill="#127AFF"/>
</svg>
