<svg width="56" height="56" viewBox="0 0 56 56" fill="none" xmlns="http://www.w3.org/2000/svg">
<path d="M48.3107 26.8155H48.6884V26.4372V18.7202C48.6884 18.0393 49.2172 17.5097 49.8972 17.5097C50.5771 17.5097 51.1059 18.0393 51.1059 18.7202V45.5028H51.4837L51.3326 45.8811C52.9946 46.4864 54.2034 48.0752 54.2034 49.8909C54.2034 52.2363 52.3147 54.2034 49.8972 54.2034C48.0085 54.2034 46.422 52.9929 45.8932 51.3284L45.8176 51.1014H45.4399H10.688H10.3858L10.3102 51.3284C9.70585 52.9929 8.11936 54.2034 6.30621 54.2034C3.96424 54.2034 2 52.312 2 49.8909C2 47.9995 3.20876 46.4107 4.87081 45.8811L5.09745 45.8055V45.5028V10.7006V10.3979L4.87081 10.3223C3.20876 9.71702 2 8.12822 2 6.31245C2 3.89143 3.88869 2 6.30621 2C8.1949 2 9.70585 3.21051 10.3102 4.87497L10.3858 5.10194H10.688H37.5074C38.1873 5.10194 38.7161 5.63154 38.7161 6.31245C38.7161 6.99337 38.1873 7.52297 37.5074 7.52297H29.726H29.3482V7.90125V15.6939C29.3482 16.3748 28.8194 16.9044 28.1395 16.9044C27.4595 16.9044 26.9307 16.3748 26.9307 15.6939V7.82559V7.44731H26.553H10.688H10.3858L10.3102 7.67428C9.85695 8.88479 8.95038 9.86834 7.74162 10.2466L7.51497 10.3223V10.7006V26.5129V26.8912H7.89271H18.9227C19.6026 26.8912 20.1314 27.4208 20.1314 28.1017C20.1314 28.7826 19.6026 29.3122 18.9227 29.3122H7.81716H7.43943V29.6905V45.5028V45.8055L7.66607 45.8811C8.87483 46.335 9.85695 47.2429 10.2347 48.4534L10.3102 48.6804H10.688H26.6285H27.0063V48.3021V37.3319C27.0063 36.6509 27.5351 36.1213 28.215 36.1213C28.8949 36.1213 29.4238 36.6509 29.4238 37.3319V48.3778V48.7561H29.8015H45.4399H45.7421L45.8176 48.5291C46.2709 47.3186 47.1775 46.335 48.3862 45.9568L48.6129 45.8811V45.5028V29.5392V29.1609H48.2351H40.5293C39.8493 29.1609 39.3205 28.6313 39.3205 27.9504C39.3205 27.2695 39.8493 26.7399 40.5293 26.7399H48.3107V26.8155ZM8.1949 6.31245C8.1949 5.25325 7.36388 4.34537 6.23067 4.34537C5.173 4.34537 4.26643 5.1776 4.26643 6.31245C4.26643 7.37165 5.09745 8.27954 6.23067 8.27954C7.36388 8.20388 8.1949 7.37165 8.1949 6.31245ZM4.34198 49.8909C4.34198 50.9501 5.173 51.858 6.30621 51.858C7.36388 51.858 8.27045 51.0258 8.27045 49.8909C8.27045 48.8317 7.43943 47.9239 6.30621 47.9239C5.173 47.9995 4.34198 48.8317 4.34198 49.8909ZM47.9329 49.8909C47.9329 50.9501 48.764 51.858 49.8972 51.858C50.9548 51.858 51.8614 51.0258 51.8614 49.8909C51.8614 48.8317 51.0304 47.9239 49.8972 47.9239C48.764 47.9995 47.9329 48.8317 47.9329 49.8909Z" fill="#127AFF"/>
<path d="M46.8733 3.25288C48.5438 1.58237 51.2773 1.58237 52.9479 3.25288C54.6184 4.92339 54.6184 7.65695 52.9479 9.32746L30.8516 31.4237C30.6997 31.5756 30.5479 31.6515 30.396 31.7275L24.1696 33.7776H24.0936L24.0177 33.8536L22.0435 35.8278C21.5879 36.2834 20.8285 36.2834 20.3729 35.8278C19.9174 35.3722 19.9174 34.6129 20.3729 34.1573L22.3472 32.1831L22.4231 32.1071V32.0312L24.4733 25.8047C24.5492 25.6529 24.6251 25.501 24.777 25.3492L27.7384 22.3878L46.8733 3.25288ZM29.3329 29.5254H29.4089L29.4848 29.4495L31.0794 27.8549L31.3831 27.5512L31.0794 27.3234L28.8773 25.1214L28.5736 24.8176L28.3458 25.1214L26.7512 26.7159L26.6753 26.7919V26.8678L25.5363 30.2088L25.3085 30.8922L25.9919 30.6644L29.3329 29.5254ZM32.7499 25.6529L33.0536 25.9566L33.3574 25.6529L48.0882 10.922L48.3919 10.6183L48.0882 10.3146L45.8862 8.11254L45.5065 7.88475L45.2028 8.18847L30.5479 22.9193L30.2441 23.2231L30.5479 23.5268L32.7499 25.6529ZM49.6828 8.72L49.9865 9.02373L50.2902 8.72L51.2773 7.65695C52.0367 6.89763 52.0367 5.68271 51.2773 4.92339C50.518 4.16407 49.3031 4.16407 48.5438 4.92339L47.4048 6.06237L47.1011 6.3661L47.4048 6.66983L49.6828 8.72Z" fill="#127AFF"/>
</svg>
