<svg width="56" height="56" viewBox="0 0 56 56" fill="none" xmlns="http://www.w3.org/2000/svg">
<g clip-path="url(#clip0_4658_23992)">
<path d="M42.8142 34.8303C42.8142 34.3151 42.3962 33.897 41.8809 33.897H36.2809C35.7658 33.897 35.3477 34.3151 35.3477 34.8303C35.3477 35.3455 35.7658 35.7635 36.2809 35.7635H41.8809C42.3962 35.7637 42.8142 35.3455 42.8142 34.8303Z" fill="#127AFF"/>
<path d="M39.0814 10.5639V5.89717C39.0814 5.38201 38.6632 4.96387 38.1481 4.96387C37.633 4.96387 37.2148 5.38201 37.2148 5.89717V10.5639C37.2148 13.137 39.3083 15.2306 41.8816 15.2306H50.2816V32.9639C50.2816 33.479 50.6997 33.8972 51.2149 33.8972C51.73 33.8972 52.1482 33.479 52.1482 32.9639V14.2972C52.1482 13.7821 51.73 13.3639 51.2149 13.3639H41.8816C40.3377 13.3639 39.0814 12.1076 39.0814 10.5639Z" fill="#127AFF"/>
<path d="M41.8805 22.6968H34.4138C33.8986 22.6968 33.4805 23.1149 33.4805 23.6301C33.4805 24.1453 33.8986 24.5633 34.4138 24.5633H41.8805C42.3957 24.5633 42.8138 24.1453 42.8138 23.6301C42.8139 23.1149 42.3958 22.6968 41.8805 22.6968Z" fill="#127AFF"/>
<path d="M31.615 23.6301C31.615 23.1149 31.1969 22.6968 30.6817 22.6968H25.0817C24.5666 22.6968 24.1484 23.1149 24.1484 23.6301C24.1484 24.1453 24.5666 24.5633 25.0817 24.5633H30.6817C31.1969 24.5635 31.615 24.1453 31.615 23.6301Z" fill="#127AFF"/>
<path d="M25.0817 28.2969C24.5666 28.2969 24.1484 28.715 24.1484 29.2302C24.1484 29.7454 24.5666 30.1634 25.0817 30.1634H26.9484C27.4636 30.1634 27.8817 29.7454 27.8817 29.2302C27.8817 28.715 27.4636 28.2969 26.9484 28.2969H25.0817Z" fill="#127AFF"/>
<path d="M25.0817 18.9633H34.415C34.9302 18.9633 35.3484 18.5452 35.3484 18.03C35.3484 17.5148 34.9302 17.0967 34.415 17.0967H25.0817C24.5666 17.0967 24.1484 17.5148 24.1484 18.03C24.1484 18.5452 24.5666 18.9633 25.0817 18.9633Z" fill="#127AFF"/>
<path d="M30.6794 30.1635H40.0127C40.5279 30.1635 40.946 29.7454 40.946 29.2302C40.946 28.715 40.5279 28.2969 40.0127 28.2969H30.6794C30.1643 28.2969 29.7461 28.715 29.7461 29.2302C29.7461 29.7454 30.1643 30.1635 30.6794 30.1635Z" fill="#127AFF"/>
<path d="M36.2809 39.4971C35.7658 39.4971 35.3477 39.9152 35.3477 40.4303C35.3477 40.9455 35.7658 41.3636 36.2809 41.3636H38.1477C38.6629 41.3636 39.0809 40.9455 39.0809 40.4303C39.0809 39.9152 38.6629 39.4971 38.1477 39.4971H36.2809Z" fill="#127AFF"/>
<path d="M32.5485 33.897H25.0817C24.5666 33.897 24.1484 34.3151 24.1484 34.8303C24.1484 35.3455 24.5666 35.7635 25.0817 35.7635H32.5485C33.0636 35.7635 33.4817 35.3455 33.4817 34.8303C33.4817 34.3151 33.0636 33.897 32.5485 33.897Z" fill="#127AFF"/>
<path d="M32.5485 39.4971H25.0817C24.5666 39.4971 24.1484 39.9152 24.1484 40.4303C24.1484 40.9455 24.5666 41.3636 25.0817 41.3636H32.5485C33.0636 41.3636 33.4817 40.9455 33.4817 40.4303C33.4817 39.9152 33.0636 39.4971 32.5485 39.4971Z" fill="#127AFF"/>
<path d="M54.7694 38.7419L52.9027 36.8751C51.4682 35.4406 49.2822 35.4435 47.8497 36.8751L35.6211 49.1037C35.4465 49.2783 35.3477 49.5163 35.3477 49.7636V55.3636C35.3477 55.8787 35.7658 56.2969 36.2809 56.2969H41.8809C42.1282 56.2969 42.3662 56.198 42.5408 56.0235L54.7694 43.7949C56.2563 42.308 56.2563 40.2296 54.7694 38.7419ZM46.6428 40.7215L48.1231 42.2017L40.0142 50.3106L38.534 48.8303L46.6428 40.7215ZM37.2144 54.4302V50.1499L41.4946 54.4302H37.2144ZM42.8144 53.1105L41.3341 51.6302L49.443 43.5214L50.9232 45.0016L42.8144 53.1105ZM53.4497 42.4751L52.2428 43.682L47.9626 39.4017L49.1694 38.1949C49.9067 37.4585 50.8419 37.4547 51.583 38.1949L53.4497 40.0616C54.2047 40.8176 54.2047 41.72 53.4497 42.4751Z" fill="#127AFF"/>
<path d="M32.5466 54.4302H8.27988C6.73616 54.4302 5.47988 53.1739 5.47988 51.6302V4.96358C5.47988 3.41986 6.73616 2.16358 8.27988 2.16358H37.7602L46.8201 11.2234C47.185 11.5884 47.775 11.5884 48.1398 11.2234C48.5048 10.8586 48.5048 10.2686 48.1398 9.90376L38.8065 0.570313C38.6319 0.394875 38.3939 0.296875 38.1466 0.296875H8.27988C5.70673 0.296875 3.61328 2.39032 3.61328 4.96358V51.6303C3.61328 54.2034 5.70672 56.297 8.28 56.297H32.5467C33.0619 56.297 33.4801 55.8789 33.4801 55.3637C33.4801 54.8486 33.0618 54.4302 32.5466 54.4302Z" fill="#127AFF"/>
<path d="M32.5485 45.0967H25.0817C24.5666 45.0967 24.1484 45.5148 24.1484 46.03C24.1484 46.5452 24.5666 46.9632 25.0817 46.9632H32.5485C33.0636 46.9632 33.4817 46.5452 33.4817 46.03C33.4817 45.5148 33.0636 45.0967 32.5485 45.0967Z" fill="#127AFF"/>
<path d="M20.4119 18.03C20.4119 17.5148 19.9938 17.0967 19.4786 17.0967H13.8786C13.3635 17.0967 12.9453 17.5148 12.9453 18.03V23.63C12.9453 24.1452 13.3635 24.5632 13.8786 24.5632H19.4786C19.9938 24.5632 20.4119 24.1452 20.4119 23.63V18.03ZM18.5452 22.6967H14.8119V18.9634H18.5452V22.6967Z" fill="#127AFF"/>
<path d="M13.8806 46.9637H19.4806C19.9958 46.9637 20.4139 46.5455 20.4139 46.0303V40.4303C20.4139 39.9152 19.9958 39.4971 19.4806 39.4971H13.8806C13.3654 39.4971 12.9473 39.9152 12.9473 40.4303V46.0303C12.9473 46.5455 13.3654 46.9637 13.8806 46.9637ZM14.814 41.3637H18.5473V45.097H14.814V41.3637Z" fill="#127AFF"/>
<path d="M15.0857 35.49C15.2612 35.6654 15.4992 35.7634 15.7456 35.7634C15.7764 35.7634 15.8063 35.7625 15.838 35.7587C16.1161 35.7317 16.3672 35.5805 16.5221 35.3481L20.2554 29.7481C20.541 29.3187 20.4253 28.739 19.9969 28.4535C19.5666 28.1669 18.9889 28.2836 18.7023 28.7121L15.6008 33.3647L14.5388 32.3036C14.1739 31.9386 13.5839 31.9386 13.219 32.3036C12.8541 32.6685 12.854 33.2585 13.219 33.6233L15.0857 35.49Z" fill="#127AFF"/>
</g>
<defs>
<clipPath id="clip0_4658_23992">
<rect width="56" height="56" fill="white"/>
</clipPath>
</defs>
</svg>
