<svg width="56" height="56" viewBox="0 0 56 56" fill="none" xmlns="http://www.w3.org/2000/svg">
<path d="M2.98828 48.5925V17.8745C2.98828 16.9076 3.77141 16.1245 4.73828 16.1245H21.3294" stroke="#127AFF" stroke-width="1.6" stroke-miterlimit="10" stroke-linecap="round" stroke-linejoin="round"/>
<path d="M53.0117 48.5925V30.9788" stroke="#127AFF" stroke-width="1.6" stroke-miterlimit="10" stroke-linecap="round" stroke-linejoin="round"/>
<path d="M44.8184 16.1245H51.2616C52.2285 16.1245 53.0116 16.9076 53.0116 17.8745V27.1506" stroke="#127AFF" stroke-width="1.6" stroke-miterlimit="10" stroke-linecap="round" stroke-linejoin="round"/>
<path d="M42.069 16.1245H24.1162" stroke="#127AFF" stroke-width="1.6" stroke-miterlimit="10" stroke-linecap="round" stroke-linejoin="round"/>
<path d="M15.4253 45.2434H7.36328C6.75953 45.2434 6.26953 44.7545 6.26953 44.1497V20.4995C6.26953 19.8958 6.75953 19.4058 7.36328 19.4058H22.27" stroke="#127AFF" stroke-width="1.6" stroke-miterlimit="10" stroke-linecap="round" stroke-linejoin="round"/>
<path d="M43.8536 19.4058H48.6365C49.2403 19.4058 49.7303 19.8958 49.7303 20.4995V44.1497C49.7303 44.7545 49.2403 45.2434 48.6365 45.2434H19.2529" stroke="#127AFF" stroke-width="1.6" stroke-miterlimit="10" stroke-linecap="round" stroke-linejoin="round"/>
<path d="M40.7969 19.4058H25.4111" stroke="#127AFF" stroke-width="1.6" stroke-miterlimit="10" stroke-linecap="round" stroke-linejoin="round"/>
<path d="M52.4453 54.0613H3.55469C2.04455 54.0613 0.820312 52.837 0.820312 51.3269V49.905C0.820312 49.1802 1.40798 48.5925 2.13281 48.5925H53.8672C54.592 48.5925 55.1797 49.1802 55.1797 49.905V51.3269C55.1797 52.837 53.9555 54.0613 52.4453 54.0613Z" stroke="#127AFF" stroke-width="1.6" stroke-miterlimit="10" stroke-linecap="round" stroke-linejoin="round"/>
<path d="M22.5898 12.6586V5.58095C22.5898 4.52548 23.4452 3.67017 24.5006 3.67017H26.1763" stroke="#127AFF" stroke-width="1.6" stroke-miterlimit="10" stroke-linecap="round" stroke-linejoin="round"/>
<path d="M39.9893 3.67017H41.6649C42.7193 3.67017 43.5746 4.52548 43.5746 5.58095V12.6586" stroke="#127AFF" stroke-width="1.6" stroke-miterlimit="10" stroke-linecap="round" stroke-linejoin="round"/>
<path d="M33.0823 31.8331V35.3408C33.0823 36.8513 31.8584 38.0752 30.3479 38.0752H27.945C26.4345 38.0752 25.2106 36.8513 25.2106 35.3408V33.8052C25.2106 32.2947 23.9867 31.0708 22.4762 31.0708H20.0732C18.5628 31.0708 17.3389 32.2947 17.3389 33.8052V35.6689" stroke="#127AFF" stroke-width="1.6" stroke-miterlimit="10" stroke-linecap="round" stroke-linejoin="round"/>
<path d="M17.3389 42.2312C19.1511 42.2312 20.6201 40.7621 20.6201 38.95C20.6201 37.1378 19.1511 35.6687 17.3389 35.6687C15.5267 35.6687 14.0576 37.1378 14.0576 38.95C14.0576 40.7621 15.5267 42.2312 17.3389 42.2312Z" stroke="#127AFF" stroke-width="1.6" stroke-miterlimit="10" stroke-linecap="round" stroke-linejoin="round"/>
<path d="M44.0667 12.6584H43.0823C42.5991 12.6584 42.2073 13.0502 42.2073 13.5334V14.5353C42.2073 19.5111 38.2042 23.5701 33.2482 23.6589C28.1244 23.7508 23.957 19.5342 23.957 14.4095V13.5334C23.957 13.0502 23.5653 12.6584 23.082 12.6584H22.0977C21.6144 12.6584 21.2227 13.0502 21.2227 13.5334V14.5353C21.2227 20.3614 25.4452 25.2191 30.9907 26.2098C31.4091 26.2845 31.715 26.646 31.715 27.071V30.958C31.715 31.4412 32.1068 31.833 32.59 31.833H33.5744C34.0576 31.833 34.4494 31.4412 34.4494 30.958V27.0682C34.4494 26.644 34.7541 26.2829 35.1716 26.2074C40.7294 25.2019 44.9417 20.2637 44.9417 14.3955V13.5333C44.9417 13.0502 44.5499 12.6584 44.0667 12.6584Z" stroke="#127AFF" stroke-width="1.6" stroke-miterlimit="10" stroke-linecap="round" stroke-linejoin="round"/>
<path d="M27.9082 5.40153C28.8644 5.40153 29.6396 4.62636 29.6396 3.67013C29.6396 2.7139 28.8644 1.93872 27.9082 1.93872C26.9519 1.93872 26.1768 2.7139 26.1768 3.67013C26.1768 4.62636 26.9519 5.40153 27.9082 5.40153Z" stroke="#127AFF" stroke-width="1.6" stroke-miterlimit="10" stroke-linecap="round" stroke-linejoin="round"/>
<path d="M38.2578 5.40153C39.214 5.40153 39.9892 4.62636 39.9892 3.67013C39.9892 2.7139 39.214 1.93872 38.2578 1.93872C37.3015 1.93872 36.5264 2.7139 36.5264 3.67013C36.5264 4.62636 37.3015 5.40153 38.2578 5.40153Z" stroke="#127AFF" stroke-width="1.6" stroke-miterlimit="10" stroke-linecap="round" stroke-linejoin="round"/>
<path d="M33.4172 48.5925V50.6707C33.4172 51.0331 33.1234 51.3269 32.7609 51.3269H23.2383C22.8758 51.3269 22.582 51.0331 22.582 50.6707V48.5925" stroke="#127AFF" stroke-width="1.6" stroke-miterlimit="10" stroke-linecap="round" stroke-linejoin="round"/>
</svg>
