<svg width="56" height="56" viewBox="0 0 56 56" fill="none" xmlns="http://www.w3.org/2000/svg">
<g clip-path="url(#clip0_4522_23896)">
<path d="M50.0946 2.7207H13.8831C10.7405 2.7207 8.1836 5.2536 8.1836 8.35684L7.95027 40.243H0.883416C0.382591 40.243 0 40.6858 0 41.1866V45.5749C0 49.6828 3.28745 53.0425 7.25506 53.2267V53.2794H37.749V53.2201C37.9757 53.2294 38.113 53.2794 38.2688 53.2794H38.2906C42.5221 53.2546 45.933 49.8056 45.9109 45.574V17.6843H55.1166C55.6174 17.6843 56 17.2309 56 16.7305V8.67876C56.0058 5.40636 53.367 2.74417 50.0946 2.7207ZM7.65182 51.4656H7.64562C4.41972 51.4656 1.81377 48.7995 1.81377 45.574V42.0568H30.6073V45.5589C30.6002 47.6003 31.4066 49.5602 32.8479 51.0056C33.0011 51.1596 33.1614 51.2389 33.3253 51.4656H7.65182ZM44.0971 45.5731C44.0971 48.7995 41.5164 51.4656 38.2892 51.4656H38.2706C35.0274 51.4422 32.4135 48.8025 32.421 45.5594V41.1866C32.4237 40.6787 32.0221 40.2607 31.5142 40.243H9.76408L9.99744 8.36304C9.99744 6.25392 11.7403 4.53447 13.8831 4.53447H45.813C44.7795 5.66807 44.0971 7.10235 44.0971 8.70312V45.5731ZM54.1862 8.6947V15.8705H45.9109V8.70135C45.9109 6.43148 47.799 4.53447 50.0681 4.53447H50.0933C52.368 4.55705 54.1969 6.41288 54.1862 8.68806V8.6947Z" fill="#127AFF"/>
<path d="M21.2965 25.043L25.9722 28.2397C26.2773 28.45 26.6807 28.45 26.9858 28.2397L31.6473 25.0439C33.2667 23.9391 34.4627 21.6294 34.4627 19.6707V13.2031C34.4724 12.8612 34.2838 12.5441 33.9792 12.3887L26.86 8.88693C26.6103 8.76295 26.3172 8.76295 26.0674 8.88693L18.9616 12.379C18.6569 12.5344 18.4687 12.8515 18.4789 13.1933V19.6707C18.4789 21.6294 19.6776 23.9391 21.2965 25.043ZM20.2927 13.7592L26.4708 10.7109L32.6489 13.7676V19.6707C32.6489 21.0368 31.7536 22.7745 30.624 23.5445L26.4602 26.3923L22.3128 23.545C21.1832 22.774 20.2927 21.0368 20.2927 19.6707V13.7592Z" fill="#127AFF"/>
<path d="M24.9367 21.04C25.1058 21.2127 25.337 21.3106 25.5787 21.3119H25.5809C25.8219 21.311 26.0525 21.2145 26.2221 21.0435L29.8297 17.4346C30.1844 17.0804 30.1844 16.5056 29.8302 16.1514C29.4763 15.7966 28.9016 15.7966 28.5474 16.1509L25.584 19.1138L24.3995 17.9178C24.0466 17.5617 23.4723 17.559 23.1163 17.912C22.7602 18.2649 22.758 18.8392 23.1105 19.1953L24.9367 21.04Z" fill="#127AFF"/>
<path d="M37.7483 30.834H15.9831C15.4823 30.834 15.0762 31.2401 15.0762 31.7409C15.0762 32.2417 15.4823 32.6477 15.9831 32.6477H37.7483C38.2491 32.6477 38.6551 32.2417 38.6551 31.7409C38.6551 31.2401 38.2491 30.834 37.7483 30.834Z" fill="#127AFF"/>
<path d="M37.7483 35.0283H15.9831C15.4823 35.0283 15.0762 35.4344 15.0762 35.9352C15.0762 36.436 15.4823 36.8421 15.9831 36.8421H37.7483C38.2491 36.8421 38.6551 36.436 38.6551 35.9352C38.6551 35.4344 38.2491 35.0283 37.7483 35.0283Z" fill="#127AFF"/>
</g>
<defs>
<clipPath id="clip0_4522_23896">
<rect width="56" height="56" fill="white"/>
</clipPath>
</defs>
</svg>
