<svg width="56" height="56" viewBox="0 0 56 56" fill="none" xmlns="http://www.w3.org/2000/svg">
<path d="M18.1624 13.1992H3.6024C2.1624 13.1992 0.962402 14.3992 0.962402 15.8392V53.1992C0.962402 54.6392 2.1624 55.8392 3.6024 55.8392H52.1624C53.6024 55.8392 54.8024 54.6392 54.8024 53.1992V15.8392C54.8024 14.3992 53.6024 13.1992 52.1624 13.1992H37.6024C37.2024 13.1992 36.8024 13.5192 36.8024 13.9992C36.8024 14.4792 37.1224 14.7992 37.6024 14.7992H52.1624C52.7224 14.7992 53.2024 15.2792 53.2024 15.8392V20.6392H38.0824C37.6824 20.6392 37.2824 20.9592 37.2824 21.4392C37.2824 21.9192 37.6024 22.2392 38.0824 22.2392H53.2024V53.1992C53.2024 53.7592 52.7224 54.2392 52.1624 54.2392H3.6024C3.0424 54.2392 2.5624 53.7592 2.5624 53.1992V22.2392H17.6824C18.0824 22.2392 18.4824 21.9192 18.4824 21.4392C18.4824 20.9592 18.1624 20.6392 17.6824 20.6392H2.5624V15.8392C2.5624 15.2792 3.0424 14.7992 3.6024 14.7992H18.1624C18.5624 14.7992 18.9624 14.4792 18.9624 13.9992C18.9624 13.5192 18.6424 13.1992 18.1624 13.1992Z" fill="#127AFF"/>
<path d="M4.6377 17.7609C4.6377 18.0009 4.7177 18.1609 4.8777 18.3209C5.1977 18.6409 5.6777 18.6409 5.9977 18.3209C6.1577 18.1609 6.2377 17.9209 6.2377 17.7609C6.2377 17.6009 6.1577 17.3609 5.9977 17.2009C5.6777 16.8809 5.1977 16.8809 4.8777 17.2009C4.7177 17.2809 4.6377 17.5209 4.6377 17.7609Z" fill="#127AFF"/>
<path d="M8.3999 17.7609C8.3999 18.0009 8.4799 18.1609 8.6399 18.3209C8.7999 18.4809 9.0399 18.5609 9.1999 18.5609C9.3599 18.5609 9.5999 18.4809 9.7599 18.3209C9.9199 18.1609 9.9999 17.9209 9.9999 17.7609C9.9999 17.6009 9.9199 17.3609 9.7599 17.2009C9.4399 16.8809 8.9599 16.8809 8.6399 17.2009C8.4799 17.2809 8.3999 17.5209 8.3999 17.7609Z" fill="#127AFF"/>
<path d="M12.1626 17.7595C12.1626 17.9995 12.2426 18.1595 12.4026 18.3195C12.7226 18.6395 13.2026 18.6395 13.5226 18.3195C13.6826 18.1595 13.7626 17.9995 13.7626 17.7595C13.7626 17.5195 13.6826 17.3595 13.5226 17.1995C13.2826 16.9595 12.6426 16.9595 12.4026 17.1995C12.2426 17.2795 12.1626 17.5195 12.1626 17.7595Z" fill="#127AFF"/>
<path d="M39.8412 37.6001L41.6812 32.9601C41.7612 32.7201 41.7612 32.4001 41.6012 32.1601L35.8412 24.2401V24.1601C36.4012 19.7601 36.0812 15.5201 34.9612 11.6801C33.7612 7.60008 31.5212 3.76008 28.4012 0.320078C28.0812 7.81268e-05 27.5212 7.81268e-05 27.2012 0.320078C24.0812 3.76008 21.9212 7.60008 20.6412 11.6801C19.5212 15.5201 19.2012 19.6801 19.7612 24.1601V24.2401V24.3201L14.0012 32.1601C13.8412 32.4001 13.8412 32.6401 13.9212 32.9601L15.7612 37.6001C15.8412 37.8401 16.0012 38.0001 16.2412 38.0801C16.4812 38.1601 16.7212 38.0801 16.8812 38.0001L22.2412 34.4001L22.3212 34.5601C22.5612 35.2801 22.8812 36.0001 23.1212 36.7201C23.1212 36.8001 23.2012 36.8801 23.2812 36.9601C23.2812 36.9601 23.2812 36.9601 23.3612 37.0401H23.4412H23.5212L23.6012 37.1201C23.6812 37.2001 23.7612 37.2001 23.9212 37.2001H24.4812L23.2012 39.7601C23.0412 40.0001 23.1212 40.3201 23.2012 40.5601C23.3612 40.8001 23.6012 40.9601 23.8412 40.9601H31.2812C31.5212 40.9601 31.8412 40.8001 31.9212 40.5601C32.0812 40.3201 32.0812 40.0001 31.9212 39.7601L30.6412 37.2001H30.9612C30.9612 37.2001 30.9612 37.2001 31.0412 37.2001H31.1212H31.2012C31.2012 37.2001 31.2012 37.2001 31.2812 37.2001C31.6012 37.2001 31.9212 37.0401 32.0012 36.7201C32.3212 36.0001 32.5612 35.2801 32.8012 34.5601L32.8812 34.4001L38.2412 38.0001C38.4012 38.1601 38.7212 38.1601 38.8812 38.0801C39.5212 38.0001 39.7612 37.8401 39.8412 37.6001ZM17.0412 36.0801L15.6812 32.8001L15.7612 32.7201L20.2412 26.5601L20.3212 26.8801C20.7212 28.8001 21.2012 30.7201 21.9212 32.8001V32.8801L17.0412 36.0801ZM25.4412 39.3601L26.4812 37.2001H29.2012L30.2412 39.3601H25.4412ZM31.6812 34.0001C31.5212 34.4801 31.3612 34.9601 31.1212 35.5201V35.6001H24.6412V35.5201C24.4012 34.9601 24.2412 34.4801 24.0812 34.0001C23.3612 31.9201 22.1612 28.5601 21.6012 24.4001V24.3201C21.0412 20.0001 21.2812 15.9201 22.4012 12.1601C23.4412 8.64008 25.2812 5.28008 27.9212 2.16008L28.0012 2.00008V2.24008C30.5612 5.28008 32.4012 8.64008 33.5212 12.2401C34.6412 16.0001 34.8812 20.0801 34.3212 24.4001C33.6812 28.4801 32.4812 31.9201 31.6812 34.0001ZM38.7212 36.0801L33.8412 32.8001V32.7201C34.5612 30.6401 35.0412 28.7201 35.4412 26.8001L35.5212 26.4801L40.0012 32.8001V32.8801L38.7212 36.0801Z" fill="#127AFF"/>
<path d="M27.8376 44.9609C27.4376 44.9609 27.0376 45.2809 27.0376 45.7609V48.5609C27.0376 48.9609 27.3576 49.3609 27.8376 49.3609C28.3176 49.3609 28.6376 49.0409 28.6376 48.5609V45.7609C28.6376 45.2809 28.3176 44.9609 27.8376 44.9609Z" fill="#127AFF"/>
<path d="M24.1623 43.0391C23.7623 43.0391 23.3623 43.3591 23.3623 43.8391V46.6391C23.3623 47.0391 23.6823 47.4391 24.1623 47.4391C24.5623 47.4391 24.9623 47.1191 24.9623 46.6391V43.8391C24.9623 43.4391 24.5623 43.0391 24.1623 43.0391Z" fill="#127AFF"/>
<path d="M31.5998 43.0391C31.1998 43.0391 30.7998 43.3591 30.7998 43.8391V46.6391C30.7998 47.0391 31.1198 47.4391 31.5998 47.4391C32.0798 47.4391 32.3998 47.1191 32.3998 46.6391V43.8391C32.3998 43.4391 32.0798 43.0391 31.5998 43.0391Z" fill="#127AFF"/>
<path d="M27.8412 12.2402C25.3612 12.2402 23.2812 14.2402 23.2812 16.8002C23.2812 19.3602 25.2812 21.3602 27.8412 21.3602C30.3212 21.3602 32.4012 19.3602 32.4012 16.8002C32.4012 14.2402 30.4012 12.2402 27.8412 12.2402ZM27.8412 19.7602C26.2412 19.7602 24.8813 18.4802 24.8813 16.8002C24.8813 15.1202 26.1612 13.8402 27.8412 13.8402C29.5212 13.8402 30.8012 15.1202 30.8012 16.8002C30.8012 18.4802 29.5212 19.7602 27.8412 19.7602Z" fill="#127AFF"/>
</svg>
