<svg width="56" height="56" viewBox="0 0 56 56" fill="none" xmlns="http://www.w3.org/2000/svg">
<g clip-path="url(#clip0_4580_46432)">
<path d="M55.6787 14.3997V4.55975C55.6787 2.15975 53.7587 0.239746 51.3587 0.239746H17.5188C17.0387 0.239746 16.7188 0.639746 16.7188 1.03975C16.7188 1.43975 17.1188 1.83975 17.5188 1.83975H47.9987L47.7588 2.23975C47.3588 2.87975 47.1187 3.67975 47.1187 4.47975V18.7997C47.1187 19.2797 47.5188 19.5997 47.9188 19.5997C48.3188 19.5997 48.7188 19.1997 48.7188 18.7997V15.1197H54.8787C55.3587 15.2797 55.6787 14.8797 55.6787 14.3997ZM54.0787 13.5197V13.5997H48.7188V4.55975C48.7188 3.03975 49.9188 1.83975 51.4388 1.83975C52.9588 1.83975 54.1587 3.03975 54.1587 4.55975V13.5197H54.0787Z" fill="#127AFF"/>
<path d="M54.639 44.8L47.359 37.52L47.439 37.36C48.239 35.68 48.719 33.84 48.719 31.92C48.719 25.04 43.119 19.52 36.319 19.52C29.519 19.52 23.919 25.12 23.919 31.92C23.919 33.44 24.159 34.96 24.719 36.32L24.799 36.48L23.199 38.08L23.039 37.92L17.759 32.64C17.439 32.32 16.879 32.32 16.639 32.64L14.959 34.32V23.68C14.959 23.2 14.559 22.88 14.159 22.88C13.759 22.88 13.359 23.28 13.359 23.68V36L3.19898 45.92C3.03898 46.08 2.95898 46.24 2.95898 46.48C2.95898 46.72 3.03898 46.88 3.19898 47.04C3.51898 47.36 4.07898 47.36 4.31898 47.04L13.119 38.24V47.04H7.99898C7.51898 47.04 7.19898 47.44 7.19898 47.84V51.36C7.19898 53.76 9.11898 55.68 11.519 55.68H44.319C46.719 55.68 48.639 53.76 48.639 51.36V49.76L49.119 50.24C49.839 50.96 50.799 51.28 51.759 51.28C52.799 51.28 53.759 50.88 54.479 50.16C56.079 48.72 56.079 46.24 54.639 44.8ZM36.239 21.12C42.159 21.12 47.039 25.92 47.039 31.92C47.039 37.92 42.239 42.72 36.239 42.72C32.319 42.72 28.639 40.56 26.799 37.12L26.719 36.8L33.679 29.84V32.96C33.679 33.44 34.079 33.76 34.479 33.76C34.959 33.76 35.279 33.36 35.279 32.96V27.68C35.279 27.2 34.879 26.88 34.479 26.88H29.199C28.719 26.88 28.399 27.28 28.399 27.68C28.399 28.16 28.799 28.48 29.199 28.48H32.639L25.999 35.2L25.839 34.72C25.599 33.76 25.439 32.8 25.439 31.84C25.519 25.92 30.319 21.12 36.239 21.12ZM11.279 54.08C9.91898 53.92 8.87898 52.8 8.87898 51.44V48.72H40.079V50.32V50.4V50.48V51.36C40.079 52.16 40.319 52.96 40.719 53.6L40.959 54L11.279 54.08ZM47.119 51.44C47.119 52.96 45.919 54.16 44.399 54.16C42.879 54.16 41.679 52.96 41.679 51.44V50.56V50.48V50.4V48C41.679 47.52 41.279 47.2 40.879 47.2H14.799V36.64L17.119 34.32L22.559 39.76C22.879 40.08 23.439 40.08 23.679 39.76L25.439 38L25.599 38.32C27.919 42.08 31.839 44.24 36.159 44.24C38.079 44.24 39.919 43.84 41.599 42.96L41.759 42.88L41.919 43.04L47.039 48.16V51.44H47.119ZM53.439 49.04C53.039 49.44 52.479 49.68 51.839 49.68C51.199 49.68 50.719 49.44 50.239 49.04L43.279 42.08L43.519 41.92C44.559 41.2 45.439 40.24 46.239 39.2L46.399 38.96L53.359 45.92C54.319 46.8 54.319 48.16 53.439 49.04Z" fill="#127AFF"/>
<path d="M43.1995 31.04C42.7195 31.04 42.3995 31.44 42.3995 31.84C42.3995 35.2 39.6795 37.92 36.3195 37.92C35.8395 37.92 35.5195 38.32 35.5195 38.72C35.5195 39.2 35.9195 39.52 36.3195 39.52C40.5595 39.52 44.0795 36.08 44.0795 31.76C43.9995 31.44 43.5995 31.04 43.1995 31.04Z" fill="#127AFF"/>
<path d="M1.11836 20.7202H27.9984C28.4784 20.7202 28.7984 20.3202 28.7984 19.9202C28.7984 19.4402 28.3984 19.1202 27.9984 19.1202H26.7184V11.5202C26.7184 11.0402 26.3184 10.7202 25.9184 10.7202H20.8784C20.3984 10.7202 20.0784 11.1202 20.0784 11.5202V19.1202H17.7584V6.96016C17.7584 6.48016 17.3584 6.16016 16.9584 6.16016H12.1584C11.6784 6.16016 11.3584 6.56016 11.3584 6.96016V19.0402H9.03836V13.9202C9.03836 13.4402 8.63836 13.1202 8.23836 13.1202H3.43836C2.95836 13.1202 2.63836 13.5202 2.63836 13.9202V19.0402H1.11836C0.638359 19.0402 0.318359 19.4402 0.318359 19.8402C0.318359 20.2402 0.638359 20.7202 1.11836 20.7202ZM21.6784 12.3202H25.0384V19.1202H21.6784V12.3202ZM12.9584 7.84016H16.1584V19.1202H12.9584V7.84016ZM4.23836 14.8002H7.43836V19.0402H4.23836V14.8002Z" fill="#127AFF"/>
<path d="M36.8796 6.16016H28.3996C27.9196 6.16016 27.5996 6.56016 27.5996 6.96016C27.5996 7.36016 27.9996 7.76016 28.3996 7.76016H36.8796C37.3596 7.76016 37.6796 7.36016 37.6796 6.96016C37.6796 6.56016 37.3596 6.16016 36.8796 6.16016Z" fill="#127AFF"/>
<path d="M42.8795 6.40016C42.7195 6.24016 42.4795 6.16016 42.3195 6.16016C42.1595 6.16016 41.9195 6.24016 41.7595 6.40016C41.5995 6.56016 41.5195 6.80016 41.5195 6.96016C41.5195 7.12016 41.5995 7.36016 41.7595 7.52016C42.0795 7.84016 42.6395 7.84016 42.8795 7.52016C43.0395 7.36016 43.1195 7.12016 43.1195 6.96016C43.1195 6.80016 43.0395 6.56016 42.8795 6.40016Z" fill="#127AFF"/>
<path d="M32.642 10.96H30.882C30.402 10.96 30.082 11.36 30.082 11.76C30.082 12.16 30.482 12.56 30.882 12.56H32.642C33.122 12.56 33.442 12.16 33.442 11.76C33.442 11.36 33.122 10.96 32.642 10.96Z" fill="#127AFF"/>
<path d="M42.322 10.96H36.882C36.402 10.96 36.082 11.36 36.082 11.76C36.082 12.16 36.482 12.56 36.882 12.56H42.322C42.802 12.56 43.122 12.16 43.122 11.76C43.122 11.36 42.802 10.96 42.322 10.96Z" fill="#127AFF"/>
<path d="M1.67836 48.6399C1.51836 48.4799 1.27836 48.3999 1.11836 48.3999C0.878359 48.3999 0.718359 48.4799 0.558359 48.6399C0.398359 48.7999 0.318359 48.9599 0.318359 49.1999C0.318359 49.4399 0.398359 49.5999 0.558359 49.7599C0.878359 50.0799 1.43836 50.0799 1.67836 49.7599C1.83836 49.5999 1.91836 49.3599 1.91836 49.1999C1.91836 49.0399 1.83836 48.7999 1.67836 48.6399Z" fill="#127AFF"/>
</g>
<defs>
<clipPath id="clip0_4580_46432">
<rect width="56" height="56" fill="white"/>
</clipPath>
</defs>
</svg>
