<svg width="56" height="56" viewBox="0 0 56 56" fill="none" xmlns="http://www.w3.org/2000/svg">
<g clip-path="url(#clip0_4410_30763)">
<path d="M7.02052 3.86816C5.61867 3.86816 4.46484 5.02199 4.46484 6.42384C4.46484 7.82569 5.60788 8.97954 7.02052 8.97954C8.43315 8.97954 9.58698 7.83647 9.58698 6.42384C9.58698 5.01121 8.43315 3.86816 7.02052 3.86816ZM7.02052 7.35121C6.51369 7.35121 6.09314 6.93066 6.09314 6.42384C6.09314 5.91701 6.51369 5.49646 7.02052 5.49646C7.52734 5.49646 7.94792 5.91701 7.94792 6.42384C7.94792 6.94144 7.53812 7.35121 7.02052 7.35121Z" fill="#127AFF"/>
<path d="M13.8868 3.86816C12.4741 3.86816 11.3203 5.02199 11.3203 6.42384C11.3203 7.82569 12.4633 8.97954 13.876 8.97954C15.2886 8.97954 16.4316 7.83647 16.4316 6.42384C16.4316 5.01121 15.2886 3.86816 13.8868 3.86816ZM13.8868 7.35121C13.3799 7.35121 12.9594 6.93066 12.9594 6.42384C12.9594 5.91701 13.3799 5.49646 13.8868 5.49646C14.3936 5.49646 14.8142 5.91701 14.8142 6.42384C14.8034 6.94144 14.3936 7.35121 13.8868 7.35121Z" fill="#127AFF"/>
<path d="M20.7471 3.86816C19.3344 3.86816 18.1914 5.01121 18.1914 6.42384C18.1914 7.83647 19.3344 8.97954 20.7471 8.97954C22.1597 8.97954 23.3027 7.83647 23.3027 6.42384C23.3027 5.01121 22.1597 3.86816 20.7471 3.86816ZM20.7471 7.35121C20.2402 7.35121 19.8197 6.93066 19.8197 6.42384C19.8197 5.91701 20.2294 5.49646 20.7471 5.49646C21.2646 5.49646 21.6744 5.91701 21.6744 6.42384C21.6744 6.94144 21.2539 7.35121 20.7471 7.35121Z" fill="#127AFF"/>
<path d="M52.2135 0.493164H2.9978C1.34793 0.493164 0 1.84109 0 3.49096V39.5293C0 41.1791 1.34793 42.5271 2.9978 42.5271H8.27089C8.02291 42.8505 8.04444 43.3142 8.33564 43.6054L12.2608 47.5306C11.9696 48.1344 11.7109 48.7599 11.4951 49.3853H5.9309C5.47799 49.3853 5.11136 49.7519 5.11136 50.2048V54.8849C5.11136 55.3378 5.47799 55.7044 5.9309 55.7044H22.0522C22.5051 55.7044 22.8717 55.3378 22.8717 54.8849C22.8717 52.3939 24.899 50.3666 27.39 50.3666C29.881 50.3666 31.9082 52.3939 31.9082 54.8849C31.9082 55.3378 32.2748 55.7044 32.7277 55.7044H48.849C49.3019 55.7044 49.6686 55.3378 49.6686 54.8849V50.2048C49.6686 49.7519 49.3019 49.3853 48.849 49.3853H43.2956C43.0799 48.7491 42.8211 48.1344 42.53 47.5306L46.4551 43.6054C46.7463 43.3142 46.7678 42.8505 46.5198 42.5271H52.2243C53.8741 42.5271 55.2221 41.1791 55.2221 39.5293V19.3319C55.2221 18.8789 54.8554 18.5123 54.4025 18.5123C53.9496 18.5123 53.5829 18.8789 53.5829 19.3319V39.5293C53.5829 40.2841 52.9683 40.8879 52.2243 40.8879H44.8915L40.0713 36.0786V30.4928C40.0713 30.0398 39.7046 29.6732 39.2517 29.6732H37.7852V24.6481L38.939 23.5805C39.1655 23.3648 39.2625 23.0414 39.1655 22.7394L37.2029 16.4204C37.095 16.0753 36.7824 15.8488 36.4265 15.8488H34.2483C33.8924 15.8488 33.5688 16.086 33.4718 16.4204L31.5092 22.7394C31.4122 23.0414 31.4984 23.3648 31.7357 23.5805L32.8895 24.6481V29.684H31.4229C30.9701 29.684 30.6034 30.0506 30.6034 30.5035V32.6279H24.1765V31.3877L27.3145 28.2498C27.4655 28.0988 27.5517 27.8939 27.5517 27.6674V20.9709C27.5517 20.7553 27.4655 20.5396 27.3037 20.3886L22.9472 16.086C22.71 15.8596 22.3649 15.7841 22.063 15.9135C21.761 16.0429 21.5561 16.3341 21.5561 16.6683V23.9471L19.4318 25.2843L17.3075 23.9471V23.4834C17.3075 23.0306 16.9408 22.664 16.4879 22.664C16.035 22.664 15.6683 23.0306 15.6683 23.4834V24.4C15.6683 24.6804 15.8086 24.9392 16.0458 25.0902L18.9897 26.945C19.2593 27.1175 19.5935 27.1175 19.8631 26.945L22.807 25.0902C23.0442 24.9392 23.1844 24.6804 23.1844 24.4V18.6201L25.9018 21.3052V27.3224L22.7638 30.4603C22.6129 30.6113 22.5266 30.8162 22.5266 31.0427V32.6387C22.1492 32.7141 21.8689 33.0484 21.8689 33.4366V38.9901C21.2326 39.2057 20.6179 39.4646 20.0141 39.7557L16.3153 36.0569V31.0427C16.3153 30.827 16.2291 30.6221 16.0782 30.4603L12.9401 27.3224V21.3052L15.6576 18.6201V19.6553C15.6576 20.1082 16.0242 20.4749 16.4771 20.4749C16.93 20.4749 17.2967 20.1082 17.2967 19.6553V16.6683C17.2967 16.3341 17.1026 16.0429 16.7898 15.9135C16.4879 15.7841 16.132 15.8596 15.9056 16.086L11.5491 20.3886C11.3981 20.5396 11.301 20.7553 11.301 20.9709V27.6674C11.301 27.8832 11.3873 28.088 11.5383 28.2498L14.6763 31.3877V36.0786L9.86688 40.8879H2.9978C2.24296 40.8879 1.63908 40.2733 1.63908 39.5293V12.355H53.5829V15.5145C53.5829 15.9674 53.9496 16.3341 54.4025 16.3341C54.8554 16.3341 55.2221 15.9674 55.2221 15.5145V3.49096C55.2113 1.84109 53.8633 0.493164 52.2135 0.493164ZM34.259 23.6884L33.2238 22.7286L34.8521 17.4771H35.8226L37.4509 22.7286L36.4157 23.6884C36.2432 23.8393 36.1569 24.055 36.1569 24.2922V29.684H34.5286V24.2922C34.5178 24.055 34.4208 23.8393 34.259 23.6884ZM38.443 31.3123V36.0569L34.7443 39.7557C34.1404 39.4646 33.515 39.2057 32.8895 38.9901V33.4366C32.8895 33.0376 32.6092 32.7141 32.2317 32.6387V31.3123H38.443ZM20.2621 41.4703C21.114 41.0174 22.0198 40.64 22.9472 40.3596C23.2922 40.2517 23.5295 39.939 23.5295 39.5831V34.2561H31.2613V39.5831C31.2613 39.939 31.4984 40.2625 31.8435 40.3596C32.7709 40.64 33.6767 41.0174 34.5286 41.4703C34.8413 41.6428 35.2403 41.5781 35.4883 41.3301L39.2517 37.5667L43.9749 42.2898L44.719 43.0338L40.9556 46.7973C40.6968 47.0561 40.6428 47.4443 40.8153 47.757C41.2683 48.6089 41.6457 49.5147 41.926 50.4421C42.0339 50.7872 42.3466 51.0244 42.7024 51.0244H48.0295V54.0761H39.7262C39.3057 47.6384 33.9355 42.5378 27.39 42.5378C25.643 42.5378 23.95 42.8937 22.3649 43.6054C21.9551 43.7887 21.7718 44.274 21.9551 44.6837C22.1385 45.0935 22.6237 45.2768 23.0334 45.0935C24.4137 44.4789 25.8803 44.1661 27.39 44.1661C33.0297 44.1661 37.6666 48.5442 38.0872 54.0761H33.4934C33.0944 51.0676 30.5064 48.7383 27.39 48.7383C24.2736 48.7383 21.6963 51.0676 21.2865 54.0761H16.6928C16.8869 51.391 18.0623 48.9325 20.0572 47.0669C20.3915 46.7541 20.4023 46.2366 20.0896 45.913C19.7768 45.5896 19.2593 45.568 18.9357 45.8807C16.6497 48.0266 15.2694 50.9705 15.0537 54.0869H6.75044V51.0352H12.0775C12.4333 51.0352 12.7568 50.798 12.8539 50.4529C13.1342 49.5255 13.5117 48.6197 13.9646 47.7678C14.1371 47.4551 14.0724 47.0561 13.8243 46.8081L10.061 43.0446L10.805 42.3006L15.5282 37.5775L19.2916 41.3409C19.5504 41.5781 19.9386 41.6428 20.2621 41.4703ZM1.6283 10.7267V3.49096C1.6283 2.73612 2.24296 2.13224 2.98702 2.13224H52.2135C52.9683 2.13224 53.5722 2.7469 53.5722 3.49096V10.7375H1.6283V10.7267Z" fill="#127AFF"/>
</g>
<defs>
<clipPath id="clip0_4410_30763">
<rect width="56" height="56" fill="white"/>
</clipPath>
</defs>
</svg>
