<svg width="56" height="56" viewBox="0 0 56 56" fill="none" xmlns="http://www.w3.org/2000/svg">
<path d="M15.0876 30.3176L15.0876 30.3168C15.0841 28.7418 13.802 27.4622 12.2266 27.4622C10.6487 27.4622 9.36564 28.7453 9.36564 30.3231V40.636C9.36564 41.4854 9.84788 42.8291 11.7759 44.8465L11.7759 44.8465C11.9365 45.0144 11.9302 45.2803 11.7627 45.4404L11.7626 45.4406C11.6813 45.5183 11.5774 45.5569 11.4721 45.5569C11.3601 45.5569 11.2506 45.5135 11.1685 45.4274L11.1683 45.4272C9.35919 43.534 8.525 41.926 8.525 40.636V30.3231C8.525 28.2822 10.1857 26.6216 12.2266 26.6216C13.059 26.6216 13.8276 26.8977 14.4471 27.3637L15.0876 27.8455V27.0441V19.2656C15.0876 19.0335 15.2756 18.8453 15.5079 18.8453C15.7398 18.8453 15.9282 19.0337 15.9282 19.2656V30.3231V30.3232V30.3232V30.3232V30.3232V30.3232V30.3233V30.3233V30.3233V30.3233V30.3233V30.3233V30.3234V30.3234V30.3234V30.3234V30.3234V30.3234V30.3235V30.3235V30.3235V30.3235V30.3235V30.3235V30.3236V30.3236V30.3236V30.3236V30.3236V30.3236V30.3237V30.3237V30.3237V30.3237V30.3237V30.3237V30.3238V30.3238V30.3238V30.3238V30.3238V30.3239V30.3239V30.3239V30.3239V30.3239V30.3239V30.324V30.324V30.324V30.324V30.324V30.324V30.3241V30.3241V30.3241V30.3241V30.3241V30.3241V30.3242V30.3242V30.3242V30.3242V30.3242V30.3242V30.3243V30.3243V30.3243V30.3243V30.3243V30.3243V30.3244V30.3244V30.3244V30.3244V30.3244V30.3244V30.3245V30.3245V30.3245V30.3245V30.3245V30.3245V30.3246V30.3246V30.3246V30.3246V30.3246V30.3246V30.3247V30.3247V30.3247V30.3247V30.3247V30.3247V30.3248V30.3248V30.3248V30.3248V30.3248V30.3248V30.3249V30.3249V30.3249V30.3249V30.3249V30.3249V30.325V30.325V30.325V30.325V30.325V30.325V30.3251V30.3251V30.3251V30.3251V30.3251V30.3251V30.3252V30.3252V30.3252V30.3252V30.3252V30.3252V30.3253V30.3253V30.3253V30.3253V30.3253V30.3253V30.3254V30.3254V30.3254V30.3254V30.3254V30.3254V30.3255V30.3255V30.3255V30.3255V30.3255V30.3255V30.3256V30.3256V30.3256V30.3256V30.3256V30.3256V30.3257V30.3257V30.3257V30.3257V30.3257V30.3257V30.3257V30.3258V30.3258V30.3258V30.3258V30.3258V30.3258V30.3259V30.3259V30.3259V30.3259V30.3259V30.3259V30.326V30.326V30.326V30.326V30.326V30.326V30.3261V30.3261V30.3261V30.3261V30.3261V30.3261V30.3262V30.3262V30.3262V30.3262V30.3262V30.3262V30.3263V30.3263V30.3263V30.3263V30.3263V30.3263V30.3264V30.3264V30.3264V30.3264V30.3264V30.3264V30.3265V30.3265V30.3265V30.3265V30.3265V30.3265V30.3266V30.3266V30.3266V30.3266V30.3266V30.3266V30.3266V30.3267V30.3267V30.3267V30.3267V30.3267V30.3267V30.3268V30.3268V30.3268V30.3268V30.3268V30.3268V30.3269V30.3269V30.3269V30.3269V30.3269V30.3269V30.327V30.327V30.327V30.327V30.327V30.327V30.3271V30.3271V30.3271V30.3271V30.3271V30.3271V30.3272V30.3272V30.3272V30.3272V30.3272V30.3272V30.3273V30.3273V30.3273V30.3273V30.3273V30.3273V30.3273V30.3274V30.3274V30.3274V30.3274V30.3274V30.3274V30.3275V30.3275V30.3275V30.3275V30.3275V30.3275V30.3276V30.3276V30.3276V30.3276V30.3276V30.3276V30.3277V30.3277V30.3277V30.3277V30.3277V30.3277V30.3278V30.3278V30.3278V30.3278V30.3278V30.3278V30.3279V30.3279V30.3279V30.3279V30.3279V30.3279V30.328V30.328V30.328V30.328V30.328V30.328V30.328V30.3281V30.3281V30.3281V30.3281V30.3281V30.3281V30.3282V30.3282V30.3282V30.3282V30.3282V30.3282V30.3283V30.3283V30.3283V30.3283V30.3283V30.3283V30.3284V30.3284V30.3284V30.3284V30.3284V30.3284V30.3285V30.3285V30.3285V30.3285V30.3285V30.3285V30.3286V30.3286V30.3286V30.3286V30.3286V30.3286V30.3287V30.3287V30.3287V30.3287V30.3287V30.3287V30.3288V30.3288V30.3288V30.3288V30.3288V30.3288V30.3289V30.3289V30.3289V30.3289V30.3289V30.3289V30.329V30.329V30.329V30.329V30.329V30.329V30.3291V30.3291V30.3291V30.3291V30.3291V30.3291V30.3292V30.3292V30.3292V30.3292V30.3292V30.3292V30.3293V30.3293V30.3293V30.3293V30.3293V30.3293V30.3294V30.3294V30.3294V30.3294V30.3294V30.3294V30.3295V30.3295V30.3295V30.3295V30.3295V30.3295V30.3296V30.3296V30.3296V30.3296V30.3296V30.3296V30.3297V30.3297V30.3297V30.3297V30.3297V30.3297V30.3298V30.3298V30.3298V30.3298V30.3298V30.3298V30.3299V30.3299V30.3299V30.3299V30.3299V30.3299V30.33V30.33V30.33V30.33V30.33V30.33V30.3301V30.3301V30.3301V30.3301V30.3301V30.3301V30.3302V30.3302V30.3302V30.3302V30.3302V30.3302V30.3303V30.3303V30.3303V30.3303V30.3303V30.3303V30.3304V30.3304V30.3304V30.3304V30.3304V30.3305V30.3305V30.3305V30.3305V30.3305V30.3305V30.3306V30.3306V30.3306V30.3306V30.3306V30.3306V30.3307V30.3307V30.3307V30.3307V30.3307V30.3307V30.3308V30.3308V30.3308V30.3308V30.3308V30.3308V30.3309V30.3309V30.3309V30.3309V30.3309V30.331V30.331V30.331V30.331V30.331V30.331V30.3311V30.3311V30.3311V30.3311V30.3311V30.3311V30.3312V30.3312V30.3312V30.3312V30.3312V30.3312V30.3313V30.3313V30.3313V30.3313V30.3313V30.3314V30.3314V30.3314V30.3314V30.3314V30.3314V30.3315V30.3315V30.3315V30.3315V30.3315V30.3315V30.3316V30.3316V30.3316V30.3316V30.3316V30.3317V30.3317V30.3317V30.3317V39.9225C15.9282 40.1547 15.74 40.3428 15.5079 40.3428C15.2754 40.3428 15.0876 40.1549 15.0876 39.9225V30.3231L15.0876 30.3176Z" fill="white" stroke="white" stroke-width="0.799997"/>
<mask id="path-2-inside-1_7963_33780" fill="white">
<path d="M53.7151 37.4457H42.5345C42.5618 36.5754 42.5755 35.6901 42.5755 34.8041V26.6536C42.5755 24.3917 40.7354 22.552 38.4739 22.552C37.5143 22.552 36.6304 22.8831 35.931 23.4373C35.5511 21.5659 33.893 20.1535 31.9114 20.1535C30.8224 20.1535 29.8307 20.5799 29.0959 21.2746C28.4554 19.8416 27.0169 18.841 25.349 18.841C24.4261 18.841 23.5738 19.1469 22.888 19.663V15.0453H27.4869C28.8434 15.0453 29.947 13.9422 29.947 12.5857V2.45964C29.947 1.10357 28.8434 0 27.4873 0H2.46008C1.10358 0 0 1.10357 0 2.45964V12.5857C0 13.9422 1.10358 15.0453 2.46008 15.0453H14.6849V15.7413C14.6849 16.1947 15.0518 16.5616 15.5052 16.5616C15.9581 16.5616 16.3255 16.1947 16.3255 15.7413V9.43905C16.3255 8.08218 17.4295 6.97816 18.7864 6.97816C20.1434 6.97816 21.2474 8.08218 21.2474 9.43905V22.934V22.9426V28.1575C21.2474 28.6108 21.6144 28.9778 22.0677 28.9778C22.5206 28.9778 22.888 28.6108 22.888 28.1575V22.9506C22.888 22.9481 22.888 22.9451 22.888 22.9426C22.888 21.5852 23.992 20.4816 25.349 20.4816C26.7058 20.4816 27.8098 21.5852 27.8098 22.9426V24.2465V24.255V28.5659C27.8098 29.0188 28.1769 29.3862 28.6302 29.3862C29.083 29.3862 29.4505 29.0188 29.4505 28.5659V24.2636C29.4505 24.2605 29.4505 24.2576 29.4505 24.255C29.4505 22.8981 30.5545 21.7941 31.9114 21.7941C33.2684 21.7941 34.3724 22.8981 34.3724 24.255V26.645V26.6536V29.5733C34.3724 30.0262 34.7394 30.3936 35.1927 30.3936C35.6456 30.3936 36.013 30.0262 36.013 29.5733V26.6621C36.013 26.6591 36.013 26.6565 36.013 26.6536C36.013 25.2966 37.117 24.1926 38.4739 24.1926C39.8309 24.1926 40.9349 25.2966 40.9349 26.6536V34.8041C40.9349 35.691 40.9208 36.5763 40.8934 37.4461H28.3384C27.0784 37.4461 26.0534 38.4711 26.0534 39.7311V50.2066C26.0534 51.4665 27.0784 52.4915 28.3384 52.4915H39.058C38.9255 53.1097 38.7846 53.7339 38.6354 54.3594H18.6168L17.3351 49.1484C17.2859 48.9484 17.1634 48.774 16.9916 48.6604C16.9809 48.6536 15.897 47.9333 14.5699 46.8553C14.2183 46.5695 13.7018 46.6229 13.4159 46.9745C13.1306 47.3261 13.1835 47.8427 13.5356 48.1285C14.5387 48.9436 15.3992 49.5564 15.817 49.8456L17.177 55.3754C17.2671 55.742 17.5962 56 17.9734 56H39.281C39.6587 56 39.9873 55.742 40.0774 55.3754C40.315 54.4103 40.5354 53.443 40.735 52.4915H42.0166C42.47 52.4915 42.837 52.1241 42.837 51.6712C42.837 51.2179 42.47 50.8509 42.0166 50.8509H40.0936C40.0744 50.85 40.0556 50.85 40.0368 50.8509H28.3384C27.9834 50.8509 27.6941 50.5616 27.6941 50.2066V39.7311C27.6941 39.3756 27.9834 39.0868 28.3384 39.0868H53.7151C54.0706 39.0868 54.3594 39.3756 54.3594 39.7311V50.2066C54.3594 50.5616 54.0706 50.8509 53.7151 50.8509H45.5171C45.0638 50.8509 44.6968 51.2179 44.6968 51.6712C44.6968 52.1241 45.0638 52.4915 45.5171 52.4915H53.7151C54.975 52.4915 56 51.4665 56 50.2066V39.7311C56 38.4707 54.975 37.4457 53.7151 37.4457ZM18.7864 5.33755C16.5246 5.33755 14.6849 7.17725 14.6849 9.43905V13.4048H2.46008C2.00806 13.4048 1.64062 13.0373 1.64062 12.5857V2.45964C1.64062 2.00804 2.00806 1.64061 2.46008 1.64061H27.4873C27.9389 1.64061 28.3063 2.00804 28.3063 2.45964V12.5857C28.3063 13.0373 27.9389 13.4048 27.4873 13.4048H22.888V9.43905C22.888 7.17725 21.0478 5.33755 18.7864 5.33755Z"/>
</mask>
<path d="M53.7151 37.4457H42.5345C42.5618 36.5754 42.5755 35.6901 42.5755 34.8041V26.6536C42.5755 24.3917 40.7354 22.552 38.4739 22.552C37.5143 22.552 36.6304 22.8831 35.931 23.4373C35.5511 21.5659 33.893 20.1535 31.9114 20.1535C30.8224 20.1535 29.8307 20.5799 29.0959 21.2746C28.4554 19.8416 27.0169 18.841 25.349 18.841C24.4261 18.841 23.5738 19.1469 22.888 19.663V15.0453H27.4869C28.8434 15.0453 29.947 13.9422 29.947 12.5857V2.45964C29.947 1.10357 28.8434 0 27.4873 0H2.46008C1.10358 0 0 1.10357 0 2.45964V12.5857C0 13.9422 1.10358 15.0453 2.46008 15.0453H14.6849V15.7413C14.6849 16.1947 15.0518 16.5616 15.5052 16.5616C15.9581 16.5616 16.3255 16.1947 16.3255 15.7413V9.43905C16.3255 8.08218 17.4295 6.97816 18.7864 6.97816C20.1434 6.97816 21.2474 8.08218 21.2474 9.43905V22.934V22.9426V28.1575C21.2474 28.6108 21.6144 28.9778 22.0677 28.9778C22.5206 28.9778 22.888 28.6108 22.888 28.1575V22.9506C22.888 22.9481 22.888 22.9451 22.888 22.9426C22.888 21.5852 23.992 20.4816 25.349 20.4816C26.7058 20.4816 27.8098 21.5852 27.8098 22.9426V24.2465V24.255V28.5659C27.8098 29.0188 28.1769 29.3862 28.6302 29.3862C29.083 29.3862 29.4505 29.0188 29.4505 28.5659V24.2636C29.4505 24.2605 29.4505 24.2576 29.4505 24.255C29.4505 22.8981 30.5545 21.7941 31.9114 21.7941C33.2684 21.7941 34.3724 22.8981 34.3724 24.255V26.645V26.6536V29.5733C34.3724 30.0262 34.7394 30.3936 35.1927 30.3936C35.6456 30.3936 36.013 30.0262 36.013 29.5733V26.6621C36.013 26.6591 36.013 26.6565 36.013 26.6536C36.013 25.2966 37.117 24.1926 38.4739 24.1926C39.8309 24.1926 40.9349 25.2966 40.9349 26.6536V34.8041C40.9349 35.691 40.9208 36.5763 40.8934 37.4461H28.3384C27.0784 37.4461 26.0534 38.4711 26.0534 39.7311V50.2066C26.0534 51.4665 27.0784 52.4915 28.3384 52.4915H39.058C38.9255 53.1097 38.7846 53.7339 38.6354 54.3594H18.6168L17.3351 49.1484C17.2859 48.9484 17.1634 48.774 16.9916 48.6604C16.9809 48.6536 15.897 47.9333 14.5699 46.8553C14.2183 46.5695 13.7018 46.6229 13.4159 46.9745C13.1306 47.3261 13.1835 47.8427 13.5356 48.1285C14.5387 48.9436 15.3992 49.5564 15.817 49.8456L17.177 55.3754C17.2671 55.742 17.5962 56 17.9734 56H39.281C39.6587 56 39.9873 55.742 40.0774 55.3754C40.315 54.4103 40.5354 53.443 40.735 52.4915H42.0166C42.47 52.4915 42.837 52.1241 42.837 51.6712C42.837 51.2179 42.47 50.8509 42.0166 50.8509H40.0936C40.0744 50.85 40.0556 50.85 40.0368 50.8509H28.3384C27.9834 50.8509 27.6941 50.5616 27.6941 50.2066V39.7311C27.6941 39.3756 27.9834 39.0868 28.3384 39.0868H53.7151C54.0706 39.0868 54.3594 39.3756 54.3594 39.7311V50.2066C54.3594 50.5616 54.0706 50.8509 53.7151 50.8509H45.5171C45.0638 50.8509 44.6968 51.2179 44.6968 51.6712C44.6968 52.1241 45.0638 52.4915 45.5171 52.4915H53.7151C54.975 52.4915 56 51.4665 56 50.2066V39.7311C56 38.4707 54.975 37.4457 53.7151 37.4457ZM18.7864 5.33755C16.5246 5.33755 14.6849 7.17725 14.6849 9.43905V13.4048H2.46008C2.00806 13.4048 1.64062 13.0373 1.64062 12.5857V2.45964C1.64062 2.00804 2.00806 1.64061 2.46008 1.64061H27.4873C27.9389 1.64061 28.3063 2.00804 28.3063 2.45964V12.5857C28.3063 13.0373 27.9389 13.4048 27.4873 13.4048H22.888V9.43905C22.888 7.17725 21.0478 5.33755 18.7864 5.33755Z" fill="white" stroke="white" stroke-width="1.59999" mask="url(#path-2-inside-1_7963_33780)"/>
<path d="M33.6249 42.0938H48.4218C48.8752 42.0938 49.2421 41.7267 49.2421 41.2734C49.2421 40.8206 48.8752 40.4531 48.4218 40.4531H33.6249C33.1716 40.4531 32.8047 40.8206 32.8047 41.2734C32.8047 41.7267 33.1716 42.0938 33.6249 42.0938Z" fill="white"/>
<path d="M12.1797 4.17188H3.86719C3.41388 4.17188 3.04688 4.5393 3.04688 4.99219C3.04688 5.44549 3.41388 5.8125 3.86719 5.8125H12.1797C12.6326 5.8125 13 5.44549 13 4.99219C13 4.5393 12.6326 4.17188 12.1797 4.17188Z" fill="white"/>
<path d="M12.1797 8.21875H3.86719C3.41388 8.21875 3.04688 8.58619 3.04688 9.03906C3.04688 9.49242 3.41388 9.85938 3.86719 9.85938H12.1797C12.6326 9.85938 13 9.49242 13 9.03906C13 8.58619 12.6326 8.21875 12.1797 8.21875Z" fill="white"/>
<path d="M33.6249 45.7891H48.4218C48.8752 45.7891 49.2421 45.4216 49.2421 44.9688C49.2421 44.5159 48.8752 44.1484 48.4218 44.1484H33.6249C33.1716 44.1484 32.8047 44.5159 32.8047 44.9688C32.8047 45.4216 33.1716 45.7891 33.6249 45.7891Z" fill="white"/>
<path d="M33.6249 49.4844H48.4218C48.8752 49.4844 49.2421 49.1173 49.2421 48.6641C49.2421 48.2112 48.8752 47.8438 48.4218 47.8438H33.6249C33.1716 47.8438 32.8047 48.2112 32.8047 48.6641C32.8047 49.1173 33.1716 49.4844 33.6249 49.4844Z" fill="white"/>
</svg>
