<svg width="56" height="57" viewBox="0 0 56 57" fill="none" xmlns="http://www.w3.org/2000/svg">
<g clip-path="url(#clip0_4644_24056)">
<path d="M42.8142 35.3303C42.8142 34.8151 42.3962 34.397 41.8809 34.397H36.2809C35.7658 34.397 35.3477 34.8151 35.3477 35.3303C35.3477 35.8455 35.7658 36.2635 36.2809 36.2635H41.8809C42.3962 36.2637 42.8142 35.8455 42.8142 35.3303Z" fill="#127AFF"/>
<path d="M39.0814 11.0636V6.39693C39.0814 5.88177 38.6632 5.46362 38.1481 5.46362C37.633 5.46362 37.2148 5.88177 37.2148 6.39693V11.0636C37.2148 13.6368 39.3083 15.7304 41.8816 15.7304H50.2816V33.4636C50.2816 33.9788 50.6997 34.3969 51.2149 34.3969C51.73 34.3969 52.1482 33.9788 52.1482 33.4636V14.7969C52.1482 14.2818 51.73 13.8636 51.2149 13.8636H41.8816C40.3377 13.8636 39.0814 12.6073 39.0814 11.0636Z" fill="#127AFF"/>
<path d="M41.8805 23.1968H34.4138C33.8986 23.1968 33.4805 23.6149 33.4805 24.1301C33.4805 24.6453 33.8986 25.0633 34.4138 25.0633H41.8805C42.3957 25.0633 42.8138 24.6453 42.8138 24.1301C42.8139 23.6149 42.3958 23.1968 41.8805 23.1968Z" fill="#127AFF"/>
<path d="M31.615 24.1301C31.615 23.6149 31.1969 23.1968 30.6817 23.1968H25.0817C24.5666 23.1968 24.1484 23.6149 24.1484 24.1301C24.1484 24.6453 24.5666 25.0633 25.0817 25.0633H30.6817C31.1969 25.0635 31.615 24.6453 31.615 24.1301Z" fill="#127AFF"/>
<path d="M25.0817 28.7969C24.5666 28.7969 24.1484 29.215 24.1484 29.7302C24.1484 30.2454 24.5666 30.6634 25.0817 30.6634H26.9484C27.4636 30.6634 27.8817 30.2454 27.8817 29.7302C27.8817 29.215 27.4636 28.7969 26.9484 28.7969H25.0817Z" fill="#127AFF"/>
<path d="M25.0817 19.4636H34.415C34.9302 19.4636 35.3484 19.0454 35.3484 18.5302C35.3484 18.0151 34.9302 17.5969 34.415 17.5969H25.0817C24.5666 17.5969 24.1484 18.0151 24.1484 18.5302C24.1484 19.0454 24.5666 19.4636 25.0817 19.4636Z" fill="#127AFF"/>
<path d="M30.6794 30.6638H40.0127C40.5279 30.6638 40.946 30.2456 40.946 29.7304C40.946 29.2153 40.5279 28.7971 40.0127 28.7971H30.6794C30.1643 28.7971 29.7461 29.2153 29.7461 29.7304C29.7461 30.2456 30.1643 30.6638 30.6794 30.6638Z" fill="#127AFF"/>
<path d="M36.2809 39.9968C35.7658 39.9968 35.3477 40.415 35.3477 40.9301C35.3477 41.4453 35.7658 41.8634 36.2809 41.8634H38.1477C38.6629 41.8634 39.0809 41.4453 39.0809 40.9301C39.0809 40.415 38.6629 39.9968 38.1477 39.9968H36.2809Z" fill="#127AFF"/>
<path d="M32.5485 34.397H25.0817C24.5666 34.397 24.1484 34.8151 24.1484 35.3303C24.1484 35.8455 24.5666 36.2635 25.0817 36.2635H32.5485C33.0636 36.2635 33.4817 35.8455 33.4817 35.3303C33.4817 34.8151 33.0636 34.397 32.5485 34.397Z" fill="#127AFF"/>
<path d="M32.5485 39.9968H25.0817C24.5666 39.9968 24.1484 40.415 24.1484 40.9301C24.1484 41.4453 24.5666 41.8634 25.0817 41.8634H32.5485C33.0636 41.8634 33.4817 41.4453 33.4817 40.9301C33.4817 40.415 33.0636 39.9968 32.5485 39.9968Z" fill="#127AFF"/>
<path d="M54.7694 39.2419L52.9027 37.3751C51.4682 35.9406 49.2822 35.9435 47.8497 37.3751L35.6211 49.6037C35.4465 49.7783 35.3477 50.0163 35.3477 50.2636V55.8636C35.3477 56.3787 35.7658 56.7969 36.2809 56.7969H41.8809C42.1282 56.7969 42.3662 56.698 42.5408 56.5235L54.7694 44.2949C56.2563 42.808 56.2563 40.7296 54.7694 39.2419ZM46.6428 41.2215L48.1231 42.7017L40.0142 50.8106L38.534 49.3303L46.6428 41.2215ZM37.2144 54.9302V50.6499L41.4946 54.9302H37.2144ZM42.8144 53.6105L41.3341 52.1302L49.443 44.0214L50.9232 45.5016L42.8144 53.6105ZM53.4497 42.9751L52.2428 44.182L47.9626 39.9017L49.1694 38.6949C49.9067 37.9585 50.8419 37.9547 51.583 38.6949L53.4497 40.5616C54.2047 41.3176 54.2047 42.22 53.4497 42.9751Z" fill="#127AFF"/>
<path d="M32.5466 54.9302H8.27988C6.73616 54.9302 5.47988 53.6739 5.47988 52.1302V5.46358C5.47988 3.91986 6.73616 2.66358 8.27988 2.66358H37.7602L46.8201 11.7234C47.185 12.0884 47.775 12.0884 48.1398 11.7234C48.5048 11.3586 48.5048 10.7686 48.1398 10.4038L38.8065 1.07031C38.6319 0.894875 38.3939 0.796875 38.1466 0.796875H8.27988C5.70673 0.796875 3.61328 2.89032 3.61328 5.46358V52.1303C3.61328 54.7034 5.70672 56.797 8.28 56.797H32.5467C33.0619 56.797 33.4801 56.3789 33.4801 55.8637C33.4801 55.3486 33.0618 54.9302 32.5466 54.9302Z" fill="#127AFF"/>
<path d="M32.5485 45.5969H25.0817C24.5666 45.5969 24.1484 46.0151 24.1484 46.5302C24.1484 47.0454 24.5666 47.4635 25.0817 47.4635H32.5485C33.0636 47.4635 33.4817 47.0454 33.4817 46.5302C33.4817 46.0151 33.0636 45.5969 32.5485 45.5969Z" fill="#127AFF"/>
<path d="M20.4119 18.5302C20.4119 18.0151 19.9938 17.5969 19.4786 17.5969H13.8786C13.3635 17.5969 12.9453 18.0151 12.9453 18.5302V24.1302C12.9453 24.6454 13.3635 25.0635 13.8786 25.0635H19.4786C19.9938 25.0635 20.4119 24.6454 20.4119 24.1302V18.5302ZM18.5452 23.1969H14.8119V19.4636H18.5452V23.1969Z" fill="#127AFF"/>
<path d="M13.8806 47.4635H19.4806C19.9958 47.4635 20.4139 47.0453 20.4139 46.5301V40.9301C20.4139 40.415 19.9958 39.9968 19.4806 39.9968H13.8806C13.3654 39.9968 12.9473 40.415 12.9473 40.9301V46.5301C12.9473 47.0453 13.3654 47.4635 13.8806 47.4635ZM14.814 41.8635H18.5473V45.5967H14.814V41.8635Z" fill="#127AFF"/>
<path d="M15.0857 35.99C15.2612 36.1654 15.4992 36.2634 15.7456 36.2634C15.7764 36.2634 15.8063 36.2625 15.838 36.2587C16.1161 36.2317 16.3672 36.0805 16.5221 35.8481L20.2554 30.2481C20.541 29.8187 20.4253 29.239 19.9969 28.9535C19.5666 28.6669 18.9889 28.7836 18.7023 29.2121L15.6008 33.8647L14.5388 32.8036C14.1739 32.4386 13.5839 32.4386 13.219 32.8036C12.8541 33.1685 12.854 33.7585 13.219 34.1233L15.0857 35.99Z" fill="#127AFF"/>
</g>
<defs>
<clipPath id="clip0_4644_24056">
<rect width="56" height="56" fill="white" transform="translate(0 0.5)"/>
</clipPath>
</defs>
</svg>
