<svg width="56" height="57" viewBox="0 0 56 57" fill="none" xmlns="http://www.w3.org/2000/svg">
<path d="M52.0125 54.8594H49.8797V33.7063C49.8797 32.1641 48.6219 30.9063 47.0797 30.9063H42.114V30.6438C41.8296 30.7641 41.5234 30.8297 41.2172 30.8517C40.9656 30.8625 40.714 30.8297 40.4734 30.7641V30.9063H40.386C38.8437 30.9063 37.586 32.1641 37.586 33.7063V39.1751C37.2906 39.0438 36.9734 38.9563 36.6344 38.9345L37.3016 33.5204C37.4328 32.4704 36.8968 31.7704 36.3719 31.0922C36.3172 31.0157 33.1234 27.2313 33.1234 27.2313L35.0812 21.3141L40.4734 18.0438V18.361C40.8016 17.7266 41.3922 17.2782 42.114 17.1032V16.5782C43.0219 15.3422 43.3609 13.7235 42.9344 12.1922C42.8688 11.9517 42.6937 11.7548 42.464 11.6563C42.3547 11.6125 42.2344 11.5907 42.114 11.5907V10.9563C42.0594 10.9673 42.0156 10.9673 41.9609 10.9673C41.4688 10.9891 40.9656 11.0001 40.4734 10.9673V12.3891L33.736 16.0532C33.7031 15.7579 33.6047 15.4625 33.4734 15.1891L32.5219 13.3297C31.8656 12.061 30.3016 11.5469 29.0328 12.2032L28.3 12.5751C27.6875 12.8922 27.2281 13.4282 27.0094 14.0845C26.8016 14.7407 26.8563 15.4517 27.1734 16.0641L28.125 17.9235C28.3437 18.361 28.6719 18.7001 29.0547 18.9407C28.5516 19.6188 28.3109 20.4501 28.0703 21.325L27.8953 21.9485C27.775 22.386 28.0265 22.8345 28.464 22.9657C28.5406 22.9876 28.6172 22.9985 28.6828 22.9985C29.0437 22.9985 29.3719 22.7579 29.4703 22.3969L29.6453 21.7735C30.0063 20.5048 30.225 19.8266 30.925 19.4438L32.1828 18.7548L32.336 18.6782C32.3906 18.6563 32.4344 18.6235 32.4891 18.5907L41.4797 13.7125C41.425 14.8391 40.8234 15.9001 39.8281 16.5017L33.9765 20.0563C33.9656 20.0563 33.9656 20.0673 33.9547 20.0673L32.1391 21.1719C31.7563 21.4125 31.625 21.9157 31.8656 22.2985C32.0844 22.6594 32.5437 22.7907 32.9265 22.6157L31.5484 26.7829L30.5422 27.1985L27.7968 28.325L28.5844 25.536C28.7047 25.0985 28.4531 24.6501 28.0156 24.5188C27.5781 24.3985 27.1296 24.6501 26.9984 25.0876L25.7516 29.5063C25.7406 29.561 25.7296 29.6266 25.7188 29.6813L25.3906 35.686C25.3797 35.9157 25.4344 36.3532 25.325 36.5719L21.6937 44.2063H19.0578C17.5156 44.2063 16.2578 45.4641 16.2578 47.0063V49.3797C15.9078 49.2157 15.514 49.1282 15.0984 49.1282H8.39375C6.85156 49.1282 5.59375 50.386 5.59375 51.9282V54.8594H3.625C3.17656 54.8594 2.80469 55.2313 2.80469 55.6797C2.80469 56.1282 3.17656 56.5001 3.625 56.5001H52.0125C52.4609 56.5001 52.8328 56.1282 52.8328 55.6797C52.8328 55.2313 52.4719 54.8594 52.0125 54.8594ZM31.6906 17.1579L31.4281 17.3001L30.8594 17.5845C30.3891 17.825 29.8203 17.6391 29.5797 17.1688L28.6281 15.3094C28.5078 15.0797 28.486 14.8282 28.5734 14.5876C28.65 14.3469 28.814 14.1501 29.0437 14.0297L29.7765 13.6579C29.9188 13.5922 30.0609 13.5485 30.214 13.5485C30.564 13.5485 30.8922 13.7345 31.0672 14.0625L32.0188 15.9219C32.2265 16.3704 32.0844 16.8953 31.6906 17.1579ZM16.2578 54.8594H7.23438V51.9173C7.23438 51.2829 7.75938 50.7579 8.39375 50.7579H15.0875C15.7328 50.7579 16.2468 51.2829 16.2468 51.9173V54.8594H16.2578ZM32.6968 29.2548C32.6968 29.2548 35.0156 32.011 35.0703 32.0766C35.5516 32.7001 35.7156 32.9517 35.6719 33.3017L34.9828 38.9017H34.414L33.9547 34.2094C33.9 33.6079 33.5281 33.0829 32.9922 32.8204L32.1719 32.2953L32.6968 29.2548ZM31.8328 34.0453C31.8328 34.0453 32.2156 34.286 32.2594 34.2969C32.2922 34.3079 32.3031 34.3407 32.314 34.3735L32.7625 38.9125H30.0172L30.8265 37.8297C31.2203 37.3594 31.3296 36.8017 31.4172 36.3641C31.4281 36.2657 31.8328 34.0453 31.8328 34.0453ZM26.8016 37.2829C26.9656 36.7797 27.0422 36.2766 27.0312 35.7625L27.3265 30.2829L31.1219 28.7297L30.4328 32.5469C30.4328 32.5579 30.4328 32.5688 30.4219 32.5797L29.8531 35.7407C29.7765 36.0688 29.7109 36.561 29.514 36.8345L23.9688 44.2063H23.5094L26.8016 37.2829ZM26.9219 54.8594H17.8984V51.9173V46.9953C17.8984 46.3501 18.4234 45.836 19.0578 45.836H25.7516C26.3968 45.836 26.9109 46.361 26.9109 46.9953V54.8594H26.9219ZM26.9219 44.4469C26.6375 44.3157 26.3422 44.2391 26.025 44.2063L26.9219 43.0141V44.4469ZM48.2391 54.8594H39.2265V49.9376C39.2265 49.4891 38.8547 49.1173 38.4063 49.1173C37.9578 49.1173 37.586 49.4891 37.586 49.9376V54.8594H28.5625V41.7125C28.5625 41.0782 29.0875 40.5532 29.7219 40.5532H36.4156C37.0609 40.5532 37.575 41.0782 37.575 41.7125V45.825C37.575 46.2735 37.9468 46.6453 38.3953 46.6453C38.8437 46.6453 39.2156 46.2735 39.2156 45.825V33.7063C39.2156 33.061 39.7406 32.5469 40.375 32.5469H41.2828H41.2937H41.3047H47.0797C47.725 32.5469 48.2391 33.0719 48.2391 33.7063V54.8594Z" fill="#127AFF"/>
<path d="M42.1133 11.5359V10.0922H52.0118C52.5039 10.0922 52.9415 9.79688 53.1164 9.32656C53.2915 8.85624 53.1602 8.35313 52.7883 8.025L50.393 5.91406L52.7883 3.80313C53.1602 3.475 53.2915 2.96094 53.1164 2.50156C52.9415 2.04218 52.5039 1.73594 52.0118 1.73594H42.1133V1.32031C42.1133 0.871875 41.7415 0.5 41.293 0.5C40.8446 0.5 40.4727 0.871875 40.4727 1.32031V11.5359H42.1133ZM42.1133 8.45156V3.3875H50.7977L48.9274 5.03906C48.6758 5.26875 48.5227 5.58594 48.5227 5.925C48.5227 6.26406 48.6649 6.59218 48.9274 6.81094L50.7977 8.4625L42.1133 8.45156Z" fill="#127AFF"/>
<path d="M40.4727 18.0218L42.1133 16.5781V30.9062H40.4727V18.0218Z" fill="#127AFF"/>
</svg>
