<svg width="56" height="57" viewBox="0 0 56 57" fill="none" xmlns="http://www.w3.org/2000/svg">
<path d="M18.0195 51.7122H19.6407V56.144H18.0195V51.7122Z" fill="#127AFF"/>
<path d="M36.3555 51.7122H37.9766V56.144H36.3555V51.7122Z" fill="#127AFF"/>
<path d="M50.5118 38.4865H48.0222V37.0706C49.5714 35.9965 50.5893 34.2066 50.5893 32.1827V29.102C50.5893 25.8238 47.9224 23.1569 44.6442 23.1569C41.3664 23.1569 38.6995 25.8238 38.6995 29.102V32.1827C38.6995 34.2066 39.7169 35.9965 41.2665 37.0706V38.4862H38.7761C36.2945 38.4862 34.1877 40.241 33.6813 42.6016H32.1871V40.3484C34.2215 38.9908 35.5647 36.6751 35.5647 34.0509V29.9976C35.5647 25.8256 32.1706 22.4314 27.9984 22.4314C23.8263 22.4314 20.4322 25.8256 20.4322 29.9976V34.0509C20.4322 36.6751 21.7754 38.9904 23.8098 40.3484V42.6016H22.3156C21.8092 40.241 19.7024 38.4862 17.2208 38.4862H14.7304V37.0706C16.28 35.9965 17.2974 34.2066 17.2974 32.1827V29.102C17.2974 25.8238 14.6305 23.1569 11.3527 23.1569C8.07448 23.1569 5.40757 25.8238 5.40757 29.102V32.1827C5.40757 34.2066 6.42543 35.9965 7.97463 37.0706V38.4865H5.48499C2.61121 38.4865 0.273438 40.8243 0.273438 43.6981V56.1438H1.89499V43.6981C1.89499 41.7183 3.50512 40.1077 5.48499 40.1077H8.05671C8.39433 41.6167 9.74343 42.7484 11.3527 42.7484C12.962 42.7484 14.3111 41.6167 14.6487 40.1077H17.2208C18.8089 40.1077 20.1737 41.1505 20.639 42.6016H20.2777C16.6378 42.6016 13.6765 45.5629 13.6765 49.2029V56.1438H15.2981V49.2029C15.2981 46.4569 17.5318 44.2232 20.2777 44.2232H23.872C24.2122 46.1933 25.9323 47.6972 27.9984 47.6972C30.0646 47.6972 31.7847 46.1933 32.1249 44.2232H35.7191C38.4651 44.2232 40.6988 46.4569 40.6988 49.2029V56.1438H42.3204V49.2029C42.3204 45.5629 39.359 42.6016 35.7191 42.6016H35.3578C35.8231 41.1505 37.1883 40.1077 38.7761 40.1077H41.3482C41.6858 41.6167 43.0349 42.7484 44.6442 42.7484C46.2534 42.7484 47.6025 41.6167 47.9402 40.1077H50.5118C52.4917 40.1077 54.1019 41.7183 54.1019 43.6981V56.1438H55.7234V43.6981C55.7234 40.8243 53.3857 38.4865 50.5118 38.4865ZM11.3527 24.7785C13.7125 24.7785 15.6352 26.6789 15.6746 29.0293C15.1132 28.2492 14.2087 27.7779 13.2315 27.7779H9.47354C8.49667 27.7779 7.5922 28.2496 7.03081 29.0293C7.06974 26.6789 8.99295 24.7785 11.3527 24.7785ZM13.1092 39.3703C13.1092 40.3391 12.3211 41.1268 11.3527 41.1268C10.3843 41.1268 9.59617 40.3391 9.59617 39.3703V37.8626C10.1516 38.0343 10.7414 38.1274 11.3527 38.1274C11.964 38.1274 12.5537 38.0343 13.1092 37.8626V39.3703ZM11.3527 36.5063C9.03438 36.5063 7.137 34.6719 7.03419 32.3786L8.25135 30.1279C8.49414 29.6782 8.96245 29.399 9.47354 29.399H13.2315C13.7425 29.399 14.2113 29.6782 14.4541 30.1279L15.6712 32.3786C15.5684 34.6719 13.671 36.5063 11.3527 36.5063ZM22.0533 29.9976C22.0533 26.7194 24.7202 24.0525 27.9984 24.0525C31.2766 24.0525 33.9436 26.7194 33.9436 29.9976V30.848L33.7303 30.4545C33.0823 29.256 31.8334 28.5115 30.4707 28.5115H25.5262C24.1635 28.5115 22.9146 29.256 22.2661 30.4545L22.0533 30.848V29.9976ZM30.5655 43.5086C30.5655 44.9245 29.414 46.0761 27.9984 46.0761C26.5829 46.0761 25.4313 44.9245 25.4313 43.5086V41.1683C26.2335 41.4585 27.0978 41.6172 27.9984 41.6172C28.8991 41.6172 29.7634 41.4585 30.5655 41.1683V43.5086ZM27.9984 39.9961C24.7862 39.9961 22.1625 37.4344 22.0584 34.2472L23.6927 31.2258C24.0569 30.5514 24.7596 30.1326 25.5262 30.1326H30.4707C31.2373 30.1326 31.94 30.5519 32.3042 31.2258L33.9385 34.2472C33.8344 37.4344 31.2107 39.9961 27.9984 39.9961ZM44.6442 24.7785C47.0039 24.7785 48.9272 26.6789 48.9661 29.0293C48.4047 28.2492 47.5002 27.7779 46.5233 27.7779H42.7654C41.7881 27.7779 40.8837 28.2496 40.3223 29.0293C40.3616 26.6789 42.2844 24.7785 44.6442 24.7785ZM46.4007 39.3703C46.4007 40.3391 45.6125 41.1268 44.6442 41.1268C43.6758 41.1268 42.8877 40.3391 42.8877 39.3703V37.8626C43.4432 38.0343 44.0329 38.1274 44.6442 38.1274C45.2555 38.1274 45.8453 38.0343 46.4007 37.8626V39.3703ZM44.6442 36.5063C42.3258 36.5063 40.4285 34.6719 40.3257 32.3786L41.5428 30.1279C41.7861 29.6782 42.2544 29.399 42.7654 29.399H46.5233C47.0344 29.399 47.5027 29.6782 47.7455 30.1279L48.9627 32.3786C48.8598 34.6719 46.9625 36.5063 44.6442 36.5063Z" fill="#127AFF"/>
<path d="M50.8008 45.605H52.4219V56.144H50.8008V45.605Z" fill="#127AFF"/>
<path d="M3.57422 45.605H5.19535V56.144H3.57422V45.605Z" fill="#127AFF"/>
<path d="M7.67873 18.5767L10.3173 13.8267H14.9746V0.855957H0.382812V13.8267H5.03974L7.67873 18.5767ZM2.00394 2.47751H13.3535V12.2055H9.36332L7.67873 15.2379L5.99372 12.2055H2.00394V2.47751Z" fill="#127AFF"/>
<path d="M41.1328 0.855957V13.8267H45.7901L48.4291 18.5767L51.0677 13.8267H55.725V0.855957H41.1328ZM54.1035 12.2055H50.1137L48.4291 15.2379L46.7441 12.2055H42.7543V2.47751H54.1035V12.2055Z" fill="#127AFF"/>
<path d="M28.0521 18.5767L30.6906 13.8267H39.6174V0.855957H16.4863V13.8267H25.4131L28.0521 18.5767ZM18.1078 2.47751H37.9963V12.2055H29.7367L28.0521 15.2379L26.367 12.2055H18.1078V2.47751Z" fill="#127AFF"/>
<path d="M7.13672 5.17944H11.4603V6.80099H7.13672V5.17944Z" fill="#127AFF"/>
<path d="M3.89453 5.17944H5.51609V6.80099H3.89453V5.17944Z" fill="#127AFF"/>
<path d="M3.89453 8.42236H8.21809V10.0439H3.89453V8.42236Z" fill="#127AFF"/>
<path d="M9.83984 8.42236H11.461V10.0439H9.83984V8.42236Z" fill="#127AFF"/>
<path d="M47.8867 5.17944H52.2102V6.80099H47.8867V5.17944Z" fill="#127AFF"/>
<path d="M44.6445 5.17944H46.266V6.80099H44.6445V5.17944Z" fill="#127AFF"/>
<path d="M44.6445 8.42236H48.968V10.0439H44.6445V8.42236Z" fill="#127AFF"/>
<path d="M50.5898 8.42236H52.211V10.0439H50.5898V8.42236Z" fill="#127AFF"/>
<path d="M29.6738 4.63916H31.2954V6.26029H29.6738V4.63916Z" fill="#127AFF"/>
<path d="M32.918 4.63916H35.6204V6.26029H32.918V4.63916Z" fill="#127AFF"/>
<path d="M20.4863 4.63916H28.0526V6.26029H20.4863V4.63916Z" fill="#127AFF"/>
<path d="M33.998 7.98975H35.6196V9.61129H33.998V7.98975Z" fill="#127AFF"/>
<path d="M20.4863 7.98975H24.8099V9.61129H20.4863V7.98975Z" fill="#127AFF"/>
<path d="M26.4297 7.98975H32.3749V9.61129H26.4297V7.98975Z" fill="#127AFF"/>
</svg>
