<svg width="56" height="56" viewBox="0 0 56 56" fill="none" xmlns="http://www.w3.org/2000/svg">
<g clip-path="url(#clip0_5684_32784)">
<path d="M55.5431 3.80938C55.4022 3.64214 55.2006 3.53769 54.9828 3.5191L42.7954 2.47818L42.5744 0.72183C42.5175 0.270003 42.1042 -0.0502466 41.6535 0.00651897L30.3478 1.42795C30.3032 1.41636 30.2576 1.40761 30.2102 1.40357L14.6706 0.0761908C14.2231 0.0368158 13.817 0.380909 13.7789 0.827488L13.5472 3.53998L1.51062 5.0533C1.06525 5.1093 0.739417 5.52853 0.795307 5.97423L6.93933 54.8438C6.96722 55.0667 6.91942 55.2809 7.01054 55.4965C7.13829 55.7984 7.44234 56 7.77036 56H48.2291C48.6846 56 49.0537 55.631 49.0537 55.1754V54.1014L50.6506 54.2378C51.0982 54.2767 51.5043 53.9334 51.5424 53.4866L55.734 4.41105C55.7527 4.19306 55.6841 3.97672 55.5431 3.80938ZM6.94578 41.6743L2.53458 6.58662L6.94578 6.03209V41.6743ZM15.3519 1.78955L22.5685 2.40587L15.2204 3.32977L15.3519 1.78955ZM41.0411 1.74569L41.4624 5.09661H14.3866L41.0411 1.74569ZM49.9695 52.5245L49.0537 52.4463V28.3494C49.0537 27.8939 48.6846 27.5248 48.2291 27.5248C47.7736 27.5248 47.4046 27.8938 47.4046 28.3494V54.3507H8.59496V6.74576H47.4046V24.5014C47.4046 24.957 47.7737 25.326 48.2292 25.326C48.6848 25.326 49.0538 24.957 49.0538 24.5014V5.92118C49.0538 5.46574 48.6848 5.09661 48.2292 5.09661H43.1246L43.0057 4.15128L54.0207 5.09212L49.9695 52.5245Z" fill="#127AFF"/>
<path d="M43.8347 9.49463H39.4369C39.1612 9.49463 38.9037 9.63231 38.7509 9.86175L36.8845 12.6613C34.8757 11.2223 32.4161 10.3741 29.7621 10.3741C29.3066 10.3741 28.9375 10.7431 28.9375 11.1986V22.6327C28.9375 23.0881 29.3065 23.4573 29.7621 23.4573H41.1961C41.6517 23.4573 42.0207 23.0882 42.0207 22.6327C42.0207 19.1221 40.5369 15.952 38.1641 13.715L39.8784 11.1437H43.8348C44.2902 11.1437 44.6593 10.7747 44.6593 10.3192C44.6593 9.86367 44.2901 9.49463 43.8347 9.49463ZM40.3398 21.8081H30.5866V12.0549C32.5863 12.2094 34.4312 12.9225 35.9685 14.0354L35.2328 15.1391C35.0029 15.4837 35.0704 15.9609 35.3877 16.2274C35.7594 16.5395 36.3359 16.4572 36.6049 16.0539L37.2345 15.1093C38.9877 16.8508 40.1381 19.1985 40.3398 21.8081Z" fill="#127AFF"/>
<path d="M43.8339 36.7601H36.3751L35.0609 34.6574C37.1898 32.4513 38.5017 29.4514 38.5017 26.1507C38.5017 25.6952 38.1326 25.3262 37.6771 25.3262H27.0676V14.7167C27.0676 14.2613 26.6985 13.8921 26.243 13.8921C19.4837 13.8921 13.9844 19.3914 13.9844 26.1507C13.9844 32.9101 19.4837 38.4094 26.243 38.4094C29.1002 38.4094 31.7321 37.4267 33.8188 35.7819L35.2188 38.0219C35.3695 38.2629 35.6337 38.4094 35.918 38.4094H43.8339C44.2893 38.4094 44.6585 38.0403 44.6585 37.5848C44.6585 37.1292 44.2893 36.7601 43.8339 36.7601ZM32.2197 30.1115C31.9785 29.725 31.4695 29.6078 31.0834 29.8491C30.6973 30.0904 30.5797 30.5992 30.8212 30.9854L32.9391 34.3741C31.1115 35.865 28.78 36.7603 26.2432 36.7603C20.3931 36.7603 15.6337 32.0009 15.6337 26.1509C15.6337 20.5782 19.9524 15.9953 25.4185 15.5731V26.1509C25.4185 26.6063 25.7877 26.9754 26.2432 26.9754H36.8209C36.6367 29.3599 35.6606 31.5259 34.1563 33.2103L32.2197 30.1115Z" fill="#127AFF"/>
<path d="M19.2046 41.1577H12.1683C11.713 41.1577 11.3438 41.5268 11.3438 41.9823C11.3438 42.4378 11.7129 42.8068 12.1683 42.8068H19.2046C19.6601 42.8068 20.0292 42.4378 20.0292 41.9823C20.0292 41.5268 19.6601 41.1577 19.2046 41.1577Z" fill="#127AFF"/>
<path d="M29.7593 41.1577H22.723C22.2676 41.1577 21.8984 41.5268 21.8984 41.9823C21.8984 42.4378 22.2676 42.8068 22.723 42.8068H29.7593C30.2148 42.8068 30.5839 42.4378 30.5839 41.9823C30.5839 41.5268 30.2148 41.1577 29.7593 41.1577Z" fill="#127AFF"/>
<path d="M23.6024 45.5557H12.1683C11.713 45.5557 11.3438 45.9247 11.3438 46.3803C11.3438 46.8358 11.7129 47.2049 12.1683 47.2049H23.6024C24.0578 47.2049 24.427 46.8358 24.427 46.3803C24.427 45.9247 24.0577 45.5557 23.6024 45.5557Z" fill="#127AFF"/>
<path d="M29.7602 45.5557H27.1215C26.6662 45.5557 26.2969 45.9247 26.2969 46.3803C26.2969 46.8358 26.6661 47.2049 27.1215 47.2049H29.7602C30.2156 47.2049 30.5847 46.8358 30.5847 46.3803C30.5846 45.9247 30.2156 45.5557 29.7602 45.5557Z" fill="#127AFF"/>
<path d="M15.6865 49.9531H12.1683C11.713 49.9531 11.3438 50.3222 11.3438 50.7777C11.3438 51.2333 11.7129 51.6022 12.1683 51.6022H15.6865C16.1419 51.6022 16.511 51.2333 16.511 50.7777C16.511 50.3222 16.1419 49.9531 15.6865 49.9531Z" fill="#127AFF"/>
<path d="M29.754 49.9531H19.1996C18.7443 49.9531 18.375 50.3222 18.375 50.7777C18.375 51.2333 18.7441 51.6022 19.1996 51.6022H29.754C30.2095 51.6022 30.5786 51.2333 30.5786 50.7777C30.5786 50.3222 30.2095 49.9531 29.754 49.9531Z" fill="#127AFF"/>
</g>
<defs>
<clipPath id="clip0_5684_32784">
<rect width="56" height="56" fill="white"/>
</clipPath>
</defs>
</svg>
