<svg width="56" height="56" viewBox="0 0 56 56" fill="none" xmlns="http://www.w3.org/2000/svg">
<g clip-path="url(#clip0_5684_32800)">
<path d="M0.15625 10.2402V51.2802C0.15625 53.7602 2.15625 55.8402 4.71625 55.8402H44.7962C47.2762 55.8402 49.3562 53.8402 49.3562 51.2802V32.8002H47.7562V51.3602C47.7562 52.9602 46.4762 54.3202 44.7962 54.3202H4.63625C3.03625 54.3202 1.67625 53.0402 1.67625 51.3602V10.2402C1.67625 8.64018 2.95625 7.28018 4.63625 7.28018H32.4762V5.68018H4.63625C2.15625 5.76018 0.15625 7.76018 0.15625 10.2402Z" fill="#127AFF"/>
<path d="M5.44375 9.43945H3.84375V11.0395H5.44375V9.43945Z" fill="#127AFF"/>
<path d="M9.20156 9.43945H7.60156V11.0395H9.20156V9.43945Z" fill="#127AFF"/>
<path d="M12.9594 9.43945H11.3594V11.0395H12.9594V9.43945Z" fill="#127AFF"/>
<path d="M29.6838 13.2002H3.84375V14.8002H29.6838V13.2002Z" fill="#127AFF"/>
<path d="M55.6803 11.6801L53.2003 8.24006L52.5603 4.08006C52.4803 3.76006 52.2403 3.44006 51.9203 3.44006L47.7603 2.72006L44.4003 0.240059C44.0803 5.85914e-05 43.7603 5.85914e-05 43.4403 0.240059L40.0003 2.72006L35.8403 3.36006C35.5203 3.44006 35.2003 3.68006 35.2003 4.00006L34.4803 8.16006L32.0003 11.6801C31.7603 12.0001 31.7603 12.3201 32.0003 12.6401L34.4803 16.0801L35.1203 20.2401C35.2003 20.5601 35.3603 20.7201 35.6803 20.8801L35.8403 20.9601L32.8803 26.8001C32.7203 27.0401 32.8003 27.3601 32.8803 27.6001C33.0403 27.8401 33.2803 28.0001 33.6003 28.0001H36.8803V28.0801L38.4803 30.4801C38.6403 30.7201 38.8803 30.8001 39.1203 30.8001H39.2003C39.4403 30.8001 39.7603 30.6401 39.8403 30.3201L43.0403 23.9201L43.2803 24.0801C43.6003 24.3201 43.9203 24.3201 44.2403 24.0801L44.4803 23.9201L44.5603 24.0801L47.6803 30.4001C47.8403 30.6401 48.0803 30.8001 48.3203 30.8801H48.4003C48.6403 30.8801 48.8803 30.7201 49.0403 30.5601L50.6403 28.0801H53.9203C54.1603 28.0801 54.4803 27.9201 54.6403 27.6801C54.8003 27.4401 54.8003 27.1201 54.6403 26.8801L51.6803 21.0401L51.8403 20.9601C52.0803 20.8801 52.3203 20.6401 52.4003 20.3201L53.1203 16.1601L55.6003 12.8001C55.9203 12.3201 55.9203 11.9201 55.6803 11.6801ZM39.1203 28.2401L38.0003 26.5601C37.8403 26.3201 37.6003 26.2401 37.3603 26.2401H34.9603L37.5203 21.1201L40.0803 21.5201L41.9203 22.8001L39.1203 28.2401ZM52.8003 26.2401H50.4003C50.1603 26.2401 49.9203 26.4001 49.7603 26.5601L48.6403 28.2401L45.9203 22.8001L47.7603 21.4401L50.2403 21.0401L52.8003 26.2401ZM51.8403 15.2001C51.7603 15.2801 51.6803 15.4401 51.6803 15.5201L51.0403 19.2801L47.2803 19.9201C47.1203 19.9201 47.0403 20.0001 46.9603 20.0801L43.8403 22.3201L40.8003 20.0801C40.6403 20.0001 40.5603 20.0001 40.4003 20.0001L36.6403 19.3601L36.0003 15.6001C36.0003 15.4401 35.9203 15.3601 35.8403 15.2801L33.6003 12.1601L35.8403 9.04006C36.0003 8.96006 36.0003 8.80006 36.0003 8.72006L36.6403 4.96006L40.4003 4.32006C40.5603 4.32006 40.6403 4.24006 40.7203 4.16006L43.8403 1.92006L46.9603 4.16006C47.0403 4.24006 47.2003 4.32006 47.2803 4.32006L51.0403 4.96006L51.6803 8.72006C51.6803 8.88006 51.7603 8.96006 51.8403 9.04006L54.0803 12.1601L51.8403 15.2001Z" fill="#127AFF"/>
<path d="M43.8375 5.75977C40.3175 5.75977 37.4375 8.63977 37.4375 12.1598C37.4375 15.6798 40.3175 18.5598 43.8375 18.5598C47.3575 18.5598 50.2375 15.6798 50.2375 12.1598C50.2375 8.63977 47.3575 5.75977 43.8375 5.75977ZM43.8375 16.9598C41.1975 16.9598 39.0375 14.7998 39.0375 12.1598C39.0375 9.51977 41.1975 7.35977 43.8375 7.35977C46.4775 7.35977 48.6375 9.51977 48.6375 12.1598C48.6375 14.7998 46.4775 16.9598 43.8375 16.9598Z" fill="#127AFF"/>
<path d="M42.4856 11.8403L43.0456 11.5203V14.7203H44.6456V10.1603C44.6456 9.84031 44.4856 9.60031 44.2456 9.44031C44.0056 9.28031 43.6856 9.28031 43.4456 9.44031L41.7656 10.4003L42.4856 11.8403Z" fill="#127AFF"/>
<path d="M12.1637 17.8403H4.64375C4.16375 17.8403 3.84375 18.2403 3.84375 18.6403V26.0803C3.84375 26.5603 4.24375 26.8803 4.64375 26.8803H12.0838C12.5638 26.8803 12.8837 26.4803 12.8837 26.0803V18.6403C12.9637 18.2403 12.5638 17.8403 12.1637 17.8403ZM11.3637 25.3603H5.44375V19.5203H11.2838V25.3603H11.3637Z" fill="#127AFF"/>
<path d="M21.2791 17.8398H15.0391V19.4398H21.2791V17.8398Z" fill="#127AFF"/>
<path d="M30.6391 21.5996H15.0391V23.1996H30.6391V21.5996Z" fill="#127AFF"/>
<path d="M12.1637 30H4.64375C4.16375 30 3.84375 30.4 3.84375 30.8V38.24C3.84375 38.72 4.24375 39.04 4.64375 39.04H12.0838C12.5638 39.04 12.8837 38.64 12.8837 38.24V30.8C12.9637 30.32 12.5638 30 12.1637 30ZM11.3637 37.44H5.44375V31.6H11.2838V37.44H11.3637Z" fill="#127AFF"/>
<path d="M21.2791 30H15.0391V31.6H21.2791V30Z" fill="#127AFF"/>
<path d="M36.2391 33.7598H15.0391V35.3598H36.2391V33.7598Z" fill="#127AFF"/>
<path d="M12.1637 42.1602H4.64375C4.16375 42.1602 3.84375 42.5602 3.84375 42.9602V50.4002C3.84375 50.8802 4.24375 51.2002 4.64375 51.2002H12.0838C12.5638 51.2002 12.8837 50.8002 12.8837 50.4002V42.9602C12.9637 42.4802 12.5638 42.1602 12.1637 42.1602ZM11.3637 49.6002H5.44375V43.7602H11.2838V49.6002H11.3637Z" fill="#127AFF"/>
<path d="M21.2791 42.1602H15.0391V43.7602H21.2791V42.1602Z" fill="#127AFF"/>
<path d="M36.2391 45.8398H15.0391V47.4398H36.2391V45.8398Z" fill="#127AFF"/>
</g>
<defs>
<clipPath id="clip0_5684_32800">
<rect width="56" height="56" fill="white"/>
</clipPath>
</defs>
</svg>
