<svg width="56" height="56" viewBox="0 0 56 56" fill="none" xmlns="http://www.w3.org/2000/svg">
<path d="M43.5154 32.6925C44.8019 32.6925 45.937 31.5574 45.937 30.2709C45.937 29.9682 45.5586 29.5898 45.2559 29.5898C44.8019 29.5898 44.5748 29.9682 44.5748 30.2709C44.5748 30.8763 44.1208 31.3304 43.5154 31.3304C42.91 31.3304 42.4559 30.8763 42.4559 30.2709C42.4559 29.8169 42.0775 29.5898 41.7748 29.5898C41.4721 29.5898 41.0938 29.9682 41.0938 30.2709C41.0938 31.5574 42.2289 32.6925 43.5154 32.6925Z" fill="#127AFF"/>
<path d="M41.5451 46.6164C44.6479 44.9516 46.9181 42.8327 48.4316 40.2597C48.5073 40.1083 48.7343 39.957 48.8857 39.8813L52.3668 38.7462C53.5776 38.3678 54.3343 37.3083 54.3343 36.0218V32.3894C54.3343 31.1786 53.5776 30.1191 52.3668 29.7408L50.2479 28.984C49.9451 28.9083 49.6424 28.6813 49.5668 28.3029C49.1127 26.8651 48.4316 25.5029 47.5235 24.2164C47.1451 23.6867 46.6911 23.0813 46.1614 22.6273V22.5516C46.5397 20.811 46.6911 19.3732 46.6154 18.1624C46.6154 16.3462 46.237 15.1354 45.4046 14.6813C44.9506 14.4543 43.7397 13.8489 36.9289 16.9516C36.7776 17.0272 36.6262 17.1029 36.4749 17.2543H36.3992C36.1722 17.1786 35.8695 17.1029 35.6424 17.0272C35.4154 16.9516 35.2641 16.9516 35.037 16.8759H34.81L34.8857 16.8002C35.4911 15.4381 35.7938 14.1516 35.7938 12.8651C35.7938 12.4867 35.5668 12.184 35.1127 12.1083C34.7343 12.1083 34.4316 12.3354 34.356 12.7894C34.2803 14.984 33.2965 17.1786 31.7073 18.8435C30.7235 19.8272 29.5884 20.5083 28.4533 20.8867C26.41 20.584 24.2911 20.584 22.2478 20.8867C21.037 20.4327 19.9776 19.7516 18.9938 18.8435C17.2533 17.1029 16.3451 14.8327 16.3451 12.411C16.3451 9.98941 17.2533 7.71914 18.9938 5.9786C20.7343 4.23806 23.0046 3.32995 25.4262 3.32995C27.8478 3.32995 30.1181 4.23806 31.8587 5.9786C32.3884 6.73536 32.9181 7.49211 33.3722 8.4759C33.5992 8.7786 33.9776 8.92995 34.356 8.85428C34.583 8.7786 34.6587 8.70292 34.7343 8.4759C34.81 8.32455 34.81 8.09752 34.7343 7.94617C34.1289 6.81103 33.5235 5.9786 32.7668 5.22184C30.7992 3.25428 28.1505 2.11914 25.4262 2.11914C22.6262 2.11914 19.9776 3.1786 18.0857 5.22184C16.1181 7.18941 14.983 9.83806 14.983 12.5624C14.983 15.3624 16.0424 18.011 18.0857 19.9029C18.7668 20.584 19.3722 21.0381 19.9776 21.4164L20.1289 21.4921L19.9776 21.5678C19.8262 21.6435 19.5992 21.6435 19.4478 21.7191C19.1451 21.7948 18.8424 21.8705 18.5397 22.0218C18.1614 22.1732 18.01 22.5516 18.0857 22.93C18.237 23.3083 18.6154 23.4597 18.9938 23.3083C23.2316 21.8705 27.8478 21.8705 32.0857 23.3083C32.1614 23.3083 32.1614 23.3083 32.237 23.384H32.3127C32.5397 23.384 32.8424 23.157 32.9938 22.93C33.1451 22.6272 32.9181 22.1732 32.6154 22.0218C32.3884 21.9462 32.1614 21.8705 31.9343 21.7948C31.7073 21.7191 31.4046 21.6435 31.1776 21.5678L31.0262 21.4921L31.1776 21.4164C31.9343 21.0381 32.5397 20.4327 33.0695 19.9029C33.6749 19.2975 34.0533 18.7678 34.4316 18.2381V18.1624H34.5073C34.583 18.1624 34.7343 18.2381 34.81 18.2381C34.9614 18.2381 35.037 18.3137 35.1127 18.3137C35.2641 18.3137 35.4154 18.3894 35.4911 18.3894C35.6424 18.3894 35.7181 18.4651 35.8695 18.4651H35.9451V18.6164C35.5668 20.5083 35.5668 21.9462 36.0208 23.3083C36.3992 24.5191 37.0803 25.5029 38.0641 26.184C39.1235 26.9408 40.4857 27.3948 41.7722 27.3948C42.6803 27.3948 43.5127 27.1678 44.1181 26.7894C44.8749 26.411 45.4046 25.5786 45.9343 24.2921L46.01 24.2164L46.0857 24.2921C46.3127 24.5191 46.5397 24.8218 46.6911 25.1245C47.5235 26.2597 48.1289 27.4705 48.5073 28.757C48.7343 29.5137 49.3397 30.0435 50.0208 30.2705L52.2154 30.9516C52.8208 31.1029 53.2749 31.6327 53.2749 32.3137V35.9462C53.2749 36.6273 52.8208 37.157 52.2154 37.3083L48.7343 38.4435C48.2046 38.5948 47.6749 38.9732 47.4478 39.5029C46.0857 41.8489 43.8911 43.8164 41.0154 45.33C40.7127 45.4813 40.4857 45.784 40.41 46.0867L39.2749 51.9894C39.2749 52.1408 39.1235 52.3678 38.8965 52.3678H35.2641C35.037 52.3678 34.8857 52.2164 34.8857 51.9894L34.0533 48.811C33.9019 48.2056 33.3722 47.8273 32.7668 47.9029C30.9506 48.13 29.437 48.2813 27.9992 48.2813C26.7884 48.2813 25.5776 48.2056 24.4424 48.0543C24.3668 48.0543 24.3668 48.0543 24.2911 48.0543C23.7614 48.0543 23.3073 48.4327 23.156 48.9624L22.5506 52.0651C22.5506 52.2164 22.3992 52.4435 22.1722 52.4435H18.5397C18.3127 52.4435 18.1614 52.2921 18.0857 52.0651L17.0262 46.4651C16.9505 46.0867 16.7235 45.8597 16.4965 45.7083C11.5776 43.0597 8.92893 38.6705 8.92893 32.9191C8.92893 29.9678 9.53433 27.4705 10.8208 25.2759C11.956 23.384 13.6965 21.6435 15.8154 20.357C16.1938 20.13 16.2695 19.7516 16.1181 19.3732C16.0424 19.2218 15.8911 19.0705 15.6641 18.9948C15.5127 18.9191 15.2857 18.9948 15.1343 19.0705C10.9722 21.4164 8.3992 25.2002 7.71812 29.9678V30.0435H7.33974V29.9678C7.33974 29.3624 7.26406 28.9083 7.03704 28.4543C6.58298 27.3948 5.75055 26.6381 4.76677 26.4867C4.01001 26.411 3.25325 26.7137 2.7992 27.3948C2.19379 28.1516 2.11812 28.8327 2.42082 29.5137C2.7992 30.2705 3.70731 30.8002 5.37217 31.1786H5.52352L5.44785 31.2543L5.37217 31.33C5.37217 31.4056 5.2965 31.4056 5.2965 31.4813C4.23704 32.8435 3.02622 32.9948 2.34514 32.9948C1.96677 32.9948 1.66406 33.2975 1.66406 33.7516C1.66406 34.2056 2.04244 34.4327 2.34514 34.5083H2.4965C3.48028 34.5083 4.91812 34.13 6.35595 32.3137C6.58298 32.011 6.81001 31.7083 6.88568 31.4056V31.33H6.96136C7.11271 31.33 7.26406 31.33 7.41541 31.4056H7.49109V31.4813C7.49109 31.7083 7.49109 31.9354 7.41541 32.1624C7.41541 32.3894 7.41541 32.5408 7.41541 32.7678C7.41541 35.9462 8.17217 38.8218 9.68568 41.1678C10.9722 43.3624 12.9397 45.1786 15.5884 46.6164L16.6478 52.0651C16.7992 52.8975 17.556 53.5029 18.4641 53.5029H22.0965C22.9289 53.5029 23.6857 52.8975 23.9127 52.0651L24.4424 49.1894H24.5181C25.6533 49.3408 26.7884 49.3408 27.9235 49.3408C29.7397 49.3408 31.2533 49.2651 32.6154 49.0381H32.6911V49.1137L33.2208 52.0651C33.3722 53.2759 34.1289 53.8813 35.037 53.8813H38.6695C39.5019 53.8813 40.2587 53.2759 40.4857 52.4435L41.5451 46.6164ZM45.1776 20.5083C44.8749 23.157 44.1181 25.2759 43.21 25.73C42.8316 25.957 42.1506 26.1083 41.4695 26.1083C40.5614 26.1083 39.4262 25.8813 38.5181 25.2002C36.9289 24.0651 36.3992 21.8705 37.0046 19.1462C37.0803 18.7678 37.3073 18.5408 37.61 18.3894C42.4533 16.1948 44.1181 16.0435 44.4965 16.0435H44.7992C45.2533 16.4218 45.4803 18.0867 45.1776 20.5083ZM5.82622 30.0435H5.75055C4.53974 29.7408 3.78298 29.4381 3.63163 29.0597C3.55595 28.9083 3.70731 28.6056 3.85866 28.3786C4.01001 28.0759 4.23704 28.0759 4.38839 28.0759H4.46406C4.91812 28.0759 5.37217 28.53 5.67487 29.211C5.75055 29.4381 5.82622 29.6651 5.82622 29.9678V30.0435Z" fill="#127AFF"/>
<path d="M25.7277 18.0111C25.8791 18.0111 26.0304 17.8597 26.0304 17.784V17.2543H26.1061C27.6196 17.0273 28.5277 16.0435 28.5277 14.53C28.5277 12.7894 27.3169 12.184 26.1061 11.73H26.0304V8.8543H26.1061C26.7115 8.92998 27.0899 9.08133 27.3169 9.23268C27.4682 9.30836 27.6196 9.38403 27.7709 9.38403C28.0736 9.38403 28.3007 8.92998 28.3007 8.70295C28.3007 8.09755 27.0142 7.79484 26.1818 7.79484H26.1061V7.34079C26.0304 7.18944 25.9547 7.03809 25.7277 7.03809C25.5764 7.03809 25.425 7.18944 25.425 7.26511V7.79484H25.3493C24.5926 7.87052 22.852 8.32457 22.852 10.2165C22.852 11.8813 24.0628 12.3354 25.2736 12.7894L25.425 12.8651V16.1948H25.3493C24.4412 16.1192 23.9872 15.7408 23.6088 15.4381C23.3818 15.2867 23.2304 15.1354 23.1547 15.1354C22.9277 15.1354 22.625 15.5138 22.625 15.8165C22.625 16.4219 23.6845 17.33 25.3493 17.33H25.425V17.8597C25.425 17.8597 25.5764 18.0111 25.7277 18.0111ZM25.9547 13.0165L26.0304 13.0921C26.7115 13.3948 27.3169 13.7732 27.3169 14.6813C27.3169 15.5138 26.9385 15.9678 26.0304 16.1192H25.9547V13.0165ZM25.425 11.503C24.6682 11.2002 24.0628 10.9732 24.0628 10.0651C24.0628 9.38403 24.5926 8.92998 25.425 8.8543H25.5007V11.503H25.425Z" fill="#127AFF"/>
</svg>
