<svg width="56" height="56" viewBox="0 0 56 56" fill="none" xmlns="http://www.w3.org/2000/svg">
<path d="M52.5538 20.0162L35.9052 3.36754C35.0727 2.53511 33.9376 2.08105 32.8025 2.08105C31.5916 2.08105 30.5322 2.53511 29.6997 3.36754L3.36461 29.7783C2.53218 30.6108 2.07812 31.7459 2.07812 32.8811C2.07812 34.0162 2.53218 35.1513 3.36461 35.9838L19.7862 52.4054H17.0619C16.6079 52.4054 16.3052 52.7838 16.3052 53.1621C16.3052 53.5405 16.6835 53.9189 17.0619 53.9189H23.1916H38.9322C39.3862 53.9189 39.6889 53.5405 39.6889 53.1621C39.6889 52.7838 39.3106 52.4054 38.9322 52.4054H26.5214L52.6295 26.2973C53.4619 25.4648 53.916 24.3297 53.916 23.1946C53.8403 21.9838 53.3862 20.8486 52.5538 20.0162ZM51.4943 25.2378L25.1592 51.5729C24.6295 52.1027 23.8727 52.4054 23.116 52.4054C22.3592 52.4054 21.6024 52.1027 21.0727 51.5729L6.99704 37.5729L32.5754 11.9946C32.7268 11.8432 32.8025 11.6919 32.8025 11.4648C32.8025 11.2378 32.7268 11.0865 32.5754 10.9351C32.2727 10.6324 31.8187 10.6324 31.516 10.9351L5.93758 36.4378L4.42407 34.9243C3.89434 34.3946 3.59164 33.6378 3.59164 32.8811C3.59164 32.1243 3.89434 31.3675 4.42407 30.8378L30.7592 4.50268C31.8187 3.44322 33.7862 3.44322 34.8457 4.50268L40.9754 10.6324L15.4727 36.2108C15.17 36.5135 15.17 36.9675 15.4727 37.2702C15.7754 37.5729 16.2295 37.5729 16.5322 37.2702L42.1106 11.6919L51.4943 21.0756C52.0241 21.6054 52.3268 22.3621 52.3268 23.1189C52.3268 23.9513 52.0241 24.7081 51.4943 25.2378Z" fill="#127AFF"/>
<path d="M19.7865 43.3246L28.4135 34.6976C28.5649 34.5463 28.6405 34.3949 28.6405 34.1679C28.6405 33.9409 28.5649 33.7895 28.4135 33.6382C28.2622 33.4868 28.1108 33.4111 27.8838 33.4111C27.6568 33.4111 27.5054 33.4868 27.3541 33.6382L18.727 42.1895C18.4243 42.4922 18.4243 42.9463 18.727 43.249C19.0297 43.5517 19.5595 43.5517 19.7865 43.3246Z" fill="#127AFF"/>
<path d="M26.4448 42.8705C26.7475 42.5678 26.7475 42.1137 26.4448 41.811C26.2935 41.6597 26.0664 41.584 25.9151 41.584C25.7637 41.584 25.5367 41.6597 25.3853 41.811L21.8286 45.3678C21.5259 45.6705 21.5259 46.1245 21.8286 46.4272C22.1313 46.7299 22.5853 46.7299 22.888 46.4272L26.4448 42.8705Z" fill="#127AFF"/>
<path d="M29.6937 38.5571C29.5423 38.4058 29.391 38.3301 29.1639 38.3301C28.9369 38.3301 28.7856 38.4058 28.6342 38.5571L28.1802 39.0112C27.8774 39.3139 27.8774 39.7679 28.1802 40.0706C28.4829 40.3733 28.9369 40.3733 29.2396 40.0706L29.6937 39.6166C29.9964 39.3139 29.9964 38.8598 29.6937 38.5571Z" fill="#127AFF"/>
<path d="M46.271 22.9683C46.5737 22.6656 46.5737 22.2115 46.271 21.9088L43.1683 18.8061C43.017 18.6548 42.8656 18.5791 42.6386 18.5791C42.4116 18.5791 42.2602 18.6548 42.1089 18.8061L37.4927 23.4223C37.3413 23.5737 37.2656 23.725 37.2656 23.9521C37.2656 24.1791 37.3413 24.3305 37.4927 24.4818L40.5954 27.5845C40.8981 27.8872 41.3521 27.8872 41.6548 27.5845L46.271 22.9683ZM39.0818 24.0278L42.6386 20.471L44.6818 22.5142L41.1251 26.071L39.0818 24.0278Z" fill="#127AFF"/>
<path d="M35.5218 7.90867C35.3704 7.75732 35.2191 7.68164 34.9921 7.68164C34.765 7.68164 34.6137 7.75732 34.4623 7.90867L34.0083 8.36272C33.8569 8.51407 33.7812 8.66542 33.7812 8.89245C33.7812 9.11948 33.8569 9.27083 34.0083 9.42218C34.311 9.72488 34.765 9.72488 35.0677 9.42218L35.5218 8.96813C35.8245 8.66542 35.8245 8.21137 35.5218 7.90867Z" fill="#127AFF"/>
<path d="M14.0374 38.7085C13.8861 38.5571 13.659 38.4814 13.5077 38.4814C13.3563 38.4814 13.1293 38.5571 12.978 38.7085L12.5239 39.1625C12.2212 39.4652 12.2212 39.9193 12.5239 40.222C12.8266 40.5247 13.2807 40.5247 13.5834 40.222L14.0374 39.7679C14.3401 39.5409 14.3401 39.0112 14.0374 38.7085Z" fill="#127AFF"/>
</svg>
