<svg width="58" height="56" viewBox="0 0 58 56" fill="none" xmlns="http://www.w3.org/2000/svg">
<path d="M14.7773 23.3047V34.2841" stroke="#127AFF" stroke-width="1.7" stroke-linecap="round"/>
<path d="M1.69922 21.6999L7.29922 18.8999" stroke="#127AFF" stroke-width="1.7" stroke-linecap="round"/>
<path d="M29 8.3999L56.3 21.6999" stroke="#127AFF" stroke-width="1.7" stroke-linecap="round"/>
<path d="M12.1953 38.5322C16.215 34.5535 35.6039 31.2378 45.7713 37.869" stroke="#127AFF" stroke-width="1.7" stroke-linecap="round"/>
<path d="M46.2442 40.1899C43.4068 44.5003 19.7618 46.4897 12.1953 40.1899" stroke="#127AFF" stroke-width="1.7" stroke-linecap="round"/>
<path d="M46.0078 21.6221L46.2442 40.1897" stroke="#127AFF" stroke-width="1.7" stroke-linecap="round"/>
<path d="M12.1953 40.1901V22.6172" stroke="#127AFF" stroke-width="1.7" stroke-linecap="round"/>
<path d="M12.1953 22.285C16.2938 18.0852 33.2394 14.3277 46.0078 21.622" stroke="#127AFF" stroke-width="1.7" stroke-linecap="round"/>
<path d="M56.2984 21.6997L46.1484 27.2997" stroke="#127AFF" stroke-width="1.7" stroke-linecap="round"/>
<path d="M1.69922 21.6997L11.8492 27.6497" stroke="#127AFF" stroke-width="1.7" stroke-linecap="round"/>
<path d="M28.9969 8.3999L15.65 14.6048L10.7969 16.7999" stroke="#127AFF" stroke-width="1.7" stroke-linecap="round"/>
<path d="M6.60156 24.8501V37.8001" stroke="#127AFF" stroke-width="1.7" stroke-linecap="round"/>
<path d="M6.67578 46.8999C8.20217 44.8059 10.3391 40.4743 6.67578 39.8999" stroke="#127AFF" stroke-width="1.7" stroke-linecap="round"/>
<path d="M6.67717 46.8999C5.08143 44.8059 2.80576 40.4743 6.46903 39.8999" stroke="#127AFF" stroke-width="1.7" stroke-linecap="round"/>
<path d="M6.59922 40.5998C7.37242 40.5998 7.99922 39.973 7.99922 39.1998C7.99922 38.4266 7.37242 37.7998 6.59922 37.7998C5.82602 37.7998 5.19922 38.4266 5.19922 39.1998C5.19922 39.973 5.82602 40.5998 6.59922 40.5998Z" fill="#127AFF"/>
</svg>
