<svg width="56" height="56" viewBox="0 0 56 56" fill="none" xmlns="http://www.w3.org/2000/svg">
<path d="M8.66301 31.335C8.20895 31.335 7.90625 31.7133 7.90625 32.0917V35.6485C7.90625 36.1025 8.28463 36.4052 8.66301 36.4052C9.04139 36.4052 9.41976 36.0269 9.41976 35.6485V32.0917C9.41976 31.7133 9.11706 31.335 8.66301 31.335Z" fill="#127AFF"/>
<path d="M12.288 33.0752C11.834 33.0752 11.5312 33.4536 11.5312 33.832V37.3887C11.5312 37.8428 11.9096 38.1455 12.288 38.1455C12.6664 38.1455 13.0448 37.7671 13.0448 37.3887V33.832C13.0448 33.4536 12.6664 33.0752 12.288 33.0752Z" fill="#127AFF"/>
<path d="M40.9753 36.708C39.0834 36.708 37.3429 37.4648 35.9807 38.7513C34.6186 40.1134 33.9375 41.854 33.9375 43.7458C33.9375 45.6377 34.6943 47.3783 35.9807 48.7404C37.2672 50.1026 39.0834 50.7837 40.9753 50.7837C42.8672 50.7837 44.6078 50.0269 45.9699 48.7404C47.3321 47.454 48.0132 45.6377 48.0132 43.7458C48.0132 41.3999 46.878 39.2053 44.9105 37.9188C44.5321 37.6918 44.078 37.7675 43.851 38.1458C43.624 38.5242 43.6997 38.9783 44.078 39.2053C45.2889 40.0377 46.1213 41.2485 46.424 42.6864C46.7267 44.1242 46.424 45.6377 45.5916 46.8485C44.7591 48.0594 43.5483 48.8918 42.0348 49.1945C40.597 49.4972 39.0834 49.1945 37.8726 48.3621C35.3753 46.6972 34.6943 43.2161 36.3591 40.7188C37.4186 39.2053 39.0834 38.2972 40.8997 38.2972C41.3537 38.2972 41.6564 37.9188 41.6564 37.5404C41.6564 37.1621 41.4294 36.708 40.9753 36.708Z" fill="#127AFF"/>
<path d="M4.65051 38.1458L24.4019 49.7242C24.4019 49.7242 24.4019 49.7242 24.4775 49.7242H24.5532C24.7046 49.7999 24.9316 49.7999 25.0829 49.7242H25.1586H25.2343L30.7586 46.4702L30.8343 46.6215C31.5911 49.3458 33.4073 51.6161 35.9046 52.9783C38.4019 54.3404 41.2775 54.6431 44.0019 53.8864C46.7262 53.1296 48.9965 51.3134 50.3586 48.8161C51.7208 46.3188 52.0235 43.4431 51.2667 40.7188C50.4343 37.7675 48.3154 35.2702 45.4397 33.9837H45.364V14.1567C45.364 13.854 45.2127 13.6269 44.9856 13.4756L25.1586 1.82152C24.9316 1.67017 24.6289 1.67017 24.4019 1.82152L4.57484 13.4756C4.49916 13.5513 4.42349 13.6269 4.42349 13.6269C4.34781 13.7026 4.34781 13.7783 4.34781 13.854C4.34781 13.854 4.34781 13.854 4.34781 13.9296C4.34781 14.0053 4.34781 14.0053 4.34781 14.0053V37.3891C4.27213 37.7675 4.42349 37.9945 4.65051 38.1458ZM50.0559 43.8215C50.0559 48.8161 45.9694 52.9026 40.9748 52.9026C35.9802 52.9026 31.8938 48.8161 31.8938 43.8215C31.8938 38.8269 35.9802 34.7404 40.9748 34.7404C45.9694 34.5891 50.0559 38.7513 50.0559 43.8215ZM24.7802 3.41071L29.6992 6.28639L22.5856 10.5242C22.4343 10.5999 22.2829 10.8269 22.2073 10.9783C22.1316 11.2053 22.2073 11.3567 22.2829 11.5837C22.3586 11.735 22.5856 11.8864 22.737 11.9621C22.964 12.0377 23.1154 11.9621 23.3424 11.8864L31.2127 7.19449L36.1316 10.0702L35.9046 10.1458L17.8938 20.8918L12.9748 18.0161L20.6938 13.4756C20.8451 13.3999 20.9965 13.1729 21.0721 13.0215C21.1478 12.8702 21.0721 12.6431 20.9965 12.4161C20.9208 12.2648 20.6938 12.1134 20.5424 12.0377C20.3154 11.9621 20.164 12.0377 19.937 12.1134L11.4613 17.108L6.54241 14.2323L24.7802 3.41071ZM17.137 22.1026V28.3837L12.2181 25.508V19.2269L17.137 22.1026ZM5.78565 15.5188L10.7046 18.3945V26.0377C10.7046 26.3404 10.8559 26.5675 11.0829 26.7188L17.5154 30.5026C17.6667 30.5783 17.7424 30.5783 17.8938 30.5783C18.3478 30.5783 18.6505 30.1999 18.6505 29.8215V23.0864L24.0235 26.2648V41.0215C24.0235 41.4756 24.4019 41.7783 24.7802 41.7783C25.1586 41.7783 25.537 41.3999 25.537 41.0215V26.2648L41.8829 16.5783C42.2613 16.3513 42.337 15.8972 42.1856 15.5188C41.9586 15.1404 41.5046 15.0648 41.1262 15.2161L24.7802 24.9783L19.4073 21.7999L37.6451 11.054L43.7748 14.6864V33.6053L43.6235 33.454C37.9478 31.9404 32.1965 35.3458 30.6829 41.0215C30.4559 41.9296 30.3046 42.8377 30.3046 43.7458C30.3046 44.1242 30.3046 44.5026 30.3802 44.881V44.9567L30.3046 45.0323L25.537 47.8323V44.654C25.537 44.1999 25.1586 43.8972 24.7802 43.8972C24.4019 43.8972 24.0235 44.2756 24.0235 44.654V47.8323L23.7965 47.6053L5.78565 37.0107V15.5188Z" fill="#127AFF"/>
<path d="M37.7973 45.1832L39.1595 46.5453C39.3109 46.6967 39.4622 46.7724 39.6892 46.7724C39.9163 46.7724 40.0676 46.6967 40.219 46.5453L44.2298 42.5345C44.3811 42.3832 44.4568 42.2318 44.4568 42.0048C44.4568 41.7778 44.3811 41.6264 44.2298 41.4751C43.9271 41.1724 43.473 41.1724 43.1703 41.4751L39.6892 44.9562L38.8568 44.1237C38.7054 43.9724 38.5541 43.8967 38.3271 43.8967C38.1 43.8967 37.9487 43.9724 37.7973 44.1237C37.4946 44.4264 37.4946 44.8805 37.7973 45.1832Z" fill="#127AFF"/>
</svg>
