<svg width="56" height="56" viewBox="0 0 56 56" fill="none" xmlns="http://www.w3.org/2000/svg">
<path d="M54.2245 24.1407C54.2245 23.6867 53.8461 23.384 53.4677 23.384H46.8083C46.3542 23.384 46.0515 23.7623 46.0515 24.1407V29.3623C46.0515 29.8164 46.4299 30.1191 46.8083 30.1191C47.1867 30.1191 47.565 29.7407 47.565 29.3623V24.8975H52.6353V52.6704H47.565V37.1569C47.565 36.7029 47.1867 36.4002 46.8083 36.4002C46.4299 36.4002 46.0515 36.7786 46.0515 37.1569V52.6704H43.4785V31.0272C43.4785 30.5732 43.1002 30.2705 42.7218 30.2705H36.0623C35.6083 30.2705 35.3056 30.6488 35.3056 31.0272V52.7461H32.7326V38.2164C32.7326 37.7623 32.3542 37.4596 31.9758 37.4596H25.3164C24.8623 37.4596 24.5596 37.838 24.5596 38.2164V52.6704H21.9867V44.1948C21.9867 43.7407 21.6083 43.438 21.2299 43.438H14.5704C14.1164 43.438 13.8137 43.8164 13.8137 44.1948V52.6704H4.58125C3.90017 52.6704 3.29476 52.065 3.29476 51.384V4.6164C3.29476 3.93532 3.90017 3.32991 4.58125 3.32991H31.5218V10.4434C31.5218 12.0326 32.8083 13.3191 34.3975 13.3191H41.511V26.3353C41.511 26.7894 41.8894 27.0921 42.2677 27.0921C42.6461 27.0921 43.0245 26.7137 43.0245 26.3353V12.4867C43.0245 12.2596 42.9488 12.1083 42.7975 11.9569L32.884 1.96775C32.7326 1.8164 32.5056 1.74072 32.3542 1.74072H4.58125C2.99206 1.8164 1.78125 3.02721 1.78125 4.6164V51.384C1.78125 52.9732 3.06774 54.2596 4.65693 54.2596H53.3921C53.8461 54.2596 54.1488 53.8813 54.1488 53.5029V24.1407H54.2245ZM33.111 4.38937L40.4515 11.7299H34.4731C33.7921 11.7299 33.1867 11.1245 33.1867 10.4434V4.38937H33.111ZM20.3975 52.6704H15.3272V44.9515H20.3975V52.6704ZM31.1434 52.6704H26.0731V39.0488H31.1434V52.6704ZM41.8894 52.6704H36.8191V31.784H41.8894V52.6704Z" fill="#127AFF"/>
<path d="M47.3334 32.541C47.182 32.3896 46.955 32.314 46.8036 32.314C46.6523 32.314 46.4253 32.3896 46.2739 32.541C46.1226 32.6923 46.0469 32.9194 46.0469 33.0707C46.0469 33.2221 46.1226 33.4491 46.2739 33.6005C46.5766 33.9032 47.1063 33.9032 47.3334 33.6005C47.4847 33.4491 47.5604 33.2221 47.5604 33.0707C47.5604 32.9194 47.4847 32.6923 47.3334 32.541Z" fill="#127AFF"/>
<path d="M25.7696 20.2814H27.8885C28.3425 20.2814 28.6452 19.903 28.6452 19.5246C28.6452 12.8652 23.1966 7.4165 16.5371 7.4165C16.0831 7.4165 15.7804 7.79488 15.7804 8.17326V10.2922H15.5533C10.8614 10.8219 7.30469 14.757 7.30469 19.5246C7.30469 24.5949 11.4668 28.757 16.5371 28.757C21.3047 28.757 25.2398 25.2003 25.7696 20.5084V20.2814ZM17.2939 9.00569H17.5966C22.5912 9.53542 26.5263 13.4706 27.056 18.4652V18.7679H17.2939V9.00569ZM24.1804 20.5841C23.6506 24.3679 20.3966 27.2435 16.5371 27.2435C12.2993 27.2435 8.8182 23.7624 8.8182 19.5246C8.8182 15.6652 11.6939 12.4111 15.4777 11.8814L15.7804 11.8057V19.4489C15.7804 19.903 16.1587 20.2057 16.5371 20.2057H24.1804V20.5841Z" fill="#127AFF"/>
<path d="M27.8831 32.2388H8.13176C7.6777 32.2388 7.375 32.6171 7.375 32.9955C7.375 33.3739 7.75338 33.7523 8.13176 33.7523H27.8831C28.3372 33.7523 28.6399 33.3739 28.6399 32.9955C28.6399 32.6171 28.2615 32.2388 27.8831 32.2388Z" fill="#127AFF"/>
<path d="M14.7155 37.2329H8.13176C7.6777 37.2329 7.375 37.6113 7.375 37.9897C7.375 38.368 7.75338 38.7464 8.13176 38.7464H14.7912C15.2453 38.7464 15.548 38.368 15.548 37.9897C15.548 37.6113 15.1696 37.2329 14.7155 37.2329Z" fill="#127AFF"/>
<path d="M19.8661 37.2329C19.6391 37.2329 19.4878 37.3086 19.3364 37.4599C19.1851 37.6113 19.1094 37.8383 19.1094 37.9897C19.1094 38.141 19.1851 38.368 19.3364 38.5194C19.6391 38.8221 20.1688 38.8221 20.3959 38.5194C20.5472 38.368 20.6229 38.141 20.6229 37.9897C20.6229 37.8383 20.5472 37.6113 20.3959 37.4599C20.3202 37.3086 20.0932 37.2329 19.8661 37.2329Z" fill="#127AFF"/>
</svg>
