<svg width="56" height="56" viewBox="0 0 56 56" fill="none" xmlns="http://www.w3.org/2000/svg">
<g clip-path="url(#clip0_5773_33667)">
<path d="M52.8997 17.8215C52.8997 17.3675 52.5214 17.0648 52.143 17.0648H38.37V2.38371C38.37 2.15668 38.2943 1.92966 38.0673 1.7783C37.916 1.62695 37.6889 1.62695 37.4619 1.62695L18.6943 6.7729H15.3646C14.9106 6.7729 14.6079 7.15128 14.6079 7.52966V14.3405C14.6079 14.7945 14.9862 15.0972 15.3646 15.0972H18.0133V16.9891H0.834882C0.380828 16.9891 0.078125 17.3675 0.078125 17.7459V45.0648C0.078125 45.5188 0.456503 45.8215 0.834882 45.8215H21.4187V49.454H17.0295C14.7592 49.454 12.8673 51.3459 12.8673 53.6161C12.8673 54.0702 13.2457 54.3729 13.6241 54.3729H39.2781C39.7322 54.3729 40.0349 53.9945 40.0349 53.6161C40.0349 51.3459 38.143 49.454 35.8727 49.454H31.4835V45.8215H52.0673C52.5214 45.8215 52.8241 45.4432 52.8241 45.0648V17.8215H52.8997ZM19.5268 8.13506L36.7808 3.44317V18.5026H36.6295L19.4511 13.8107L19.5268 8.13506ZM21.4943 15.854V20.3945H19.6024V15.3243L21.4943 15.854ZM16.1214 13.5837V8.28641H18.0133V13.5837H16.1214ZM35.8727 51.0432C37.0079 51.0432 37.9916 51.7242 38.37 52.7837L38.4457 52.9351H14.5322L14.6079 52.7837C14.9862 51.7242 15.97 51.0432 17.1052 51.0432H35.8727ZM23.0079 49.5297V45.8972H30.0457V49.5297H23.0079ZM51.3862 44.3837H1.59164V18.5783H18.0133V21.227C18.0133 21.681 18.3916 21.9837 18.77 21.9837H22.1754C22.6295 21.9837 22.9322 21.6053 22.9322 21.227V20.2432H24.6727V18.7297H22.9322V16.308L37.3862 20.2432C37.6133 20.3188 37.8403 20.2432 37.9916 20.0918C38.143 19.9405 38.2943 19.7134 38.2943 19.4864V18.5026H51.3106V44.3837H51.3862Z" fill="#127AFF"/>
<path d="M45.1845 8.51367H40.2656V10.0272H45.1845V8.51367Z" fill="#127AFF"/>
<path d="M44.0589 3.43548L39.9844 5.06738L40.5471 6.47238L44.6216 4.84048L44.0589 3.43548Z" fill="#127AFF"/>
<path d="M40.5393 11.9837L39.9766 13.3887L44.051 15.0206L44.6138 13.6156L40.5393 11.9837Z" fill="#127AFF"/>
<path d="M35.7959 24.6327C35.7959 24.1787 35.4175 23.876 35.0391 23.876H17.9364C17.4824 23.876 17.1797 24.2544 17.1797 24.6327V39.9949C17.1797 40.4489 17.5581 40.7517 17.9364 40.7517H35.0391C35.4932 40.7517 35.7959 40.3733 35.7959 39.9949V24.6327ZM34.2824 39.2381H18.6932V25.3895H34.2824V39.2381Z" fill="#127AFF"/>
<path d="M4.24113 42.4922H8.40329V40.9786H4.99789V37.5732H3.48438V41.7354C3.48438 42.1138 3.86275 42.4922 4.24113 42.4922Z" fill="#127AFF"/>
<path d="M8.47897 20.4707H4.24113C3.78708 20.4707 3.48438 20.8491 3.48438 21.2275V25.3896H4.99789V21.9842H8.40329V20.4707H8.47897Z" fill="#127AFF"/>
<path d="M49.497 25.3896V21.2275C49.497 20.7734 49.1187 20.4707 48.7403 20.4707H44.5781V21.9842H47.9835V25.3896H49.497Z" fill="#127AFF"/>
<path d="M49.497 37.498H47.9835V40.9035H44.5781V42.417H48.7403C49.1943 42.417 49.497 42.0386 49.497 41.6602V37.498Z" fill="#127AFF"/>
<path d="M22.8594 30.0814V35.076C22.8594 35.53 23.0864 35.9841 23.5405 36.2111C23.9188 36.4381 24.4486 36.4381 24.9026 36.2111L29.3675 33.7138C29.8215 33.4868 30.0486 33.0327 30.0486 32.503C30.0486 31.9733 29.8215 31.5949 29.3675 31.2922L24.9026 28.7949C24.6756 28.6436 24.4486 28.6436 24.2215 28.6436C23.9945 28.6436 23.7675 28.7192 23.5405 28.7949C23.1621 29.1733 22.8594 29.6273 22.8594 30.0814ZM24.0702 30.0057L24.2972 29.8544H24.3729L28.8378 32.3517C28.9134 32.4273 28.9134 32.4273 28.9134 32.503C28.9134 32.503 28.9134 32.5787 28.8378 32.6544L24.2215 35.1517H24.1459C24.1459 35.1517 24.0702 35.076 24.0702 35.0003V30.0057Z" fill="#127AFF"/>
</g>
<defs>
<clipPath id="clip0_5773_33667">
<rect width="52.973" height="52.973" fill="white" transform="translate(0 1.51367)"/>
</clipPath>
</defs>
</svg>
