<svg width="57" height="56" viewBox="0 0 57 56" fill="none" xmlns="http://www.w3.org/2000/svg">
<g clip-path="url(#clip0_5684_33242)">
<path d="M23.0634 26.9593C23.1434 26.5593 22.9034 26.0793 22.4234 25.9993C21.7034 25.8393 20.9034 25.7593 20.1834 25.7593C14.5834 25.7593 10.0234 30.3193 10.0234 35.9193C10.0234 37.9193 10.5834 39.9193 11.7034 41.5993C11.9434 41.9193 12.5034 42.0793 12.8234 41.8393C13.2234 41.5993 13.3034 41.1193 13.0634 40.7193C12.1034 39.2793 11.6234 37.6793 11.6234 35.9993C11.6234 31.2793 15.4634 27.4393 20.1834 27.4393C20.8234 27.4393 21.4634 27.5193 22.1034 27.6793C22.5034 27.6793 22.9834 27.3593 23.0634 26.9593Z" fill="#127AFF"/>
<path d="M15.4597 42.9608C15.2997 42.8808 15.1397 42.8008 14.9797 42.8008C14.7397 42.8008 14.4197 42.9608 14.3397 43.2008C14.1797 43.3608 14.1797 43.6008 14.1797 43.8408C14.2597 44.0808 14.3397 44.2408 14.4997 44.3208C16.1797 45.4408 18.0997 46.0008 20.1797 46.0008C25.7797 46.0008 30.3397 41.4408 30.3397 35.8408C30.3397 35.0408 30.2597 34.3208 30.0997 33.6008C30.0197 33.2008 29.5397 32.8808 29.1397 32.9608C28.7397 33.0408 28.4197 33.5208 28.4997 33.9208C28.6597 34.5608 28.7397 35.2008 28.7397 35.8408C28.7397 40.5608 24.8997 44.4008 20.1797 44.4008C18.4997 44.4008 16.8197 43.9208 15.4597 42.9608Z" fill="#127AFF"/>
<path d="M28.2631 30.0806C28.2631 29.8406 28.2631 29.6806 28.1031 29.5206C27.6231 28.9606 27.1431 28.4806 26.5831 28.0006C26.4231 27.9206 26.2631 27.8406 26.1031 27.8406H26.0231C25.7831 27.8406 25.6231 28.0006 25.4631 28.1606C25.1431 28.4806 25.2231 29.0406 25.6231 29.2806C26.1031 29.6806 26.5031 30.0806 26.9031 30.5606C27.1431 30.8806 27.7031 30.9606 28.0231 30.7206C28.1831 30.4806 28.2631 30.3206 28.2631 30.0806Z" fill="#127AFF"/>
<path d="M20.1797 29.8406C16.8997 29.8406 14.1797 32.5606 14.1797 35.8406C14.1797 39.1206 16.8997 41.8406 20.1797 41.8406C23.4597 41.8406 26.1797 39.1206 26.1797 35.8406C26.1797 32.5606 23.4597 29.8406 20.1797 29.8406ZM20.1797 40.2406C17.7797 40.2406 15.7797 38.2406 15.7797 35.8406C15.7797 33.4406 17.7797 31.4406 20.1797 31.4406C22.5797 31.4406 24.5797 33.4406 24.5797 35.8406C24.5797 38.2406 22.5797 40.2406 20.1797 40.2406Z" fill="#127AFF"/>
<path d="M39.6963 37.9199V33.7599C39.6963 32.7199 38.8963 31.9199 37.8563 31.9199H36.0962V31.7599C35.6963 30.2399 35.1362 28.7999 34.3363 27.4399L34.2563 27.3599L35.4562 26.1599C35.7762 25.8399 36.0163 25.3599 36.0163 24.8799C36.0163 24.3999 35.8563 23.9199 35.4562 23.5999L32.4963 20.6399C31.7762 19.9199 30.5763 19.9199 29.8563 20.6399L28.6562 21.8399L28.5762 21.7599C27.2162 20.9599 25.7763 20.3199 24.2563 19.9999H24.0963V18.2399C24.0963 17.1999 23.2962 16.3999 22.2563 16.3999H18.0963C17.0562 16.3999 16.2563 17.1999 16.2563 18.2399V19.9999H16.0962C14.5763 20.3999 13.1363 20.9599 11.7763 21.7599L11.6962 21.8399L10.4963 20.6399C9.77625 19.9199 8.57625 19.9199 7.85625 20.6399L4.89625 23.5999C4.57625 23.9199 4.33625 24.3999 4.33625 24.8799C4.33625 25.3599 4.49625 25.8399 4.89625 26.1599L6.09625 27.3599V27.5199C5.29625 28.8799 4.65625 30.3199 4.33625 31.8399V31.9999H2.49625C2.01625 31.9999 1.53625 32.1599 1.21625 32.5599C0.89625 32.8799 0.65625 33.3599 0.65625 33.8399V37.9999C0.65625 39.0399 1.45625 39.8399 2.49625 39.8399H4.25625V39.9999C4.65625 41.4399 5.29625 42.8799 6.09625 44.2399L6.17625 44.3199L4.89625 45.5999C4.17625 46.3199 4.17625 47.5199 4.89625 48.2399L7.85625 51.1999C8.17625 51.5199 8.65625 51.7599 9.13625 51.7599C9.61625 51.7599 10.0962 51.5999 10.4163 51.1999L11.6163 49.9999L11.6962 50.0799C13.0563 50.8799 14.4962 51.5199 16.0162 51.8399H16.1762V53.5999C16.1762 54.6399 16.9762 55.4399 18.0162 55.4399H22.1763C23.2162 55.4399 24.0162 54.6399 24.0162 53.5999V51.8399H24.1763C25.6963 51.4399 27.1362 50.8799 28.4963 50.0799L28.5762 49.9999L29.7762 51.1999C30.4962 51.9199 31.6963 51.9199 32.4163 51.1999L35.3762 48.2399C36.0962 47.5199 36.0962 46.3199 35.3762 45.5999L34.1763 44.3999L34.2563 44.3199C35.0563 42.9599 35.6963 41.5199 36.0163 39.9999V39.8399H37.7762C38.8962 39.8399 39.6963 38.9599 39.6963 37.9199ZM35.4562 38.1599C35.0563 38.1599 34.7363 38.3999 34.6562 38.7999C34.2563 40.7199 33.5363 42.3999 32.4963 43.9999C32.2563 44.3199 32.3362 44.7199 32.5762 45.0399L34.2563 46.7199C34.3363 46.7999 34.3363 46.9599 34.2563 47.0399L31.2962 49.9999C31.2162 50.0799 31.0562 50.0799 30.9762 49.9999L29.2962 48.3199C29.0562 48.0799 28.5763 47.9999 28.2563 48.2399C26.6562 49.2799 24.8962 49.9999 23.0562 50.3999C22.6562 50.4799 22.4163 50.7999 22.4163 51.1999V53.5999C22.4163 53.7599 22.3363 53.8399 22.1763 53.8399H18.0963C17.9362 53.8399 17.8563 53.7599 17.8563 53.5999V51.1999C17.8563 50.7999 17.6162 50.4799 17.2162 50.3999C15.3762 49.9999 13.6163 49.2799 12.0162 48.2399C11.6962 47.9999 11.2963 47.9999 10.9763 48.3199L9.29625 49.9999C9.21625 50.0799 9.05625 50.0799 8.97625 49.9999L6.09625 47.0399C6.01625 46.9599 6.01625 46.9599 6.01625 46.8799C6.01625 46.7999 6.01625 46.7999 6.09625 46.7199L7.77625 45.0399C8.01625 44.7999 8.09625 44.3199 7.85625 43.9999C6.81625 42.3999 6.09625 40.6399 5.69625 38.7999C5.61625 38.3999 5.29625 38.1599 4.89625 38.1599H2.49625C2.33625 38.1599 2.25625 38.0799 2.25625 37.9199V33.7599C2.25625 33.5999 2.33625 33.5199 2.49625 33.5199H4.89625C5.29625 33.5199 5.61625 33.2799 5.69625 32.8799C6.09625 31.0399 6.81625 29.2799 7.85625 27.6799C8.09625 27.3599 8.01625 26.9599 7.77625 26.6399L6.09625 25.0399C6.01625 24.9599 6.01625 24.7999 6.09625 24.7199L9.05625 21.7599C9.13625 21.6799 9.29625 21.6799 9.37625 21.7599L11.0563 23.4399C11.2963 23.6799 11.7762 23.7599 12.0963 23.5199C13.6962 22.4799 15.4562 21.7599 17.2962 21.3599C17.6962 21.2799 17.9362 20.9599 17.9362 20.5599V18.1599C17.9362 17.9999 18.0163 17.9199 18.1763 17.9199H22.3362C22.4962 17.9199 22.5763 17.9999 22.5763 18.1599V20.5599C22.5763 20.9599 22.8162 21.2799 23.2162 21.3599C25.0562 21.7599 26.8163 22.4799 28.4163 23.5199C28.7363 23.7599 29.1362 23.6799 29.4563 23.4399L31.1362 21.7599C31.2162 21.6799 31.3763 21.6799 31.4563 21.7599L34.4163 24.7199C34.4963 24.7999 34.4963 24.9599 34.4163 25.0399L32.7362 26.7199C32.4963 26.9599 32.4163 27.4399 32.6562 27.7599C33.6963 29.3599 34.4163 31.1199 34.8162 32.9599C34.8963 33.3599 35.2163 33.5999 35.6163 33.5999H38.0163C38.1763 33.5999 38.2563 33.6799 38.2563 33.8399V37.9999C38.2563 38.1599 38.1763 38.2399 38.0163 38.2399H35.4562V38.1599Z" fill="#127AFF"/>
<path d="M44.1025 8.63947C44.4225 8.63947 44.6625 8.63947 44.9025 8.71947C45.3825 8.79947 45.7825 8.55947 45.8625 8.15947C45.9425 7.91947 45.8625 7.75947 45.7825 7.51947C45.7025 7.35947 45.5425 7.19947 45.3025 7.11947C44.9025 7.03947 44.5025 6.95947 44.0225 6.95947C41.3025 6.95947 39.0625 9.19947 39.0625 11.9195C39.0625 12.3195 39.1425 12.7195 39.2225 13.1995C39.3025 13.5995 39.7825 13.9195 40.1825 13.7595C40.4225 13.6795 40.5825 13.5995 40.6625 13.3595C40.7425 13.1995 40.8225 12.9595 40.7425 12.7195C40.6625 12.4795 40.6625 12.1595 40.6625 11.9195C40.7425 10.1595 42.2625 8.63947 44.1025 8.63947Z" fill="#127AFF"/>
<path d="M42.2597 15.7596C42.1797 15.9996 42.2597 16.1596 42.3397 16.3996C42.4197 16.5596 42.6597 16.7196 42.8197 16.7996C43.2197 16.8796 43.6197 16.9596 44.0997 16.9596C46.8197 16.9596 49.0597 14.7196 49.0597 11.9996C49.0597 11.5996 48.9797 11.1996 48.8997 10.7196C48.8197 10.4796 48.7397 10.3196 48.4997 10.2396C48.3397 10.1596 48.0997 10.0796 47.8597 10.1596C47.4597 10.2396 47.1397 10.7196 47.2997 11.1196C47.3797 11.3596 47.3797 11.6796 47.3797 11.9196C47.3797 13.7596 45.8597 15.2796 44.0197 15.2796C43.6997 15.2796 43.4597 15.2796 43.2197 15.1996C43.1397 15.1996 43.0597 15.1996 42.9797 15.1996C42.8197 15.1996 42.6597 15.1996 42.5797 15.2796C42.4197 15.4396 42.3397 15.5996 42.2597 15.7596Z" fill="#127AFF"/>
<path d="M56.3375 13.0407V10.9607C56.3375 9.92069 55.5375 9.12069 54.4975 9.12069H52.7375V9.04069C52.3375 7.92069 51.7775 6.96069 51.0575 6.08069L50.8975 5.92069L51.7775 4.40069C52.2575 3.52069 52.0175 2.40069 51.1375 1.84069L49.2975 0.880693C48.8975 0.640693 48.3375 0.560693 47.8575 0.720693C47.3775 0.880693 46.9775 1.12069 46.7375 1.60069L45.8575 3.12069H45.7775C44.6575 2.88069 43.5375 2.88069 42.3375 3.12069H42.2575L41.3775 1.60069C41.1375 1.20069 40.7375 0.880693 40.2575 0.720693C39.7775 0.560693 39.2975 0.640693 38.8175 0.880693L36.9775 1.92069C36.5775 2.16069 36.2575 2.56069 36.0975 3.04069C35.9375 3.52069 36.1775 4.00069 36.4175 4.40069L37.2975 5.92069L37.2175 6.00069C36.4975 6.88069 35.8575 7.84069 35.5375 8.96069V9.04069H33.7775C32.7375 9.04069 31.9375 9.84069 31.9375 10.8807V12.9607C31.9375 14.0007 32.7375 14.8007 33.7775 14.8007H35.5375V14.8807C35.9375 16.0007 36.4975 16.9607 37.2175 17.8407L37.2975 17.9207L36.4175 19.4407C36.1775 19.8407 36.0975 20.4007 36.2575 20.8807C36.4175 21.3607 36.6575 21.7607 37.1375 22.0007L38.9775 23.0407C39.2975 23.2007 39.6175 23.2807 39.9375 23.2807C40.5775 23.2807 41.2175 22.9607 41.5375 22.3207L42.4175 20.8007H42.4975C43.6175 21.0407 44.7375 21.0407 45.9375 20.8007H46.0175L46.8975 22.3207C47.3775 23.2007 48.5775 23.5207 49.4575 22.9607L51.2975 21.9207C52.1775 21.4407 52.4975 20.2407 51.9375 19.3607L50.8975 18.0007L50.9775 17.9207C51.6975 17.0407 52.3375 16.0807 52.6575 14.9607V14.8807H54.4175C55.5375 14.8807 56.3375 14.0007 56.3375 13.0407ZM52.0975 13.2007C51.6975 13.2007 51.3775 13.4407 51.2975 13.8407C50.9775 15.2007 50.2575 16.4007 49.2975 17.2807C49.0575 17.5207 48.9775 17.9207 49.1375 18.2407L50.3375 20.2407C50.3375 20.3207 50.3375 20.3207 50.3375 20.4007C50.3375 20.4807 50.2575 20.4807 50.2575 20.5607L48.4975 21.6807C48.4175 21.7607 48.2575 21.6807 48.1775 21.6007L46.9775 19.6007C46.8175 19.2807 46.4175 19.1207 46.0175 19.2007C44.6575 19.6007 43.3775 19.6007 42.0175 19.2007C41.6975 19.1207 41.2975 19.2807 41.0575 19.6007L40.0175 21.6007C40.0175 21.6807 39.9375 21.6807 39.8575 21.6807C39.8575 21.6807 39.8575 21.6807 39.7775 21.6807H39.6975L37.9375 20.6407C37.8575 20.5607 37.7775 20.4807 37.8575 20.3207L39.0575 18.3207C39.2175 18.0007 39.2175 17.6007 38.8975 17.3607C37.9375 16.4007 37.2175 15.2007 36.8975 13.9207C36.8175 13.6007 36.4975 13.2807 36.0975 13.2807H33.7775C33.6175 13.2807 33.5375 13.2007 33.5375 13.0407V10.9607C33.5375 10.8007 33.6175 10.7207 33.7775 10.7207H36.0975C36.4975 10.7207 36.8175 10.4807 36.8975 10.0807C37.2175 8.72069 37.9375 7.52069 38.8975 6.64069C39.1375 6.40069 39.1375 5.92069 38.9775 5.60069L37.7775 3.60069C37.7775 3.52069 37.7775 3.52069 37.7775 3.44069C37.7775 3.36069 37.8575 3.36069 37.8575 3.28069L39.6975 2.24069C39.7775 2.24069 39.8575 2.24069 39.8575 2.24069C39.9375 2.24069 39.9375 2.32069 40.0175 2.32069L41.2175 4.32069C41.3775 4.64069 41.7775 4.80069 42.1775 4.72069C43.5375 4.32069 44.8175 4.32069 46.1775 4.72069C46.4975 4.80069 46.8975 4.64069 47.1375 4.32069L48.3375 2.32069C48.3375 2.24069 48.4175 2.24069 48.4975 2.24069C48.4975 2.24069 48.5775 2.24069 48.6575 2.24069L50.4975 3.28069C50.5775 3.28069 50.5775 3.36069 50.5775 3.44069C50.5775 3.52069 50.5775 3.52069 50.5775 3.60069L49.2175 5.60069C49.0575 5.92069 49.0575 6.32069 49.3775 6.56069C50.3375 7.52069 51.0575 8.72069 51.3775 10.0007C51.4575 10.3207 51.7775 10.6407 52.1775 10.6407H54.4975C54.6575 10.6407 54.7375 10.7207 54.7375 10.8807V12.9607C54.7375 13.1207 54.6575 13.2007 54.4975 13.2007H52.0975Z" fill="#127AFF"/>
<path d="M56.3378 32.7997C56.3378 32.3197 55.9378 31.9997 55.5378 31.9997H54.1778V31.8397C54.0178 31.1997 53.7778 30.5597 53.3778 29.9997L53.2978 29.8397L54.2578 28.8797C54.4178 28.7197 54.4978 28.5597 54.4978 28.3197C54.4978 28.0797 54.4178 27.9197 54.2578 27.7597C53.9378 27.4397 53.4578 27.4397 53.1378 27.7597L52.1778 28.7197L52.0978 28.6397C51.5378 28.2397 50.8978 27.9997 50.2578 27.8397H50.0978V26.4797C50.0978 25.9997 49.6978 25.6797 49.2978 25.6797C48.8978 25.6797 48.4978 26.0797 48.4978 26.4797V27.8397H48.3378C47.6978 27.9997 47.0578 28.2397 46.4978 28.6397L46.4178 28.7197L45.4578 27.7597C45.1378 27.4397 44.6578 27.4397 44.3378 27.7597C44.1778 27.9197 44.0978 28.0797 44.0978 28.3197C44.0978 28.5597 44.1778 28.7197 44.3378 28.8797L45.2978 29.8397L45.2178 29.9197C44.8178 30.4797 44.5778 31.1197 44.4178 31.7597V31.9197H43.0578C42.5778 31.9197 42.2578 32.3197 42.2578 32.7197C42.2578 33.1197 42.6578 33.5197 43.0578 33.5197H44.4178V33.6797C44.5778 34.3197 44.8178 34.9597 45.2178 35.5197L45.2978 35.5997L44.3378 36.5597C44.0178 36.8797 44.0178 37.3597 44.3378 37.6797C44.6578 37.9997 45.2178 37.9997 45.4578 37.6797L46.4178 36.7197L46.4978 36.7997C47.0578 37.1997 47.6978 37.4397 48.3378 37.5997H48.4978V38.9597C48.4978 39.4397 48.8978 39.7597 49.2978 39.7597C49.6978 39.7597 50.0978 39.3597 50.0978 38.9597V37.5997H50.2578C50.8978 37.4397 51.5378 37.1997 52.0978 36.7997L52.1778 36.7197L53.1378 37.6797C53.4578 37.9997 54.0178 37.9997 54.2578 37.6797C54.5778 37.3597 54.5778 36.8797 54.2578 36.5597L53.2978 35.6797L53.3778 35.5997C53.7778 35.0397 54.0178 34.3997 54.1778 33.7597V33.5997H55.5378C55.9378 33.5997 56.3378 33.1997 56.3378 32.7997ZM49.2978 36.0797C47.4578 36.0797 45.9378 34.5597 45.9378 32.7197C45.9378 30.8797 47.4578 29.3597 49.2978 29.3597C51.1378 29.3597 52.6578 30.8797 52.6578 32.7197C52.6578 34.6397 51.1378 36.0797 49.2978 36.0797Z" fill="#127AFF"/>
<path d="M49.3 33.6C49.7418 33.6 50.1 33.2418 50.1 32.8C50.1 32.3582 49.7418 32 49.3 32C48.8582 32 48.5 32.3582 48.5 32.8C48.5 33.2418 48.8582 33.6 49.3 33.6Z" fill="#127AFF"/>
</g>
<defs>
<clipPath id="clip0_5684_33242">
<rect width="56" height="56" fill="white" transform="translate(0.5)"/>
</clipPath>
</defs>
</svg>
