<svg width="57" height="56" viewBox="0 0 57 56" fill="none" xmlns="http://www.w3.org/2000/svg">
<g clip-path="url(#clip0_5684_33262)">
<path d="M52.5022 55.6807C52.9022 55.8407 53.3822 55.6007 53.5422 55.1207L55.0622 50.2407C55.8622 47.7607 56.2622 45.1207 56.2622 42.4807V33.3607C56.2622 31.4407 54.7422 29.9207 52.8222 29.9207C52.2622 29.9207 51.7022 30.0807 51.2222 30.3207L50.9022 30.5607L50.8222 30.2407C50.3422 28.9607 49.0622 28.0807 47.6222 28.0807C46.7422 28.0807 45.8622 28.4007 45.2222 29.0407L45.0622 29.2007L44.9022 29.0407C43.9422 28.0807 42.3422 27.7607 41.0622 28.3207L40.6622 28.4807V24.5607H40.9822H41.0622H50.1022C51.7822 24.5607 53.2222 23.2007 53.2222 21.4407V16.7207C53.2222 16.2407 52.8222 15.9207 52.4222 15.9207C52.0222 15.9207 51.6222 16.3207 51.6222 16.7207V21.4407C51.6222 22.2407 50.9822 22.9607 50.1022 22.9607H40.9822H40.9022H40.5822V20.3207C40.5822 18.4007 39.0622 16.8807 37.1422 16.8807C35.2222 16.8807 33.7022 18.4007 33.7022 20.3207V22.9607H31.8622C31.0622 22.9607 30.3422 22.3207 30.3422 21.4407V3.36072C30.3422 2.56072 30.9822 1.84072 31.8622 1.84072H50.0222C50.8222 1.84072 51.5422 2.48072 51.5422 3.36072V8.08072C51.5422 8.56072 51.9422 8.88072 52.3422 8.88072C52.7422 8.88072 53.1422 8.48072 53.1422 8.08072V3.36072C53.1422 1.68072 51.7822 0.240723 50.0222 0.240723H31.8622C30.1822 0.240723 28.7422 1.60072 28.7422 3.36072V21.5207C28.7422 23.2007 30.1022 24.6407 31.8622 24.6407H33.7022V34.3207L29.8622 39.9207C28.6622 41.6807 28.5022 44.0007 29.3822 45.9207L33.7822 55.2807C33.9422 55.6807 34.5022 55.8407 34.9022 55.6807C35.0622 55.6007 35.2222 55.4407 35.3022 55.2007C35.3822 54.9607 35.3822 54.8007 35.3022 54.5607L30.9022 45.2007C30.2622 43.7607 30.3422 42.0807 31.2222 40.8007L33.7022 37.2007V40.1607C33.7022 40.6407 34.1022 40.9607 34.5022 40.9607C34.9022 40.9607 35.3022 40.5607 35.3022 40.1607V20.4007C35.3022 19.4407 36.1022 18.6407 37.0622 18.6407C38.0222 18.6407 38.8222 19.4407 38.8222 20.4007V36.5607C38.8222 37.0407 39.2222 37.3607 39.6222 37.3607C40.0222 37.3607 40.4222 36.9607 40.4222 36.5607V31.4407C40.4222 30.4807 41.2222 29.6807 42.1822 29.6807C43.1422 29.6807 43.9422 30.4807 43.9422 31.4407V36.5607C43.9422 37.0407 44.3422 37.3607 44.7422 37.3607C45.1422 37.3607 45.5422 36.9607 45.5422 36.5607V31.4407C45.5422 30.4807 46.3422 29.6807 47.3022 29.6807C48.2622 29.6807 49.0622 30.4807 49.0622 31.4407V36.5607C49.0622 37.0407 49.4622 37.3607 49.8622 37.3607C50.2622 37.3607 50.6622 36.9607 50.6622 36.5607V33.3607C50.6622 32.4007 51.4622 31.6007 52.4222 31.6007C53.3822 31.6007 54.1822 32.4007 54.1822 33.3607V42.4807C54.1822 44.9607 53.7822 47.3607 53.0622 49.7607L51.5422 54.6407C51.7822 55.1207 52.0222 55.5207 52.5022 55.6807Z" fill="#127AFF"/>
<path d="M17.3822 24.6407H22.1022C23.7822 24.6407 25.2222 23.2807 25.2222 21.5207V3.36072C25.2222 1.68072 23.8622 0.240723 22.1022 0.240723H3.86219C2.18219 0.240723 0.742188 1.60072 0.742188 3.36072V21.5207C0.742188 23.2007 2.10219 24.6407 3.86219 24.6407H8.58219C9.06219 24.6407 9.38219 24.2407 9.38219 23.8407C9.38219 23.4407 8.98219 23.0407 8.58219 23.0407H3.86219C3.06219 23.0407 2.34219 22.4007 2.34219 21.5207V3.36072C2.34219 2.56072 2.98219 1.84072 3.86219 1.84072H22.0222C22.8222 1.84072 23.5422 2.48072 23.5422 3.36072V21.5207C23.5422 22.3207 22.9022 23.0407 22.0222 23.0407H17.3022C16.8222 23.0407 16.5022 23.4407 16.5022 23.8407C16.5022 24.2407 16.9022 24.6407 17.3822 24.6407Z" fill="#127AFF"/>
<path d="M17.3837 15.7606L14.1037 12.4806L17.3837 9.20058C17.5438 9.04058 17.6237 8.88058 17.6237 8.64058C17.6237 8.40058 17.5438 8.24058 17.3837 8.08058C17.0638 7.76058 16.5838 7.76058 16.2638 8.08058L12.9838 11.3606L9.70375 8.08058C9.38375 7.76058 8.90375 7.76058 8.58375 8.08058C8.26375 8.40058 8.26375 8.88058 8.58375 9.20058L11.8637 12.4806L8.58375 15.7606C8.26375 16.0806 8.26375 16.5606 8.58375 16.8806C8.90375 17.2006 9.46375 17.2006 9.70375 16.8806L12.9838 13.6006L16.2638 16.8806C16.5838 17.2006 17.1438 17.2006 17.3837 16.8806C17.5438 16.7206 17.6237 16.5606 17.6237 16.3206C17.6237 16.0806 17.5438 15.9206 17.3837 15.7606Z" fill="#127AFF"/>
<path d="M47.14 7.36036C46.82 7.04036 46.34 7.04036 46.02 7.36036L40.34 13.0404L37.86 10.5604C37.7 10.4004 37.46 10.3204 37.3 10.3204C37.14 10.3204 36.9 10.4004 36.74 10.5604C36.58 10.7204 36.5 10.8804 36.5 11.1204C36.5 11.3604 36.58 11.5204 36.74 11.6804L39.78 14.7204C40.1 15.0404 40.66 15.0404 40.9 14.7204L47.14 8.48036C47.46 8.16036 47.46 7.68036 47.14 7.36036Z" fill="#127AFF"/>
<path d="M12.4197 24.4005C12.7397 24.7205 13.2997 24.7205 13.5397 24.4005C13.6997 24.2405 13.7797 24.0005 13.7797 23.8405C13.7797 23.6805 13.6997 23.4405 13.5397 23.2805C13.3797 23.1205 13.1397 23.0405 12.9797 23.0405C12.8197 23.0405 12.5797 23.1205 12.4197 23.2805C12.2597 23.4405 12.1797 23.6805 12.1797 23.8405C12.1797 24.0805 12.2597 24.2405 12.4197 24.4005Z" fill="#127AFF"/>
<path d="M52.8991 11.9197C52.7391 11.7597 52.4991 11.6797 52.3391 11.6797C52.1791 11.6797 51.9391 11.7597 51.7791 11.9197C51.6191 12.0797 51.5391 12.3197 51.5391 12.4797C51.5391 12.6397 51.6191 12.8797 51.7791 13.0397C52.0991 13.3597 52.6591 13.3597 52.8991 13.0397C53.0591 12.8797 53.1391 12.6397 53.1391 12.4797C53.1391 12.3197 53.0591 12.0797 52.8991 11.9197Z" fill="#127AFF"/>
</g>
<defs>
<clipPath id="clip0_5684_33262">
<rect width="56" height="56" fill="white" transform="translate(0.5)"/>
</clipPath>
</defs>
</svg>
