<svg width="56" height="56" viewBox="0 0 56 56" fill="none" xmlns="http://www.w3.org/2000/svg">
<path d="M53.8945 44.3836H52.9864V26.9025L53.2891 27.2809C53.4405 27.5079 53.6675 27.5836 53.8945 27.5836C54.0459 27.5836 54.2729 27.5079 54.4243 27.4323C54.727 27.1296 54.8026 26.6755 54.4999 26.2971L41.5594 10.4052C41.408 10.2539 41.181 10.1025 40.954 10.1025C40.727 10.1025 40.4999 10.1782 40.3486 10.4052L36.2621 15.3998V12.5242H36.3378C36.7918 12.5242 37.0945 12.1458 37.0945 11.7674C37.0945 11.3133 36.7162 11.0106 36.3378 11.0106H31.3432C30.8891 11.0106 30.5864 11.389 30.5864 11.7674C30.5864 12.2215 30.9648 12.5242 31.3432 12.5242H31.4189V16.0052H12.1216C11.8945 16.0052 11.7432 16.0809 11.5918 16.2323L1.52697 26.2215C1.29994 26.4485 1.22427 26.7512 1.37562 27.0539C1.52697 27.3566 1.754 27.5079 2.13237 27.5079H2.96481V40.1458C2.96481 40.5998 3.34318 40.9025 3.72156 40.9025C4.17562 40.9025 4.47832 40.5242 4.47832 40.1458V27.5836H27.9378C28.1648 27.5836 28.3918 27.5079 28.5432 27.2809L40.8783 12.1458L51.3972 25.0106V44.3836H39.6675V30.989C39.6675 30.535 39.2891 30.2323 38.9108 30.2323H33.9162C33.4621 30.2323 33.1594 30.6106 33.1594 30.989V44.3836H30.5108V30.1566C30.5108 29.7025 30.1324 29.3998 29.754 29.3998C29.2999 29.3998 28.9972 29.7782 28.9972 30.1566V39.2377C27.9378 37.9512 26.4243 37.1188 24.6837 36.8917V30.9133C24.6837 30.4593 24.3053 30.1566 23.927 30.1566H18.9324C18.4783 30.1566 18.1756 30.535 18.1756 30.9133V38.4809C18.1756 38.4809 18.1756 38.4809 18.0999 38.4809C17.1918 38.4809 16.2837 38.7079 15.527 39.0863V30.989C15.527 30.535 15.1486 30.2323 14.7702 30.2323H9.77562C9.32156 30.2323 9.01886 30.6106 9.01886 30.989V39.3134C9.01886 39.7674 9.39724 40.0701 9.77562 40.0701H14.1648C13.0297 41.1296 12.3486 42.6431 12.3486 44.3079C12.3486 44.3079 12.3486 44.3079 12.3486 44.3836H4.554V43.4755C4.554 43.0215 4.17562 42.7188 3.79724 42.7188C3.34318 42.7188 3.04048 43.0971 3.04048 43.4755V44.3836H2.13237C1.67832 44.3836 1.37562 44.762 1.37562 45.1404C1.37562 45.5944 1.754 45.8971 2.13237 45.8971H53.8945C54.3486 45.8971 54.6513 45.5188 54.6513 45.1404C54.6513 44.762 54.3486 44.3836 53.8945 44.3836ZM34.7486 12.5242V17.2917L33.008 19.4863V12.5242H34.7486ZM10.381 20.8485H13.8621V22.589H10.381V20.8485ZM27.6351 25.9944H4.02427L8.86751 21.1512V23.4215C8.86751 23.8755 9.24589 24.1782 9.62427 24.1782H14.6189C15.0729 24.1782 15.3756 23.7998 15.3756 23.4215V20.0917C15.3756 19.6377 14.9972 19.335 14.6189 19.335H10.6837L12.4243 17.5944H31.3432V21.4539L27.6351 25.9944ZM13.8621 31.7458V33.4863H10.381V31.7458H13.8621ZM10.381 38.5566V35.0755H13.8621V38.5566H10.381ZM38.0783 31.7458V38.5566H34.5972V31.7458H38.0783ZM19.6135 38.4052V35.0755H23.0945V36.8917C21.808 37.0431 20.5972 37.5728 19.6135 38.4052ZM23.0189 31.7458V33.4863H19.6135V31.7458H23.0189ZM13.7108 44.3079C13.7108 41.962 15.6026 40.0701 17.9486 40.0701C18.4026 40.0701 18.8567 40.1458 19.2351 40.2971C19.5378 40.3728 19.8405 40.2971 20.0675 40.0701C21.0513 39.0106 22.4135 38.4052 23.7756 38.4052C26.5756 38.4052 28.8459 40.6755 28.8459 43.4755V44.3836L13.7108 44.3079C13.7108 44.3836 13.7108 44.3079 13.7108 44.3079ZM34.5972 44.3836V40.0701H38.0783V44.3836H34.5972Z" fill="#127AFF"/>
<path d="M23.8529 19.335H18.8583C18.4043 19.335 18.1016 19.7133 18.1016 20.0917V23.4214C18.1016 23.8755 18.4799 24.1782 18.8583 24.1782H23.8529C24.307 24.1782 24.6097 23.7998 24.6097 23.4214V20.0917C24.6097 19.6377 24.2313 19.335 23.8529 19.335ZM23.0205 22.6647H19.6151V20.9242H23.0962V22.6647H23.0205Z" fill="#127AFF"/>
<path d="M43.9041 19.335H38.0771C37.623 19.335 37.3203 19.7133 37.3203 20.0917V23.4214C37.3203 23.8755 37.6987 24.1782 38.0771 24.1782H43.9041C44.3581 24.1782 44.6609 23.7998 44.6609 23.4214V20.0917C44.6609 19.6377 44.2825 19.335 43.9041 19.335ZM43.0717 22.6647H38.7581V20.9242H43.0717V22.6647Z" fill="#127AFF"/>
<path d="M42.2422 30.9891V39.3134C42.2422 39.7675 42.6206 40.0702 42.9989 40.0702H47.9935C48.4476 40.0702 48.7503 39.6918 48.7503 39.3134V30.9891C48.7503 30.535 48.3719 30.2323 47.9935 30.2323H43.0746C42.6206 30.1567 42.2422 30.535 42.2422 30.9891ZM43.8314 38.5567V35.0756H47.3125V38.5567H43.8314ZM47.2368 31.7459V33.4864H43.8314V31.7459H47.2368Z" fill="#127AFF"/>
</svg>
