<svg width="56" height="56" viewBox="0 0 56 56" fill="none" xmlns="http://www.w3.org/2000/svg">
<path d="M48.4775 52.7202V6.56023C48.4775 4.88023 47.1175 3.52023 45.4375 3.52023H38.5575L38.4775 3.28023C37.9975 1.44023 36.3975 0.240234 34.4775 0.240234H21.4375C19.5975 0.240234 17.9175 1.52023 17.4375 3.28023L17.3575 3.52023H10.4775C8.7975 3.52023 7.4375 4.88023 7.4375 6.56023V52.7202C7.4375 54.4002 8.7975 55.7602 10.4775 55.7602H45.5175C47.1175 55.7602 48.4775 54.4002 48.4775 52.7202ZM18.9575 4.40023C18.9575 3.04023 20.0775 1.92023 21.4375 1.92023H34.5575C35.9175 1.92023 37.0375 3.04023 37.0375 4.40023V6.88023H18.9575V4.40023ZM9.1175 52.7202V6.56023C9.1175 5.84023 9.7575 5.20023 10.4775 5.20023H17.3575V7.68023C17.3575 8.16023 17.7575 8.48024 18.1575 8.48024H37.8375C38.3175 8.48024 38.6375 8.08023 38.6375 7.68023V5.20023H45.5175C46.2375 5.20023 46.8775 5.84023 46.8775 6.56023V52.7202C46.8775 53.4402 46.2375 54.0802 45.5175 54.0802H10.4775C9.7575 54.0802 9.1175 53.4402 9.1175 52.7202Z" fill="#127AFF"/>
<path d="M41.1181 40.6401H14.8781C14.3981 40.6401 14.0781 41.0401 14.0781 41.4401C14.0781 41.8401 14.4781 42.2401 14.8781 42.2401H41.1181C41.5981 42.2401 41.9181 41.8401 41.9181 41.4401C41.9181 41.0401 41.5181 40.6401 41.1181 40.6401Z" fill="#127AFF"/>
<path d="M41.1181 47.2002H14.8781C14.3981 47.2002 14.0781 47.6002 14.0781 48.0002C14.0781 48.4002 14.4781 48.8002 14.8781 48.8002H41.1181C41.5981 48.8002 41.9181 48.4002 41.9181 48.0002C41.9181 47.6002 41.5181 47.2002 41.1181 47.2002Z" fill="#127AFF"/>
<path d="M27.9994 14.0796C22.1594 14.0796 17.3594 18.8796 17.3594 24.7196C17.3594 30.5596 22.1594 35.3596 27.9994 35.3596C33.8394 35.3596 38.6394 30.5596 38.6394 24.7196C38.6394 18.8796 33.8394 14.0796 27.9994 14.0796ZM36.9594 25.8396C36.3994 30.3196 32.5594 33.7596 27.9994 33.7596C23.0394 33.7596 18.9594 29.6796 18.9594 24.7196C18.9594 20.1596 22.3194 16.3196 26.8794 15.7596H27.1994V24.7196C27.1994 24.9596 27.2794 25.1196 27.4394 25.2796C27.5994 25.4396 27.7594 25.5196 27.9994 25.5196H36.9594V25.8396ZM36.9594 23.9196H28.7994V15.7596H29.1194C33.1994 16.2396 36.3994 19.5196 36.9594 23.5996V23.9196Z" fill="#127AFF"/>
</svg>
