<svg width="56" height="56" viewBox="0 0 56 56" fill="none" xmlns="http://www.w3.org/2000/svg">
<path d="M34.9631 53.04V50.56C38.2431 49.52 41.3631 47.76 44.0831 45.28L46.2431 46.48C47.3631 47.12 48.6431 46.88 49.4431 45.92C50.4831 44.72 51.4431 43.44 52.2431 42C53.0431 40.64 53.7631 39.12 54.3231 37.6C54.6431 36.4 54.1631 35.12 53.1231 34.56L50.9631 33.36C51.3631 31.84 51.5231 30 51.5231 28.08C51.5231 26.16 51.3631 24.48 50.9631 22.8L53.1231 21.6C54.2431 20.96 54.7231 19.68 54.2431 18.56C53.7631 17.2 53.1231 15.84 52.1631 14.16C51.3631 12.8 50.4031 11.44 49.3631 10.24C48.5631 9.28 47.2031 9.04 46.1631 9.68L44.0031 10.8C41.3631 8.4 38.1631 6.56 34.8831 5.52V2.96C34.8831 1.68 34.0031 0.64 32.7231 0.4C31.0431 0.16 29.4431 0 28.0031 0C26.5631 0 24.9631 0.16 23.2031 0.4C21.9231 0.64 21.0431 1.68 21.0431 2.96V5.44C17.7631 6.48 14.6431 8.24 11.9231 10.72L9.76313 9.52C8.64313 8.88 7.36312 9.12 6.56313 10.08C5.52313 11.2 4.56312 12.56 3.76312 14C2.96312 15.36 2.24312 16.88 1.68312 18.4C1.28312 19.6 1.68313 20.88 2.80313 21.44L4.96312 22.64C4.56312 24.16 4.40313 26 4.40313 27.92C4.40313 29.84 4.56312 31.52 4.96312 33.2L2.80313 34.4C1.60313 35.12 1.20312 36.4 1.60313 37.6C2.08313 38.96 2.72312 40.32 3.68313 42C4.48312 43.44 5.44313 44.72 6.48313 45.92C7.28313 46.88 8.64313 47.12 9.68313 46.48L11.8431 45.28C14.4831 47.68 17.6831 49.52 20.9631 50.56V53.04C20.9631 54.32 21.8431 55.36 23.1231 55.6C24.8831 55.84 26.4831 56 27.9231 56C29.3631 56 30.9631 55.84 32.7231 55.6C34.0831 55.36 34.9631 54.32 34.9631 53.04ZM33.4431 50V53.12C33.4431 53.6 33.1231 54 32.6431 54.08C30.9631 54.32 29.4431 54.48 28.0831 54.48C26.7231 54.48 25.2031 54.32 23.5231 54.08C23.0431 54 22.7231 53.6 22.7231 53.12V50C22.7231 49.6 22.4831 49.28 22.1631 49.2C18.6431 48.24 15.3631 46.4 12.7231 43.76C12.5631 43.6 12.3231 43.52 12.1631 43.52C12.0031 43.52 11.8431 43.52 11.7631 43.6L9.12312 45.12C8.72312 45.36 8.16313 45.28 7.84313 44.88C6.72313 43.44 5.92313 42.32 5.20312 41.12C4.56313 40 4.00312 38.72 3.28312 37.04C3.20312 36.8 3.20312 36.56 3.28312 36.32C3.36312 36.16 3.52312 36 3.68313 35.92L6.32313 34.4C6.64313 34.24 6.80312 33.92 6.72312 33.6C6.24312 31.84 6.00313 30 6.00313 28.16C6.00313 26.32 6.24312 24.48 6.72312 22.72C6.80312 22.4 6.64313 22 6.32313 21.92L3.68313 20.4C3.28312 20.16 3.12312 19.68 3.28312 19.2C3.84312 17.76 4.48312 16.4 5.20312 15.12C6.00313 13.76 6.88313 12.48 7.84313 11.36C8.16313 11.04 8.64312 10.88 9.12312 11.12L11.7631 12.64C12.0031 12.8 12.4031 12.8 12.6431 12.48C15.3631 9.84 18.6431 8 22.0831 7.04C22.4031 6.96 22.6431 6.64 22.6431 6.24V3.04C22.6431 2.56 22.9631 2.16 23.4431 2.08C25.1231 1.68 26.6431 1.6 28.0031 1.6C29.3631 1.6 30.8831 1.76 32.5631 2C33.0431 2.08 33.3631 2.48 33.3631 2.96V6.08C33.3631 6.48 33.6031 6.8 33.9231 6.88C37.4431 7.84 40.7231 9.68 43.3631 12.32C43.6031 12.56 44.0031 12.64 44.2431 12.48L46.8831 10.96C47.2831 10.72 47.8431 10.8 48.1631 11.2C49.2831 12.56 50.0831 13.76 50.8031 14.96C51.4431 16.08 52.0031 17.36 52.7231 19.04C52.8831 19.44 52.7231 20 52.3231 20.24L49.6831 21.6C49.3631 21.76 49.2031 22.08 49.2831 22.4C49.7631 24.16 50.0031 26 50.0031 27.84C50.0031 29.68 49.7631 31.52 49.2831 33.28C49.2031 33.6 49.3631 34 49.6831 34.08L52.3231 35.6C52.7231 36 52.8831 36.48 52.7231 36.96C52.1631 38.4 51.5231 39.76 50.8031 41.04C50.0031 42.4 49.1231 43.68 48.1631 44.8C47.8431 45.12 47.3631 45.28 46.8831 45.04L44.2431 43.52C44.0031 43.36 43.6031 43.36 43.3631 43.68C40.6431 46.32 37.3631 48.16 33.9231 49.12C33.6031 49.28 33.4431 49.6 33.4431 50Z" fill="#127AFF"/>
<path d="M37.3581 16.3195C37.5181 16.4795 37.6781 16.5595 37.9181 16.4795C38.1581 16.4795 38.3181 16.3195 38.3981 16.1595C38.5581 15.9995 38.6381 15.8395 38.5581 15.5995C38.5581 15.3595 38.3981 15.1995 38.2381 15.1195C35.1981 12.7195 31.5181 11.5195 27.8381 11.5195C23.5981 11.5195 19.3581 13.1195 16.1581 16.3195C10.1581 22.3195 9.67813 31.7595 14.9581 38.3195C15.1181 38.5595 15.2781 38.6395 15.5981 38.6395C15.7581 38.6395 15.9981 38.5595 16.0781 38.4795C16.3981 38.1595 16.4781 37.6795 16.2381 37.4395C11.4381 31.5195 11.9181 22.8795 17.3581 17.4395C22.7981 11.9995 31.3581 11.5195 37.3581 16.3195Z" fill="#127AFF"/>
<path d="M40.9595 17.6799C40.6395 17.3599 40.1595 17.2799 39.9195 17.5199C39.5995 17.8399 39.5195 18.3199 39.7595 18.5599C44.5595 24.4799 44.0795 33.1199 38.6395 38.5599C38.0795 39.1199 37.4395 39.6799 36.7995 40.1599L36.7195 40.2399V31.7599C36.7195 30.7199 36.1595 29.8399 35.1995 29.4399L31.0395 27.5999V25.7599C31.8395 24.9599 32.3195 23.8399 32.3195 22.6399V20.8799C32.3195 18.9599 30.7995 17.4399 28.8795 17.4399H27.1195C25.1995 17.4399 23.6795 18.9599 23.6795 20.8799V22.6399C23.6795 23.7599 24.1595 24.9599 24.9595 25.7599V27.5999L20.7995 29.4399C19.9195 29.8399 19.2795 30.7199 19.2795 31.7599V40.2399L19.1995 40.1599C19.0395 40.0799 18.9595 39.9999 18.8795 39.9199C18.7995 39.8399 18.7195 39.7599 18.5595 39.6799C18.3995 39.5199 18.2395 39.5199 18.0795 39.5199H17.9995C17.7595 39.5199 17.5995 39.6799 17.5195 39.8399C17.3595 39.9999 17.2795 40.1599 17.3595 40.3999C17.3595 40.6399 17.5195 40.7999 17.6795 40.8799C20.5595 43.2799 24.2395 44.5599 27.9995 44.5599C32.3195 44.5599 36.4795 42.7999 39.7595 39.6799C45.6795 33.7599 46.2395 24.3199 40.9595 17.6799ZM25.5195 20.3199C25.7595 19.5999 26.3995 19.1999 27.1195 19.1999H28.8795C29.8395 19.1999 30.6395 19.9999 30.7995 20.9599V21.0399H30.7195L25.5195 20.3199ZM25.1995 21.9199H25.3595L30.7195 22.5599V22.7199C30.7195 24.2399 29.5195 25.4399 27.9995 25.4399C26.4795 25.4399 25.2795 24.2399 25.2795 22.7199V21.9199H25.1995ZM29.9195 28.7999L27.9995 30.4799L26.0795 28.8799C26.3995 28.5599 26.6395 28.1599 26.6395 27.5999V26.7999H26.7195C27.1195 26.9599 27.5995 27.0399 28.0795 27.0399C28.5595 27.0399 29.0395 26.9599 29.4395 26.7999H29.5195V27.5999C29.4395 27.9199 29.5995 28.3999 29.9195 28.7999ZM35.1995 41.1999C34.9595 41.2799 34.7995 41.3599 34.6395 41.4399C34.1595 41.6799 33.7595 41.9199 33.2795 42.0799H33.1995V34.0799C33.1995 33.5999 32.7995 33.2799 32.3995 33.2799C31.9195 33.2799 31.5995 33.6799 31.5995 34.0799V42.4799C30.3995 42.7999 29.1995 42.8799 27.9995 42.8799C26.7995 42.8799 25.5995 42.7199 24.3995 42.4799V34.1599C24.3995 33.6799 23.9995 33.3599 23.5995 33.3599C23.1195 33.3599 22.7995 33.7599 22.7995 34.1599V42.1599H22.7195C22.0795 41.9199 21.4395 41.6799 20.8795 41.2799V31.7599C20.8795 31.3599 21.1195 31.0399 21.4395 30.8799L24.3995 29.5999L27.1195 31.9199V34.1599C27.1195 34.6399 27.5195 34.9599 27.9195 34.9599C28.3995 34.9599 28.6395 34.5599 28.6395 34.1599V31.9199L31.3595 29.5999L34.3195 30.8799C34.7195 31.0399 34.8795 31.4399 34.8795 31.7599V41.1999H35.1995Z" fill="#127AFF"/>
</svg>
