<svg width="56" height="56" viewBox="0 0 56 56" fill="none" xmlns="http://www.w3.org/2000/svg">
<g clip-path="url(#clip0_5684_32879)">
<path d="M55.6787 14.3997V4.55975C55.6787 2.15975 53.7587 0.239746 51.3587 0.239746H17.5188C17.0387 0.239746 16.7188 0.639746 16.7188 1.03975C16.7188 1.43975 17.1188 1.83975 17.5188 1.83975H47.9987L47.7588 2.23975C47.3588 2.87975 47.1187 3.67975 47.1187 4.47975V18.7997C47.1187 19.2797 47.5188 19.5997 47.9188 19.5997C48.3188 19.5997 48.7188 19.1997 48.7188 18.7997V15.1197H54.8787C55.3587 15.2797 55.6787 14.8797 55.6787 14.3997ZM54.0787 13.5197V13.5997H48.7188V4.55975C48.7188 3.03975 49.9188 1.83975 51.4388 1.83975C52.9588 1.83975 54.1587 3.03975 54.1587 4.55975V13.5197H54.0787Z" fill="white"/>
<path d="M54.6409 44.8L47.3609 37.52L47.4409 37.36C48.2409 35.68 48.7209 33.84 48.7209 31.92C48.7209 25.04 43.1209 19.52 36.3209 19.52C29.5209 19.52 23.9209 25.12 23.9209 31.92C23.9209 33.44 24.1609 34.96 24.7209 36.32L24.8009 36.48L23.2009 38.08L23.0409 37.92L17.7609 32.64C17.4409 32.32 16.8809 32.32 16.6409 32.64L14.9609 34.32V23.68C14.9609 23.2 14.5609 22.88 14.1609 22.88C13.7609 22.88 13.3609 23.28 13.3609 23.68V36L3.20094 45.92C3.04094 46.08 2.96094 46.24 2.96094 46.48C2.96094 46.72 3.04094 46.88 3.20094 47.04C3.52094 47.36 4.08094 47.36 4.32094 47.04L13.1209 38.24V47.04H8.00094C7.52094 47.04 7.20094 47.44 7.20094 47.84V51.36C7.20094 53.76 9.12094 55.68 11.5209 55.68H44.3209C46.7209 55.68 48.6409 53.76 48.6409 51.36V49.76L49.1209 50.24C49.8409 50.96 50.8009 51.28 51.7609 51.28C52.8009 51.28 53.7609 50.88 54.4809 50.16C56.0809 48.72 56.0809 46.24 54.6409 44.8ZM36.2409 21.12C42.1609 21.12 47.0409 25.92 47.0409 31.92C47.0409 37.92 42.2409 42.72 36.2409 42.72C32.3209 42.72 28.6409 40.56 26.8009 37.12L26.7209 36.8L33.6809 29.84V32.96C33.6809 33.44 34.0809 33.76 34.4809 33.76C34.9609 33.76 35.2809 33.36 35.2809 32.96V27.68C35.2809 27.2 34.8809 26.88 34.4809 26.88H29.2009C28.7209 26.88 28.4009 27.28 28.4009 27.68C28.4009 28.16 28.8009 28.48 29.2009 28.48H32.6409L26.0009 35.2L25.8409 34.72C25.6009 33.76 25.4409 32.8 25.4409 31.84C25.5209 25.92 30.3209 21.12 36.2409 21.12ZM11.2809 54.08C9.92094 53.92 8.88094 52.8 8.88094 51.44V48.72H40.0809V50.32V50.4V50.48V51.36C40.0809 52.16 40.3209 52.96 40.7209 53.6L40.9609 54L11.2809 54.08ZM47.1209 51.44C47.1209 52.96 45.9209 54.16 44.4009 54.16C42.8809 54.16 41.6809 52.96 41.6809 51.44V50.56V50.48V50.4V48C41.6809 47.52 41.2809 47.2 40.8809 47.2H14.8009V36.64L17.1209 34.32L22.5609 39.76C22.8809 40.08 23.4409 40.08 23.6809 39.76L25.4409 38L25.6009 38.32C27.9209 42.08 31.8409 44.24 36.1609 44.24C38.0809 44.24 39.9209 43.84 41.6009 42.96L41.7609 42.88L41.9209 43.04L47.0409 48.16V51.44H47.1209ZM53.4409 49.04C53.0409 49.44 52.4809 49.68 51.8409 49.68C51.2009 49.68 50.7209 49.44 50.2409 49.04L43.2809 42.08L43.5209 41.92C44.5609 41.2 45.4409 40.24 46.2409 39.2L46.4009 38.96L53.3609 45.92C54.3209 46.8 54.3209 48.16 53.4409 49.04Z" fill="white"/>
<path d="M43.1956 31.04C42.7156 31.04 42.3956 31.44 42.3956 31.84C42.3956 35.2 39.6756 37.92 36.3156 37.92C35.8356 37.92 35.5156 38.32 35.5156 38.72C35.5156 39.2 35.9156 39.52 36.3156 39.52C40.5556 39.52 44.0756 36.08 44.0756 31.76C43.9956 31.44 43.5956 31.04 43.1956 31.04Z" fill="white"/>
<path d="M1.12031 20.7202H28.0003C28.4803 20.7202 28.8003 20.3202 28.8003 19.9202C28.8003 19.4402 28.4003 19.1202 28.0003 19.1202H26.7203V11.5202C26.7203 11.0402 26.3203 10.7202 25.9203 10.7202H20.8803C20.4003 10.7202 20.0803 11.1202 20.0803 11.5202V19.1202H17.7603V6.96016C17.7603 6.48016 17.3603 6.16016 16.9603 6.16016H12.1603C11.6803 6.16016 11.3603 6.56016 11.3603 6.96016V19.0402H9.04031V13.9202C9.04031 13.4402 8.64031 13.1202 8.24031 13.1202H3.44031C2.96031 13.1202 2.64031 13.5202 2.64031 13.9202V19.0402H1.12031C0.640312 19.0402 0.320312 19.4402 0.320312 19.8402C0.320312 20.2402 0.640312 20.7202 1.12031 20.7202ZM21.6803 12.3202H25.0403V19.1202H21.6803V12.3202ZM12.9603 7.84016H16.1603V19.1202H12.9603V7.84016ZM4.24031 14.8002H7.44031V19.0402H4.24031V14.8002Z" fill="white"/>
<path d="M36.8816 6.16016H28.4016C27.9216 6.16016 27.6016 6.56016 27.6016 6.96016C27.6016 7.36016 28.0016 7.76016 28.4016 7.76016H36.8816C37.3616 7.76016 37.6816 7.36016 37.6816 6.96016C37.6816 6.56016 37.3616 6.16016 36.8816 6.16016Z" fill="white"/>
<path d="M42.8756 6.40016C42.7156 6.24016 42.4756 6.16016 42.3156 6.16016C42.1556 6.16016 41.9156 6.24016 41.7556 6.40016C41.5956 6.56016 41.5156 6.80016 41.5156 6.96016C41.5156 7.12016 41.5956 7.36016 41.7556 7.52016C42.0756 7.84016 42.6356 7.84016 42.8756 7.52016C43.0356 7.36016 43.1156 7.12016 43.1156 6.96016C43.1156 6.80016 43.0356 6.56016 42.8756 6.40016Z" fill="white"/>
<path d="M32.6381 10.96H30.8781C30.3981 10.96 30.0781 11.36 30.0781 11.76C30.0781 12.16 30.4781 12.56 30.8781 12.56H32.6381C33.1181 12.56 33.4381 12.16 33.4381 11.76C33.4381 11.36 33.1181 10.96 32.6381 10.96Z" fill="white"/>
<path d="M42.3181 10.96H36.8781C36.3981 10.96 36.0781 11.36 36.0781 11.76C36.0781 12.16 36.4781 12.56 36.8781 12.56H42.3181C42.7981 12.56 43.1181 12.16 43.1181 11.76C43.1181 11.36 42.7981 10.96 42.3181 10.96Z" fill="white"/>
<path d="M1.68031 48.6399C1.52031 48.4799 1.28031 48.3999 1.12031 48.3999C0.880313 48.3999 0.720313 48.4799 0.560312 48.6399C0.400312 48.7999 0.320312 48.9599 0.320312 49.1999C0.320312 49.4399 0.400312 49.5999 0.560312 49.7599C0.880313 50.0799 1.44031 50.0799 1.68031 49.7599C1.84031 49.5999 1.92031 49.3599 1.92031 49.1999C1.92031 49.0399 1.84031 48.7999 1.68031 48.6399Z" fill="white"/>
</g>
<defs>
<clipPath id="clip0_5684_32879">
<rect width="56" height="56" fill="white"/>
</clipPath>
</defs>
</svg>
