<svg width="56" height="56" viewBox="0 0 56 56" fill="none" xmlns="http://www.w3.org/2000/svg">
<g clip-path="url(#clip0_5684_32789)">
<path d="M47.5188 26.9599H55.1987C55.6787 26.9599 55.9987 26.6399 55.9987 26.1599C55.9987 25.6799 55.6787 25.3599 55.1987 25.3599H47.5188C47.0387 25.3599 46.7188 25.6799 46.7188 26.1599C46.7188 26.6399 47.1188 26.9599 47.5188 26.9599Z" fill="#127AFF"/>
<path d="M53.365 4.71973C53.125 4.71973 52.965 4.79973 52.805 4.95973L47.365 10.3997C47.045 10.7197 47.045 11.1997 47.365 11.5197C47.525 11.6797 47.685 11.7597 47.925 11.7597C48.165 11.7597 48.325 11.6797 48.485 11.5197L53.925 6.07973C54.085 5.91973 54.165 5.75973 54.165 5.51973C54.165 5.27973 54.085 5.11973 53.925 4.95973C53.765 4.79973 53.525 4.71973 53.365 4.71973Z" fill="#127AFF"/>
<path d="M53.365 47.52C53.605 47.52 53.765 47.44 53.925 47.28C54.085 47.12 54.165 46.96 54.165 46.72C54.165 46.48 54.085 46.32 53.925 46.16L48.485 40.72C48.325 40.56 48.165 40.48 47.925 40.48C47.685 40.48 47.525 40.56 47.365 40.72C47.045 41.04 47.045 41.52 47.365 41.84L52.805 47.28C52.885 47.44 53.125 47.52 53.365 47.52Z" fill="#127AFF"/>
<path d="M40.88 45.76C42.8 45.76 44.4 44.16 44.4 42.24V9.99998C44.4 8.07998 42.8 6.47998 40.88 6.47998C39.04 6.47998 37.6 7.83998 37.36 9.67998C36.16 10.88 29.6 16.72 18.24 16.72C18.08 16.72 18 16.72 17.84 16.72C11.12 16.72 6.88 17.36 4.16 18.8C1.36 20.16 0 22.48 0 26.16C0 29.76 1.36 32.16 4.16 33.6C4.88 33.84 5.6 34.16 6.4 34.4C8.8 36.8 10.16 40.8 10.48 46.48C10.64 49.12 12.8 51.2 15.44 51.2H18.32C19.84 51.2 21.12 49.92 21.12 48.4C21.12 46.88 19.84 45.6 18.32 45.6C17.92 45.6 17.52 45.28 17.52 44.88C17.44 43.84 17.28 42.16 17.04 40.48C17.6 40.4 18.48 40.24 19.28 39.84C21.04 39.04 22.16 37.68 22.4 35.92C26.96 36.56 30.48 38.08 32.56 39.28C35.12 40.72 36.72 42.16 37.28 42.72C37.6 44.4 39.12 45.76 40.88 45.76ZM38.96 9.99998C38.96 8.95998 39.84 8.07998 40.88 8.07998C41.92 8.07998 42.8 8.95998 42.8 9.99998V42.32C42.8 43.36 41.92 44.24 40.88 44.24C39.84 44.24 38.96 43.36 38.96 42.32V9.99998ZM18.32 47.28C18.96 47.28 19.52 47.84 19.52 48.48C19.52 49.12 18.96 49.68 18.32 49.68H15.44C13.68 49.68 12.16 48.24 12.08 46.48C11.84 41.52 10.8 37.76 8.96 35.04H9.04C10.48 35.28 12.16 35.44 14.16 35.52C14.72 36.72 15.68 39.6 16 45.04C16 46.24 17.04 47.28 18.32 47.28ZM20.88 35.76C20.72 36.96 20 37.84 18.72 38.4C18 38.72 17.28 38.88 16.8 38.88V38.8C16.56 37.68 16.32 36.8 16 35.92C15.92 35.76 15.92 35.68 15.92 35.68C16.48 35.68 17.04 35.68 17.68 35.68C18.64 35.6 19.76 35.6 20.88 35.76ZM37.36 40.48C36.16 39.52 34.88 38.64 33.52 37.84C29.12 35.36 24 34.08 18.72 34V24.88C18.72 24.4 18.4 24.08 17.92 24.08C17.44 24.08 17.12 24.4 17.12 24.88V34C16.24 34 15.2 33.92 14.88 33.92C10.24 33.76 7.04 33.12 5.04 32.08C2.64 30.96 1.6 29.12 1.6 26.16C1.6 23.12 2.56 21.36 4.88 20.16C7.2 18.96 11.12 18.4 17.04 18.32V21.6C17.04 22 17.44 22.4 17.84 22.4C18.24 22.4 18.64 22 18.64 21.6V18.32C25.36 18.24 30.4 16.16 33.44 14.48C34.88 13.68 36.16 12.8 37.28 11.92V40.48H37.36Z" fill="#127AFF"/>
</g>
<defs>
<clipPath id="clip0_5684_32789">
<rect width="56" height="56" fill="white"/>
</clipPath>
</defs>
</svg>
