<svg width="56" height="56" viewBox="0 0 56 56" fill="none" xmlns="http://www.w3.org/2000/svg">
<g clip-path="url(#clip0_5874_37078)">
<path d="M27.9963 0.160156C12.6362 0.160156 0.15625 12.6402 0.15625 28.0002C0.15625 43.3602 12.6362 55.8402 27.9963 55.8402C43.3563 55.8402 55.8363 43.3602 55.8363 28.0002C55.8363 12.6402 43.3563 0.160156 27.9963 0.160156ZM27.9963 54.2402C13.5162 54.2402 1.75625 42.4802 1.75625 28.0002C1.75625 13.5202 13.5162 1.76016 27.9963 1.76016C42.4762 1.76016 54.2363 13.5202 54.2363 28.0002C54.2363 42.4802 42.4762 54.2402 27.9963 54.2402Z" fill="#127AFF"/>
<path d="M27.9969 4.80005C15.1969 4.80005 4.79688 15.2 4.79688 28C4.79688 40.8 15.1969 51.2001 27.9969 51.2001C40.7969 51.2001 51.1969 40.8 51.1969 28C51.1969 15.2 40.7969 4.80005 27.9969 4.80005ZM27.9969 49.6C16.0769 49.6 6.39688 39.92 6.39688 28C6.39688 16.08 16.0769 6.40005 27.9969 6.40005C39.9169 6.40005 49.5969 16.08 49.5969 28C49.5969 39.92 39.9169 49.6 27.9969 49.6Z" fill="#127AFF"/>
<path d="M32.2379 32.0002L41.7579 15.3602C41.9179 15.0402 41.9179 14.6402 41.5979 14.4002C41.3579 14.1602 40.9579 14.0802 40.6379 14.2402L23.9979 23.7602C23.9179 23.8402 23.8379 23.9202 23.7579 24.0002L14.2379 40.7202C14.0779 41.0402 14.0779 41.4402 14.3979 41.6802C14.6379 41.9202 15.0379 42.0002 15.3579 41.8402L31.9979 32.2402C32.0779 32.1602 32.1579 32.0802 32.2379 32.0002ZM30.0779 31.5202L17.0379 38.9602L24.5579 25.7602L30.2379 31.4402L30.0779 31.5202ZM31.3579 30.2402L25.6779 24.5602L38.8779 17.0402L31.3579 30.2402Z" fill="#127AFF"/>
<path d="M13.0444 27.2H9.28438C8.80437 27.2 8.48438 27.6 8.48438 28C8.48438 28.48 8.88438 28.8 9.28438 28.8H13.0444C13.5244 28.8 13.8444 28.4 13.8444 28C13.8444 27.52 13.5244 27.2 13.0444 27.2Z" fill="#127AFF"/>
<path d="M46.6381 27.2H42.8781C42.3981 27.2 42.0781 27.6 42.0781 28C42.0781 28.48 42.4781 28.8 42.8781 28.8H46.6381C47.1181 28.8 47.4381 28.4 47.4381 28C47.4381 27.52 47.1181 27.2 46.6381 27.2Z" fill="#127AFF"/>
<path d="M28.0031 8.56006C27.5231 8.56006 27.2031 8.96006 27.2031 9.36006V13.1201C27.2031 13.6001 27.6031 13.9201 28.0031 13.9201C28.4031 13.9201 28.8031 13.5201 28.8031 13.1201V9.36006C28.8031 8.88006 28.4831 8.56006 28.0031 8.56006Z" fill="#127AFF"/>
<path d="M28.0031 42.1599C27.5231 42.1599 27.2031 42.5599 27.2031 42.9599V46.7199C27.2031 47.1999 27.6031 47.5199 28.0031 47.5199C28.4031 47.5199 28.8031 47.1199 28.8031 46.7199V42.9599C28.8031 42.4799 28.4831 42.1599 28.0031 42.1599Z" fill="#127AFF"/>
</g>
<defs>
<clipPath id="clip0_5874_37078">
<rect width="56" height="56" fill="white"/>
</clipPath>
</defs>
</svg>
